ISO-10303-21;
HEADER;
FILE_DESCRIPTION(('FreeCAD Model'),'2;1');
FILE_NAME('D:/Vitek/Work/freecad/SMD/C0603_simple.step',
  '2017-02-10T15:45:16',('Author'),(''),
  'Open CASCADE STEP processor 6.8','FreeCAD','Unknown');
FILE_SCHEMA(('AUTOMOTIVE_DESIGN_CC2 { 1 2 10303 214 -1 1 5 4 }'));
ENDSEC;
DATA;
#1 = APPLICATION_PROTOCOL_DEFINITION('committee draft',
  'automotive_design',1997,#2);
#2 = APPLICATION_CONTEXT(
  'core data for automotive mechanical design processes');
#3 = SHAPE_DEFINITION_REPRESENTATION(#4,#10);
#4 = PRODUCT_DEFINITION_SHAPE('','',#5);
#5 = PRODUCT_DEFINITION('design','',#6,#9);
#6 = PRODUCT_DEFINITION_FORMATION('','',#7);
#7 = PRODUCT('ASSEMBLY','ASSEMBLY','',(#8));
#8 = MECHANICAL_CONTEXT('',#2,'mechanical');
#9 = PRODUCT_DEFINITION_CONTEXT('part definition',#2,'design');
#10 = SHAPE_REPRESENTATION('',(#11,#15),#19);
#11 = AXIS2_PLACEMENT_3D('',#12,#13,#14);
#12 = CARTESIAN_POINT('',(0.E+000,0.E+000,0.E+000));
#13 = DIRECTION('',(0.E+000,0.E+000,1.));
#14 = DIRECTION('',(1.,0.E+000,-0.E+000));
#15 = AXIS2_PLACEMENT_3D('',#16,#17,#18);
#16 = CARTESIAN_POINT('',(0.E+000,0.E+000,0.E+000));
#17 = DIRECTION('',(0.E+000,0.E+000,1.));
#18 = DIRECTION('',(1.,0.E+000,0.E+000));
#19 = ( GEOMETRIC_REPRESENTATION_CONTEXT(3) 
GLOBAL_UNCERTAINTY_ASSIGNED_CONTEXT((#23)) GLOBAL_UNIT_ASSIGNED_CONTEXT(
(#20,#21,#22)) REPRESENTATION_CONTEXT('Context #1',
  '3D Context with UNIT and UNCERTAINTY') );
#20 = ( LENGTH_UNIT() NAMED_UNIT(*) SI_UNIT(.MILLI.,.METRE.) );
#21 = ( NAMED_UNIT(*) PLANE_ANGLE_UNIT() SI_UNIT($,.RADIAN.) );
#22 = ( NAMED_UNIT(*) SI_UNIT($,.STERADIAN.) SOLID_ANGLE_UNIT() );
#23 = UNCERTAINTY_MEASURE_WITH_UNIT(LENGTH_MEASURE(1.E-007),#20,
  'distance_accuracy_value','confusion accuracy');
#24 = PRODUCT_TYPE('part',$,(#7));
#25 = ADVANCED_BREP_SHAPE_REPRESENTATION('',(#11,#26),#1000);
#26 = MANIFOLD_SOLID_BREP('',#27);
#27 = CLOSED_SHELL('',(#28,#148,#224,#273,#436,#463,#470,#546,#595,#644,
    #671,#792,#868,#917,#966,#993));
#28 = ADVANCED_FACE('',(#29),#43,.F.);
#29 = FACE_BOUND('',#30,.F.);
#30 = EDGE_LOOP('',(#31,#66,#94,#122));
#31 = ORIENTED_EDGE('',*,*,#32,.F.);
#32 = EDGE_CURVE('',#33,#35,#37,.T.);
#33 = VERTEX_POINT('',#34);
#34 = CARTESIAN_POINT('',(-0.4,-0.8,0.E+000));
#35 = VERTEX_POINT('',#36);
#36 = CARTESIAN_POINT('',(-0.4,-0.8,0.8));
#37 = SURFACE_CURVE('',#38,(#42,#54),.PCURVE_S1.);
#38 = LINE('',#39,#40);
#39 = CARTESIAN_POINT('',(-0.4,-0.8,0.E+000));
#40 = VECTOR('',#41,1.);
#41 = DIRECTION('',(0.E+000,0.E+000,1.));
#42 = PCURVE('',#43,#48);
#43 = PLANE('',#44);
#44 = AXIS2_PLACEMENT_3D('',#45,#46,#47);
#45 = CARTESIAN_POINT('',(-0.4,-0.8,0.E+000));
#46 = DIRECTION('',(1.,0.E+000,0.E+000));
#47 = DIRECTION('',(0.E+000,0.E+000,1.));
#48 = DEFINITIONAL_REPRESENTATION('',(#49),#53);
#49 = LINE('',#50,#51);
#50 = CARTESIAN_POINT('',(0.E+000,0.E+000));
#51 = VECTOR('',#52,1.);
#52 = DIRECTION('',(1.,0.E+000));
#53 = ( GEOMETRIC_REPRESENTATION_CONTEXT(2) 
PARAMETRIC_REPRESENTATION_CONTEXT() REPRESENTATION_CONTEXT('2D SPACE',''
  ) );
#54 = PCURVE('',#55,#60);
#55 = PLANE('',#56);
#56 = AXIS2_PLACEMENT_3D('',#57,#58,#59);
#57 = CARTESIAN_POINT('',(-0.4,-0.8,0.E+000));
#58 = DIRECTION('',(0.E+000,1.,0.E+000));
#59 = DIRECTION('',(0.E+000,0.E+000,1.));
#60 = DEFINITIONAL_REPRESENTATION('',(#61),#65);
#61 = LINE('',#62,#63);
#62 = CARTESIAN_POINT('',(0.E+000,0.E+000));
#63 = VECTOR('',#64,1.);
#64 = DIRECTION('',(1.,0.E+000));
#65 = ( GEOMETRIC_REPRESENTATION_CONTEXT(2) 
PARAMETRIC_REPRESENTATION_CONTEXT() REPRESENTATION_CONTEXT('2D SPACE',''
  ) );
#66 = ORIENTED_EDGE('',*,*,#67,.T.);
#67 = EDGE_CURVE('',#33,#68,#70,.T.);
#68 = VERTEX_POINT('',#69);
#69 = CARTESIAN_POINT('',(-0.4,-0.4,0.E+000));
#70 = SURFACE_CURVE('',#71,(#75,#82),.PCURVE_S1.);
#71 = LINE('',#72,#73);
#72 = CARTESIAN_POINT('',(-0.4,-0.8,0.E+000));
#73 = VECTOR('',#74,1.);
#74 = DIRECTION('',(0.E+000,1.,0.E+000));
#75 = PCURVE('',#43,#76);
#76 = DEFINITIONAL_REPRESENTATION('',(#77),#81);
#77 = LINE('',#78,#79);
#78 = CARTESIAN_POINT('',(0.E+000,0.E+000));
#79 = VECTOR('',#80,1.);
#80 = DIRECTION('',(0.E+000,-1.));
#81 = ( GEOMETRIC_REPRESENTATION_CONTEXT(2) 
PARAMETRIC_REPRESENTATION_CONTEXT() REPRESENTATION_CONTEXT('2D SPACE',''
  ) );
#82 = PCURVE('',#83,#88);
#83 = PLANE('',#84);
#84 = AXIS2_PLACEMENT_3D('',#85,#86,#87);
#85 = CARTESIAN_POINT('',(-0.4,-0.8,0.E+000));
#86 = DIRECTION('',(0.E+000,0.E+000,1.));
#87 = DIRECTION('',(1.,0.E+000,0.E+000));
#88 = DEFINITIONAL_REPRESENTATION('',(#89),#93);
#89 = LINE('',#90,#91);
#90 = CARTESIAN_POINT('',(0.E+000,0.E+000));
#91 = VECTOR('',#92,1.);
#92 = DIRECTION('',(0.E+000,1.));
#93 = ( GEOMETRIC_REPRESENTATION_CONTEXT(2) 
PARAMETRIC_REPRESENTATION_CONTEXT() REPRESENTATION_CONTEXT('2D SPACE',''
  ) );
#94 = ORIENTED_EDGE('',*,*,#95,.T.);
#95 = EDGE_CURVE('',#68,#96,#98,.T.);
#96 = VERTEX_POINT('',#97);
#97 = CARTESIAN_POINT('',(-0.4,-0.4,0.8));
#98 = SURFACE_CURVE('',#99,(#103,#110),.PCURVE_S1.);
#99 = LINE('',#100,#101);
#100 = CARTESIAN_POINT('',(-0.4,-0.4,0.E+000));
#101 = VECTOR('',#102,1.);
#102 = DIRECTION('',(0.E+000,0.E+000,1.));
#103 = PCURVE('',#43,#104);
#104 = DEFINITIONAL_REPRESENTATION('',(#105),#109);
#105 = LINE('',#106,#107);
#106 = CARTESIAN_POINT('',(0.E+000,-0.4));
#107 = VECTOR('',#108,1.);
#108 = DIRECTION('',(1.,0.E+000));
#109 = ( GEOMETRIC_REPRESENTATION_CONTEXT(2) 
PARAMETRIC_REPRESENTATION_CONTEXT() REPRESENTATION_CONTEXT('2D SPACE',''
  ) );
#110 = PCURVE('',#111,#116);
#111 = PLANE('',#112);
#112 = AXIS2_PLACEMENT_3D('',#113,#114,#115);
#113 = CARTESIAN_POINT('',(-0.4,-0.4,0.E+000));
#114 = DIRECTION('',(0.E+000,1.,0.E+000));
#115 = DIRECTION('',(0.E+000,0.E+000,1.));
#116 = DEFINITIONAL_REPRESENTATION('',(#117),#121);
#117 = LINE('',#118,#119);
#118 = CARTESIAN_POINT('',(0.E+000,0.E+000));
#119 = VECTOR('',#120,1.);
#120 = DIRECTION('',(1.,0.E+000));
#121 = ( GEOMETRIC_REPRESENTATION_CONTEXT(2) 
PARAMETRIC_REPRESENTATION_CONTEXT() REPRESENTATION_CONTEXT('2D SPACE',''
  ) );
#122 = ORIENTED_EDGE('',*,*,#123,.F.);
#123 = EDGE_CURVE('',#35,#96,#124,.T.);
#124 = SURFACE_CURVE('',#125,(#129,#136),.PCURVE_S1.);
#125 = LINE('',#126,#127);
#126 = CARTESIAN_POINT('',(-0.4,-0.8,0.8));
#127 = VECTOR('',#128,1.);
#128 = DIRECTION('',(0.E+000,1.,0.E+000));
#129 = PCURVE('',#43,#130);
#130 = DEFINITIONAL_REPRESENTATION('',(#131),#135);
#131 = LINE('',#132,#133);
#132 = CARTESIAN_POINT('',(0.8,0.E+000));
#133 = VECTOR('',#134,1.);
#134 = DIRECTION('',(0.E+000,-1.));
#135 = ( GEOMETRIC_REPRESENTATION_CONTEXT(2) 
PARAMETRIC_REPRESENTATION_CONTEXT() REPRESENTATION_CONTEXT('2D SPACE',''
  ) );
#136 = PCURVE('',#137,#142);
#137 = PLANE('',#138);
#138 = AXIS2_PLACEMENT_3D('',#139,#140,#141);
#139 = CARTESIAN_POINT('',(-0.4,-0.8,0.8));
#140 = DIRECTION('',(0.E+000,0.E+000,1.));
#141 = DIRECTION('',(1.,0.E+000,0.E+000));
#142 = DEFINITIONAL_REPRESENTATION('',(#143),#147);
#143 = LINE('',#144,#145);
#144 = CARTESIAN_POINT('',(0.E+000,0.E+000));
#145 = VECTOR('',#146,1.);
#146 = DIRECTION('',(0.E+000,1.));
#147 = ( GEOMETRIC_REPRESENTATION_CONTEXT(2) 
PARAMETRIC_REPRESENTATION_CONTEXT() REPRESENTATION_CONTEXT('2D SPACE',''
  ) );
#148 = ADVANCED_FACE('',(#149),#55,.F.);
#149 = FACE_BOUND('',#150,.F.);
#150 = EDGE_LOOP('',(#151,#174,#175,#198));
#151 = ORIENTED_EDGE('',*,*,#152,.F.);
#152 = EDGE_CURVE('',#33,#153,#155,.T.);
#153 = VERTEX_POINT('',#154);
#154 = CARTESIAN_POINT('',(0.4,-0.8,0.E+000));
#155 = SURFACE_CURVE('',#156,(#160,#167),.PCURVE_S1.);
#156 = LINE('',#157,#158);
#157 = CARTESIAN_POINT('',(-0.4,-0.8,0.E+000));
#158 = VECTOR('',#159,1.);
#159 = DIRECTION('',(1.,0.E+000,0.E+000));
#160 = PCURVE('',#55,#161);
#161 = DEFINITIONAL_REPRESENTATION('',(#162),#166);
#162 = LINE('',#163,#164);
#163 = CARTESIAN_POINT('',(0.E+000,0.E+000));
#164 = VECTOR('',#165,1.);
#165 = DIRECTION('',(0.E+000,1.));
#166 = ( GEOMETRIC_REPRESENTATION_CONTEXT(2) 
PARAMETRIC_REPRESENTATION_CONTEXT() REPRESENTATION_CONTEXT('2D SPACE',''
  ) );
#167 = PCURVE('',#83,#168);
#168 = DEFINITIONAL_REPRESENTATION('',(#169),#173);
#169 = LINE('',#170,#171);
#170 = CARTESIAN_POINT('',(0.E+000,0.E+000));
#171 = VECTOR('',#172,1.);
#172 = DIRECTION('',(1.,0.E+000));
#173 = ( GEOMETRIC_REPRESENTATION_CONTEXT(2) 
PARAMETRIC_REPRESENTATION_CONTEXT() REPRESENTATION_CONTEXT('2D SPACE',''
  ) );
#174 = ORIENTED_EDGE('',*,*,#32,.T.);
#175 = ORIENTED_EDGE('',*,*,#176,.T.);
#176 = EDGE_CURVE('',#35,#177,#179,.T.);
#177 = VERTEX_POINT('',#178);
#178 = CARTESIAN_POINT('',(0.4,-0.8,0.8));
#179 = SURFACE_CURVE('',#180,(#184,#191),.PCURVE_S1.);
#180 = LINE('',#181,#182);
#181 = CARTESIAN_POINT('',(-0.4,-0.8,0.8));
#182 = VECTOR('',#183,1.);
#183 = DIRECTION('',(1.,0.E+000,0.E+000));
#184 = PCURVE('',#55,#185);
#185 = DEFINITIONAL_REPRESENTATION('',(#186),#190);
#186 = LINE('',#187,#188);
#187 = CARTESIAN_POINT('',(0.8,0.E+000));
#188 = VECTOR('',#189,1.);
#189 = DIRECTION('',(0.E+000,1.));
#190 = ( GEOMETRIC_REPRESENTATION_CONTEXT(2) 
PARAMETRIC_REPRESENTATION_CONTEXT() REPRESENTATION_CONTEXT('2D SPACE',''
  ) );
#191 = PCURVE('',#137,#192);
#192 = DEFINITIONAL_REPRESENTATION('',(#193),#197);
#193 = LINE('',#194,#195);
#194 = CARTESIAN_POINT('',(0.E+000,0.E+000));
#195 = VECTOR('',#196,1.);
#196 = DIRECTION('',(1.,0.E+000));
#197 = ( GEOMETRIC_REPRESENTATION_CONTEXT(2) 
PARAMETRIC_REPRESENTATION_CONTEXT() REPRESENTATION_CONTEXT('2D SPACE',''
  ) );
#198 = ORIENTED_EDGE('',*,*,#199,.F.);
#199 = EDGE_CURVE('',#153,#177,#200,.T.);
#200 = SURFACE_CURVE('',#201,(#205,#212),.PCURVE_S1.);
#201 = LINE('',#202,#203);
#202 = CARTESIAN_POINT('',(0.4,-0.8,0.E+000));
#203 = VECTOR('',#204,1.);
#204 = DIRECTION('',(0.E+000,0.E+000,1.));
#205 = PCURVE('',#55,#206);
#206 = DEFINITIONAL_REPRESENTATION('',(#207),#211);
#207 = LINE('',#208,#209);
#208 = CARTESIAN_POINT('',(0.E+000,0.8));
#209 = VECTOR('',#210,1.);
#210 = DIRECTION('',(1.,0.E+000));
#211 = ( GEOMETRIC_REPRESENTATION_CONTEXT(2) 
PARAMETRIC_REPRESENTATION_CONTEXT() REPRESENTATION_CONTEXT('2D SPACE',''
  ) );
#212 = PCURVE('',#213,#218);
#213 = PLANE('',#214);
#214 = AXIS2_PLACEMENT_3D('',#215,#216,#217);
#215 = CARTESIAN_POINT('',(0.4,-0.8,0.E+000));
#216 = DIRECTION('',(1.,0.E+000,0.E+000));
#217 = DIRECTION('',(0.E+000,0.E+000,1.));
#218 = DEFINITIONAL_REPRESENTATION('',(#219),#223);
#219 = LINE('',#220,#221);
#220 = CARTESIAN_POINT('',(0.E+000,0.E+000));
#221 = VECTOR('',#222,1.);
#222 = DIRECTION('',(1.,0.E+000));
#223 = ( GEOMETRIC_REPRESENTATION_CONTEXT(2) 
PARAMETRIC_REPRESENTATION_CONTEXT() REPRESENTATION_CONTEXT('2D SPACE',''
  ) );
#224 = ADVANCED_FACE('',(#225),#137,.T.);
#225 = FACE_BOUND('',#226,.T.);
#226 = EDGE_LOOP('',(#227,#228,#229,#252));
#227 = ORIENTED_EDGE('',*,*,#123,.F.);
#228 = ORIENTED_EDGE('',*,*,#176,.T.);
#229 = ORIENTED_EDGE('',*,*,#230,.T.);
#230 = EDGE_CURVE('',#177,#231,#233,.T.);
#231 = VERTEX_POINT('',#232);
#232 = CARTESIAN_POINT('',(0.4,-0.4,0.8));
#233 = SURFACE_CURVE('',#234,(#238,#245),.PCURVE_S1.);
#234 = LINE('',#235,#236);
#235 = CARTESIAN_POINT('',(0.4,-0.8,0.8));
#236 = VECTOR('',#237,1.);
#237 = DIRECTION('',(0.E+000,1.,0.E+000));
#238 = PCURVE('',#137,#239);
#239 = DEFINITIONAL_REPRESENTATION('',(#240),#244);
#240 = LINE('',#241,#242);
#241 = CARTESIAN_POINT('',(0.8,0.E+000));
#242 = VECTOR('',#243,1.);
#243 = DIRECTION('',(0.E+000,1.));
#244 = ( GEOMETRIC_REPRESENTATION_CONTEXT(2) 
PARAMETRIC_REPRESENTATION_CONTEXT() REPRESENTATION_CONTEXT('2D SPACE',''
  ) );
#245 = PCURVE('',#213,#246);
#246 = DEFINITIONAL_REPRESENTATION('',(#247),#251);
#247 = LINE('',#248,#249);
#248 = CARTESIAN_POINT('',(0.8,0.E+000));
#249 = VECTOR('',#250,1.);
#250 = DIRECTION('',(0.E+000,-1.));
#251 = ( GEOMETRIC_REPRESENTATION_CONTEXT(2) 
PARAMETRIC_REPRESENTATION_CONTEXT() REPRESENTATION_CONTEXT('2D SPACE',''
  ) );
#252 = ORIENTED_EDGE('',*,*,#253,.F.);
#253 = EDGE_CURVE('',#96,#231,#254,.T.);
#254 = SURFACE_CURVE('',#255,(#259,#266),.PCURVE_S1.);
#255 = LINE('',#256,#257);
#256 = CARTESIAN_POINT('',(-0.4,-0.4,0.8));
#257 = VECTOR('',#258,1.);
#258 = DIRECTION('',(1.,0.E+000,0.E+000));
#259 = PCURVE('',#137,#260);
#260 = DEFINITIONAL_REPRESENTATION('',(#261),#265);
#261 = LINE('',#262,#263);
#262 = CARTESIAN_POINT('',(0.E+000,0.4));
#263 = VECTOR('',#264,1.);
#264 = DIRECTION('',(1.,0.E+000));
#265 = ( GEOMETRIC_REPRESENTATION_CONTEXT(2) 
PARAMETRIC_REPRESENTATION_CONTEXT() REPRESENTATION_CONTEXT('2D SPACE',''
  ) );
#266 = PCURVE('',#111,#267);
#267 = DEFINITIONAL_REPRESENTATION('',(#268),#272);
#268 = LINE('',#269,#270);
#269 = CARTESIAN_POINT('',(0.8,0.E+000));
#270 = VECTOR('',#271,1.);
#271 = DIRECTION('',(0.E+000,1.));
#272 = ( GEOMETRIC_REPRESENTATION_CONTEXT(2) 
PARAMETRIC_REPRESENTATION_CONTEXT() REPRESENTATION_CONTEXT('2D SPACE',''
  ) );
#273 = ADVANCED_FACE('',(#274,#322),#111,.T.);
#274 = FACE_BOUND('',#275,.T.);
#275 = EDGE_LOOP('',(#276,#299,#300,#301));
#276 = ORIENTED_EDGE('',*,*,#277,.F.);
#277 = EDGE_CURVE('',#68,#278,#280,.T.);
#278 = VERTEX_POINT('',#279);
#279 = CARTESIAN_POINT('',(0.4,-0.4,0.E+000));
#280 = SURFACE_CURVE('',#281,(#285,#292),.PCURVE_S1.);
#281 = LINE('',#282,#283);
#282 = CARTESIAN_POINT('',(-0.4,-0.4,0.E+000));
#283 = VECTOR('',#284,1.);
#284 = DIRECTION('',(1.,0.E+000,0.E+000));
#285 = PCURVE('',#111,#286);
#286 = DEFINITIONAL_REPRESENTATION('',(#287),#291);
#287 = LINE('',#288,#289);
#288 = CARTESIAN_POINT('',(0.E+000,0.E+000));
#289 = VECTOR('',#290,1.);
#290 = DIRECTION('',(0.E+000,1.));
#291 = ( GEOMETRIC_REPRESENTATION_CONTEXT(2) 
PARAMETRIC_REPRESENTATION_CONTEXT() REPRESENTATION_CONTEXT('2D SPACE',''
  ) );
#292 = PCURVE('',#83,#293);
#293 = DEFINITIONAL_REPRESENTATION('',(#294),#298);
#294 = LINE('',#295,#296);
#295 = CARTESIAN_POINT('',(0.E+000,0.4));
#296 = VECTOR('',#297,1.);
#297 = DIRECTION('',(1.,0.E+000));
#298 = ( GEOMETRIC_REPRESENTATION_CONTEXT(2) 
PARAMETRIC_REPRESENTATION_CONTEXT() REPRESENTATION_CONTEXT('2D SPACE',''
  ) );
#299 = ORIENTED_EDGE('',*,*,#95,.T.);
#300 = ORIENTED_EDGE('',*,*,#253,.T.);
#301 = ORIENTED_EDGE('',*,*,#302,.F.);
#302 = EDGE_CURVE('',#278,#231,#303,.T.);
#303 = SURFACE_CURVE('',#304,(#308,#315),.PCURVE_S1.);
#304 = LINE('',#305,#306);
#305 = CARTESIAN_POINT('',(0.4,-0.4,0.E+000));
#306 = VECTOR('',#307,1.);
#307 = DIRECTION('',(0.E+000,0.E+000,1.));
#308 = PCURVE('',#111,#309);
#309 = DEFINITIONAL_REPRESENTATION('',(#310),#314);
#310 = LINE('',#311,#312);
#311 = CARTESIAN_POINT('',(0.E+000,0.8));
#312 = VECTOR('',#313,1.);
#313 = DIRECTION('',(1.,0.E+000));
#314 = ( GEOMETRIC_REPRESENTATION_CONTEXT(2) 
PARAMETRIC_REPRESENTATION_CONTEXT() REPRESENTATION_CONTEXT('2D SPACE',''
  ) );
#315 = PCURVE('',#213,#316);
#316 = DEFINITIONAL_REPRESENTATION('',(#317),#321);
#317 = LINE('',#318,#319);
#318 = CARTESIAN_POINT('',(0.E+000,-0.4));
#319 = VECTOR('',#320,1.);
#320 = DIRECTION('',(1.,0.E+000));
#321 = ( GEOMETRIC_REPRESENTATION_CONTEXT(2) 
PARAMETRIC_REPRESENTATION_CONTEXT() REPRESENTATION_CONTEXT('2D SPACE',''
  ) );
#322 = FACE_BOUND('',#323,.T.);
#323 = EDGE_LOOP('',(#324,#354,#382,#410));
#324 = ORIENTED_EDGE('',*,*,#325,.T.);
#325 = EDGE_CURVE('',#326,#328,#330,.T.);
#326 = VERTEX_POINT('',#327);
#327 = CARTESIAN_POINT('',(-0.35,-0.4,5.E-002));
#328 = VERTEX_POINT('',#329);
#329 = CARTESIAN_POINT('',(0.35,-0.4,5.E-002));
#330 = SURFACE_CURVE('',#331,(#335,#342),.PCURVE_S1.);
#331 = LINE('',#332,#333);
#332 = CARTESIAN_POINT('',(-0.35,-0.4,5.E-002));
#333 = VECTOR('',#334,1.);
#334 = DIRECTION('',(1.,0.E+000,0.E+000));
#335 = PCURVE('',#111,#336);
#336 = DEFINITIONAL_REPRESENTATION('',(#337),#341);
#337 = LINE('',#338,#339);
#338 = CARTESIAN_POINT('',(5.E-002,5.E-002));
#339 = VECTOR('',#340,1.);
#340 = DIRECTION('',(0.E+000,1.));
#341 = ( GEOMETRIC_REPRESENTATION_CONTEXT(2) 
PARAMETRIC_REPRESENTATION_CONTEXT() REPRESENTATION_CONTEXT('2D SPACE',''
  ) );
#342 = PCURVE('',#343,#348);
#343 = PLANE('',#344);
#344 = AXIS2_PLACEMENT_3D('',#345,#346,#347);
#345 = CARTESIAN_POINT('',(-0.35,-0.4,5.E-002));
#346 = DIRECTION('',(0.E+000,0.E+000,1.));
#347 = DIRECTION('',(1.,0.E+000,0.E+000));
#348 = DEFINITIONAL_REPRESENTATION('',(#349),#353);
#349 = LINE('',#350,#351);
#350 = CARTESIAN_POINT('',(0.E+000,0.E+000));
#351 = VECTOR('',#352,1.);
#352 = DIRECTION('',(1.,0.E+000));
#353 = ( GEOMETRIC_REPRESENTATION_CONTEXT(2) 
PARAMETRIC_REPRESENTATION_CONTEXT() REPRESENTATION_CONTEXT('2D SPACE',''
  ) );
#354 = ORIENTED_EDGE('',*,*,#355,.T.);
#355 = EDGE_CURVE('',#328,#356,#358,.T.);
#356 = VERTEX_POINT('',#357);
#357 = CARTESIAN_POINT('',(0.35,-0.4,0.75));
#358 = SURFACE_CURVE('',#359,(#363,#370),.PCURVE_S1.);
#359 = LINE('',#360,#361);
#360 = CARTESIAN_POINT('',(0.35,-0.4,5.E-002));
#361 = VECTOR('',#362,1.);
#362 = DIRECTION('',(0.E+000,0.E+000,1.));
#363 = PCURVE('',#111,#364);
#364 = DEFINITIONAL_REPRESENTATION('',(#365),#369);
#365 = LINE('',#366,#367);
#366 = CARTESIAN_POINT('',(5.E-002,0.75));
#367 = VECTOR('',#368,1.);
#368 = DIRECTION('',(1.,0.E+000));
#369 = ( GEOMETRIC_REPRESENTATION_CONTEXT(2) 
PARAMETRIC_REPRESENTATION_CONTEXT() REPRESENTATION_CONTEXT('2D SPACE',''
  ) );
#370 = PCURVE('',#371,#376);
#371 = PLANE('',#372);
#372 = AXIS2_PLACEMENT_3D('',#373,#374,#375);
#373 = CARTESIAN_POINT('',(0.35,-0.4,5.E-002));
#374 = DIRECTION('',(1.,0.E+000,0.E+000));
#375 = DIRECTION('',(0.E+000,0.E+000,1.));
#376 = DEFINITIONAL_REPRESENTATION('',(#377),#381);
#377 = LINE('',#378,#379);
#378 = CARTESIAN_POINT('',(0.E+000,0.E+000));
#379 = VECTOR('',#380,1.);
#380 = DIRECTION('',(1.,0.E+000));
#381 = ( GEOMETRIC_REPRESENTATION_CONTEXT(2) 
PARAMETRIC_REPRESENTATION_CONTEXT() REPRESENTATION_CONTEXT('2D SPACE',''
  ) );
#382 = ORIENTED_EDGE('',*,*,#383,.F.);
#383 = EDGE_CURVE('',#384,#356,#386,.T.);
#384 = VERTEX_POINT('',#385);
#385 = CARTESIAN_POINT('',(-0.35,-0.4,0.75));
#386 = SURFACE_CURVE('',#387,(#391,#398),.PCURVE_S1.);
#387 = LINE('',#388,#389);
#388 = CARTESIAN_POINT('',(-0.35,-0.4,0.75));
#389 = VECTOR('',#390,1.);
#390 = DIRECTION('',(1.,0.E+000,0.E+000));
#391 = PCURVE('',#111,#392);
#392 = DEFINITIONAL_REPRESENTATION('',(#393),#397);
#393 = LINE('',#394,#395);
#394 = CARTESIAN_POINT('',(0.75,5.E-002));
#395 = VECTOR('',#396,1.);
#396 = DIRECTION('',(0.E+000,1.));
#397 = ( GEOMETRIC_REPRESENTATION_CONTEXT(2) 
PARAMETRIC_REPRESENTATION_CONTEXT() REPRESENTATION_CONTEXT('2D SPACE',''
  ) );
#398 = PCURVE('',#399,#404);
#399 = PLANE('',#400);
#400 = AXIS2_PLACEMENT_3D('',#401,#402,#403);
#401 = CARTESIAN_POINT('',(-0.35,-0.4,0.75));
#402 = DIRECTION('',(0.E+000,0.E+000,1.));
#403 = DIRECTION('',(1.,0.E+000,0.E+000));
#404 = DEFINITIONAL_REPRESENTATION('',(#405),#409);
#405 = LINE('',#406,#407);
#406 = CARTESIAN_POINT('',(0.E+000,0.E+000));
#407 = VECTOR('',#408,1.);
#408 = DIRECTION('',(1.,0.E+000));
#409 = ( GEOMETRIC_REPRESENTATION_CONTEXT(2) 
PARAMETRIC_REPRESENTATION_CONTEXT() REPRESENTATION_CONTEXT('2D SPACE',''
  ) );
#410 = ORIENTED_EDGE('',*,*,#411,.F.);
#411 = EDGE_CURVE('',#326,#384,#412,.T.);
#412 = SURFACE_CURVE('',#413,(#417,#424),.PCURVE_S1.);
#413 = LINE('',#414,#415);
#414 = CARTESIAN_POINT('',(-0.35,-0.4,5.E-002));
#415 = VECTOR('',#416,1.);
#416 = DIRECTION('',(0.E+000,0.E+000,1.));
#417 = PCURVE('',#111,#418);
#418 = DEFINITIONAL_REPRESENTATION('',(#419),#423);
#419 = LINE('',#420,#421);
#420 = CARTESIAN_POINT('',(5.E-002,5.E-002));
#421 = VECTOR('',#422,1.);
#422 = DIRECTION('',(1.,0.E+000));
#423 = ( GEOMETRIC_REPRESENTATION_CONTEXT(2) 
PARAMETRIC_REPRESENTATION_CONTEXT() REPRESENTATION_CONTEXT('2D SPACE',''
  ) );
#424 = PCURVE('',#425,#430);
#425 = PLANE('',#426);
#426 = AXIS2_PLACEMENT_3D('',#427,#428,#429);
#427 = CARTESIAN_POINT('',(-0.35,-0.4,5.E-002));
#428 = DIRECTION('',(1.,0.E+000,0.E+000));
#429 = DIRECTION('',(0.E+000,0.E+000,1.));
#430 = DEFINITIONAL_REPRESENTATION('',(#431),#435);
#431 = LINE('',#432,#433);
#432 = CARTESIAN_POINT('',(0.E+000,0.E+000));
#433 = VECTOR('',#434,1.);
#434 = DIRECTION('',(1.,0.E+000));
#435 = ( GEOMETRIC_REPRESENTATION_CONTEXT(2) 
PARAMETRIC_REPRESENTATION_CONTEXT() REPRESENTATION_CONTEXT('2D SPACE',''
  ) );
#436 = ADVANCED_FACE('',(#437),#83,.F.);
#437 = FACE_BOUND('',#438,.F.);
#438 = EDGE_LOOP('',(#439,#440,#441,#462));
#439 = ORIENTED_EDGE('',*,*,#67,.F.);
#440 = ORIENTED_EDGE('',*,*,#152,.T.);
#441 = ORIENTED_EDGE('',*,*,#442,.T.);
#442 = EDGE_CURVE('',#153,#278,#443,.T.);
#443 = SURFACE_CURVE('',#444,(#448,#455),.PCURVE_S1.);
#444 = LINE('',#445,#446);
#445 = CARTESIAN_POINT('',(0.4,-0.8,0.E+000));
#446 = VECTOR('',#447,1.);
#447 = DIRECTION('',(0.E+000,1.,0.E+000));
#448 = PCURVE('',#83,#449);
#449 = DEFINITIONAL_REPRESENTATION('',(#450),#454);
#450 = LINE('',#451,#452);
#451 = CARTESIAN_POINT('',(0.8,0.E+000));
#452 = VECTOR('',#453,1.);
#453 = DIRECTION('',(0.E+000,1.));
#454 = ( GEOMETRIC_REPRESENTATION_CONTEXT(2) 
PARAMETRIC_REPRESENTATION_CONTEXT() REPRESENTATION_CONTEXT('2D SPACE',''
  ) );
#455 = PCURVE('',#213,#456);
#456 = DEFINITIONAL_REPRESENTATION('',(#457),#461);
#457 = LINE('',#458,#459);
#458 = CARTESIAN_POINT('',(0.E+000,0.E+000));
#459 = VECTOR('',#460,1.);
#460 = DIRECTION('',(0.E+000,-1.));
#461 = ( GEOMETRIC_REPRESENTATION_CONTEXT(2) 
PARAMETRIC_REPRESENTATION_CONTEXT() REPRESENTATION_CONTEXT('2D SPACE',''
  ) );
#462 = ORIENTED_EDGE('',*,*,#277,.F.);
#463 = ADVANCED_FACE('',(#464),#213,.T.);
#464 = FACE_BOUND('',#465,.T.);
#465 = EDGE_LOOP('',(#466,#467,#468,#469));
#466 = ORIENTED_EDGE('',*,*,#199,.F.);
#467 = ORIENTED_EDGE('',*,*,#442,.T.);
#468 = ORIENTED_EDGE('',*,*,#302,.T.);
#469 = ORIENTED_EDGE('',*,*,#230,.F.);
#470 = ADVANCED_FACE('',(#471),#343,.F.);
#471 = FACE_BOUND('',#472,.F.);
#472 = EDGE_LOOP('',(#473,#496,#497,#520));
#473 = ORIENTED_EDGE('',*,*,#474,.F.);
#474 = EDGE_CURVE('',#326,#475,#477,.T.);
#475 = VERTEX_POINT('',#476);
#476 = CARTESIAN_POINT('',(-0.35,0.4,5.E-002));
#477 = SURFACE_CURVE('',#478,(#482,#489),.PCURVE_S1.);
#478 = LINE('',#479,#480);
#479 = CARTESIAN_POINT('',(-0.35,-0.4,5.E-002));
#480 = VECTOR('',#481,1.);
#481 = DIRECTION('',(0.E+000,1.,0.E+000));
#482 = PCURVE('',#343,#483);
#483 = DEFINITIONAL_REPRESENTATION('',(#484),#488);
#484 = LINE('',#485,#486);
#485 = CARTESIAN_POINT('',(0.E+000,0.E+000));
#486 = VECTOR('',#487,1.);
#487 = DIRECTION('',(0.E+000,1.));
#488 = ( GEOMETRIC_REPRESENTATION_CONTEXT(2) 
PARAMETRIC_REPRESENTATION_CONTEXT() REPRESENTATION_CONTEXT('2D SPACE',''
  ) );
#489 = PCURVE('',#425,#490);
#490 = DEFINITIONAL_REPRESENTATION('',(#491),#495);
#491 = LINE('',#492,#493);
#492 = CARTESIAN_POINT('',(0.E+000,0.E+000));
#493 = VECTOR('',#494,1.);
#494 = DIRECTION('',(0.E+000,-1.));
#495 = ( GEOMETRIC_REPRESENTATION_CONTEXT(2) 
PARAMETRIC_REPRESENTATION_CONTEXT() REPRESENTATION_CONTEXT('2D SPACE',''
  ) );
#496 = ORIENTED_EDGE('',*,*,#325,.T.);
#497 = ORIENTED_EDGE('',*,*,#498,.T.);
#498 = EDGE_CURVE('',#328,#499,#501,.T.);
#499 = VERTEX_POINT('',#500);
#500 = CARTESIAN_POINT('',(0.35,0.4,5.E-002));
#501 = SURFACE_CURVE('',#502,(#506,#513),.PCURVE_S1.);
#502 = LINE('',#503,#504);
#503 = CARTESIAN_POINT('',(0.35,-0.4,5.E-002));
#504 = VECTOR('',#505,1.);
#505 = DIRECTION('',(0.E+000,1.,0.E+000));
#506 = PCURVE('',#343,#507);
#507 = DEFINITIONAL_REPRESENTATION('',(#508),#512);
#508 = LINE('',#509,#510);
#509 = CARTESIAN_POINT('',(0.7,0.E+000));
#510 = VECTOR('',#511,1.);
#511 = DIRECTION('',(0.E+000,1.));
#512 = ( GEOMETRIC_REPRESENTATION_CONTEXT(2) 
PARAMETRIC_REPRESENTATION_CONTEXT() REPRESENTATION_CONTEXT('2D SPACE',''
  ) );
#513 = PCURVE('',#371,#514);
#514 = DEFINITIONAL_REPRESENTATION('',(#515),#519);
#515 = LINE('',#516,#517);
#516 = CARTESIAN_POINT('',(0.E+000,0.E+000));
#517 = VECTOR('',#518,1.);
#518 = DIRECTION('',(0.E+000,-1.));
#519 = ( GEOMETRIC_REPRESENTATION_CONTEXT(2) 
PARAMETRIC_REPRESENTATION_CONTEXT() REPRESENTATION_CONTEXT('2D SPACE',''
  ) );
#520 = ORIENTED_EDGE('',*,*,#521,.F.);
#521 = EDGE_CURVE('',#475,#499,#522,.T.);
#522 = SURFACE_CURVE('',#523,(#527,#534),.PCURVE_S1.);
#523 = LINE('',#524,#525);
#524 = CARTESIAN_POINT('',(-0.35,0.4,5.E-002));
#525 = VECTOR('',#526,1.);
#526 = DIRECTION('',(1.,0.E+000,0.E+000));
#527 = PCURVE('',#343,#528);
#528 = DEFINITIONAL_REPRESENTATION('',(#529),#533);
#529 = LINE('',#530,#531);
#530 = CARTESIAN_POINT('',(0.E+000,0.8));
#531 = VECTOR('',#532,1.);
#532 = DIRECTION('',(1.,0.E+000));
#533 = ( GEOMETRIC_REPRESENTATION_CONTEXT(2) 
PARAMETRIC_REPRESENTATION_CONTEXT() REPRESENTATION_CONTEXT('2D SPACE',''
  ) );
#534 = PCURVE('',#535,#540);
#535 = PLANE('',#536);
#536 = AXIS2_PLACEMENT_3D('',#537,#538,#539);
#537 = CARTESIAN_POINT('',(-0.4,0.4,0.E+000));
#538 = DIRECTION('',(0.E+000,1.,0.E+000));
#539 = DIRECTION('',(0.E+000,0.E+000,1.));
#540 = DEFINITIONAL_REPRESENTATION('',(#541),#545);
#541 = LINE('',#542,#543);
#542 = CARTESIAN_POINT('',(5.E-002,5.E-002));
#543 = VECTOR('',#544,1.);
#544 = DIRECTION('',(0.E+000,1.));
#545 = ( GEOMETRIC_REPRESENTATION_CONTEXT(2) 
PARAMETRIC_REPRESENTATION_CONTEXT() REPRESENTATION_CONTEXT('2D SPACE',''
  ) );
#546 = ADVANCED_FACE('',(#547),#425,.F.);
#547 = FACE_BOUND('',#548,.F.);
#548 = EDGE_LOOP('',(#549,#550,#551,#574));
#549 = ORIENTED_EDGE('',*,*,#411,.F.);
#550 = ORIENTED_EDGE('',*,*,#474,.T.);
#551 = ORIENTED_EDGE('',*,*,#552,.T.);
#552 = EDGE_CURVE('',#475,#553,#555,.T.);
#553 = VERTEX_POINT('',#554);
#554 = CARTESIAN_POINT('',(-0.35,0.4,0.75));
#555 = SURFACE_CURVE('',#556,(#560,#567),.PCURVE_S1.);
#556 = LINE('',#557,#558);
#557 = CARTESIAN_POINT('',(-0.35,0.4,5.E-002));
#558 = VECTOR('',#559,1.);
#559 = DIRECTION('',(0.E+000,0.E+000,1.));
#560 = PCURVE('',#425,#561);
#561 = DEFINITIONAL_REPRESENTATION('',(#562),#566);
#562 = LINE('',#563,#564);
#563 = CARTESIAN_POINT('',(0.E+000,-0.8));
#564 = VECTOR('',#565,1.);
#565 = DIRECTION('',(1.,0.E+000));
#566 = ( GEOMETRIC_REPRESENTATION_CONTEXT(2) 
PARAMETRIC_REPRESENTATION_CONTEXT() REPRESENTATION_CONTEXT('2D SPACE',''
  ) );
#567 = PCURVE('',#535,#568);
#568 = DEFINITIONAL_REPRESENTATION('',(#569),#573);
#569 = LINE('',#570,#571);
#570 = CARTESIAN_POINT('',(5.E-002,5.E-002));
#571 = VECTOR('',#572,1.);
#572 = DIRECTION('',(1.,0.E+000));
#573 = ( GEOMETRIC_REPRESENTATION_CONTEXT(2) 
PARAMETRIC_REPRESENTATION_CONTEXT() REPRESENTATION_CONTEXT('2D SPACE',''
  ) );
#574 = ORIENTED_EDGE('',*,*,#575,.F.);
#575 = EDGE_CURVE('',#384,#553,#576,.T.);
#576 = SURFACE_CURVE('',#577,(#581,#588),.PCURVE_S1.);
#577 = LINE('',#578,#579);
#578 = CARTESIAN_POINT('',(-0.35,-0.4,0.75));
#579 = VECTOR('',#580,1.);
#580 = DIRECTION('',(0.E+000,1.,0.E+000));
#581 = PCURVE('',#425,#582);
#582 = DEFINITIONAL_REPRESENTATION('',(#583),#587);
#583 = LINE('',#584,#585);
#584 = CARTESIAN_POINT('',(0.7,0.E+000));
#585 = VECTOR('',#586,1.);
#586 = DIRECTION('',(0.E+000,-1.));
#587 = ( GEOMETRIC_REPRESENTATION_CONTEXT(2) 
PARAMETRIC_REPRESENTATION_CONTEXT() REPRESENTATION_CONTEXT('2D SPACE',''
  ) );
#588 = PCURVE('',#399,#589);
#589 = DEFINITIONAL_REPRESENTATION('',(#590),#594);
#590 = LINE('',#591,#592);
#591 = CARTESIAN_POINT('',(0.E+000,0.E+000));
#592 = VECTOR('',#593,1.);
#593 = DIRECTION('',(0.E+000,1.));
#594 = ( GEOMETRIC_REPRESENTATION_CONTEXT(2) 
PARAMETRIC_REPRESENTATION_CONTEXT() REPRESENTATION_CONTEXT('2D SPACE',''
  ) );
#595 = ADVANCED_FACE('',(#596),#399,.T.);
#596 = FACE_BOUND('',#597,.T.);
#597 = EDGE_LOOP('',(#598,#599,#600,#623));
#598 = ORIENTED_EDGE('',*,*,#575,.F.);
#599 = ORIENTED_EDGE('',*,*,#383,.T.);
#600 = ORIENTED_EDGE('',*,*,#601,.T.);
#601 = EDGE_CURVE('',#356,#602,#604,.T.);
#602 = VERTEX_POINT('',#603);
#603 = CARTESIAN_POINT('',(0.35,0.4,0.75));
#604 = SURFACE_CURVE('',#605,(#609,#616),.PCURVE_S1.);
#605 = LINE('',#606,#607);
#606 = CARTESIAN_POINT('',(0.35,-0.4,0.75));
#607 = VECTOR('',#608,1.);
#608 = DIRECTION('',(0.E+000,1.,0.E+000));
#609 = PCURVE('',#399,#610);
#610 = DEFINITIONAL_REPRESENTATION('',(#611),#615);
#611 = LINE('',#612,#613);
#612 = CARTESIAN_POINT('',(0.7,0.E+000));
#613 = VECTOR('',#614,1.);
#614 = DIRECTION('',(0.E+000,1.));
#615 = ( GEOMETRIC_REPRESENTATION_CONTEXT(2) 
PARAMETRIC_REPRESENTATION_CONTEXT() REPRESENTATION_CONTEXT('2D SPACE',''
  ) );
#616 = PCURVE('',#371,#617);
#617 = DEFINITIONAL_REPRESENTATION('',(#618),#622);
#618 = LINE('',#619,#620);
#619 = CARTESIAN_POINT('',(0.7,0.E+000));
#620 = VECTOR('',#621,1.);
#621 = DIRECTION('',(0.E+000,-1.));
#622 = ( GEOMETRIC_REPRESENTATION_CONTEXT(2) 
PARAMETRIC_REPRESENTATION_CONTEXT() REPRESENTATION_CONTEXT('2D SPACE',''
  ) );
#623 = ORIENTED_EDGE('',*,*,#624,.F.);
#624 = EDGE_CURVE('',#553,#602,#625,.T.);
#625 = SURFACE_CURVE('',#626,(#630,#637),.PCURVE_S1.);
#626 = LINE('',#627,#628);
#627 = CARTESIAN_POINT('',(-0.35,0.4,0.75));
#628 = VECTOR('',#629,1.);
#629 = DIRECTION('',(1.,0.E+000,0.E+000));
#630 = PCURVE('',#399,#631);
#631 = DEFINITIONAL_REPRESENTATION('',(#632),#636);
#632 = LINE('',#633,#634);
#633 = CARTESIAN_POINT('',(0.E+000,0.8));
#634 = VECTOR('',#635,1.);
#635 = DIRECTION('',(1.,0.E+000));
#636 = ( GEOMETRIC_REPRESENTATION_CONTEXT(2) 
PARAMETRIC_REPRESENTATION_CONTEXT() REPRESENTATION_CONTEXT('2D SPACE',''
  ) );
#637 = PCURVE('',#535,#638);
#638 = DEFINITIONAL_REPRESENTATION('',(#639),#643);
#639 = LINE('',#640,#641);
#640 = CARTESIAN_POINT('',(0.75,5.E-002));
#641 = VECTOR('',#642,1.);
#642 = DIRECTION('',(0.E+000,1.));
#643 = ( GEOMETRIC_REPRESENTATION_CONTEXT(2) 
PARAMETRIC_REPRESENTATION_CONTEXT() REPRESENTATION_CONTEXT('2D SPACE',''
  ) );
#644 = ADVANCED_FACE('',(#645),#371,.T.);
#645 = FACE_BOUND('',#646,.T.);
#646 = EDGE_LOOP('',(#647,#648,#649,#670));
#647 = ORIENTED_EDGE('',*,*,#355,.F.);
#648 = ORIENTED_EDGE('',*,*,#498,.T.);
#649 = ORIENTED_EDGE('',*,*,#650,.T.);
#650 = EDGE_CURVE('',#499,#602,#651,.T.);
#651 = SURFACE_CURVE('',#652,(#656,#663),.PCURVE_S1.);
#652 = LINE('',#653,#654);
#653 = CARTESIAN_POINT('',(0.35,0.4,5.E-002));
#654 = VECTOR('',#655,1.);
#655 = DIRECTION('',(0.E+000,0.E+000,1.));
#656 = PCURVE('',#371,#657);
#657 = DEFINITIONAL_REPRESENTATION('',(#658),#662);
#658 = LINE('',#659,#660);
#659 = CARTESIAN_POINT('',(0.E+000,-0.8));
#660 = VECTOR('',#661,1.);
#661 = DIRECTION('',(1.,0.E+000));
#662 = ( GEOMETRIC_REPRESENTATION_CONTEXT(2) 
PARAMETRIC_REPRESENTATION_CONTEXT() REPRESENTATION_CONTEXT('2D SPACE',''
  ) );
#663 = PCURVE('',#535,#664);
#664 = DEFINITIONAL_REPRESENTATION('',(#665),#669);
#665 = LINE('',#666,#667);
#666 = CARTESIAN_POINT('',(5.E-002,0.75));
#667 = VECTOR('',#668,1.);
#668 = DIRECTION('',(1.,0.E+000));
#669 = ( GEOMETRIC_REPRESENTATION_CONTEXT(2) 
PARAMETRIC_REPRESENTATION_CONTEXT() REPRESENTATION_CONTEXT('2D SPACE',''
  ) );
#670 = ORIENTED_EDGE('',*,*,#601,.F.);
#671 = ADVANCED_FACE('',(#672,#786),#535,.F.);
#672 = FACE_BOUND('',#673,.F.);
#673 = EDGE_LOOP('',(#674,#704,#732,#760));
#674 = ORIENTED_EDGE('',*,*,#675,.F.);
#675 = EDGE_CURVE('',#676,#678,#680,.T.);
#676 = VERTEX_POINT('',#677);
#677 = CARTESIAN_POINT('',(-0.4,0.4,0.E+000));
#678 = VERTEX_POINT('',#679);
#679 = CARTESIAN_POINT('',(0.4,0.4,0.E+000));
#680 = SURFACE_CURVE('',#681,(#685,#692),.PCURVE_S1.);
#681 = LINE('',#682,#683);
#682 = CARTESIAN_POINT('',(-0.4,0.4,0.E+000));
#683 = VECTOR('',#684,1.);
#684 = DIRECTION('',(1.,0.E+000,0.E+000));
#685 = PCURVE('',#535,#686);
#686 = DEFINITIONAL_REPRESENTATION('',(#687),#691);
#687 = LINE('',#688,#689);
#688 = CARTESIAN_POINT('',(0.E+000,0.E+000));
#689 = VECTOR('',#690,1.);
#690 = DIRECTION('',(0.E+000,1.));
#691 = ( GEOMETRIC_REPRESENTATION_CONTEXT(2) 
PARAMETRIC_REPRESENTATION_CONTEXT() REPRESENTATION_CONTEXT('2D SPACE',''
  ) );
#692 = PCURVE('',#693,#698);
#693 = PLANE('',#694);
#694 = AXIS2_PLACEMENT_3D('',#695,#696,#697);
#695 = CARTESIAN_POINT('',(-0.4,0.4,0.E+000));
#696 = DIRECTION('',(0.E+000,0.E+000,1.));
#697 = DIRECTION('',(1.,0.E+000,0.E+000));
#698 = DEFINITIONAL_REPRESENTATION('',(#699),#703);
#699 = LINE('',#700,#701);
#700 = CARTESIAN_POINT('',(0.E+000,0.E+000));
#701 = VECTOR('',#702,1.);
#702 = DIRECTION('',(1.,0.E+000));
#703 = ( GEOMETRIC_REPRESENTATION_CONTEXT(2) 
PARAMETRIC_REPRESENTATION_CONTEXT() REPRESENTATION_CONTEXT('2D SPACE',''
  ) );
#704 = ORIENTED_EDGE('',*,*,#705,.T.);
#705 = EDGE_CURVE('',#676,#706,#708,.T.);
#706 = VERTEX_POINT('',#707);
#707 = CARTESIAN_POINT('',(-0.4,0.4,0.8));
#708 = SURFACE_CURVE('',#709,(#713,#720),.PCURVE_S1.);
#709 = LINE('',#710,#711);
#710 = CARTESIAN_POINT('',(-0.4,0.4,0.E+000));
#711 = VECTOR('',#712,1.);
#712 = DIRECTION('',(0.E+000,0.E+000,1.));
#713 = PCURVE('',#535,#714);
#714 = DEFINITIONAL_REPRESENTATION('',(#715),#719);
#715 = LINE('',#716,#717);
#716 = CARTESIAN_POINT('',(0.E+000,0.E+000));
#717 = VECTOR('',#718,1.);
#718 = DIRECTION('',(1.,0.E+000));
#719 = ( GEOMETRIC_REPRESENTATION_CONTEXT(2) 
PARAMETRIC_REPRESENTATION_CONTEXT() REPRESENTATION_CONTEXT('2D SPACE',''
  ) );
#720 = PCURVE('',#721,#726);
#721 = PLANE('',#722);
#722 = AXIS2_PLACEMENT_3D('',#723,#724,#725);
#723 = CARTESIAN_POINT('',(-0.4,0.4,0.E+000));
#724 = DIRECTION('',(1.,0.E+000,0.E+000));
#725 = DIRECTION('',(0.E+000,0.E+000,1.));
#726 = DEFINITIONAL_REPRESENTATION('',(#727),#731);
#727 = LINE('',#728,#729);
#728 = CARTESIAN_POINT('',(0.E+000,0.E+000));
#729 = VECTOR('',#730,1.);
#730 = DIRECTION('',(1.,0.E+000));
#731 = ( GEOMETRIC_REPRESENTATION_CONTEXT(2) 
PARAMETRIC_REPRESENTATION_CONTEXT() REPRESENTATION_CONTEXT('2D SPACE',''
  ) );
#732 = ORIENTED_EDGE('',*,*,#733,.T.);
#733 = EDGE_CURVE('',#706,#734,#736,.T.);
#734 = VERTEX_POINT('',#735);
#735 = CARTESIAN_POINT('',(0.4,0.4,0.8));
#736 = SURFACE_CURVE('',#737,(#741,#748),.PCURVE_S1.);
#737 = LINE('',#738,#739);
#738 = CARTESIAN_POINT('',(-0.4,0.4,0.8));
#739 = VECTOR('',#740,1.);
#740 = DIRECTION('',(1.,0.E+000,0.E+000));
#741 = PCURVE('',#535,#742);
#742 = DEFINITIONAL_REPRESENTATION('',(#743),#747);
#743 = LINE('',#744,#745);
#744 = CARTESIAN_POINT('',(0.8,0.E+000));
#745 = VECTOR('',#746,1.);
#746 = DIRECTION('',(0.E+000,1.));
#747 = ( GEOMETRIC_REPRESENTATION_CONTEXT(2) 
PARAMETRIC_REPRESENTATION_CONTEXT() REPRESENTATION_CONTEXT('2D SPACE',''
  ) );
#748 = PCURVE('',#749,#754);
#749 = PLANE('',#750);
#750 = AXIS2_PLACEMENT_3D('',#751,#752,#753);
#751 = CARTESIAN_POINT('',(-0.4,0.4,0.8));
#752 = DIRECTION('',(0.E+000,0.E+000,1.));
#753 = DIRECTION('',(1.,0.E+000,0.E+000));
#754 = DEFINITIONAL_REPRESENTATION('',(#755),#759);
#755 = LINE('',#756,#757);
#756 = CARTESIAN_POINT('',(0.E+000,0.E+000));
#757 = VECTOR('',#758,1.);
#758 = DIRECTION('',(1.,0.E+000));
#759 = ( GEOMETRIC_REPRESENTATION_CONTEXT(2) 
PARAMETRIC_REPRESENTATION_CONTEXT() REPRESENTATION_CONTEXT('2D SPACE',''
  ) );
#760 = ORIENTED_EDGE('',*,*,#761,.F.);
#761 = EDGE_CURVE('',#678,#734,#762,.T.);
#762 = SURFACE_CURVE('',#763,(#767,#774),.PCURVE_S1.);
#763 = LINE('',#764,#765);
#764 = CARTESIAN_POINT('',(0.4,0.4,0.E+000));
#765 = VECTOR('',#766,1.);
#766 = DIRECTION('',(0.E+000,0.E+000,1.));
#767 = PCURVE('',#535,#768);
#768 = DEFINITIONAL_REPRESENTATION('',(#769),#773);
#769 = LINE('',#770,#771);
#770 = CARTESIAN_POINT('',(0.E+000,0.8));
#771 = VECTOR('',#772,1.);
#772 = DIRECTION('',(1.,0.E+000));
#773 = ( GEOMETRIC_REPRESENTATION_CONTEXT(2) 
PARAMETRIC_REPRESENTATION_CONTEXT() REPRESENTATION_CONTEXT('2D SPACE',''
  ) );
#774 = PCURVE('',#775,#780);
#775 = PLANE('',#776);
#776 = AXIS2_PLACEMENT_3D('',#777,#778,#779);
#777 = CARTESIAN_POINT('',(0.4,0.4,0.E+000));
#778 = DIRECTION('',(1.,0.E+000,0.E+000));
#779 = DIRECTION('',(0.E+000,0.E+000,1.));
#780 = DEFINITIONAL_REPRESENTATION('',(#781),#785);
#781 = LINE('',#782,#783);
#782 = CARTESIAN_POINT('',(0.E+000,0.E+000));
#783 = VECTOR('',#784,1.);
#784 = DIRECTION('',(1.,0.E+000));
#785 = ( GEOMETRIC_REPRESENTATION_CONTEXT(2) 
PARAMETRIC_REPRESENTATION_CONTEXT() REPRESENTATION_CONTEXT('2D SPACE',''
  ) );
#786 = FACE_BOUND('',#787,.F.);
#787 = EDGE_LOOP('',(#788,#789,#790,#791));
#788 = ORIENTED_EDGE('',*,*,#624,.F.);
#789 = ORIENTED_EDGE('',*,*,#552,.F.);
#790 = ORIENTED_EDGE('',*,*,#521,.T.);
#791 = ORIENTED_EDGE('',*,*,#650,.T.);
#792 = ADVANCED_FACE('',(#793),#693,.F.);
#793 = FACE_BOUND('',#794,.F.);
#794 = EDGE_LOOP('',(#795,#818,#819,#842));
#795 = ORIENTED_EDGE('',*,*,#796,.F.);
#796 = EDGE_CURVE('',#676,#797,#799,.T.);
#797 = VERTEX_POINT('',#798);
#798 = CARTESIAN_POINT('',(-0.4,0.8,0.E+000));
#799 = SURFACE_CURVE('',#800,(#804,#811),.PCURVE_S1.);
#800 = LINE('',#801,#802);
#801 = CARTESIAN_POINT('',(-0.4,0.4,0.E+000));
#802 = VECTOR('',#803,1.);
#803 = DIRECTION('',(0.E+000,1.,0.E+000));
#804 = PCURVE('',#693,#805);
#805 = DEFINITIONAL_REPRESENTATION('',(#806),#810);
#806 = LINE('',#807,#808);
#807 = CARTESIAN_POINT('',(0.E+000,0.E+000));
#808 = VECTOR('',#809,1.);
#809 = DIRECTION('',(0.E+000,1.));
#810 = ( GEOMETRIC_REPRESENTATION_CONTEXT(2) 
PARAMETRIC_REPRESENTATION_CONTEXT() REPRESENTATION_CONTEXT('2D SPACE',''
  ) );
#811 = PCURVE('',#721,#812);
#812 = DEFINITIONAL_REPRESENTATION('',(#813),#817);
#813 = LINE('',#814,#815);
#814 = CARTESIAN_POINT('',(0.E+000,0.E+000));
#815 = VECTOR('',#816,1.);
#816 = DIRECTION('',(0.E+000,-1.));
#817 = ( GEOMETRIC_REPRESENTATION_CONTEXT(2) 
PARAMETRIC_REPRESENTATION_CONTEXT() REPRESENTATION_CONTEXT('2D SPACE',''
  ) );
#818 = ORIENTED_EDGE('',*,*,#675,.T.);
#819 = ORIENTED_EDGE('',*,*,#820,.T.);
#820 = EDGE_CURVE('',#678,#821,#823,.T.);
#821 = VERTEX_POINT('',#822);
#822 = CARTESIAN_POINT('',(0.4,0.8,0.E+000));
#823 = SURFACE_CURVE('',#824,(#828,#835),.PCURVE_S1.);
#824 = LINE('',#825,#826);
#825 = CARTESIAN_POINT('',(0.4,0.4,0.E+000));
#826 = VECTOR('',#827,1.);
#827 = DIRECTION('',(0.E+000,1.,0.E+000));
#828 = PCURVE('',#693,#829);
#829 = DEFINITIONAL_REPRESENTATION('',(#830),#834);
#830 = LINE('',#831,#832);
#831 = CARTESIAN_POINT('',(0.8,0.E+000));
#832 = VECTOR('',#833,1.);
#833 = DIRECTION('',(0.E+000,1.));
#834 = ( GEOMETRIC_REPRESENTATION_CONTEXT(2) 
PARAMETRIC_REPRESENTATION_CONTEXT() REPRESENTATION_CONTEXT('2D SPACE',''
  ) );
#835 = PCURVE('',#775,#836);
#836 = DEFINITIONAL_REPRESENTATION('',(#837),#841);
#837 = LINE('',#838,#839);
#838 = CARTESIAN_POINT('',(0.E+000,0.E+000));
#839 = VECTOR('',#840,1.);
#840 = DIRECTION('',(0.E+000,-1.));
#841 = ( GEOMETRIC_REPRESENTATION_CONTEXT(2) 
PARAMETRIC_REPRESENTATION_CONTEXT() REPRESENTATION_CONTEXT('2D SPACE',''
  ) );
#842 = ORIENTED_EDGE('',*,*,#843,.F.);
#843 = EDGE_CURVE('',#797,#821,#844,.T.);
#844 = SURFACE_CURVE('',#845,(#849,#856),.PCURVE_S1.);
#845 = LINE('',#846,#847);
#846 = CARTESIAN_POINT('',(-0.4,0.8,0.E+000));
#847 = VECTOR('',#848,1.);
#848 = DIRECTION('',(1.,0.E+000,0.E+000));
#849 = PCURVE('',#693,#850);
#850 = DEFINITIONAL_REPRESENTATION('',(#851),#855);
#851 = LINE('',#852,#853);
#852 = CARTESIAN_POINT('',(0.E+000,0.4));
#853 = VECTOR('',#854,1.);
#854 = DIRECTION('',(1.,0.E+000));
#855 = ( GEOMETRIC_REPRESENTATION_CONTEXT(2) 
PARAMETRIC_REPRESENTATION_CONTEXT() REPRESENTATION_CONTEXT('2D SPACE',''
  ) );
#856 = PCURVE('',#857,#862);
#857 = PLANE('',#858);
#858 = AXIS2_PLACEMENT_3D('',#859,#860,#861);
#859 = CARTESIAN_POINT('',(-0.4,0.8,0.E+000));
#860 = DIRECTION('',(0.E+000,1.,0.E+000));
#861 = DIRECTION('',(0.E+000,0.E+000,1.));
#862 = DEFINITIONAL_REPRESENTATION('',(#863),#867);
#863 = LINE('',#864,#865);
#864 = CARTESIAN_POINT('',(0.E+000,0.E+000));
#865 = VECTOR('',#866,1.);
#866 = DIRECTION('',(0.E+000,1.));
#867 = ( GEOMETRIC_REPRESENTATION_CONTEXT(2) 
PARAMETRIC_REPRESENTATION_CONTEXT() REPRESENTATION_CONTEXT('2D SPACE',''
  ) );
#868 = ADVANCED_FACE('',(#869),#775,.T.);
#869 = FACE_BOUND('',#870,.T.);
#870 = EDGE_LOOP('',(#871,#872,#873,#896));
#871 = ORIENTED_EDGE('',*,*,#761,.F.);
#872 = ORIENTED_EDGE('',*,*,#820,.T.);
#873 = ORIENTED_EDGE('',*,*,#874,.T.);
#874 = EDGE_CURVE('',#821,#875,#877,.T.);
#875 = VERTEX_POINT('',#876);
#876 = CARTESIAN_POINT('',(0.4,0.8,0.8));
#877 = SURFACE_CURVE('',#878,(#882,#889),.PCURVE_S1.);
#878 = LINE('',#879,#880);
#879 = CARTESIAN_POINT('',(0.4,0.8,0.E+000));
#880 = VECTOR('',#881,1.);
#881 = DIRECTION('',(0.E+000,0.E+000,1.));
#882 = PCURVE('',#775,#883);
#883 = DEFINITIONAL_REPRESENTATION('',(#884),#888);
#884 = LINE('',#885,#886);
#885 = CARTESIAN_POINT('',(0.E+000,-0.4));
#886 = VECTOR('',#887,1.);
#887 = DIRECTION('',(1.,0.E+000));
#888 = ( GEOMETRIC_REPRESENTATION_CONTEXT(2) 
PARAMETRIC_REPRESENTATION_CONTEXT() REPRESENTATION_CONTEXT('2D SPACE',''
  ) );
#889 = PCURVE('',#857,#890);
#890 = DEFINITIONAL_REPRESENTATION('',(#891),#895);
#891 = LINE('',#892,#893);
#892 = CARTESIAN_POINT('',(0.E+000,0.8));
#893 = VECTOR('',#894,1.);
#894 = DIRECTION('',(1.,0.E+000));
#895 = ( GEOMETRIC_REPRESENTATION_CONTEXT(2) 
PARAMETRIC_REPRESENTATION_CONTEXT() REPRESENTATION_CONTEXT('2D SPACE',''
  ) );
#896 = ORIENTED_EDGE('',*,*,#897,.F.);
#897 = EDGE_CURVE('',#734,#875,#898,.T.);
#898 = SURFACE_CURVE('',#899,(#903,#910),.PCURVE_S1.);
#899 = LINE('',#900,#901);
#900 = CARTESIAN_POINT('',(0.4,0.4,0.8));
#901 = VECTOR('',#902,1.);
#902 = DIRECTION('',(0.E+000,1.,0.E+000));
#903 = PCURVE('',#775,#904);
#904 = DEFINITIONAL_REPRESENTATION('',(#905),#909);
#905 = LINE('',#906,#907);
#906 = CARTESIAN_POINT('',(0.8,0.E+000));
#907 = VECTOR('',#908,1.);
#908 = DIRECTION('',(0.E+000,-1.));
#909 = ( GEOMETRIC_REPRESENTATION_CONTEXT(2) 
PARAMETRIC_REPRESENTATION_CONTEXT() REPRESENTATION_CONTEXT('2D SPACE',''
  ) );
#910 = PCURVE('',#749,#911);
#911 = DEFINITIONAL_REPRESENTATION('',(#912),#916);
#912 = LINE('',#913,#914);
#913 = CARTESIAN_POINT('',(0.8,0.E+000));
#914 = VECTOR('',#915,1.);
#915 = DIRECTION('',(0.E+000,1.));
#916 = ( GEOMETRIC_REPRESENTATION_CONTEXT(2) 
PARAMETRIC_REPRESENTATION_CONTEXT() REPRESENTATION_CONTEXT('2D SPACE',''
  ) );
#917 = ADVANCED_FACE('',(#918),#721,.F.);
#918 = FACE_BOUND('',#919,.F.);
#919 = EDGE_LOOP('',(#920,#921,#922,#945));
#920 = ORIENTED_EDGE('',*,*,#705,.F.);
#921 = ORIENTED_EDGE('',*,*,#796,.T.);
#922 = ORIENTED_EDGE('',*,*,#923,.T.);
#923 = EDGE_CURVE('',#797,#924,#926,.T.);
#924 = VERTEX_POINT('',#925);
#925 = CARTESIAN_POINT('',(-0.4,0.8,0.8));
#926 = SURFACE_CURVE('',#927,(#931,#938),.PCURVE_S1.);
#927 = LINE('',#928,#929);
#928 = CARTESIAN_POINT('',(-0.4,0.8,0.E+000));
#929 = VECTOR('',#930,1.);
#930 = DIRECTION('',(0.E+000,0.E+000,1.));
#931 = PCURVE('',#721,#932);
#932 = DEFINITIONAL_REPRESENTATION('',(#933),#937);
#933 = LINE('',#934,#935);
#934 = CARTESIAN_POINT('',(0.E+000,-0.4));
#935 = VECTOR('',#936,1.);
#936 = DIRECTION('',(1.,0.E+000));
#937 = ( GEOMETRIC_REPRESENTATION_CONTEXT(2) 
PARAMETRIC_REPRESENTATION_CONTEXT() REPRESENTATION_CONTEXT('2D SPACE',''
  ) );
#938 = PCURVE('',#857,#939);
#939 = DEFINITIONAL_REPRESENTATION('',(#940),#944);
#940 = LINE('',#941,#942);
#941 = CARTESIAN_POINT('',(0.E+000,0.E+000));
#942 = VECTOR('',#943,1.);
#943 = DIRECTION('',(1.,0.E+000));
#944 = ( GEOMETRIC_REPRESENTATION_CONTEXT(2) 
PARAMETRIC_REPRESENTATION_CONTEXT() REPRESENTATION_CONTEXT('2D SPACE',''
  ) );
#945 = ORIENTED_EDGE('',*,*,#946,.F.);
#946 = EDGE_CURVE('',#706,#924,#947,.T.);
#947 = SURFACE_CURVE('',#948,(#952,#959),.PCURVE_S1.);
#948 = LINE('',#949,#950);
#949 = CARTESIAN_POINT('',(-0.4,0.4,0.8));
#950 = VECTOR('',#951,1.);
#951 = DIRECTION('',(0.E+000,1.,0.E+000));
#952 = PCURVE('',#721,#953);
#953 = DEFINITIONAL_REPRESENTATION('',(#954),#958);
#954 = LINE('',#955,#956);
#955 = CARTESIAN_POINT('',(0.8,0.E+000));
#956 = VECTOR('',#957,1.);
#957 = DIRECTION('',(0.E+000,-1.));
#958 = ( GEOMETRIC_REPRESENTATION_CONTEXT(2) 
PARAMETRIC_REPRESENTATION_CONTEXT() REPRESENTATION_CONTEXT('2D SPACE',''
  ) );
#959 = PCURVE('',#749,#960);
#960 = DEFINITIONAL_REPRESENTATION('',(#961),#965);
#961 = LINE('',#962,#963);
#962 = CARTESIAN_POINT('',(0.E+000,0.E+000));
#963 = VECTOR('',#964,1.);
#964 = DIRECTION('',(0.E+000,1.));
#965 = ( GEOMETRIC_REPRESENTATION_CONTEXT(2) 
PARAMETRIC_REPRESENTATION_CONTEXT() REPRESENTATION_CONTEXT('2D SPACE',''
  ) );
#966 = ADVANCED_FACE('',(#967),#749,.T.);
#967 = FACE_BOUND('',#968,.T.);
#968 = EDGE_LOOP('',(#969,#970,#971,#972));
#969 = ORIENTED_EDGE('',*,*,#946,.F.);
#970 = ORIENTED_EDGE('',*,*,#733,.T.);
#971 = ORIENTED_EDGE('',*,*,#897,.T.);
#972 = ORIENTED_EDGE('',*,*,#973,.F.);
#973 = EDGE_CURVE('',#924,#875,#974,.T.);
#974 = SURFACE_CURVE('',#975,(#979,#986),.PCURVE_S1.);
#975 = LINE('',#976,#977);
#976 = CARTESIAN_POINT('',(-0.4,0.8,0.8));
#977 = VECTOR('',#978,1.);
#978 = DIRECTION('',(1.,0.E+000,0.E+000));
#979 = PCURVE('',#749,#980);
#980 = DEFINITIONAL_REPRESENTATION('',(#981),#985);
#981 = LINE('',#982,#983);
#982 = CARTESIAN_POINT('',(0.E+000,0.4));
#983 = VECTOR('',#984,1.);
#984 = DIRECTION('',(1.,0.E+000));
#985 = ( GEOMETRIC_REPRESENTATION_CONTEXT(2) 
PARAMETRIC_REPRESENTATION_CONTEXT() REPRESENTATION_CONTEXT('2D SPACE',''
  ) );
#986 = PCURVE('',#857,#987);
#987 = DEFINITIONAL_REPRESENTATION('',(#988),#992);
#988 = LINE('',#989,#990);
#989 = CARTESIAN_POINT('',(0.8,0.E+000));
#990 = VECTOR('',#991,1.);
#991 = DIRECTION('',(0.E+000,1.));
#992 = ( GEOMETRIC_REPRESENTATION_CONTEXT(2) 
PARAMETRIC_REPRESENTATION_CONTEXT() REPRESENTATION_CONTEXT('2D SPACE',''
  ) );
#993 = ADVANCED_FACE('',(#994),#857,.T.);
#994 = FACE_BOUND('',#995,.T.);
#995 = EDGE_LOOP('',(#996,#997,#998,#999));
#996 = ORIENTED_EDGE('',*,*,#843,.F.);
#997 = ORIENTED_EDGE('',*,*,#923,.T.);
#998 = ORIENTED_EDGE('',*,*,#973,.T.);
#999 = ORIENTED_EDGE('',*,*,#874,.F.);
#1000 = ( GEOMETRIC_REPRESENTATION_CONTEXT(3) 
GLOBAL_UNCERTAINTY_ASSIGNED_CONTEXT((#1004)) 
GLOBAL_UNIT_ASSIGNED_CONTEXT((#1001,#1002,#1003)) REPRESENTATION_CONTEXT
('Context #1','3D Context with UNIT and UNCERTAINTY') );
#1001 = ( LENGTH_UNIT() NAMED_UNIT(*) SI_UNIT(.MILLI.,.METRE.) );
#1002 = ( NAMED_UNIT(*) PLANE_ANGLE_UNIT() SI_UNIT($,.RADIAN.) );
#1003 = ( NAMED_UNIT(*) SI_UNIT($,.STERADIAN.) SOLID_ANGLE_UNIT() );
#1004 = UNCERTAINTY_MEASURE_WITH_UNIT(LENGTH_MEASURE(1.E-007),#1001,
  'distance_accuracy_value','confusion accuracy');
#1005 = SHAPE_DEFINITION_REPRESENTATION(#1006,#25);
#1006 = PRODUCT_DEFINITION_SHAPE('','',#1007);
#1007 = PRODUCT_DEFINITION('design','',#1008,#1011);
#1008 = PRODUCT_DEFINITION_FORMATION('','',#1009);
#1009 = PRODUCT('C0603','C0603','',(#1010));
#1010 = MECHANICAL_CONTEXT('',#2,'mechanical');
#1011 = PRODUCT_DEFINITION_CONTEXT('part definition',#2,'design');
#1012 = CONTEXT_DEPENDENT_SHAPE_REPRESENTATION(#1013,#1015);
#1013 = ( REPRESENTATION_RELATIONSHIP('','',#25,#10) 
REPRESENTATION_RELATIONSHIP_WITH_TRANSFORMATION(#1014) 
SHAPE_REPRESENTATION_RELATIONSHIP() );
#1014 = ITEM_DEFINED_TRANSFORMATION('','',#11,#15);
#1015 = PRODUCT_DEFINITION_SHAPE('Placement','Placement of an item',
  #1016);
#1016 = NEXT_ASSEMBLY_USAGE_OCCURRENCE('12','=>[0:1:1:2]','',#5,#1007,$
  );
#1017 = PRODUCT_TYPE('part',$,(#1009));
#1018 = MECHANICAL_DESIGN_GEOMETRIC_PRESENTATION_REPRESENTATION('',(
    #1019,#1027,#1034,#1041,#1048,#1055,#1062,#1070,#1077,#1084,#1091,
    #1098,#1105,#1112,#1119,#1126),#1000);
#1019 = STYLED_ITEM('color',(#1020),#28);
#1020 = PRESENTATION_STYLE_ASSIGNMENT((#1021));
#1021 = SURFACE_STYLE_USAGE(.BOTH.,#1022);
#1022 = SURFACE_SIDE_STYLE('',(#1023));
#1023 = SURFACE_STYLE_FILL_AREA(#1024);
#1024 = FILL_AREA_STYLE('',(#1025));
#1025 = FILL_AREA_STYLE_COLOUR('',#1026);
#1026 = COLOUR_RGB('',0.800000011921,0.800000011921,0.800000011921);
#1027 = STYLED_ITEM('color',(#1028),#148);
#1028 = PRESENTATION_STYLE_ASSIGNMENT((#1029));
#1029 = SURFACE_STYLE_USAGE(.BOTH.,#1030);
#1030 = SURFACE_SIDE_STYLE('',(#1031));
#1031 = SURFACE_STYLE_FILL_AREA(#1032);
#1032 = FILL_AREA_STYLE('',(#1033));
#1033 = FILL_AREA_STYLE_COLOUR('',#1026);
#1034 = STYLED_ITEM('color',(#1035),#224);
#1035 = PRESENTATION_STYLE_ASSIGNMENT((#1036));
#1036 = SURFACE_STYLE_USAGE(.BOTH.,#1037);
#1037 = SURFACE_SIDE_STYLE('',(#1038));
#1038 = SURFACE_STYLE_FILL_AREA(#1039);
#1039 = FILL_AREA_STYLE('',(#1040));
#1040 = FILL_AREA_STYLE_COLOUR('',#1026);
#1041 = STYLED_ITEM('color',(#1042),#273);
#1042 = PRESENTATION_STYLE_ASSIGNMENT((#1043));
#1043 = SURFACE_STYLE_USAGE(.BOTH.,#1044);
#1044 = SURFACE_SIDE_STYLE('',(#1045));
#1045 = SURFACE_STYLE_FILL_AREA(#1046);
#1046 = FILL_AREA_STYLE('',(#1047));
#1047 = FILL_AREA_STYLE_COLOUR('',#1026);
#1048 = STYLED_ITEM('color',(#1049),#436);
#1049 = PRESENTATION_STYLE_ASSIGNMENT((#1050));
#1050 = SURFACE_STYLE_USAGE(.BOTH.,#1051);
#1051 = SURFACE_SIDE_STYLE('',(#1052));
#1052 = SURFACE_STYLE_FILL_AREA(#1053);
#1053 = FILL_AREA_STYLE('',(#1054));
#1054 = FILL_AREA_STYLE_COLOUR('',#1026);
#1055 = STYLED_ITEM('color',(#1056),#463);
#1056 = PRESENTATION_STYLE_ASSIGNMENT((#1057));
#1057 = SURFACE_STYLE_USAGE(.BOTH.,#1058);
#1058 = SURFACE_SIDE_STYLE('',(#1059));
#1059 = SURFACE_STYLE_FILL_AREA(#1060);
#1060 = FILL_AREA_STYLE('',(#1061));
#1061 = FILL_AREA_STYLE_COLOUR('',#1026);
#1062 = STYLED_ITEM('color',(#1063),#470);
#1063 = PRESENTATION_STYLE_ASSIGNMENT((#1064));
#1064 = SURFACE_STYLE_USAGE(.BOTH.,#1065);
#1065 = SURFACE_SIDE_STYLE('',(#1066));
#1066 = SURFACE_STYLE_FILL_AREA(#1067);
#1067 = FILL_AREA_STYLE('',(#1068));
#1068 = FILL_AREA_STYLE_COLOUR('',#1069);
#1069 = COLOUR_RGB('',0.415686279535,0.215686276555,0.156862750649);
#1070 = STYLED_ITEM('color',(#1071),#546);
#1071 = PRESENTATION_STYLE_ASSIGNMENT((#1072));
#1072 = SURFACE_STYLE_USAGE(.BOTH.,#1073);
#1073 = SURFACE_SIDE_STYLE('',(#1074));
#1074 = SURFACE_STYLE_FILL_AREA(#1075);
#1075 = FILL_AREA_STYLE('',(#1076));
#1076 = FILL_AREA_STYLE_COLOUR('',#1069);
#1077 = STYLED_ITEM('color',(#1078),#595);
#1078 = PRESENTATION_STYLE_ASSIGNMENT((#1079));
#1079 = SURFACE_STYLE_USAGE(.BOTH.,#1080);
#1080 = SURFACE_SIDE_STYLE('',(#1081));
#1081 = SURFACE_STYLE_FILL_AREA(#1082);
#1082 = FILL_AREA_STYLE('',(#1083));
#1083 = FILL_AREA_STYLE_COLOUR('',#1069);
#1084 = STYLED_ITEM('color',(#1085),#644);
#1085 = PRESENTATION_STYLE_ASSIGNMENT((#1086));
#1086 = SURFACE_STYLE_USAGE(.BOTH.,#1087);
#1087 = SURFACE_SIDE_STYLE('',(#1088));
#1088 = SURFACE_STYLE_FILL_AREA(#1089);
#1089 = FILL_AREA_STYLE('',(#1090));
#1090 = FILL_AREA_STYLE_COLOUR('',#1069);
#1091 = STYLED_ITEM('color',(#1092),#671);
#1092 = PRESENTATION_STYLE_ASSIGNMENT((#1093));
#1093 = SURFACE_STYLE_USAGE(.BOTH.,#1094);
#1094 = SURFACE_SIDE_STYLE('',(#1095));
#1095 = SURFACE_STYLE_FILL_AREA(#1096);
#1096 = FILL_AREA_STYLE('',(#1097));
#1097 = FILL_AREA_STYLE_COLOUR('',#1026);
#1098 = STYLED_ITEM('color',(#1099),#792);
#1099 = PRESENTATION_STYLE_ASSIGNMENT((#1100));
#1100 = SURFACE_STYLE_USAGE(.BOTH.,#1101);
#1101 = SURFACE_SIDE_STYLE('',(#1102));
#1102 = SURFACE_STYLE_FILL_AREA(#1103);
#1103 = FILL_AREA_STYLE('',(#1104));
#1104 = FILL_AREA_STYLE_COLOUR('',#1026);
#1105 = STYLED_ITEM('color',(#1106),#868);
#1106 = PRESENTATION_STYLE_ASSIGNMENT((#1107));
#1107 = SURFACE_STYLE_USAGE(.BOTH.,#1108);
#1108 = SURFACE_SIDE_STYLE('',(#1109));
#1109 = SURFACE_STYLE_FILL_AREA(#1110);
#1110 = FILL_AREA_STYLE('',(#1111));
#1111 = FILL_AREA_STYLE_COLOUR('',#1026);
#1112 = STYLED_ITEM('color',(#1113),#917);
#1113 = PRESENTATION_STYLE_ASSIGNMENT((#1114));
#1114 = SURFACE_STYLE_USAGE(.BOTH.,#1115);
#1115 = SURFACE_SIDE_STYLE('',(#1116));
#1116 = SURFACE_STYLE_FILL_AREA(#1117);
#1117 = FILL_AREA_STYLE('',(#1118));
#1118 = FILL_AREA_STYLE_COLOUR('',#1026);
#1119 = STYLED_ITEM('color',(#1120),#966);
#1120 = PRESENTATION_STYLE_ASSIGNMENT((#1121));
#1121 = SURFACE_STYLE_USAGE(.BOTH.,#1122);
#1122 = SURFACE_SIDE_STYLE('',(#1123));
#1123 = SURFACE_STYLE_FILL_AREA(#1124);
#1124 = FILL_AREA_STYLE('',(#1125));
#1125 = FILL_AREA_STYLE_COLOUR('',#1026);
#1126 = STYLED_ITEM('color',(#1127),#993);
#1127 = PRESENTATION_STYLE_ASSIGNMENT((#1128));
#1128 = SURFACE_STYLE_USAGE(.BOTH.,#1129);
#1129 = SURFACE_SIDE_STYLE('',(#1130));
#1130 = SURFACE_STYLE_FILL_AREA(#1131);
#1131 = FILL_AREA_STYLE('',(#1132));
#1132 = FILL_AREA_STYLE_COLOUR('',#1026);
ENDSEC;
END-ISO-10303-21;
