ISO-10303-21;
HEADER;
FILE_DESCRIPTION(('FreeCAD Model'),'2;1');
FILE_NAME('D:/Vitek/Work/freecad/SMD/DO-214AA_simple.step',
  '2017-02-10T15:44:36',('Author'),(''),
  'Open CASCADE STEP processor 6.8','FreeCAD','Unknown');
FILE_SCHEMA(('AUTOMOTIVE_DESIGN_CC2 { 1 2 10303 214 -1 1 5 4 }'));
ENDSEC;
DATA;
#1 = APPLICATION_PROTOCOL_DEFINITION('committee draft',
  'automotive_design',1997,#2);
#2 = APPLICATION_CONTEXT(
  'core data for automotive mechanical design processes');
#3 = SHAPE_DEFINITION_REPRESENTATION(#4,#10);
#4 = PRODUCT_DEFINITION_SHAPE('','',#5);
#5 = PRODUCT_DEFINITION('design','',#6,#9);
#6 = PRODUCT_DEFINITION_FORMATION('','',#7);
#7 = PRODUCT('ASSEMBLY','ASSEMBLY','',(#8));
#8 = MECHANICAL_CONTEXT('',#2,'mechanical');
#9 = PRODUCT_DEFINITION_CONTEXT('part definition',#2,'design');
#10 = SHAPE_REPRESENTATION('',(#11,#15),#19);
#11 = AXIS2_PLACEMENT_3D('',#12,#13,#14);
#12 = CARTESIAN_POINT('',(0.E+000,0.E+000,0.E+000));
#13 = DIRECTION('',(0.E+000,0.E+000,1.));
#14 = DIRECTION('',(1.,0.E+000,-0.E+000));
#15 = AXIS2_PLACEMENT_3D('',#16,#17,#18);
#16 = CARTESIAN_POINT('',(0.E+000,0.E+000,0.E+000));
#17 = DIRECTION('',(0.E+000,0.E+000,1.));
#18 = DIRECTION('',(1.,0.E+000,0.E+000));
#19 = ( GEOMETRIC_REPRESENTATION_CONTEXT(3) 
GLOBAL_UNCERTAINTY_ASSIGNED_CONTEXT((#23)) GLOBAL_UNIT_ASSIGNED_CONTEXT(
(#20,#21,#22)) REPRESENTATION_CONTEXT('Context #1',
  '3D Context with UNIT and UNCERTAINTY') );
#20 = ( LENGTH_UNIT() NAMED_UNIT(*) SI_UNIT(.MILLI.,.METRE.) );
#21 = ( NAMED_UNIT(*) PLANE_ANGLE_UNIT() SI_UNIT($,.RADIAN.) );
#22 = ( NAMED_UNIT(*) SI_UNIT($,.STERADIAN.) SOLID_ANGLE_UNIT() );
#23 = UNCERTAINTY_MEASURE_WITH_UNIT(LENGTH_MEASURE(1.E-007),#20,
  'distance_accuracy_value','confusion accuracy');
#24 = PRODUCT_TYPE('part',$,(#7));
#25 = ADVANCED_BREP_SHAPE_REPRESENTATION('',(#11,#26),#1580);
#26 = MANIFOLD_SOLID_BREP('',#27);
#27 = CLOSED_SHELL('',(#28,#148,#222,#323,#372,#441,#676,#701,#781,#924,
    #1029,#1078,#1151,#1285,#1404,#1431,#1458,#1485,#1512,#1519,#1546,
    #1573));
#28 = ADVANCED_FACE('',(#29),#43,.F.);
#29 = FACE_BOUND('',#30,.F.);
#30 = EDGE_LOOP('',(#31,#66,#94,#122));
#31 = ORIENTED_EDGE('',*,*,#32,.F.);
#32 = EDGE_CURVE('',#33,#35,#37,.T.);
#33 = VERTEX_POINT('',#34);
#34 = CARTESIAN_POINT('',(1.2,-1.1,0.E+000));
#35 = VERTEX_POINT('',#36);
#36 = CARTESIAN_POINT('',(1.2,1.1,0.E+000));
#37 = SURFACE_CURVE('',#38,(#42,#54),.PCURVE_S1.);
#38 = LINE('',#39,#40);
#39 = CARTESIAN_POINT('',(1.2,-1.1,0.E+000));
#40 = VECTOR('',#41,1.);
#41 = DIRECTION('',(0.E+000,1.,0.E+000));
#42 = PCURVE('',#43,#48);
#43 = PLANE('',#44);
#44 = AXIS2_PLACEMENT_3D('',#45,#46,#47);
#45 = CARTESIAN_POINT('',(1.2,-1.1,0.E+000));
#46 = DIRECTION('',(0.E+000,0.E+000,1.));
#47 = DIRECTION('',(1.,0.E+000,0.E+000));
#48 = DEFINITIONAL_REPRESENTATION('',(#49),#53);
#49 = LINE('',#50,#51);
#50 = CARTESIAN_POINT('',(0.E+000,0.E+000));
#51 = VECTOR('',#52,1.);
#52 = DIRECTION('',(0.E+000,1.));
#53 = ( GEOMETRIC_REPRESENTATION_CONTEXT(2) 
PARAMETRIC_REPRESENTATION_CONTEXT() REPRESENTATION_CONTEXT('2D SPACE',''
  ) );
#54 = PCURVE('',#55,#60);
#55 = PLANE('',#56);
#56 = AXIS2_PLACEMENT_3D('',#57,#58,#59);
#57 = CARTESIAN_POINT('',(1.2,-1.1,0.E+000));
#58 = DIRECTION('',(1.,0.E+000,0.E+000));
#59 = DIRECTION('',(0.E+000,0.E+000,1.));
#60 = DEFINITIONAL_REPRESENTATION('',(#61),#65);
#61 = LINE('',#62,#63);
#62 = CARTESIAN_POINT('',(0.E+000,0.E+000));
#63 = VECTOR('',#64,1.);
#64 = DIRECTION('',(0.E+000,-1.));
#65 = ( GEOMETRIC_REPRESENTATION_CONTEXT(2) 
PARAMETRIC_REPRESENTATION_CONTEXT() REPRESENTATION_CONTEXT('2D SPACE',''
  ) );
#66 = ORIENTED_EDGE('',*,*,#67,.T.);
#67 = EDGE_CURVE('',#33,#68,#70,.T.);
#68 = VERTEX_POINT('',#69);
#69 = CARTESIAN_POINT('',(2.8,-1.1,0.E+000));
#70 = SURFACE_CURVE('',#71,(#75,#82),.PCURVE_S1.);
#71 = LINE('',#72,#73);
#72 = CARTESIAN_POINT('',(1.2,-1.1,0.E+000));
#73 = VECTOR('',#74,1.);
#74 = DIRECTION('',(1.,0.E+000,0.E+000));
#75 = PCURVE('',#43,#76);
#76 = DEFINITIONAL_REPRESENTATION('',(#77),#81);
#77 = LINE('',#78,#79);
#78 = CARTESIAN_POINT('',(0.E+000,0.E+000));
#79 = VECTOR('',#80,1.);
#80 = DIRECTION('',(1.,0.E+000));
#81 = ( GEOMETRIC_REPRESENTATION_CONTEXT(2) 
PARAMETRIC_REPRESENTATION_CONTEXT() REPRESENTATION_CONTEXT('2D SPACE',''
  ) );
#82 = PCURVE('',#83,#88);
#83 = PLANE('',#84);
#84 = AXIS2_PLACEMENT_3D('',#85,#86,#87);
#85 = CARTESIAN_POINT('',(1.2,-1.1,0.E+000));
#86 = DIRECTION('',(0.E+000,1.,0.E+000));
#87 = DIRECTION('',(0.E+000,0.E+000,1.));
#88 = DEFINITIONAL_REPRESENTATION('',(#89),#93);
#89 = LINE('',#90,#91);
#90 = CARTESIAN_POINT('',(0.E+000,0.E+000));
#91 = VECTOR('',#92,1.);
#92 = DIRECTION('',(0.E+000,1.));
#93 = ( GEOMETRIC_REPRESENTATION_CONTEXT(2) 
PARAMETRIC_REPRESENTATION_CONTEXT() REPRESENTATION_CONTEXT('2D SPACE',''
  ) );
#94 = ORIENTED_EDGE('',*,*,#95,.T.);
#95 = EDGE_CURVE('',#68,#96,#98,.T.);
#96 = VERTEX_POINT('',#97);
#97 = CARTESIAN_POINT('',(2.8,1.1,0.E+000));
#98 = SURFACE_CURVE('',#99,(#103,#110),.PCURVE_S1.);
#99 = LINE('',#100,#101);
#100 = CARTESIAN_POINT('',(2.8,-1.1,0.E+000));
#101 = VECTOR('',#102,1.);
#102 = DIRECTION('',(0.E+000,1.,0.E+000));
#103 = PCURVE('',#43,#104);
#104 = DEFINITIONAL_REPRESENTATION('',(#105),#109);
#105 = LINE('',#106,#107);
#106 = CARTESIAN_POINT('',(1.6,0.E+000));
#107 = VECTOR('',#108,1.);
#108 = DIRECTION('',(0.E+000,1.));
#109 = ( GEOMETRIC_REPRESENTATION_CONTEXT(2) 
PARAMETRIC_REPRESENTATION_CONTEXT() REPRESENTATION_CONTEXT('2D SPACE',''
  ) );
#110 = PCURVE('',#111,#116);
#111 = PLANE('',#112);
#112 = AXIS2_PLACEMENT_3D('',#113,#114,#115);
#113 = CARTESIAN_POINT('',(2.8,-1.1,0.E+000));
#114 = DIRECTION('',(1.,0.E+000,0.E+000));
#115 = DIRECTION('',(0.E+000,0.E+000,1.));
#116 = DEFINITIONAL_REPRESENTATION('',(#117),#121);
#117 = LINE('',#118,#119);
#118 = CARTESIAN_POINT('',(0.E+000,0.E+000));
#119 = VECTOR('',#120,1.);
#120 = DIRECTION('',(0.E+000,-1.));
#121 = ( GEOMETRIC_REPRESENTATION_CONTEXT(2) 
PARAMETRIC_REPRESENTATION_CONTEXT() REPRESENTATION_CONTEXT('2D SPACE',''
  ) );
#122 = ORIENTED_EDGE('',*,*,#123,.F.);
#123 = EDGE_CURVE('',#35,#96,#124,.T.);
#124 = SURFACE_CURVE('',#125,(#129,#136),.PCURVE_S1.);
#125 = LINE('',#126,#127);
#126 = CARTESIAN_POINT('',(1.2,1.1,0.E+000));
#127 = VECTOR('',#128,1.);
#128 = DIRECTION('',(1.,0.E+000,0.E+000));
#129 = PCURVE('',#43,#130);
#130 = DEFINITIONAL_REPRESENTATION('',(#131),#135);
#131 = LINE('',#132,#133);
#132 = CARTESIAN_POINT('',(0.E+000,2.2));
#133 = VECTOR('',#134,1.);
#134 = DIRECTION('',(1.,0.E+000));
#135 = ( GEOMETRIC_REPRESENTATION_CONTEXT(2) 
PARAMETRIC_REPRESENTATION_CONTEXT() REPRESENTATION_CONTEXT('2D SPACE',''
  ) );
#136 = PCURVE('',#137,#142);
#137 = PLANE('',#138);
#138 = AXIS2_PLACEMENT_3D('',#139,#140,#141);
#139 = CARTESIAN_POINT('',(1.2,1.1,0.E+000));
#140 = DIRECTION('',(0.E+000,1.,0.E+000));
#141 = DIRECTION('',(0.E+000,0.E+000,1.));
#142 = DEFINITIONAL_REPRESENTATION('',(#143),#147);
#143 = LINE('',#144,#145);
#144 = CARTESIAN_POINT('',(0.E+000,0.E+000));
#145 = VECTOR('',#146,1.);
#146 = DIRECTION('',(0.E+000,1.));
#147 = ( GEOMETRIC_REPRESENTATION_CONTEXT(2) 
PARAMETRIC_REPRESENTATION_CONTEXT() REPRESENTATION_CONTEXT('2D SPACE',''
  ) );
#148 = ADVANCED_FACE('',(#149),#55,.F.);
#149 = FACE_BOUND('',#150,.F.);
#150 = EDGE_LOOP('',(#151,#174,#175,#198));
#151 = ORIENTED_EDGE('',*,*,#152,.F.);
#152 = EDGE_CURVE('',#33,#153,#155,.T.);
#153 = VERTEX_POINT('',#154);
#154 = CARTESIAN_POINT('',(1.2,-1.1,0.2));
#155 = SURFACE_CURVE('',#156,(#160,#167),.PCURVE_S1.);
#156 = LINE('',#157,#158);
#157 = CARTESIAN_POINT('',(1.2,-1.1,0.E+000));
#158 = VECTOR('',#159,1.);
#159 = DIRECTION('',(0.E+000,0.E+000,1.));
#160 = PCURVE('',#55,#161);
#161 = DEFINITIONAL_REPRESENTATION('',(#162),#166);
#162 = LINE('',#163,#164);
#163 = CARTESIAN_POINT('',(0.E+000,0.E+000));
#164 = VECTOR('',#165,1.);
#165 = DIRECTION('',(1.,0.E+000));
#166 = ( GEOMETRIC_REPRESENTATION_CONTEXT(2) 
PARAMETRIC_REPRESENTATION_CONTEXT() REPRESENTATION_CONTEXT('2D SPACE',''
  ) );
#167 = PCURVE('',#83,#168);
#168 = DEFINITIONAL_REPRESENTATION('',(#169),#173);
#169 = LINE('',#170,#171);
#170 = CARTESIAN_POINT('',(0.E+000,0.E+000));
#171 = VECTOR('',#172,1.);
#172 = DIRECTION('',(1.,0.E+000));
#173 = ( GEOMETRIC_REPRESENTATION_CONTEXT(2) 
PARAMETRIC_REPRESENTATION_CONTEXT() REPRESENTATION_CONTEXT('2D SPACE',''
  ) );
#174 = ORIENTED_EDGE('',*,*,#32,.T.);
#175 = ORIENTED_EDGE('',*,*,#176,.T.);
#176 = EDGE_CURVE('',#35,#177,#179,.T.);
#177 = VERTEX_POINT('',#178);
#178 = CARTESIAN_POINT('',(1.2,1.1,0.2));
#179 = SURFACE_CURVE('',#180,(#184,#191),.PCURVE_S1.);
#180 = LINE('',#181,#182);
#181 = CARTESIAN_POINT('',(1.2,1.1,0.E+000));
#182 = VECTOR('',#183,1.);
#183 = DIRECTION('',(0.E+000,0.E+000,1.));
#184 = PCURVE('',#55,#185);
#185 = DEFINITIONAL_REPRESENTATION('',(#186),#190);
#186 = LINE('',#187,#188);
#187 = CARTESIAN_POINT('',(0.E+000,-2.2));
#188 = VECTOR('',#189,1.);
#189 = DIRECTION('',(1.,0.E+000));
#190 = ( GEOMETRIC_REPRESENTATION_CONTEXT(2) 
PARAMETRIC_REPRESENTATION_CONTEXT() REPRESENTATION_CONTEXT('2D SPACE',''
  ) );
#191 = PCURVE('',#137,#192);
#192 = DEFINITIONAL_REPRESENTATION('',(#193),#197);
#193 = LINE('',#194,#195);
#194 = CARTESIAN_POINT('',(0.E+000,0.E+000));
#195 = VECTOR('',#196,1.);
#196 = DIRECTION('',(1.,0.E+000));
#197 = ( GEOMETRIC_REPRESENTATION_CONTEXT(2) 
PARAMETRIC_REPRESENTATION_CONTEXT() REPRESENTATION_CONTEXT('2D SPACE',''
  ) );
#198 = ORIENTED_EDGE('',*,*,#199,.F.);
#199 = EDGE_CURVE('',#153,#177,#200,.T.);
#200 = SURFACE_CURVE('',#201,(#205,#211),.PCURVE_S1.);
#201 = LINE('',#202,#203);
#202 = CARTESIAN_POINT('',(1.2,-1.5,0.2));
#203 = VECTOR('',#204,1.);
#204 = DIRECTION('',(0.E+000,1.,0.E+000));
#205 = PCURVE('',#55,#206);
#206 = DEFINITIONAL_REPRESENTATION('',(#207),#210);
#207 = B_SPLINE_CURVE_WITH_KNOTS('',1,(#208,#209),.UNSPECIFIED.,.F.,.F.,
  (2,2),(0.18,2.82),.PIECEWISE_BEZIER_KNOTS.);
#208 = CARTESIAN_POINT('',(0.2,0.22));
#209 = CARTESIAN_POINT('',(0.2,-2.42));
#210 = ( GEOMETRIC_REPRESENTATION_CONTEXT(2) 
PARAMETRIC_REPRESENTATION_CONTEXT() REPRESENTATION_CONTEXT('2D SPACE',''
  ) );
#211 = PCURVE('',#212,#217);
#212 = PLANE('',#213);
#213 = AXIS2_PLACEMENT_3D('',#214,#215,#216);
#214 = CARTESIAN_POINT('',(-2.5,-1.9,0.2));
#215 = DIRECTION('',(0.E+000,0.E+000,1.));
#216 = DIRECTION('',(1.,0.E+000,0.E+000));
#217 = DEFINITIONAL_REPRESENTATION('',(#218),#221);
#218 = B_SPLINE_CURVE_WITH_KNOTS('',1,(#219,#220),.UNSPECIFIED.,.F.,.F.,
  (2,2),(0.18,2.82),.PIECEWISE_BEZIER_KNOTS.);
#219 = CARTESIAN_POINT('',(3.7,0.58));
#220 = CARTESIAN_POINT('',(3.7,3.22));
#221 = ( GEOMETRIC_REPRESENTATION_CONTEXT(2) 
PARAMETRIC_REPRESENTATION_CONTEXT() REPRESENTATION_CONTEXT('2D SPACE',''
  ) );
#222 = ADVANCED_FACE('',(#223),#137,.T.);
#223 = FACE_BOUND('',#224,.T.);
#224 = EDGE_LOOP('',(#225,#248,#249,#250,#271,#297));
#225 = ORIENTED_EDGE('',*,*,#226,.F.);
#226 = EDGE_CURVE('',#96,#227,#229,.T.);
#227 = VERTEX_POINT('',#228);
#228 = CARTESIAN_POINT('',(2.8,1.1,1.6));
#229 = SURFACE_CURVE('',#230,(#234,#241),.PCURVE_S1.);
#230 = LINE('',#231,#232);
#231 = CARTESIAN_POINT('',(2.8,1.1,0.E+000));
#232 = VECTOR('',#233,1.);
#233 = DIRECTION('',(0.E+000,0.E+000,1.));
#234 = PCURVE('',#137,#235);
#235 = DEFINITIONAL_REPRESENTATION('',(#236),#240);
#236 = LINE('',#237,#238);
#237 = CARTESIAN_POINT('',(0.E+000,1.6));
#238 = VECTOR('',#239,1.);
#239 = DIRECTION('',(1.,0.E+000));
#240 = ( GEOMETRIC_REPRESENTATION_CONTEXT(2) 
PARAMETRIC_REPRESENTATION_CONTEXT() REPRESENTATION_CONTEXT('2D SPACE',''
  ) );
#241 = PCURVE('',#111,#242);
#242 = DEFINITIONAL_REPRESENTATION('',(#243),#247);
#243 = LINE('',#244,#245);
#244 = CARTESIAN_POINT('',(0.E+000,-2.2));
#245 = VECTOR('',#246,1.);
#246 = DIRECTION('',(1.,0.E+000));
#247 = ( GEOMETRIC_REPRESENTATION_CONTEXT(2) 
PARAMETRIC_REPRESENTATION_CONTEXT() REPRESENTATION_CONTEXT('2D SPACE',''
  ) );
#248 = ORIENTED_EDGE('',*,*,#123,.F.);
#249 = ORIENTED_EDGE('',*,*,#176,.T.);
#250 = ORIENTED_EDGE('',*,*,#251,.F.);
#251 = EDGE_CURVE('',#252,#177,#254,.T.);
#252 = VERTEX_POINT('',#253);
#253 = CARTESIAN_POINT('',(2.5,1.1,0.2));
#254 = SURFACE_CURVE('',#255,(#259,#265),.PCURVE_S1.);
#255 = LINE('',#256,#257);
#256 = CARTESIAN_POINT('',(-0.65,1.1,0.2));
#257 = VECTOR('',#258,1.);
#258 = DIRECTION('',(-1.,0.E+000,0.E+000));
#259 = PCURVE('',#137,#260);
#260 = DEFINITIONAL_REPRESENTATION('',(#261),#264);
#261 = B_SPLINE_CURVE_WITH_KNOTS('',1,(#262,#263),.UNSPECIFIED.,.F.,.F.,
  (2,2),(-3.61,-1.69),.PIECEWISE_BEZIER_KNOTS.);
#262 = CARTESIAN_POINT('',(0.2,1.76));
#263 = CARTESIAN_POINT('',(0.2,-0.16));
#264 = ( GEOMETRIC_REPRESENTATION_CONTEXT(2) 
PARAMETRIC_REPRESENTATION_CONTEXT() REPRESENTATION_CONTEXT('2D SPACE',''
  ) );
#265 = PCURVE('',#212,#266);
#266 = DEFINITIONAL_REPRESENTATION('',(#267),#270);
#267 = B_SPLINE_CURVE_WITH_KNOTS('',1,(#268,#269),.UNSPECIFIED.,.F.,.F.,
  (2,2),(-3.61,-1.69),.PIECEWISE_BEZIER_KNOTS.);
#268 = CARTESIAN_POINT('',(5.46,3.));
#269 = CARTESIAN_POINT('',(3.54,3.));
#270 = ( GEOMETRIC_REPRESENTATION_CONTEXT(2) 
PARAMETRIC_REPRESENTATION_CONTEXT() REPRESENTATION_CONTEXT('2D SPACE',''
  ) );
#271 = ORIENTED_EDGE('',*,*,#272,.T.);
#272 = EDGE_CURVE('',#252,#273,#275,.T.);
#273 = VERTEX_POINT('',#274);
#274 = CARTESIAN_POINT('',(2.5,1.1,1.6));
#275 = SURFACE_CURVE('',#276,(#280,#286),.PCURVE_S1.);
#276 = LINE('',#277,#278);
#277 = CARTESIAN_POINT('',(2.5,1.1,0.1));
#278 = VECTOR('',#279,1.);
#279 = DIRECTION('',(0.E+000,0.E+000,1.));
#280 = PCURVE('',#137,#281);
#281 = DEFINITIONAL_REPRESENTATION('',(#282),#285);
#282 = B_SPLINE_CURVE_WITH_KNOTS('',1,(#283,#284),.UNSPECIFIED.,.F.,.F.,
  (2,2),(-0.14,1.66),.PIECEWISE_BEZIER_KNOTS.);
#283 = CARTESIAN_POINT('',(-4.E-002,1.3));
#284 = CARTESIAN_POINT('',(1.76,1.3));
#285 = ( GEOMETRIC_REPRESENTATION_CONTEXT(2) 
PARAMETRIC_REPRESENTATION_CONTEXT() REPRESENTATION_CONTEXT('2D SPACE',''
  ) );
#286 = PCURVE('',#287,#292);
#287 = PLANE('',#288);
#288 = AXIS2_PLACEMENT_3D('',#289,#290,#291);
#289 = CARTESIAN_POINT('',(2.5,-1.9,0.2));
#290 = DIRECTION('',(1.,0.E+000,0.E+000));
#291 = DIRECTION('',(0.E+000,0.E+000,1.));
#292 = DEFINITIONAL_REPRESENTATION('',(#293),#296);
#293 = B_SPLINE_CURVE_WITH_KNOTS('',1,(#294,#295),.UNSPECIFIED.,.F.,.F.,
  (2,2),(-0.14,1.66),.PIECEWISE_BEZIER_KNOTS.);
#294 = CARTESIAN_POINT('',(-0.24,-3.));
#295 = CARTESIAN_POINT('',(1.56,-3.));
#296 = ( GEOMETRIC_REPRESENTATION_CONTEXT(2) 
PARAMETRIC_REPRESENTATION_CONTEXT() REPRESENTATION_CONTEXT('2D SPACE',''
  ) );
#297 = ORIENTED_EDGE('',*,*,#298,.T.);
#298 = EDGE_CURVE('',#273,#227,#299,.T.);
#299 = SURFACE_CURVE('',#300,(#304,#311),.PCURVE_S1.);
#300 = LINE('',#301,#302);
#301 = CARTESIAN_POINT('',(1.2,1.1,1.6));
#302 = VECTOR('',#303,1.);
#303 = DIRECTION('',(1.,0.E+000,0.E+000));
#304 = PCURVE('',#137,#305);
#305 = DEFINITIONAL_REPRESENTATION('',(#306),#310);
#306 = LINE('',#307,#308);
#307 = CARTESIAN_POINT('',(1.6,0.E+000));
#308 = VECTOR('',#309,1.);
#309 = DIRECTION('',(0.E+000,1.));
#310 = ( GEOMETRIC_REPRESENTATION_CONTEXT(2) 
PARAMETRIC_REPRESENTATION_CONTEXT() REPRESENTATION_CONTEXT('2D SPACE',''
  ) );
#311 = PCURVE('',#312,#317);
#312 = PLANE('',#313);
#313 = AXIS2_PLACEMENT_3D('',#314,#315,#316);
#314 = CARTESIAN_POINT('',(1.2,-1.1,1.6));
#315 = DIRECTION('',(0.E+000,0.E+000,1.));
#316 = DIRECTION('',(1.,0.E+000,0.E+000));
#317 = DEFINITIONAL_REPRESENTATION('',(#318),#322);
#318 = LINE('',#319,#320);
#319 = CARTESIAN_POINT('',(0.E+000,2.2));
#320 = VECTOR('',#321,1.);
#321 = DIRECTION('',(1.,0.E+000));
#322 = ( GEOMETRIC_REPRESENTATION_CONTEXT(2) 
PARAMETRIC_REPRESENTATION_CONTEXT() REPRESENTATION_CONTEXT('2D SPACE',''
  ) );
#323 = ADVANCED_FACE('',(#324),#111,.T.);
#324 = FACE_BOUND('',#325,.T.);
#325 = EDGE_LOOP('',(#326,#349,#350,#351));
#326 = ORIENTED_EDGE('',*,*,#327,.F.);
#327 = EDGE_CURVE('',#68,#328,#330,.T.);
#328 = VERTEX_POINT('',#329);
#329 = CARTESIAN_POINT('',(2.8,-1.1,1.6));
#330 = SURFACE_CURVE('',#331,(#335,#342),.PCURVE_S1.);
#331 = LINE('',#332,#333);
#332 = CARTESIAN_POINT('',(2.8,-1.1,0.E+000));
#333 = VECTOR('',#334,1.);
#334 = DIRECTION('',(0.E+000,0.E+000,1.));
#335 = PCURVE('',#111,#336);
#336 = DEFINITIONAL_REPRESENTATION('',(#337),#341);
#337 = LINE('',#338,#339);
#338 = CARTESIAN_POINT('',(0.E+000,0.E+000));
#339 = VECTOR('',#340,1.);
#340 = DIRECTION('',(1.,0.E+000));
#341 = ( GEOMETRIC_REPRESENTATION_CONTEXT(2) 
PARAMETRIC_REPRESENTATION_CONTEXT() REPRESENTATION_CONTEXT('2D SPACE',''
  ) );
#342 = PCURVE('',#83,#343);
#343 = DEFINITIONAL_REPRESENTATION('',(#344),#348);
#344 = LINE('',#345,#346);
#345 = CARTESIAN_POINT('',(0.E+000,1.6));
#346 = VECTOR('',#347,1.);
#347 = DIRECTION('',(1.,0.E+000));
#348 = ( GEOMETRIC_REPRESENTATION_CONTEXT(2) 
PARAMETRIC_REPRESENTATION_CONTEXT() REPRESENTATION_CONTEXT('2D SPACE',''
  ) );
#349 = ORIENTED_EDGE('',*,*,#95,.T.);
#350 = ORIENTED_EDGE('',*,*,#226,.T.);
#351 = ORIENTED_EDGE('',*,*,#352,.F.);
#352 = EDGE_CURVE('',#328,#227,#353,.T.);
#353 = SURFACE_CURVE('',#354,(#358,#365),.PCURVE_S1.);
#354 = LINE('',#355,#356);
#355 = CARTESIAN_POINT('',(2.8,-1.1,1.6));
#356 = VECTOR('',#357,1.);
#357 = DIRECTION('',(0.E+000,1.,0.E+000));
#358 = PCURVE('',#111,#359);
#359 = DEFINITIONAL_REPRESENTATION('',(#360),#364);
#360 = LINE('',#361,#362);
#361 = CARTESIAN_POINT('',(1.6,0.E+000));
#362 = VECTOR('',#363,1.);
#363 = DIRECTION('',(0.E+000,-1.));
#364 = ( GEOMETRIC_REPRESENTATION_CONTEXT(2) 
PARAMETRIC_REPRESENTATION_CONTEXT() REPRESENTATION_CONTEXT('2D SPACE',''
  ) );
#365 = PCURVE('',#312,#366);
#366 = DEFINITIONAL_REPRESENTATION('',(#367),#371);
#367 = LINE('',#368,#369);
#368 = CARTESIAN_POINT('',(1.6,0.E+000));
#369 = VECTOR('',#370,1.);
#370 = DIRECTION('',(0.E+000,1.));
#371 = ( GEOMETRIC_REPRESENTATION_CONTEXT(2) 
PARAMETRIC_REPRESENTATION_CONTEXT() REPRESENTATION_CONTEXT('2D SPACE',''
  ) );
#372 = ADVANCED_FACE('',(#373),#83,.F.);
#373 = FACE_BOUND('',#374,.F.);
#374 = EDGE_LOOP('',(#375,#376,#377,#378,#399,#420));
#375 = ORIENTED_EDGE('',*,*,#327,.F.);
#376 = ORIENTED_EDGE('',*,*,#67,.F.);
#377 = ORIENTED_EDGE('',*,*,#152,.T.);
#378 = ORIENTED_EDGE('',*,*,#379,.F.);
#379 = EDGE_CURVE('',#380,#153,#382,.T.);
#380 = VERTEX_POINT('',#381);
#381 = CARTESIAN_POINT('',(2.5,-1.1,0.2));
#382 = SURFACE_CURVE('',#383,(#387,#393),.PCURVE_S1.);
#383 = LINE('',#384,#385);
#384 = CARTESIAN_POINT('',(-0.65,-1.1,0.2));
#385 = VECTOR('',#386,1.);
#386 = DIRECTION('',(-1.,0.E+000,0.E+000));
#387 = PCURVE('',#83,#388);
#388 = DEFINITIONAL_REPRESENTATION('',(#389),#392);
#389 = B_SPLINE_CURVE_WITH_KNOTS('',1,(#390,#391),.UNSPECIFIED.,.F.,.F.,
  (2,2),(-3.61,-1.69),.PIECEWISE_BEZIER_KNOTS.);
#390 = CARTESIAN_POINT('',(0.2,1.76));
#391 = CARTESIAN_POINT('',(0.2,-0.16));
#392 = ( GEOMETRIC_REPRESENTATION_CONTEXT(2) 
PARAMETRIC_REPRESENTATION_CONTEXT() REPRESENTATION_CONTEXT('2D SPACE',''
  ) );
#393 = PCURVE('',#212,#394);
#394 = DEFINITIONAL_REPRESENTATION('',(#395),#398);
#395 = B_SPLINE_CURVE_WITH_KNOTS('',1,(#396,#397),.UNSPECIFIED.,.F.,.F.,
  (2,2),(-3.61,-1.69),.PIECEWISE_BEZIER_KNOTS.);
#396 = CARTESIAN_POINT('',(5.46,0.8));
#397 = CARTESIAN_POINT('',(3.54,0.8));
#398 = ( GEOMETRIC_REPRESENTATION_CONTEXT(2) 
PARAMETRIC_REPRESENTATION_CONTEXT() REPRESENTATION_CONTEXT('2D SPACE',''
  ) );
#399 = ORIENTED_EDGE('',*,*,#400,.T.);
#400 = EDGE_CURVE('',#380,#401,#403,.T.);
#401 = VERTEX_POINT('',#402);
#402 = CARTESIAN_POINT('',(2.5,-1.1,1.6));
#403 = SURFACE_CURVE('',#404,(#408,#414),.PCURVE_S1.);
#404 = LINE('',#405,#406);
#405 = CARTESIAN_POINT('',(2.5,-1.1,0.1));
#406 = VECTOR('',#407,1.);
#407 = DIRECTION('',(0.E+000,0.E+000,1.));
#408 = PCURVE('',#83,#409);
#409 = DEFINITIONAL_REPRESENTATION('',(#410),#413);
#410 = B_SPLINE_CURVE_WITH_KNOTS('',1,(#411,#412),.UNSPECIFIED.,.F.,.F.,
  (2,2),(-0.14,1.66),.PIECEWISE_BEZIER_KNOTS.);
#411 = CARTESIAN_POINT('',(-4.E-002,1.3));
#412 = CARTESIAN_POINT('',(1.76,1.3));
#413 = ( GEOMETRIC_REPRESENTATION_CONTEXT(2) 
PARAMETRIC_REPRESENTATION_CONTEXT() REPRESENTATION_CONTEXT('2D SPACE',''
  ) );
#414 = PCURVE('',#287,#415);
#415 = DEFINITIONAL_REPRESENTATION('',(#416),#419);
#416 = B_SPLINE_CURVE_WITH_KNOTS('',1,(#417,#418),.UNSPECIFIED.,.F.,.F.,
  (2,2),(-0.14,1.66),.PIECEWISE_BEZIER_KNOTS.);
#417 = CARTESIAN_POINT('',(-0.24,-0.8));
#418 = CARTESIAN_POINT('',(1.56,-0.8));
#419 = ( GEOMETRIC_REPRESENTATION_CONTEXT(2) 
PARAMETRIC_REPRESENTATION_CONTEXT() REPRESENTATION_CONTEXT('2D SPACE',''
  ) );
#420 = ORIENTED_EDGE('',*,*,#421,.T.);
#421 = EDGE_CURVE('',#401,#328,#422,.T.);
#422 = SURFACE_CURVE('',#423,(#427,#434),.PCURVE_S1.);
#423 = LINE('',#424,#425);
#424 = CARTESIAN_POINT('',(1.2,-1.1,1.6));
#425 = VECTOR('',#426,1.);
#426 = DIRECTION('',(1.,0.E+000,0.E+000));
#427 = PCURVE('',#83,#428);
#428 = DEFINITIONAL_REPRESENTATION('',(#429),#433);
#429 = LINE('',#430,#431);
#430 = CARTESIAN_POINT('',(1.6,0.E+000));
#431 = VECTOR('',#432,1.);
#432 = DIRECTION('',(0.E+000,1.));
#433 = ( GEOMETRIC_REPRESENTATION_CONTEXT(2) 
PARAMETRIC_REPRESENTATION_CONTEXT() REPRESENTATION_CONTEXT('2D SPACE',''
  ) );
#434 = PCURVE('',#312,#435);
#435 = DEFINITIONAL_REPRESENTATION('',(#436),#440);
#436 = LINE('',#437,#438);
#437 = CARTESIAN_POINT('',(0.E+000,0.E+000));
#438 = VECTOR('',#439,1.);
#439 = DIRECTION('',(1.,0.E+000));
#440 = ( GEOMETRIC_REPRESENTATION_CONTEXT(2) 
PARAMETRIC_REPRESENTATION_CONTEXT() REPRESENTATION_CONTEXT('2D SPACE',''
  ) );
#441 = ADVANCED_FACE('',(#442),#212,.F.);
#442 = FACE_BOUND('',#443,.F.);
#443 = EDGE_LOOP('',(#444,#474,#502,#523,#524,#525,#526,#549,#577,#600,
    #626,#652));
#444 = ORIENTED_EDGE('',*,*,#445,.F.);
#445 = EDGE_CURVE('',#446,#448,#450,.T.);
#446 = VERTEX_POINT('',#447);
#447 = CARTESIAN_POINT('',(-2.5,-1.9,0.2));
#448 = VERTEX_POINT('',#449);
#449 = CARTESIAN_POINT('',(-2.5,-1.1,0.2));
#450 = SURFACE_CURVE('',#451,(#455,#462),.PCURVE_S1.);
#451 = LINE('',#452,#453);
#452 = CARTESIAN_POINT('',(-2.5,-1.9,0.2));
#453 = VECTOR('',#454,1.);
#454 = DIRECTION('',(0.E+000,1.,0.E+000));
#455 = PCURVE('',#212,#456);
#456 = DEFINITIONAL_REPRESENTATION('',(#457),#461);
#457 = LINE('',#458,#459);
#458 = CARTESIAN_POINT('',(0.E+000,0.E+000));
#459 = VECTOR('',#460,1.);
#460 = DIRECTION('',(0.E+000,1.));
#461 = ( GEOMETRIC_REPRESENTATION_CONTEXT(2) 
PARAMETRIC_REPRESENTATION_CONTEXT() REPRESENTATION_CONTEXT('2D SPACE',''
  ) );
#462 = PCURVE('',#463,#468);
#463 = PLANE('',#464);
#464 = AXIS2_PLACEMENT_3D('',#465,#466,#467);
#465 = CARTESIAN_POINT('',(-2.5,-1.9,0.2));
#466 = DIRECTION('',(1.,0.E+000,0.E+000));
#467 = DIRECTION('',(0.E+000,0.E+000,1.));
#468 = DEFINITIONAL_REPRESENTATION('',(#469),#473);
#469 = LINE('',#470,#471);
#470 = CARTESIAN_POINT('',(0.E+000,0.E+000));
#471 = VECTOR('',#472,1.);
#472 = DIRECTION('',(0.E+000,-1.));
#473 = ( GEOMETRIC_REPRESENTATION_CONTEXT(2) 
PARAMETRIC_REPRESENTATION_CONTEXT() REPRESENTATION_CONTEXT('2D SPACE',''
  ) );
#474 = ORIENTED_EDGE('',*,*,#475,.T.);
#475 = EDGE_CURVE('',#446,#476,#478,.T.);
#476 = VERTEX_POINT('',#477);
#477 = CARTESIAN_POINT('',(2.5,-1.9,0.2));
#478 = SURFACE_CURVE('',#479,(#483,#490),.PCURVE_S1.);
#479 = LINE('',#480,#481);
#480 = CARTESIAN_POINT('',(-2.5,-1.9,0.2));
#481 = VECTOR('',#482,1.);
#482 = DIRECTION('',(1.,0.E+000,0.E+000));
#483 = PCURVE('',#212,#484);
#484 = DEFINITIONAL_REPRESENTATION('',(#485),#489);
#485 = LINE('',#486,#487);
#486 = CARTESIAN_POINT('',(0.E+000,0.E+000));
#487 = VECTOR('',#488,1.);
#488 = DIRECTION('',(1.,0.E+000));
#489 = ( GEOMETRIC_REPRESENTATION_CONTEXT(2) 
PARAMETRIC_REPRESENTATION_CONTEXT() REPRESENTATION_CONTEXT('2D SPACE',''
  ) );
#490 = PCURVE('',#491,#496);
#491 = PLANE('',#492);
#492 = AXIS2_PLACEMENT_3D('',#493,#494,#495);
#493 = CARTESIAN_POINT('',(-2.5,-1.9,0.2));
#494 = DIRECTION('',(0.E+000,1.,0.E+000));
#495 = DIRECTION('',(0.E+000,0.E+000,1.));
#496 = DEFINITIONAL_REPRESENTATION('',(#497),#501);
#497 = LINE('',#498,#499);
#498 = CARTESIAN_POINT('',(0.E+000,0.E+000));
#499 = VECTOR('',#500,1.);
#500 = DIRECTION('',(0.E+000,1.));
#501 = ( GEOMETRIC_REPRESENTATION_CONTEXT(2) 
PARAMETRIC_REPRESENTATION_CONTEXT() REPRESENTATION_CONTEXT('2D SPACE',''
  ) );
#502 = ORIENTED_EDGE('',*,*,#503,.T.);
#503 = EDGE_CURVE('',#476,#380,#504,.T.);
#504 = SURFACE_CURVE('',#505,(#509,#516),.PCURVE_S1.);
#505 = LINE('',#506,#507);
#506 = CARTESIAN_POINT('',(2.5,-1.9,0.2));
#507 = VECTOR('',#508,1.);
#508 = DIRECTION('',(0.E+000,1.,0.E+000));
#509 = PCURVE('',#212,#510);
#510 = DEFINITIONAL_REPRESENTATION('',(#511),#515);
#511 = LINE('',#512,#513);
#512 = CARTESIAN_POINT('',(5.,0.E+000));
#513 = VECTOR('',#514,1.);
#514 = DIRECTION('',(0.E+000,1.));
#515 = ( GEOMETRIC_REPRESENTATION_CONTEXT(2) 
PARAMETRIC_REPRESENTATION_CONTEXT() REPRESENTATION_CONTEXT('2D SPACE',''
  ) );
#516 = PCURVE('',#287,#517);
#517 = DEFINITIONAL_REPRESENTATION('',(#518),#522);
#518 = LINE('',#519,#520);
#519 = CARTESIAN_POINT('',(0.E+000,0.E+000));
#520 = VECTOR('',#521,1.);
#521 = DIRECTION('',(0.E+000,-1.));
#522 = ( GEOMETRIC_REPRESENTATION_CONTEXT(2) 
PARAMETRIC_REPRESENTATION_CONTEXT() REPRESENTATION_CONTEXT('2D SPACE',''
  ) );
#523 = ORIENTED_EDGE('',*,*,#379,.T.);
#524 = ORIENTED_EDGE('',*,*,#199,.T.);
#525 = ORIENTED_EDGE('',*,*,#251,.F.);
#526 = ORIENTED_EDGE('',*,*,#527,.T.);
#527 = EDGE_CURVE('',#252,#528,#530,.T.);
#528 = VERTEX_POINT('',#529);
#529 = CARTESIAN_POINT('',(2.5,1.9,0.2));
#530 = SURFACE_CURVE('',#531,(#535,#542),.PCURVE_S1.);
#531 = LINE('',#532,#533);
#532 = CARTESIAN_POINT('',(2.5,-1.9,0.2));
#533 = VECTOR('',#534,1.);
#534 = DIRECTION('',(0.E+000,1.,0.E+000));
#535 = PCURVE('',#212,#536);
#536 = DEFINITIONAL_REPRESENTATION('',(#537),#541);
#537 = LINE('',#538,#539);
#538 = CARTESIAN_POINT('',(5.,0.E+000));
#539 = VECTOR('',#540,1.);
#540 = DIRECTION('',(0.E+000,1.));
#541 = ( GEOMETRIC_REPRESENTATION_CONTEXT(2) 
PARAMETRIC_REPRESENTATION_CONTEXT() REPRESENTATION_CONTEXT('2D SPACE',''
  ) );
#542 = PCURVE('',#287,#543);
#543 = DEFINITIONAL_REPRESENTATION('',(#544),#548);
#544 = LINE('',#545,#546);
#545 = CARTESIAN_POINT('',(0.E+000,0.E+000));
#546 = VECTOR('',#547,1.);
#547 = DIRECTION('',(0.E+000,-1.));
#548 = ( GEOMETRIC_REPRESENTATION_CONTEXT(2) 
PARAMETRIC_REPRESENTATION_CONTEXT() REPRESENTATION_CONTEXT('2D SPACE',''
  ) );
#549 = ORIENTED_EDGE('',*,*,#550,.F.);
#550 = EDGE_CURVE('',#551,#528,#553,.T.);
#551 = VERTEX_POINT('',#552);
#552 = CARTESIAN_POINT('',(-2.5,1.9,0.2));
#553 = SURFACE_CURVE('',#554,(#558,#565),.PCURVE_S1.);
#554 = LINE('',#555,#556);
#555 = CARTESIAN_POINT('',(-2.5,1.9,0.2));
#556 = VECTOR('',#557,1.);
#557 = DIRECTION('',(1.,0.E+000,0.E+000));
#558 = PCURVE('',#212,#559);
#559 = DEFINITIONAL_REPRESENTATION('',(#560),#564);
#560 = LINE('',#561,#562);
#561 = CARTESIAN_POINT('',(0.E+000,3.8));
#562 = VECTOR('',#563,1.);
#563 = DIRECTION('',(1.,0.E+000));
#564 = ( GEOMETRIC_REPRESENTATION_CONTEXT(2) 
PARAMETRIC_REPRESENTATION_CONTEXT() REPRESENTATION_CONTEXT('2D SPACE',''
  ) );
#565 = PCURVE('',#566,#571);
#566 = PLANE('',#567);
#567 = AXIS2_PLACEMENT_3D('',#568,#569,#570);
#568 = CARTESIAN_POINT('',(-2.5,1.9,0.2));
#569 = DIRECTION('',(0.E+000,1.,0.E+000));
#570 = DIRECTION('',(0.E+000,0.E+000,1.));
#571 = DEFINITIONAL_REPRESENTATION('',(#572),#576);
#572 = LINE('',#573,#574);
#573 = CARTESIAN_POINT('',(0.E+000,0.E+000));
#574 = VECTOR('',#575,1.);
#575 = DIRECTION('',(0.E+000,1.));
#576 = ( GEOMETRIC_REPRESENTATION_CONTEXT(2) 
PARAMETRIC_REPRESENTATION_CONTEXT() REPRESENTATION_CONTEXT('2D SPACE',''
  ) );
#577 = ORIENTED_EDGE('',*,*,#578,.F.);
#578 = EDGE_CURVE('',#579,#551,#581,.T.);
#579 = VERTEX_POINT('',#580);
#580 = CARTESIAN_POINT('',(-2.5,1.1,0.2));
#581 = SURFACE_CURVE('',#582,(#586,#593),.PCURVE_S1.);
#582 = LINE('',#583,#584);
#583 = CARTESIAN_POINT('',(-2.5,-1.9,0.2));
#584 = VECTOR('',#585,1.);
#585 = DIRECTION('',(0.E+000,1.,0.E+000));
#586 = PCURVE('',#212,#587);
#587 = DEFINITIONAL_REPRESENTATION('',(#588),#592);
#588 = LINE('',#589,#590);
#589 = CARTESIAN_POINT('',(0.E+000,0.E+000));
#590 = VECTOR('',#591,1.);
#591 = DIRECTION('',(0.E+000,1.));
#592 = ( GEOMETRIC_REPRESENTATION_CONTEXT(2) 
PARAMETRIC_REPRESENTATION_CONTEXT() REPRESENTATION_CONTEXT('2D SPACE',''
  ) );
#593 = PCURVE('',#463,#594);
#594 = DEFINITIONAL_REPRESENTATION('',(#595),#599);
#595 = LINE('',#596,#597);
#596 = CARTESIAN_POINT('',(0.E+000,0.E+000));
#597 = VECTOR('',#598,1.);
#598 = DIRECTION('',(0.E+000,-1.));
#599 = ( GEOMETRIC_REPRESENTATION_CONTEXT(2) 
PARAMETRIC_REPRESENTATION_CONTEXT() REPRESENTATION_CONTEXT('2D SPACE',''
  ) );
#600 = ORIENTED_EDGE('',*,*,#601,.T.);
#601 = EDGE_CURVE('',#579,#602,#604,.T.);
#602 = VERTEX_POINT('',#603);
#603 = CARTESIAN_POINT('',(-1.2,1.1,0.2));
#604 = SURFACE_CURVE('',#605,(#609,#615),.PCURVE_S1.);
#605 = LINE('',#606,#607);
#606 = CARTESIAN_POINT('',(-2.65,1.1,0.2));
#607 = VECTOR('',#608,1.);
#608 = DIRECTION('',(1.,0.E+000,0.E+000));
#609 = PCURVE('',#212,#610);
#610 = DEFINITIONAL_REPRESENTATION('',(#611),#614);
#611 = B_SPLINE_CURVE_WITH_KNOTS('',1,(#612,#613),.UNSPECIFIED.,.F.,.F.,
  (2,2),(-0.31,1.61),.PIECEWISE_BEZIER_KNOTS.);
#612 = CARTESIAN_POINT('',(-0.46,3.));
#613 = CARTESIAN_POINT('',(1.46,3.));
#614 = ( GEOMETRIC_REPRESENTATION_CONTEXT(2) 
PARAMETRIC_REPRESENTATION_CONTEXT() REPRESENTATION_CONTEXT('2D SPACE',''
  ) );
#615 = PCURVE('',#616,#621);
#616 = PLANE('',#617);
#617 = AXIS2_PLACEMENT_3D('',#618,#619,#620);
#618 = CARTESIAN_POINT('',(-2.8,1.1,0.E+000));
#619 = DIRECTION('',(0.E+000,1.,0.E+000));
#620 = DIRECTION('',(0.E+000,0.E+000,1.));
#621 = DEFINITIONAL_REPRESENTATION('',(#622),#625);
#622 = B_SPLINE_CURVE_WITH_KNOTS('',1,(#623,#624),.UNSPECIFIED.,.F.,.F.,
  (2,2),(-0.31,1.61),.PIECEWISE_BEZIER_KNOTS.);
#623 = CARTESIAN_POINT('',(0.2,-0.16));
#624 = CARTESIAN_POINT('',(0.2,1.76));
#625 = ( GEOMETRIC_REPRESENTATION_CONTEXT(2) 
PARAMETRIC_REPRESENTATION_CONTEXT() REPRESENTATION_CONTEXT('2D SPACE',''
  ) );
#626 = ORIENTED_EDGE('',*,*,#627,.T.);
#627 = EDGE_CURVE('',#602,#628,#630,.T.);
#628 = VERTEX_POINT('',#629);
#629 = CARTESIAN_POINT('',(-1.2,-1.1,0.2));
#630 = SURFACE_CURVE('',#631,(#635,#641),.PCURVE_S1.);
#631 = LINE('',#632,#633);
#632 = CARTESIAN_POINT('',(-1.2,-1.5,0.2));
#633 = VECTOR('',#634,1.);
#634 = DIRECTION('',(0.E+000,-1.,0.E+000));
#635 = PCURVE('',#212,#636);
#636 = DEFINITIONAL_REPRESENTATION('',(#637),#640);
#637 = B_SPLINE_CURVE_WITH_KNOTS('',1,(#638,#639),.UNSPECIFIED.,.F.,.F.,
  (2,2),(-2.82,-0.18),.PIECEWISE_BEZIER_KNOTS.);
#638 = CARTESIAN_POINT('',(1.3,3.22));
#639 = CARTESIAN_POINT('',(1.3,0.58));
#640 = ( GEOMETRIC_REPRESENTATION_CONTEXT(2) 
PARAMETRIC_REPRESENTATION_CONTEXT() REPRESENTATION_CONTEXT('2D SPACE',''
  ) );
#641 = PCURVE('',#642,#647);
#642 = PLANE('',#643);
#643 = AXIS2_PLACEMENT_3D('',#644,#645,#646);
#644 = CARTESIAN_POINT('',(-1.2,-1.1,0.E+000));
#645 = DIRECTION('',(1.,0.E+000,0.E+000));
#646 = DIRECTION('',(0.E+000,0.E+000,1.));
#647 = DEFINITIONAL_REPRESENTATION('',(#648),#651);
#648 = B_SPLINE_CURVE_WITH_KNOTS('',1,(#649,#650),.UNSPECIFIED.,.F.,.F.,
  (2,2),(-2.82,-0.18),.PIECEWISE_BEZIER_KNOTS.);
#649 = CARTESIAN_POINT('',(0.2,-2.42));
#650 = CARTESIAN_POINT('',(0.2,0.22));
#651 = ( GEOMETRIC_REPRESENTATION_CONTEXT(2) 
PARAMETRIC_REPRESENTATION_CONTEXT() REPRESENTATION_CONTEXT('2D SPACE',''
  ) );
#652 = ORIENTED_EDGE('',*,*,#653,.F.);
#653 = EDGE_CURVE('',#448,#628,#654,.T.);
#654 = SURFACE_CURVE('',#655,(#659,#665),.PCURVE_S1.);
#655 = LINE('',#656,#657);
#656 = CARTESIAN_POINT('',(-2.65,-1.1,0.2));
#657 = VECTOR('',#658,1.);
#658 = DIRECTION('',(1.,0.E+000,0.E+000));
#659 = PCURVE('',#212,#660);
#660 = DEFINITIONAL_REPRESENTATION('',(#661),#664);
#661 = B_SPLINE_CURVE_WITH_KNOTS('',1,(#662,#663),.UNSPECIFIED.,.F.,.F.,
  (2,2),(-0.31,1.61),.PIECEWISE_BEZIER_KNOTS.);
#662 = CARTESIAN_POINT('',(-0.46,0.8));
#663 = CARTESIAN_POINT('',(1.46,0.8));
#664 = ( GEOMETRIC_REPRESENTATION_CONTEXT(2) 
PARAMETRIC_REPRESENTATION_CONTEXT() REPRESENTATION_CONTEXT('2D SPACE',''
  ) );
#665 = PCURVE('',#666,#671);
#666 = PLANE('',#667);
#667 = AXIS2_PLACEMENT_3D('',#668,#669,#670);
#668 = CARTESIAN_POINT('',(-2.8,-1.1,0.E+000));
#669 = DIRECTION('',(0.E+000,1.,0.E+000));
#670 = DIRECTION('',(0.E+000,0.E+000,1.));
#671 = DEFINITIONAL_REPRESENTATION('',(#672),#675);
#672 = B_SPLINE_CURVE_WITH_KNOTS('',1,(#673,#674),.UNSPECIFIED.,.F.,.F.,
  (2,2),(-0.31,1.61),.PIECEWISE_BEZIER_KNOTS.);
#673 = CARTESIAN_POINT('',(0.2,-0.16));
#674 = CARTESIAN_POINT('',(0.2,1.76));
#675 = ( GEOMETRIC_REPRESENTATION_CONTEXT(2) 
PARAMETRIC_REPRESENTATION_CONTEXT() REPRESENTATION_CONTEXT('2D SPACE',''
  ) );
#676 = ADVANCED_FACE('',(#677),#312,.T.);
#677 = FACE_BOUND('',#678,.T.);
#678 = EDGE_LOOP('',(#679,#680,#699,#700));
#679 = ORIENTED_EDGE('',*,*,#298,.F.);
#680 = ORIENTED_EDGE('',*,*,#681,.T.);
#681 = EDGE_CURVE('',#273,#401,#682,.T.);
#682 = SURFACE_CURVE('',#683,(#687,#693),.PCURVE_S1.);
#683 = LINE('',#684,#685);
#684 = CARTESIAN_POINT('',(2.5,-1.5,1.6));
#685 = VECTOR('',#686,1.);
#686 = DIRECTION('',(0.E+000,-1.,0.E+000));
#687 = PCURVE('',#312,#688);
#688 = DEFINITIONAL_REPRESENTATION('',(#689),#692);
#689 = B_SPLINE_CURVE_WITH_KNOTS('',1,(#690,#691),.UNSPECIFIED.,.F.,.F.,
  (2,2),(-2.82,-0.18),.PIECEWISE_BEZIER_KNOTS.);
#690 = CARTESIAN_POINT('',(1.3,2.42));
#691 = CARTESIAN_POINT('',(1.3,-0.22));
#692 = ( GEOMETRIC_REPRESENTATION_CONTEXT(2) 
PARAMETRIC_REPRESENTATION_CONTEXT() REPRESENTATION_CONTEXT('2D SPACE',''
  ) );
#693 = PCURVE('',#287,#694);
#694 = DEFINITIONAL_REPRESENTATION('',(#695),#698);
#695 = B_SPLINE_CURVE_WITH_KNOTS('',1,(#696,#697),.UNSPECIFIED.,.F.,.F.,
  (2,2),(-2.82,-0.18),.PIECEWISE_BEZIER_KNOTS.);
#696 = CARTESIAN_POINT('',(1.4,-3.22));
#697 = CARTESIAN_POINT('',(1.4,-0.58));
#698 = ( GEOMETRIC_REPRESENTATION_CONTEXT(2) 
PARAMETRIC_REPRESENTATION_CONTEXT() REPRESENTATION_CONTEXT('2D SPACE',''
  ) );
#699 = ORIENTED_EDGE('',*,*,#421,.T.);
#700 = ORIENTED_EDGE('',*,*,#352,.T.);
#701 = ADVANCED_FACE('',(#702),#287,.T.);
#702 = FACE_BOUND('',#703,.T.);
#703 = EDGE_LOOP('',(#704,#734,#755,#756,#757,#758,#759,#760));
#704 = ORIENTED_EDGE('',*,*,#705,.F.);
#705 = EDGE_CURVE('',#706,#708,#710,.T.);
#706 = VERTEX_POINT('',#707);
#707 = CARTESIAN_POINT('',(2.5,-1.9,2.6));
#708 = VERTEX_POINT('',#709);
#709 = CARTESIAN_POINT('',(2.5,1.9,2.6));
#710 = SURFACE_CURVE('',#711,(#715,#722),.PCURVE_S1.);
#711 = LINE('',#712,#713);
#712 = CARTESIAN_POINT('',(2.5,-1.9,2.6));
#713 = VECTOR('',#714,1.);
#714 = DIRECTION('',(0.E+000,1.,0.E+000));
#715 = PCURVE('',#287,#716);
#716 = DEFINITIONAL_REPRESENTATION('',(#717),#721);
#717 = LINE('',#718,#719);
#718 = CARTESIAN_POINT('',(2.4,0.E+000));
#719 = VECTOR('',#720,1.);
#720 = DIRECTION('',(0.E+000,-1.));
#721 = ( GEOMETRIC_REPRESENTATION_CONTEXT(2) 
PARAMETRIC_REPRESENTATION_CONTEXT() REPRESENTATION_CONTEXT('2D SPACE',''
  ) );
#722 = PCURVE('',#723,#728);
#723 = PLANE('',#724);
#724 = AXIS2_PLACEMENT_3D('',#725,#726,#727);
#725 = CARTESIAN_POINT('',(-2.5,-1.9,2.6));
#726 = DIRECTION('',(0.E+000,0.E+000,1.));
#727 = DIRECTION('',(1.,0.E+000,0.E+000));
#728 = DEFINITIONAL_REPRESENTATION('',(#729),#733);
#729 = LINE('',#730,#731);
#730 = CARTESIAN_POINT('',(5.,0.E+000));
#731 = VECTOR('',#732,1.);
#732 = DIRECTION('',(0.E+000,1.));
#733 = ( GEOMETRIC_REPRESENTATION_CONTEXT(2) 
PARAMETRIC_REPRESENTATION_CONTEXT() REPRESENTATION_CONTEXT('2D SPACE',''
  ) );
#734 = ORIENTED_EDGE('',*,*,#735,.F.);
#735 = EDGE_CURVE('',#476,#706,#736,.T.);
#736 = SURFACE_CURVE('',#737,(#741,#748),.PCURVE_S1.);
#737 = LINE('',#738,#739);
#738 = CARTESIAN_POINT('',(2.5,-1.9,0.2));
#739 = VECTOR('',#740,1.);
#740 = DIRECTION('',(0.E+000,0.E+000,1.));
#741 = PCURVE('',#287,#742);
#742 = DEFINITIONAL_REPRESENTATION('',(#743),#747);
#743 = LINE('',#744,#745);
#744 = CARTESIAN_POINT('',(0.E+000,0.E+000));
#745 = VECTOR('',#746,1.);
#746 = DIRECTION('',(1.,0.E+000));
#747 = ( GEOMETRIC_REPRESENTATION_CONTEXT(2) 
PARAMETRIC_REPRESENTATION_CONTEXT() REPRESENTATION_CONTEXT('2D SPACE',''
  ) );
#748 = PCURVE('',#491,#749);
#749 = DEFINITIONAL_REPRESENTATION('',(#750),#754);
#750 = LINE('',#751,#752);
#751 = CARTESIAN_POINT('',(0.E+000,5.));
#752 = VECTOR('',#753,1.);
#753 = DIRECTION('',(1.,0.E+000));
#754 = ( GEOMETRIC_REPRESENTATION_CONTEXT(2) 
PARAMETRIC_REPRESENTATION_CONTEXT() REPRESENTATION_CONTEXT('2D SPACE',''
  ) );
#755 = ORIENTED_EDGE('',*,*,#503,.T.);
#756 = ORIENTED_EDGE('',*,*,#400,.T.);
#757 = ORIENTED_EDGE('',*,*,#681,.F.);
#758 = ORIENTED_EDGE('',*,*,#272,.F.);
#759 = ORIENTED_EDGE('',*,*,#527,.T.);
#760 = ORIENTED_EDGE('',*,*,#761,.T.);
#761 = EDGE_CURVE('',#528,#708,#762,.T.);
#762 = SURFACE_CURVE('',#763,(#767,#774),.PCURVE_S1.);
#763 = LINE('',#764,#765);
#764 = CARTESIAN_POINT('',(2.5,1.9,0.2));
#765 = VECTOR('',#766,1.);
#766 = DIRECTION('',(0.E+000,0.E+000,1.));
#767 = PCURVE('',#287,#768);
#768 = DEFINITIONAL_REPRESENTATION('',(#769),#773);
#769 = LINE('',#770,#771);
#770 = CARTESIAN_POINT('',(0.E+000,-3.8));
#771 = VECTOR('',#772,1.);
#772 = DIRECTION('',(1.,0.E+000));
#773 = ( GEOMETRIC_REPRESENTATION_CONTEXT(2) 
PARAMETRIC_REPRESENTATION_CONTEXT() REPRESENTATION_CONTEXT('2D SPACE',''
  ) );
#774 = PCURVE('',#566,#775);
#775 = DEFINITIONAL_REPRESENTATION('',(#776),#780);
#776 = LINE('',#777,#778);
#777 = CARTESIAN_POINT('',(0.E+000,5.));
#778 = VECTOR('',#779,1.);
#779 = DIRECTION('',(1.,0.E+000));
#780 = ( GEOMETRIC_REPRESENTATION_CONTEXT(2) 
PARAMETRIC_REPRESENTATION_CONTEXT() REPRESENTATION_CONTEXT('2D SPACE',''
  ) );
#781 = ADVANCED_FACE('',(#782),#463,.F.);
#782 = FACE_BOUND('',#783,.F.);
#783 = EDGE_LOOP('',(#784,#814,#835,#836,#857,#883,#902,#903));
#784 = ORIENTED_EDGE('',*,*,#785,.F.);
#785 = EDGE_CURVE('',#786,#788,#790,.T.);
#786 = VERTEX_POINT('',#787);
#787 = CARTESIAN_POINT('',(-2.5,-1.9,2.6));
#788 = VERTEX_POINT('',#789);
#789 = CARTESIAN_POINT('',(-2.5,1.9,2.6));
#790 = SURFACE_CURVE('',#791,(#795,#802),.PCURVE_S1.);
#791 = LINE('',#792,#793);
#792 = CARTESIAN_POINT('',(-2.5,-1.9,2.6));
#793 = VECTOR('',#794,1.);
#794 = DIRECTION('',(0.E+000,1.,0.E+000));
#795 = PCURVE('',#463,#796);
#796 = DEFINITIONAL_REPRESENTATION('',(#797),#801);
#797 = LINE('',#798,#799);
#798 = CARTESIAN_POINT('',(2.4,0.E+000));
#799 = VECTOR('',#800,1.);
#800 = DIRECTION('',(0.E+000,-1.));
#801 = ( GEOMETRIC_REPRESENTATION_CONTEXT(2) 
PARAMETRIC_REPRESENTATION_CONTEXT() REPRESENTATION_CONTEXT('2D SPACE',''
  ) );
#802 = PCURVE('',#803,#808);
#803 = PLANE('',#804);
#804 = AXIS2_PLACEMENT_3D('',#805,#806,#807);
#805 = CARTESIAN_POINT('',(-2.5,-1.9,2.6));
#806 = DIRECTION('',(0.E+000,0.E+000,1.));
#807 = DIRECTION('',(1.,0.E+000,0.E+000));
#808 = DEFINITIONAL_REPRESENTATION('',(#809),#813);
#809 = LINE('',#810,#811);
#810 = CARTESIAN_POINT('',(0.E+000,0.E+000));
#811 = VECTOR('',#812,1.);
#812 = DIRECTION('',(0.E+000,1.));
#813 = ( GEOMETRIC_REPRESENTATION_CONTEXT(2) 
PARAMETRIC_REPRESENTATION_CONTEXT() REPRESENTATION_CONTEXT('2D SPACE',''
  ) );
#814 = ORIENTED_EDGE('',*,*,#815,.F.);
#815 = EDGE_CURVE('',#446,#786,#816,.T.);
#816 = SURFACE_CURVE('',#817,(#821,#828),.PCURVE_S1.);
#817 = LINE('',#818,#819);
#818 = CARTESIAN_POINT('',(-2.5,-1.9,0.2));
#819 = VECTOR('',#820,1.);
#820 = DIRECTION('',(0.E+000,0.E+000,1.));
#821 = PCURVE('',#463,#822);
#822 = DEFINITIONAL_REPRESENTATION('',(#823),#827);
#823 = LINE('',#824,#825);
#824 = CARTESIAN_POINT('',(0.E+000,0.E+000));
#825 = VECTOR('',#826,1.);
#826 = DIRECTION('',(1.,0.E+000));
#827 = ( GEOMETRIC_REPRESENTATION_CONTEXT(2) 
PARAMETRIC_REPRESENTATION_CONTEXT() REPRESENTATION_CONTEXT('2D SPACE',''
  ) );
#828 = PCURVE('',#491,#829);
#829 = DEFINITIONAL_REPRESENTATION('',(#830),#834);
#830 = LINE('',#831,#832);
#831 = CARTESIAN_POINT('',(0.E+000,0.E+000));
#832 = VECTOR('',#833,1.);
#833 = DIRECTION('',(1.,0.E+000));
#834 = ( GEOMETRIC_REPRESENTATION_CONTEXT(2) 
PARAMETRIC_REPRESENTATION_CONTEXT() REPRESENTATION_CONTEXT('2D SPACE',''
  ) );
#835 = ORIENTED_EDGE('',*,*,#445,.T.);
#836 = ORIENTED_EDGE('',*,*,#837,.F.);
#837 = EDGE_CURVE('',#838,#448,#840,.T.);
#838 = VERTEX_POINT('',#839);
#839 = CARTESIAN_POINT('',(-2.5,-1.1,1.6));
#840 = SURFACE_CURVE('',#841,(#845,#851),.PCURVE_S1.);
#841 = LINE('',#842,#843);
#842 = CARTESIAN_POINT('',(-2.5,-1.1,0.1));
#843 = VECTOR('',#844,1.);
#844 = DIRECTION('',(0.E+000,0.E+000,-1.));
#845 = PCURVE('',#463,#846);
#846 = DEFINITIONAL_REPRESENTATION('',(#847),#850);
#847 = B_SPLINE_CURVE_WITH_KNOTS('',1,(#848,#849),.UNSPECIFIED.,.F.,.F.,
  (2,2),(-1.66,0.14),.PIECEWISE_BEZIER_KNOTS.);
#848 = CARTESIAN_POINT('',(1.56,-0.8));
#849 = CARTESIAN_POINT('',(-0.24,-0.8));
#850 = ( GEOMETRIC_REPRESENTATION_CONTEXT(2) 
PARAMETRIC_REPRESENTATION_CONTEXT() REPRESENTATION_CONTEXT('2D SPACE',''
  ) );
#851 = PCURVE('',#666,#852);
#852 = DEFINITIONAL_REPRESENTATION('',(#853),#856);
#853 = B_SPLINE_CURVE_WITH_KNOTS('',1,(#854,#855),.UNSPECIFIED.,.F.,.F.,
  (2,2),(-1.66,0.14),.PIECEWISE_BEZIER_KNOTS.);
#854 = CARTESIAN_POINT('',(1.76,0.3));
#855 = CARTESIAN_POINT('',(-4.E-002,0.3));
#856 = ( GEOMETRIC_REPRESENTATION_CONTEXT(2) 
PARAMETRIC_REPRESENTATION_CONTEXT() REPRESENTATION_CONTEXT('2D SPACE',''
  ) );
#857 = ORIENTED_EDGE('',*,*,#858,.T.);
#858 = EDGE_CURVE('',#838,#859,#861,.T.);
#859 = VERTEX_POINT('',#860);
#860 = CARTESIAN_POINT('',(-2.5,1.1,1.6));
#861 = SURFACE_CURVE('',#862,(#866,#872),.PCURVE_S1.);
#862 = LINE('',#863,#864);
#863 = CARTESIAN_POINT('',(-2.5,-1.5,1.6));
#864 = VECTOR('',#865,1.);
#865 = DIRECTION('',(0.E+000,1.,0.E+000));
#866 = PCURVE('',#463,#867);
#867 = DEFINITIONAL_REPRESENTATION('',(#868),#871);
#868 = B_SPLINE_CURVE_WITH_KNOTS('',1,(#869,#870),.UNSPECIFIED.,.F.,.F.,
  (2,2),(0.18,2.82),.PIECEWISE_BEZIER_KNOTS.);
#869 = CARTESIAN_POINT('',(1.4,-0.58));
#870 = CARTESIAN_POINT('',(1.4,-3.22));
#871 = ( GEOMETRIC_REPRESENTATION_CONTEXT(2) 
PARAMETRIC_REPRESENTATION_CONTEXT() REPRESENTATION_CONTEXT('2D SPACE',''
  ) );
#872 = PCURVE('',#873,#878);
#873 = PLANE('',#874);
#874 = AXIS2_PLACEMENT_3D('',#875,#876,#877);
#875 = CARTESIAN_POINT('',(-2.8,-1.1,1.6));
#876 = DIRECTION('',(0.E+000,0.E+000,1.));
#877 = DIRECTION('',(1.,0.E+000,0.E+000));
#878 = DEFINITIONAL_REPRESENTATION('',(#879),#882);
#879 = B_SPLINE_CURVE_WITH_KNOTS('',1,(#880,#881),.UNSPECIFIED.,.F.,.F.,
  (2,2),(0.18,2.82),.PIECEWISE_BEZIER_KNOTS.);
#880 = CARTESIAN_POINT('',(0.3,-0.22));
#881 = CARTESIAN_POINT('',(0.3,2.42));
#882 = ( GEOMETRIC_REPRESENTATION_CONTEXT(2) 
PARAMETRIC_REPRESENTATION_CONTEXT() REPRESENTATION_CONTEXT('2D SPACE',''
  ) );
#883 = ORIENTED_EDGE('',*,*,#884,.T.);
#884 = EDGE_CURVE('',#859,#579,#885,.T.);
#885 = SURFACE_CURVE('',#886,(#890,#896),.PCURVE_S1.);
#886 = LINE('',#887,#888);
#887 = CARTESIAN_POINT('',(-2.5,1.1,0.1));
#888 = VECTOR('',#889,1.);
#889 = DIRECTION('',(0.E+000,0.E+000,-1.));
#890 = PCURVE('',#463,#891);
#891 = DEFINITIONAL_REPRESENTATION('',(#892),#895);
#892 = B_SPLINE_CURVE_WITH_KNOTS('',1,(#893,#894),.UNSPECIFIED.,.F.,.F.,
  (2,2),(-1.66,0.14),.PIECEWISE_BEZIER_KNOTS.);
#893 = CARTESIAN_POINT('',(1.56,-3.));
#894 = CARTESIAN_POINT('',(-0.24,-3.));
#895 = ( GEOMETRIC_REPRESENTATION_CONTEXT(2) 
PARAMETRIC_REPRESENTATION_CONTEXT() REPRESENTATION_CONTEXT('2D SPACE',''
  ) );
#896 = PCURVE('',#616,#897);
#897 = DEFINITIONAL_REPRESENTATION('',(#898),#901);
#898 = B_SPLINE_CURVE_WITH_KNOTS('',1,(#899,#900),.UNSPECIFIED.,.F.,.F.,
  (2,2),(-1.66,0.14),.PIECEWISE_BEZIER_KNOTS.);
#899 = CARTESIAN_POINT('',(1.76,0.3));
#900 = CARTESIAN_POINT('',(-4.E-002,0.3));
#901 = ( GEOMETRIC_REPRESENTATION_CONTEXT(2) 
PARAMETRIC_REPRESENTATION_CONTEXT() REPRESENTATION_CONTEXT('2D SPACE',''
  ) );
#902 = ORIENTED_EDGE('',*,*,#578,.T.);
#903 = ORIENTED_EDGE('',*,*,#904,.T.);
#904 = EDGE_CURVE('',#551,#788,#905,.T.);
#905 = SURFACE_CURVE('',#906,(#910,#917),.PCURVE_S1.);
#906 = LINE('',#907,#908);
#907 = CARTESIAN_POINT('',(-2.5,1.9,0.2));
#908 = VECTOR('',#909,1.);
#909 = DIRECTION('',(0.E+000,0.E+000,1.));
#910 = PCURVE('',#463,#911);
#911 = DEFINITIONAL_REPRESENTATION('',(#912),#916);
#912 = LINE('',#913,#914);
#913 = CARTESIAN_POINT('',(0.E+000,-3.8));
#914 = VECTOR('',#915,1.);
#915 = DIRECTION('',(1.,0.E+000));
#916 = ( GEOMETRIC_REPRESENTATION_CONTEXT(2) 
PARAMETRIC_REPRESENTATION_CONTEXT() REPRESENTATION_CONTEXT('2D SPACE',''
  ) );
#917 = PCURVE('',#566,#918);
#918 = DEFINITIONAL_REPRESENTATION('',(#919),#923);
#919 = LINE('',#920,#921);
#920 = CARTESIAN_POINT('',(0.E+000,0.E+000));
#921 = VECTOR('',#922,1.);
#922 = DIRECTION('',(1.,0.E+000));
#923 = ( GEOMETRIC_REPRESENTATION_CONTEXT(2) 
PARAMETRIC_REPRESENTATION_CONTEXT() REPRESENTATION_CONTEXT('2D SPACE',''
  ) );
#924 = ADVANCED_FACE('',(#925),#666,.F.);
#925 = FACE_BOUND('',#926,.F.);
#926 = EDGE_LOOP('',(#927,#950,#978,#1006,#1027,#1028));
#927 = ORIENTED_EDGE('',*,*,#928,.F.);
#928 = EDGE_CURVE('',#929,#628,#931,.T.);
#929 = VERTEX_POINT('',#930);
#930 = CARTESIAN_POINT('',(-1.2,-1.1,0.E+000));
#931 = SURFACE_CURVE('',#932,(#936,#943),.PCURVE_S1.);
#932 = LINE('',#933,#934);
#933 = CARTESIAN_POINT('',(-1.2,-1.1,0.E+000));
#934 = VECTOR('',#935,1.);
#935 = DIRECTION('',(0.E+000,0.E+000,1.));
#936 = PCURVE('',#666,#937);
#937 = DEFINITIONAL_REPRESENTATION('',(#938),#942);
#938 = LINE('',#939,#940);
#939 = CARTESIAN_POINT('',(0.E+000,1.6));
#940 = VECTOR('',#941,1.);
#941 = DIRECTION('',(1.,0.E+000));
#942 = ( GEOMETRIC_REPRESENTATION_CONTEXT(2) 
PARAMETRIC_REPRESENTATION_CONTEXT() REPRESENTATION_CONTEXT('2D SPACE',''
  ) );
#943 = PCURVE('',#642,#944);
#944 = DEFINITIONAL_REPRESENTATION('',(#945),#949);
#945 = LINE('',#946,#947);
#946 = CARTESIAN_POINT('',(0.E+000,0.E+000));
#947 = VECTOR('',#948,1.);
#948 = DIRECTION('',(1.,0.E+000));
#949 = ( GEOMETRIC_REPRESENTATION_CONTEXT(2) 
PARAMETRIC_REPRESENTATION_CONTEXT() REPRESENTATION_CONTEXT('2D SPACE',''
  ) );
#950 = ORIENTED_EDGE('',*,*,#951,.F.);
#951 = EDGE_CURVE('',#952,#929,#954,.T.);
#952 = VERTEX_POINT('',#953);
#953 = CARTESIAN_POINT('',(-2.8,-1.1,0.E+000));
#954 = SURFACE_CURVE('',#955,(#959,#966),.PCURVE_S1.);
#955 = LINE('',#956,#957);
#956 = CARTESIAN_POINT('',(-2.8,-1.1,0.E+000));
#957 = VECTOR('',#958,1.);
#958 = DIRECTION('',(1.,0.E+000,0.E+000));
#959 = PCURVE('',#666,#960);
#960 = DEFINITIONAL_REPRESENTATION('',(#961),#965);
#961 = LINE('',#962,#963);
#962 = CARTESIAN_POINT('',(0.E+000,0.E+000));
#963 = VECTOR('',#964,1.);
#964 = DIRECTION('',(0.E+000,1.));
#965 = ( GEOMETRIC_REPRESENTATION_CONTEXT(2) 
PARAMETRIC_REPRESENTATION_CONTEXT() REPRESENTATION_CONTEXT('2D SPACE',''
  ) );
#966 = PCURVE('',#967,#972);
#967 = PLANE('',#968);
#968 = AXIS2_PLACEMENT_3D('',#969,#970,#971);
#969 = CARTESIAN_POINT('',(-2.8,-1.1,0.E+000));
#970 = DIRECTION('',(0.E+000,0.E+000,1.));
#971 = DIRECTION('',(1.,0.E+000,0.E+000));
#972 = DEFINITIONAL_REPRESENTATION('',(#973),#977);
#973 = LINE('',#974,#975);
#974 = CARTESIAN_POINT('',(0.E+000,0.E+000));
#975 = VECTOR('',#976,1.);
#976 = DIRECTION('',(1.,0.E+000));
#977 = ( GEOMETRIC_REPRESENTATION_CONTEXT(2) 
PARAMETRIC_REPRESENTATION_CONTEXT() REPRESENTATION_CONTEXT('2D SPACE',''
  ) );
#978 = ORIENTED_EDGE('',*,*,#979,.T.);
#979 = EDGE_CURVE('',#952,#980,#982,.T.);
#980 = VERTEX_POINT('',#981);
#981 = CARTESIAN_POINT('',(-2.8,-1.1,1.6));
#982 = SURFACE_CURVE('',#983,(#987,#994),.PCURVE_S1.);
#983 = LINE('',#984,#985);
#984 = CARTESIAN_POINT('',(-2.8,-1.1,0.E+000));
#985 = VECTOR('',#986,1.);
#986 = DIRECTION('',(0.E+000,0.E+000,1.));
#987 = PCURVE('',#666,#988);
#988 = DEFINITIONAL_REPRESENTATION('',(#989),#993);
#989 = LINE('',#990,#991);
#990 = CARTESIAN_POINT('',(0.E+000,0.E+000));
#991 = VECTOR('',#992,1.);
#992 = DIRECTION('',(1.,0.E+000));
#993 = ( GEOMETRIC_REPRESENTATION_CONTEXT(2) 
PARAMETRIC_REPRESENTATION_CONTEXT() REPRESENTATION_CONTEXT('2D SPACE',''
  ) );
#994 = PCURVE('',#995,#1000);
#995 = PLANE('',#996);
#996 = AXIS2_PLACEMENT_3D('',#997,#998,#999);
#997 = CARTESIAN_POINT('',(-2.8,-1.1,0.E+000));
#998 = DIRECTION('',(1.,0.E+000,0.E+000));
#999 = DIRECTION('',(0.E+000,0.E+000,1.));
#1000 = DEFINITIONAL_REPRESENTATION('',(#1001),#1005);
#1001 = LINE('',#1002,#1003);
#1002 = CARTESIAN_POINT('',(0.E+000,0.E+000));
#1003 = VECTOR('',#1004,1.);
#1004 = DIRECTION('',(1.,0.E+000));
#1005 = ( GEOMETRIC_REPRESENTATION_CONTEXT(2) 
PARAMETRIC_REPRESENTATION_CONTEXT() REPRESENTATION_CONTEXT('2D SPACE',''
  ) );
#1006 = ORIENTED_EDGE('',*,*,#1007,.T.);
#1007 = EDGE_CURVE('',#980,#838,#1008,.T.);
#1008 = SURFACE_CURVE('',#1009,(#1013,#1020),.PCURVE_S1.);
#1009 = LINE('',#1010,#1011);
#1010 = CARTESIAN_POINT('',(-2.8,-1.1,1.6));
#1011 = VECTOR('',#1012,1.);
#1012 = DIRECTION('',(1.,0.E+000,0.E+000));
#1013 = PCURVE('',#666,#1014);
#1014 = DEFINITIONAL_REPRESENTATION('',(#1015),#1019);
#1015 = LINE('',#1016,#1017);
#1016 = CARTESIAN_POINT('',(1.6,0.E+000));
#1017 = VECTOR('',#1018,1.);
#1018 = DIRECTION('',(0.E+000,1.));
#1019 = ( GEOMETRIC_REPRESENTATION_CONTEXT(2) 
PARAMETRIC_REPRESENTATION_CONTEXT() REPRESENTATION_CONTEXT('2D SPACE',''
  ) );
#1020 = PCURVE('',#873,#1021);
#1021 = DEFINITIONAL_REPRESENTATION('',(#1022),#1026);
#1022 = LINE('',#1023,#1024);
#1023 = CARTESIAN_POINT('',(0.E+000,0.E+000));
#1024 = VECTOR('',#1025,1.);
#1025 = DIRECTION('',(1.,0.E+000));
#1026 = ( GEOMETRIC_REPRESENTATION_CONTEXT(2) 
PARAMETRIC_REPRESENTATION_CONTEXT() REPRESENTATION_CONTEXT('2D SPACE',''
  ) );
#1027 = ORIENTED_EDGE('',*,*,#837,.T.);
#1028 = ORIENTED_EDGE('',*,*,#653,.T.);
#1029 = ADVANCED_FACE('',(#1030),#642,.T.);
#1030 = FACE_BOUND('',#1031,.T.);
#1031 = EDGE_LOOP('',(#1032,#1033,#1056,#1077));
#1032 = ORIENTED_EDGE('',*,*,#928,.F.);
#1033 = ORIENTED_EDGE('',*,*,#1034,.T.);
#1034 = EDGE_CURVE('',#929,#1035,#1037,.T.);
#1035 = VERTEX_POINT('',#1036);
#1036 = CARTESIAN_POINT('',(-1.2,1.1,0.E+000));
#1037 = SURFACE_CURVE('',#1038,(#1042,#1049),.PCURVE_S1.);
#1038 = LINE('',#1039,#1040);
#1039 = CARTESIAN_POINT('',(-1.2,-1.1,0.E+000));
#1040 = VECTOR('',#1041,1.);
#1041 = DIRECTION('',(0.E+000,1.,0.E+000));
#1042 = PCURVE('',#642,#1043);
#1043 = DEFINITIONAL_REPRESENTATION('',(#1044),#1048);
#1044 = LINE('',#1045,#1046);
#1045 = CARTESIAN_POINT('',(0.E+000,0.E+000));
#1046 = VECTOR('',#1047,1.);
#1047 = DIRECTION('',(0.E+000,-1.));
#1048 = ( GEOMETRIC_REPRESENTATION_CONTEXT(2) 
PARAMETRIC_REPRESENTATION_CONTEXT() REPRESENTATION_CONTEXT('2D SPACE',''
  ) );
#1049 = PCURVE('',#967,#1050);
#1050 = DEFINITIONAL_REPRESENTATION('',(#1051),#1055);
#1051 = LINE('',#1052,#1053);
#1052 = CARTESIAN_POINT('',(1.6,0.E+000));
#1053 = VECTOR('',#1054,1.);
#1054 = DIRECTION('',(0.E+000,1.));
#1055 = ( GEOMETRIC_REPRESENTATION_CONTEXT(2) 
PARAMETRIC_REPRESENTATION_CONTEXT() REPRESENTATION_CONTEXT('2D SPACE',''
  ) );
#1056 = ORIENTED_EDGE('',*,*,#1057,.T.);
#1057 = EDGE_CURVE('',#1035,#602,#1058,.T.);
#1058 = SURFACE_CURVE('',#1059,(#1063,#1070),.PCURVE_S1.);
#1059 = LINE('',#1060,#1061);
#1060 = CARTESIAN_POINT('',(-1.2,1.1,0.E+000));
#1061 = VECTOR('',#1062,1.);
#1062 = DIRECTION('',(0.E+000,0.E+000,1.));
#1063 = PCURVE('',#642,#1064);
#1064 = DEFINITIONAL_REPRESENTATION('',(#1065),#1069);
#1065 = LINE('',#1066,#1067);
#1066 = CARTESIAN_POINT('',(0.E+000,-2.2));
#1067 = VECTOR('',#1068,1.);
#1068 = DIRECTION('',(1.,0.E+000));
#1069 = ( GEOMETRIC_REPRESENTATION_CONTEXT(2) 
PARAMETRIC_REPRESENTATION_CONTEXT() REPRESENTATION_CONTEXT('2D SPACE',''
  ) );
#1070 = PCURVE('',#616,#1071);
#1071 = DEFINITIONAL_REPRESENTATION('',(#1072),#1076);
#1072 = LINE('',#1073,#1074);
#1073 = CARTESIAN_POINT('',(0.E+000,1.6));
#1074 = VECTOR('',#1075,1.);
#1075 = DIRECTION('',(1.,0.E+000));
#1076 = ( GEOMETRIC_REPRESENTATION_CONTEXT(2) 
PARAMETRIC_REPRESENTATION_CONTEXT() REPRESENTATION_CONTEXT('2D SPACE',''
  ) );
#1077 = ORIENTED_EDGE('',*,*,#627,.T.);
#1078 = ADVANCED_FACE('',(#1079),#616,.T.);
#1079 = FACE_BOUND('',#1080,.T.);
#1080 = EDGE_LOOP('',(#1081,#1082,#1105,#1128,#1149,#1150));
#1081 = ORIENTED_EDGE('',*,*,#1057,.F.);
#1082 = ORIENTED_EDGE('',*,*,#1083,.F.);
#1083 = EDGE_CURVE('',#1084,#1035,#1086,.T.);
#1084 = VERTEX_POINT('',#1085);
#1085 = CARTESIAN_POINT('',(-2.8,1.1,0.E+000));
#1086 = SURFACE_CURVE('',#1087,(#1091,#1098),.PCURVE_S1.);
#1087 = LINE('',#1088,#1089);
#1088 = CARTESIAN_POINT('',(-2.8,1.1,0.E+000));
#1089 = VECTOR('',#1090,1.);
#1090 = DIRECTION('',(1.,0.E+000,0.E+000));
#1091 = PCURVE('',#616,#1092);
#1092 = DEFINITIONAL_REPRESENTATION('',(#1093),#1097);
#1093 = LINE('',#1094,#1095);
#1094 = CARTESIAN_POINT('',(0.E+000,0.E+000));
#1095 = VECTOR('',#1096,1.);
#1096 = DIRECTION('',(0.E+000,1.));
#1097 = ( GEOMETRIC_REPRESENTATION_CONTEXT(2) 
PARAMETRIC_REPRESENTATION_CONTEXT() REPRESENTATION_CONTEXT('2D SPACE',''
  ) );
#1098 = PCURVE('',#967,#1099);
#1099 = DEFINITIONAL_REPRESENTATION('',(#1100),#1104);
#1100 = LINE('',#1101,#1102);
#1101 = CARTESIAN_POINT('',(0.E+000,2.2));
#1102 = VECTOR('',#1103,1.);
#1103 = DIRECTION('',(1.,0.E+000));
#1104 = ( GEOMETRIC_REPRESENTATION_CONTEXT(2) 
PARAMETRIC_REPRESENTATION_CONTEXT() REPRESENTATION_CONTEXT('2D SPACE',''
  ) );
#1105 = ORIENTED_EDGE('',*,*,#1106,.T.);
#1106 = EDGE_CURVE('',#1084,#1107,#1109,.T.);
#1107 = VERTEX_POINT('',#1108);
#1108 = CARTESIAN_POINT('',(-2.8,1.1,1.6));
#1109 = SURFACE_CURVE('',#1110,(#1114,#1121),.PCURVE_S1.);
#1110 = LINE('',#1111,#1112);
#1111 = CARTESIAN_POINT('',(-2.8,1.1,0.E+000));
#1112 = VECTOR('',#1113,1.);
#1113 = DIRECTION('',(0.E+000,0.E+000,1.));
#1114 = PCURVE('',#616,#1115);
#1115 = DEFINITIONAL_REPRESENTATION('',(#1116),#1120);
#1116 = LINE('',#1117,#1118);
#1117 = CARTESIAN_POINT('',(0.E+000,0.E+000));
#1118 = VECTOR('',#1119,1.);
#1119 = DIRECTION('',(1.,0.E+000));
#1120 = ( GEOMETRIC_REPRESENTATION_CONTEXT(2) 
PARAMETRIC_REPRESENTATION_CONTEXT() REPRESENTATION_CONTEXT('2D SPACE',''
  ) );
#1121 = PCURVE('',#995,#1122);
#1122 = DEFINITIONAL_REPRESENTATION('',(#1123),#1127);
#1123 = LINE('',#1124,#1125);
#1124 = CARTESIAN_POINT('',(0.E+000,-2.2));
#1125 = VECTOR('',#1126,1.);
#1126 = DIRECTION('',(1.,0.E+000));
#1127 = ( GEOMETRIC_REPRESENTATION_CONTEXT(2) 
PARAMETRIC_REPRESENTATION_CONTEXT() REPRESENTATION_CONTEXT('2D SPACE',''
  ) );
#1128 = ORIENTED_EDGE('',*,*,#1129,.T.);
#1129 = EDGE_CURVE('',#1107,#859,#1130,.T.);
#1130 = SURFACE_CURVE('',#1131,(#1135,#1142),.PCURVE_S1.);
#1131 = LINE('',#1132,#1133);
#1132 = CARTESIAN_POINT('',(-2.8,1.1,1.6));
#1133 = VECTOR('',#1134,1.);
#1134 = DIRECTION('',(1.,0.E+000,0.E+000));
#1135 = PCURVE('',#616,#1136);
#1136 = DEFINITIONAL_REPRESENTATION('',(#1137),#1141);
#1137 = LINE('',#1138,#1139);
#1138 = CARTESIAN_POINT('',(1.6,0.E+000));
#1139 = VECTOR('',#1140,1.);
#1140 = DIRECTION('',(0.E+000,1.));
#1141 = ( GEOMETRIC_REPRESENTATION_CONTEXT(2) 
PARAMETRIC_REPRESENTATION_CONTEXT() REPRESENTATION_CONTEXT('2D SPACE',''
  ) );
#1142 = PCURVE('',#873,#1143);
#1143 = DEFINITIONAL_REPRESENTATION('',(#1144),#1148);
#1144 = LINE('',#1145,#1146);
#1145 = CARTESIAN_POINT('',(0.E+000,2.2));
#1146 = VECTOR('',#1147,1.);
#1147 = DIRECTION('',(1.,0.E+000));
#1148 = ( GEOMETRIC_REPRESENTATION_CONTEXT(2) 
PARAMETRIC_REPRESENTATION_CONTEXT() REPRESENTATION_CONTEXT('2D SPACE',''
  ) );
#1149 = ORIENTED_EDGE('',*,*,#884,.T.);
#1150 = ORIENTED_EDGE('',*,*,#601,.T.);
#1151 = ADVANCED_FACE('',(#1152),#566,.T.);
#1152 = FACE_BOUND('',#1153,.T.);
#1153 = EDGE_LOOP('',(#1154,#1155,#1156,#1157,#1180,#1208,#1236,#1264));
#1154 = ORIENTED_EDGE('',*,*,#761,.F.);
#1155 = ORIENTED_EDGE('',*,*,#550,.F.);
#1156 = ORIENTED_EDGE('',*,*,#904,.T.);
#1157 = ORIENTED_EDGE('',*,*,#1158,.T.);
#1158 = EDGE_CURVE('',#788,#1159,#1161,.T.);
#1159 = VERTEX_POINT('',#1160);
#1160 = CARTESIAN_POINT('',(1.4,1.9,2.6));
#1161 = SURFACE_CURVE('',#1162,(#1166,#1173),.PCURVE_S1.);
#1162 = LINE('',#1163,#1164);
#1163 = CARTESIAN_POINT('',(-2.5,1.9,2.6));
#1164 = VECTOR('',#1165,1.);
#1165 = DIRECTION('',(1.,0.E+000,0.E+000));
#1166 = PCURVE('',#566,#1167);
#1167 = DEFINITIONAL_REPRESENTATION('',(#1168),#1172);
#1168 = LINE('',#1169,#1170);
#1169 = CARTESIAN_POINT('',(2.4,0.E+000));
#1170 = VECTOR('',#1171,1.);
#1171 = DIRECTION('',(0.E+000,1.));
#1172 = ( GEOMETRIC_REPRESENTATION_CONTEXT(2) 
PARAMETRIC_REPRESENTATION_CONTEXT() REPRESENTATION_CONTEXT('2D SPACE',''
  ) );
#1173 = PCURVE('',#803,#1174);
#1174 = DEFINITIONAL_REPRESENTATION('',(#1175),#1179);
#1175 = LINE('',#1176,#1177);
#1176 = CARTESIAN_POINT('',(0.E+000,3.8));
#1177 = VECTOR('',#1178,1.);
#1178 = DIRECTION('',(1.,0.E+000));
#1179 = ( GEOMETRIC_REPRESENTATION_CONTEXT(2) 
PARAMETRIC_REPRESENTATION_CONTEXT() REPRESENTATION_CONTEXT('2D SPACE',''
  ) );
#1180 = ORIENTED_EDGE('',*,*,#1181,.F.);
#1181 = EDGE_CURVE('',#1182,#1159,#1184,.T.);
#1182 = VERTEX_POINT('',#1183);
#1183 = CARTESIAN_POINT('',(1.4,1.9,2.59));
#1184 = SURFACE_CURVE('',#1185,(#1189,#1196),.PCURVE_S1.);
#1185 = LINE('',#1186,#1187);
#1186 = CARTESIAN_POINT('',(1.4,1.9,2.59));
#1187 = VECTOR('',#1188,1.);
#1188 = DIRECTION('',(0.E+000,0.E+000,1.));
#1189 = PCURVE('',#566,#1190);
#1190 = DEFINITIONAL_REPRESENTATION('',(#1191),#1195);
#1191 = LINE('',#1192,#1193);
#1192 = CARTESIAN_POINT('',(2.39,3.9));
#1193 = VECTOR('',#1194,1.);
#1194 = DIRECTION('',(1.,0.E+000));
#1195 = ( GEOMETRIC_REPRESENTATION_CONTEXT(2) 
PARAMETRIC_REPRESENTATION_CONTEXT() REPRESENTATION_CONTEXT('2D SPACE',''
  ) );
#1196 = PCURVE('',#1197,#1202);
#1197 = PLANE('',#1198);
#1198 = AXIS2_PLACEMENT_3D('',#1199,#1200,#1201);
#1199 = CARTESIAN_POINT('',(1.4,-1.9,2.59));
#1200 = DIRECTION('',(1.,0.E+000,0.E+000));
#1201 = DIRECTION('',(0.E+000,0.E+000,1.));
#1202 = DEFINITIONAL_REPRESENTATION('',(#1203),#1207);
#1203 = LINE('',#1204,#1205);
#1204 = CARTESIAN_POINT('',(0.E+000,-3.8));
#1205 = VECTOR('',#1206,1.);
#1206 = DIRECTION('',(1.,0.E+000));
#1207 = ( GEOMETRIC_REPRESENTATION_CONTEXT(2) 
PARAMETRIC_REPRESENTATION_CONTEXT() REPRESENTATION_CONTEXT('2D SPACE',''
  ) );
#1208 = ORIENTED_EDGE('',*,*,#1209,.T.);
#1209 = EDGE_CURVE('',#1182,#1210,#1212,.T.);
#1210 = VERTEX_POINT('',#1211);
#1211 = CARTESIAN_POINT('',(2.1,1.9,2.59));
#1212 = SURFACE_CURVE('',#1213,(#1217,#1224),.PCURVE_S1.);
#1213 = LINE('',#1214,#1215);
#1214 = CARTESIAN_POINT('',(1.4,1.9,2.59));
#1215 = VECTOR('',#1216,1.);
#1216 = DIRECTION('',(1.,0.E+000,0.E+000));
#1217 = PCURVE('',#566,#1218);
#1218 = DEFINITIONAL_REPRESENTATION('',(#1219),#1223);
#1219 = LINE('',#1220,#1221);
#1220 = CARTESIAN_POINT('',(2.39,3.9));
#1221 = VECTOR('',#1222,1.);
#1222 = DIRECTION('',(0.E+000,1.));
#1223 = ( GEOMETRIC_REPRESENTATION_CONTEXT(2) 
PARAMETRIC_REPRESENTATION_CONTEXT() REPRESENTATION_CONTEXT('2D SPACE',''
  ) );
#1224 = PCURVE('',#1225,#1230);
#1225 = PLANE('',#1226);
#1226 = AXIS2_PLACEMENT_3D('',#1227,#1228,#1229);
#1227 = CARTESIAN_POINT('',(1.4,-1.9,2.59));
#1228 = DIRECTION('',(0.E+000,0.E+000,1.));
#1229 = DIRECTION('',(1.,0.E+000,0.E+000));
#1230 = DEFINITIONAL_REPRESENTATION('',(#1231),#1235);
#1231 = LINE('',#1232,#1233);
#1232 = CARTESIAN_POINT('',(0.E+000,3.8));
#1233 = VECTOR('',#1234,1.);
#1234 = DIRECTION('',(1.,0.E+000));
#1235 = ( GEOMETRIC_REPRESENTATION_CONTEXT(2) 
PARAMETRIC_REPRESENTATION_CONTEXT() REPRESENTATION_CONTEXT('2D SPACE',''
  ) );
#1236 = ORIENTED_EDGE('',*,*,#1237,.T.);
#1237 = EDGE_CURVE('',#1210,#1238,#1240,.T.);
#1238 = VERTEX_POINT('',#1239);
#1239 = CARTESIAN_POINT('',(2.1,1.9,2.6));
#1240 = SURFACE_CURVE('',#1241,(#1245,#1252),.PCURVE_S1.);
#1241 = LINE('',#1242,#1243);
#1242 = CARTESIAN_POINT('',(2.1,1.9,2.59));
#1243 = VECTOR('',#1244,1.);
#1244 = DIRECTION('',(0.E+000,0.E+000,1.));
#1245 = PCURVE('',#566,#1246);
#1246 = DEFINITIONAL_REPRESENTATION('',(#1247),#1251);
#1247 = LINE('',#1248,#1249);
#1248 = CARTESIAN_POINT('',(2.39,4.6));
#1249 = VECTOR('',#1250,1.);
#1250 = DIRECTION('',(1.,0.E+000));
#1251 = ( GEOMETRIC_REPRESENTATION_CONTEXT(2) 
PARAMETRIC_REPRESENTATION_CONTEXT() REPRESENTATION_CONTEXT('2D SPACE',''
  ) );
#1252 = PCURVE('',#1253,#1258);
#1253 = PLANE('',#1254);
#1254 = AXIS2_PLACEMENT_3D('',#1255,#1256,#1257);
#1255 = CARTESIAN_POINT('',(2.1,-1.9,2.59));
#1256 = DIRECTION('',(1.,0.E+000,0.E+000));
#1257 = DIRECTION('',(0.E+000,0.E+000,1.));
#1258 = DEFINITIONAL_REPRESENTATION('',(#1259),#1263);
#1259 = LINE('',#1260,#1261);
#1260 = CARTESIAN_POINT('',(0.E+000,-3.8));
#1261 = VECTOR('',#1262,1.);
#1262 = DIRECTION('',(1.,0.E+000));
#1263 = ( GEOMETRIC_REPRESENTATION_CONTEXT(2) 
PARAMETRIC_REPRESENTATION_CONTEXT() REPRESENTATION_CONTEXT('2D SPACE',''
  ) );
#1264 = ORIENTED_EDGE('',*,*,#1265,.T.);
#1265 = EDGE_CURVE('',#1238,#708,#1266,.T.);
#1266 = SURFACE_CURVE('',#1267,(#1271,#1278),.PCURVE_S1.);
#1267 = LINE('',#1268,#1269);
#1268 = CARTESIAN_POINT('',(-2.5,1.9,2.6));
#1269 = VECTOR('',#1270,1.);
#1270 = DIRECTION('',(1.,0.E+000,0.E+000));
#1271 = PCURVE('',#566,#1272);
#1272 = DEFINITIONAL_REPRESENTATION('',(#1273),#1277);
#1273 = LINE('',#1274,#1275);
#1274 = CARTESIAN_POINT('',(2.4,0.E+000));
#1275 = VECTOR('',#1276,1.);
#1276 = DIRECTION('',(0.E+000,1.));
#1277 = ( GEOMETRIC_REPRESENTATION_CONTEXT(2) 
PARAMETRIC_REPRESENTATION_CONTEXT() REPRESENTATION_CONTEXT('2D SPACE',''
  ) );
#1278 = PCURVE('',#723,#1279);
#1279 = DEFINITIONAL_REPRESENTATION('',(#1280),#1284);
#1280 = LINE('',#1281,#1282);
#1281 = CARTESIAN_POINT('',(0.E+000,3.8));
#1282 = VECTOR('',#1283,1.);
#1283 = DIRECTION('',(1.,0.E+000));
#1284 = ( GEOMETRIC_REPRESENTATION_CONTEXT(2) 
PARAMETRIC_REPRESENTATION_CONTEXT() REPRESENTATION_CONTEXT('2D SPACE',''
  ) );
#1285 = ADVANCED_FACE('',(#1286),#491,.F.);
#1286 = FACE_BOUND('',#1287,.F.);
#1287 = EDGE_LOOP('',(#1288,#1289,#1290,#1291,#1314,#1337,#1360,#1383));
#1288 = ORIENTED_EDGE('',*,*,#735,.F.);
#1289 = ORIENTED_EDGE('',*,*,#475,.F.);
#1290 = ORIENTED_EDGE('',*,*,#815,.T.);
#1291 = ORIENTED_EDGE('',*,*,#1292,.T.);
#1292 = EDGE_CURVE('',#786,#1293,#1295,.T.);
#1293 = VERTEX_POINT('',#1294);
#1294 = CARTESIAN_POINT('',(1.4,-1.9,2.6));
#1295 = SURFACE_CURVE('',#1296,(#1300,#1307),.PCURVE_S1.);
#1296 = LINE('',#1297,#1298);
#1297 = CARTESIAN_POINT('',(-2.5,-1.9,2.6));
#1298 = VECTOR('',#1299,1.);
#1299 = DIRECTION('',(1.,0.E+000,0.E+000));
#1300 = PCURVE('',#491,#1301);
#1301 = DEFINITIONAL_REPRESENTATION('',(#1302),#1306);
#1302 = LINE('',#1303,#1304);
#1303 = CARTESIAN_POINT('',(2.4,0.E+000));
#1304 = VECTOR('',#1305,1.);
#1305 = DIRECTION('',(0.E+000,1.));
#1306 = ( GEOMETRIC_REPRESENTATION_CONTEXT(2) 
PARAMETRIC_REPRESENTATION_CONTEXT() REPRESENTATION_CONTEXT('2D SPACE',''
  ) );
#1307 = PCURVE('',#803,#1308);
#1308 = DEFINITIONAL_REPRESENTATION('',(#1309),#1313);
#1309 = LINE('',#1310,#1311);
#1310 = CARTESIAN_POINT('',(0.E+000,0.E+000));
#1311 = VECTOR('',#1312,1.);
#1312 = DIRECTION('',(1.,0.E+000));
#1313 = ( GEOMETRIC_REPRESENTATION_CONTEXT(2) 
PARAMETRIC_REPRESENTATION_CONTEXT() REPRESENTATION_CONTEXT('2D SPACE',''
  ) );
#1314 = ORIENTED_EDGE('',*,*,#1315,.F.);
#1315 = EDGE_CURVE('',#1316,#1293,#1318,.T.);
#1316 = VERTEX_POINT('',#1317);
#1317 = CARTESIAN_POINT('',(1.4,-1.9,2.59));
#1318 = SURFACE_CURVE('',#1319,(#1323,#1330),.PCURVE_S1.);
#1319 = LINE('',#1320,#1321);
#1320 = CARTESIAN_POINT('',(1.4,-1.9,2.59));
#1321 = VECTOR('',#1322,1.);
#1322 = DIRECTION('',(0.E+000,0.E+000,1.));
#1323 = PCURVE('',#491,#1324);
#1324 = DEFINITIONAL_REPRESENTATION('',(#1325),#1329);
#1325 = LINE('',#1326,#1327);
#1326 = CARTESIAN_POINT('',(2.39,3.9));
#1327 = VECTOR('',#1328,1.);
#1328 = DIRECTION('',(1.,0.E+000));
#1329 = ( GEOMETRIC_REPRESENTATION_CONTEXT(2) 
PARAMETRIC_REPRESENTATION_CONTEXT() REPRESENTATION_CONTEXT('2D SPACE',''
  ) );
#1330 = PCURVE('',#1197,#1331);
#1331 = DEFINITIONAL_REPRESENTATION('',(#1332),#1336);
#1332 = LINE('',#1333,#1334);
#1333 = CARTESIAN_POINT('',(0.E+000,0.E+000));
#1334 = VECTOR('',#1335,1.);
#1335 = DIRECTION('',(1.,0.E+000));
#1336 = ( GEOMETRIC_REPRESENTATION_CONTEXT(2) 
PARAMETRIC_REPRESENTATION_CONTEXT() REPRESENTATION_CONTEXT('2D SPACE',''
  ) );
#1337 = ORIENTED_EDGE('',*,*,#1338,.T.);
#1338 = EDGE_CURVE('',#1316,#1339,#1341,.T.);
#1339 = VERTEX_POINT('',#1340);
#1340 = CARTESIAN_POINT('',(2.1,-1.9,2.59));
#1341 = SURFACE_CURVE('',#1342,(#1346,#1353),.PCURVE_S1.);
#1342 = LINE('',#1343,#1344);
#1343 = CARTESIAN_POINT('',(1.4,-1.9,2.59));
#1344 = VECTOR('',#1345,1.);
#1345 = DIRECTION('',(1.,0.E+000,0.E+000));
#1346 = PCURVE('',#491,#1347);
#1347 = DEFINITIONAL_REPRESENTATION('',(#1348),#1352);
#1348 = LINE('',#1349,#1350);
#1349 = CARTESIAN_POINT('',(2.39,3.9));
#1350 = VECTOR('',#1351,1.);
#1351 = DIRECTION('',(0.E+000,1.));
#1352 = ( GEOMETRIC_REPRESENTATION_CONTEXT(2) 
PARAMETRIC_REPRESENTATION_CONTEXT() REPRESENTATION_CONTEXT('2D SPACE',''
  ) );
#1353 = PCURVE('',#1225,#1354);
#1354 = DEFINITIONAL_REPRESENTATION('',(#1355),#1359);
#1355 = LINE('',#1356,#1357);
#1356 = CARTESIAN_POINT('',(0.E+000,0.E+000));
#1357 = VECTOR('',#1358,1.);
#1358 = DIRECTION('',(1.,0.E+000));
#1359 = ( GEOMETRIC_REPRESENTATION_CONTEXT(2) 
PARAMETRIC_REPRESENTATION_CONTEXT() REPRESENTATION_CONTEXT('2D SPACE',''
  ) );
#1360 = ORIENTED_EDGE('',*,*,#1361,.T.);
#1361 = EDGE_CURVE('',#1339,#1362,#1364,.T.);
#1362 = VERTEX_POINT('',#1363);
#1363 = CARTESIAN_POINT('',(2.1,-1.9,2.6));
#1364 = SURFACE_CURVE('',#1365,(#1369,#1376),.PCURVE_S1.);
#1365 = LINE('',#1366,#1367);
#1366 = CARTESIAN_POINT('',(2.1,-1.9,2.59));
#1367 = VECTOR('',#1368,1.);
#1368 = DIRECTION('',(0.E+000,0.E+000,1.));
#1369 = PCURVE('',#491,#1370);
#1370 = DEFINITIONAL_REPRESENTATION('',(#1371),#1375);
#1371 = LINE('',#1372,#1373);
#1372 = CARTESIAN_POINT('',(2.39,4.6));
#1373 = VECTOR('',#1374,1.);
#1374 = DIRECTION('',(1.,0.E+000));
#1375 = ( GEOMETRIC_REPRESENTATION_CONTEXT(2) 
PARAMETRIC_REPRESENTATION_CONTEXT() REPRESENTATION_CONTEXT('2D SPACE',''
  ) );
#1376 = PCURVE('',#1253,#1377);
#1377 = DEFINITIONAL_REPRESENTATION('',(#1378),#1382);
#1378 = LINE('',#1379,#1380);
#1379 = CARTESIAN_POINT('',(0.E+000,0.E+000));
#1380 = VECTOR('',#1381,1.);
#1381 = DIRECTION('',(1.,0.E+000));
#1382 = ( GEOMETRIC_REPRESENTATION_CONTEXT(2) 
PARAMETRIC_REPRESENTATION_CONTEXT() REPRESENTATION_CONTEXT('2D SPACE',''
  ) );
#1383 = ORIENTED_EDGE('',*,*,#1384,.T.);
#1384 = EDGE_CURVE('',#1362,#706,#1385,.T.);
#1385 = SURFACE_CURVE('',#1386,(#1390,#1397),.PCURVE_S1.);
#1386 = LINE('',#1387,#1388);
#1387 = CARTESIAN_POINT('',(-2.5,-1.9,2.6));
#1388 = VECTOR('',#1389,1.);
#1389 = DIRECTION('',(1.,0.E+000,0.E+000));
#1390 = PCURVE('',#491,#1391);
#1391 = DEFINITIONAL_REPRESENTATION('',(#1392),#1396);
#1392 = LINE('',#1393,#1394);
#1393 = CARTESIAN_POINT('',(2.4,0.E+000));
#1394 = VECTOR('',#1395,1.);
#1395 = DIRECTION('',(0.E+000,1.));
#1396 = ( GEOMETRIC_REPRESENTATION_CONTEXT(2) 
PARAMETRIC_REPRESENTATION_CONTEXT() REPRESENTATION_CONTEXT('2D SPACE',''
  ) );
#1397 = PCURVE('',#723,#1398);
#1398 = DEFINITIONAL_REPRESENTATION('',(#1399),#1403);
#1399 = LINE('',#1400,#1401);
#1400 = CARTESIAN_POINT('',(0.E+000,0.E+000));
#1401 = VECTOR('',#1402,1.);
#1402 = DIRECTION('',(1.,0.E+000));
#1403 = ( GEOMETRIC_REPRESENTATION_CONTEXT(2) 
PARAMETRIC_REPRESENTATION_CONTEXT() REPRESENTATION_CONTEXT('2D SPACE',''
  ) );
#1404 = ADVANCED_FACE('',(#1405),#723,.T.);
#1405 = FACE_BOUND('',#1406,.T.);
#1406 = EDGE_LOOP('',(#1407,#1408,#1429,#1430));
#1407 = ORIENTED_EDGE('',*,*,#1265,.F.);
#1408 = ORIENTED_EDGE('',*,*,#1409,.F.);
#1409 = EDGE_CURVE('',#1362,#1238,#1410,.T.);
#1410 = SURFACE_CURVE('',#1411,(#1415,#1422),.PCURVE_S1.);
#1411 = LINE('',#1412,#1413);
#1412 = CARTESIAN_POINT('',(2.1,-1.9,2.6));
#1413 = VECTOR('',#1414,1.);
#1414 = DIRECTION('',(0.E+000,1.,0.E+000));
#1415 = PCURVE('',#723,#1416);
#1416 = DEFINITIONAL_REPRESENTATION('',(#1417),#1421);
#1417 = LINE('',#1418,#1419);
#1418 = CARTESIAN_POINT('',(4.6,0.E+000));
#1419 = VECTOR('',#1420,1.);
#1420 = DIRECTION('',(0.E+000,1.));
#1421 = ( GEOMETRIC_REPRESENTATION_CONTEXT(2) 
PARAMETRIC_REPRESENTATION_CONTEXT() REPRESENTATION_CONTEXT('2D SPACE',''
  ) );
#1422 = PCURVE('',#1253,#1423);
#1423 = DEFINITIONAL_REPRESENTATION('',(#1424),#1428);
#1424 = LINE('',#1425,#1426);
#1425 = CARTESIAN_POINT('',(1.E-002,0.E+000));
#1426 = VECTOR('',#1427,1.);
#1427 = DIRECTION('',(0.E+000,-1.));
#1428 = ( GEOMETRIC_REPRESENTATION_CONTEXT(2) 
PARAMETRIC_REPRESENTATION_CONTEXT() REPRESENTATION_CONTEXT('2D SPACE',''
  ) );
#1429 = ORIENTED_EDGE('',*,*,#1384,.T.);
#1430 = ORIENTED_EDGE('',*,*,#705,.T.);
#1431 = ADVANCED_FACE('',(#1432),#803,.T.);
#1432 = FACE_BOUND('',#1433,.T.);
#1433 = EDGE_LOOP('',(#1434,#1435,#1436,#1437));
#1434 = ORIENTED_EDGE('',*,*,#1158,.F.);
#1435 = ORIENTED_EDGE('',*,*,#785,.F.);
#1436 = ORIENTED_EDGE('',*,*,#1292,.T.);
#1437 = ORIENTED_EDGE('',*,*,#1438,.T.);
#1438 = EDGE_CURVE('',#1293,#1159,#1439,.T.);
#1439 = SURFACE_CURVE('',#1440,(#1444,#1451),.PCURVE_S1.);
#1440 = LINE('',#1441,#1442);
#1441 = CARTESIAN_POINT('',(1.4,-1.9,2.6));
#1442 = VECTOR('',#1443,1.);
#1443 = DIRECTION('',(0.E+000,1.,0.E+000));
#1444 = PCURVE('',#803,#1445);
#1445 = DEFINITIONAL_REPRESENTATION('',(#1446),#1450);
#1446 = LINE('',#1447,#1448);
#1447 = CARTESIAN_POINT('',(3.9,0.E+000));
#1448 = VECTOR('',#1449,1.);
#1449 = DIRECTION('',(0.E+000,1.));
#1450 = ( GEOMETRIC_REPRESENTATION_CONTEXT(2) 
PARAMETRIC_REPRESENTATION_CONTEXT() REPRESENTATION_CONTEXT('2D SPACE',''
  ) );
#1451 = PCURVE('',#1197,#1452);
#1452 = DEFINITIONAL_REPRESENTATION('',(#1453),#1457);
#1453 = LINE('',#1454,#1455);
#1454 = CARTESIAN_POINT('',(1.E-002,0.E+000));
#1455 = VECTOR('',#1456,1.);
#1456 = DIRECTION('',(0.E+000,-1.));
#1457 = ( GEOMETRIC_REPRESENTATION_CONTEXT(2) 
PARAMETRIC_REPRESENTATION_CONTEXT() REPRESENTATION_CONTEXT('2D SPACE',''
  ) );
#1458 = ADVANCED_FACE('',(#1459),#873,.T.);
#1459 = FACE_BOUND('',#1460,.T.);
#1460 = EDGE_LOOP('',(#1461,#1462,#1483,#1484));
#1461 = ORIENTED_EDGE('',*,*,#1129,.F.);
#1462 = ORIENTED_EDGE('',*,*,#1463,.F.);
#1463 = EDGE_CURVE('',#980,#1107,#1464,.T.);
#1464 = SURFACE_CURVE('',#1465,(#1469,#1476),.PCURVE_S1.);
#1465 = LINE('',#1466,#1467);
#1466 = CARTESIAN_POINT('',(-2.8,-1.1,1.6));
#1467 = VECTOR('',#1468,1.);
#1468 = DIRECTION('',(0.E+000,1.,0.E+000));
#1469 = PCURVE('',#873,#1470);
#1470 = DEFINITIONAL_REPRESENTATION('',(#1471),#1475);
#1471 = LINE('',#1472,#1473);
#1472 = CARTESIAN_POINT('',(0.E+000,0.E+000));
#1473 = VECTOR('',#1474,1.);
#1474 = DIRECTION('',(0.E+000,1.));
#1475 = ( GEOMETRIC_REPRESENTATION_CONTEXT(2) 
PARAMETRIC_REPRESENTATION_CONTEXT() REPRESENTATION_CONTEXT('2D SPACE',''
  ) );
#1476 = PCURVE('',#995,#1477);
#1477 = DEFINITIONAL_REPRESENTATION('',(#1478),#1482);
#1478 = LINE('',#1479,#1480);
#1479 = CARTESIAN_POINT('',(1.6,0.E+000));
#1480 = VECTOR('',#1481,1.);
#1481 = DIRECTION('',(0.E+000,-1.));
#1482 = ( GEOMETRIC_REPRESENTATION_CONTEXT(2) 
PARAMETRIC_REPRESENTATION_CONTEXT() REPRESENTATION_CONTEXT('2D SPACE',''
  ) );
#1483 = ORIENTED_EDGE('',*,*,#1007,.T.);
#1484 = ORIENTED_EDGE('',*,*,#858,.T.);
#1485 = ADVANCED_FACE('',(#1486),#995,.F.);
#1486 = FACE_BOUND('',#1487,.F.);
#1487 = EDGE_LOOP('',(#1488,#1489,#1510,#1511));
#1488 = ORIENTED_EDGE('',*,*,#979,.F.);
#1489 = ORIENTED_EDGE('',*,*,#1490,.T.);
#1490 = EDGE_CURVE('',#952,#1084,#1491,.T.);
#1491 = SURFACE_CURVE('',#1492,(#1496,#1503),.PCURVE_S1.);
#1492 = LINE('',#1493,#1494);
#1493 = CARTESIAN_POINT('',(-2.8,-1.1,0.E+000));
#1494 = VECTOR('',#1495,1.);
#1495 = DIRECTION('',(0.E+000,1.,0.E+000));
#1496 = PCURVE('',#995,#1497);
#1497 = DEFINITIONAL_REPRESENTATION('',(#1498),#1502);
#1498 = LINE('',#1499,#1500);
#1499 = CARTESIAN_POINT('',(0.E+000,0.E+000));
#1500 = VECTOR('',#1501,1.);
#1501 = DIRECTION('',(0.E+000,-1.));
#1502 = ( GEOMETRIC_REPRESENTATION_CONTEXT(2) 
PARAMETRIC_REPRESENTATION_CONTEXT() REPRESENTATION_CONTEXT('2D SPACE',''
  ) );
#1503 = PCURVE('',#967,#1504);
#1504 = DEFINITIONAL_REPRESENTATION('',(#1505),#1509);
#1505 = LINE('',#1506,#1507);
#1506 = CARTESIAN_POINT('',(0.E+000,0.E+000));
#1507 = VECTOR('',#1508,1.);
#1508 = DIRECTION('',(0.E+000,1.));
#1509 = ( GEOMETRIC_REPRESENTATION_CONTEXT(2) 
PARAMETRIC_REPRESENTATION_CONTEXT() REPRESENTATION_CONTEXT('2D SPACE',''
  ) );
#1510 = ORIENTED_EDGE('',*,*,#1106,.T.);
#1511 = ORIENTED_EDGE('',*,*,#1463,.F.);
#1512 = ADVANCED_FACE('',(#1513),#967,.F.);
#1513 = FACE_BOUND('',#1514,.F.);
#1514 = EDGE_LOOP('',(#1515,#1516,#1517,#1518));
#1515 = ORIENTED_EDGE('',*,*,#1490,.F.);
#1516 = ORIENTED_EDGE('',*,*,#951,.T.);
#1517 = ORIENTED_EDGE('',*,*,#1034,.T.);
#1518 = ORIENTED_EDGE('',*,*,#1083,.F.);
#1519 = ADVANCED_FACE('',(#1520),#1253,.F.);
#1520 = FACE_BOUND('',#1521,.F.);
#1521 = EDGE_LOOP('',(#1522,#1523,#1544,#1545));
#1522 = ORIENTED_EDGE('',*,*,#1361,.F.);
#1523 = ORIENTED_EDGE('',*,*,#1524,.T.);
#1524 = EDGE_CURVE('',#1339,#1210,#1525,.T.);
#1525 = SURFACE_CURVE('',#1526,(#1530,#1537),.PCURVE_S1.);
#1526 = LINE('',#1527,#1528);
#1527 = CARTESIAN_POINT('',(2.1,-1.9,2.59));
#1528 = VECTOR('',#1529,1.);
#1529 = DIRECTION('',(0.E+000,1.,0.E+000));
#1530 = PCURVE('',#1253,#1531);
#1531 = DEFINITIONAL_REPRESENTATION('',(#1532),#1536);
#1532 = LINE('',#1533,#1534);
#1533 = CARTESIAN_POINT('',(0.E+000,0.E+000));
#1534 = VECTOR('',#1535,1.);
#1535 = DIRECTION('',(0.E+000,-1.));
#1536 = ( GEOMETRIC_REPRESENTATION_CONTEXT(2) 
PARAMETRIC_REPRESENTATION_CONTEXT() REPRESENTATION_CONTEXT('2D SPACE',''
  ) );
#1537 = PCURVE('',#1225,#1538);
#1538 = DEFINITIONAL_REPRESENTATION('',(#1539),#1543);
#1539 = LINE('',#1540,#1541);
#1540 = CARTESIAN_POINT('',(0.7,0.E+000));
#1541 = VECTOR('',#1542,1.);
#1542 = DIRECTION('',(0.E+000,1.));
#1543 = ( GEOMETRIC_REPRESENTATION_CONTEXT(2) 
PARAMETRIC_REPRESENTATION_CONTEXT() REPRESENTATION_CONTEXT('2D SPACE',''
  ) );
#1544 = ORIENTED_EDGE('',*,*,#1237,.T.);
#1545 = ORIENTED_EDGE('',*,*,#1409,.F.);
#1546 = ADVANCED_FACE('',(#1547),#1225,.T.);
#1547 = FACE_BOUND('',#1548,.T.);
#1548 = EDGE_LOOP('',(#1549,#1570,#1571,#1572));
#1549 = ORIENTED_EDGE('',*,*,#1550,.F.);
#1550 = EDGE_CURVE('',#1316,#1182,#1551,.T.);
#1551 = SURFACE_CURVE('',#1552,(#1556,#1563),.PCURVE_S1.);
#1552 = LINE('',#1553,#1554);
#1553 = CARTESIAN_POINT('',(1.4,-1.9,2.59));
#1554 = VECTOR('',#1555,1.);
#1555 = DIRECTION('',(0.E+000,1.,0.E+000));
#1556 = PCURVE('',#1225,#1557);
#1557 = DEFINITIONAL_REPRESENTATION('',(#1558),#1562);
#1558 = LINE('',#1559,#1560);
#1559 = CARTESIAN_POINT('',(0.E+000,0.E+000));
#1560 = VECTOR('',#1561,1.);
#1561 = DIRECTION('',(0.E+000,1.));
#1562 = ( GEOMETRIC_REPRESENTATION_CONTEXT(2) 
PARAMETRIC_REPRESENTATION_CONTEXT() REPRESENTATION_CONTEXT('2D SPACE',''
  ) );
#1563 = PCURVE('',#1197,#1564);
#1564 = DEFINITIONAL_REPRESENTATION('',(#1565),#1569);
#1565 = LINE('',#1566,#1567);
#1566 = CARTESIAN_POINT('',(0.E+000,0.E+000));
#1567 = VECTOR('',#1568,1.);
#1568 = DIRECTION('',(0.E+000,-1.));
#1569 = ( GEOMETRIC_REPRESENTATION_CONTEXT(2) 
PARAMETRIC_REPRESENTATION_CONTEXT() REPRESENTATION_CONTEXT('2D SPACE',''
  ) );
#1570 = ORIENTED_EDGE('',*,*,#1338,.T.);
#1571 = ORIENTED_EDGE('',*,*,#1524,.T.);
#1572 = ORIENTED_EDGE('',*,*,#1209,.F.);
#1573 = ADVANCED_FACE('',(#1574),#1197,.T.);
#1574 = FACE_BOUND('',#1575,.T.);
#1575 = EDGE_LOOP('',(#1576,#1577,#1578,#1579));
#1576 = ORIENTED_EDGE('',*,*,#1315,.F.);
#1577 = ORIENTED_EDGE('',*,*,#1550,.T.);
#1578 = ORIENTED_EDGE('',*,*,#1181,.T.);
#1579 = ORIENTED_EDGE('',*,*,#1438,.F.);
#1580 = ( GEOMETRIC_REPRESENTATION_CONTEXT(3) 
GLOBAL_UNCERTAINTY_ASSIGNED_CONTEXT((#1584)) 
GLOBAL_UNIT_ASSIGNED_CONTEXT((#1581,#1582,#1583)) REPRESENTATION_CONTEXT
('Context #1','3D Context with UNIT and UNCERTAINTY') );
#1581 = ( LENGTH_UNIT() NAMED_UNIT(*) SI_UNIT(.MILLI.,.METRE.) );
#1582 = ( NAMED_UNIT(*) PLANE_ANGLE_UNIT() SI_UNIT($,.RADIAN.) );
#1583 = ( NAMED_UNIT(*) SI_UNIT($,.STERADIAN.) SOLID_ANGLE_UNIT() );
#1584 = UNCERTAINTY_MEASURE_WITH_UNIT(LENGTH_MEASURE(1.E-007),#1581,
  'distance_accuracy_value','confusion accuracy');
#1585 = SHAPE_DEFINITION_REPRESENTATION(#1586,#25);
#1586 = PRODUCT_DEFINITION_SHAPE('','',#1587);
#1587 = PRODUCT_DEFINITION('design','',#1588,#1591);
#1588 = PRODUCT_DEFINITION_FORMATION('','',#1589);
#1589 = PRODUCT('DO-214','DO-214','',(#1590));
#1590 = MECHANICAL_CONTEXT('',#2,'mechanical');
#1591 = PRODUCT_DEFINITION_CONTEXT('part definition',#2,'design');
#1592 = CONTEXT_DEPENDENT_SHAPE_REPRESENTATION(#1593,#1595);
#1593 = ( REPRESENTATION_RELATIONSHIP('','',#25,#10) 
REPRESENTATION_RELATIONSHIP_WITH_TRANSFORMATION(#1594) 
SHAPE_REPRESENTATION_RELATIONSHIP() );
#1594 = ITEM_DEFINED_TRANSFORMATION('','',#11,#15);
#1595 = PRODUCT_DEFINITION_SHAPE('Placement','Placement of an item',
  #1596);
#1596 = NEXT_ASSEMBLY_USAGE_OCCURRENCE('10','=>[0:1:1:2]','',#5,#1587,$
  );
#1597 = PRODUCT_TYPE('part',$,(#1589));
#1598 = MECHANICAL_DESIGN_GEOMETRIC_PRESENTATION_REPRESENTATION('',(
    #1599,#1607,#1614,#1621,#1628,#1635,#1643,#1650,#1657,#1664,#1671,
    #1678,#1685,#1692,#1699,#1706,#1713,#1720,#1727,#1734,#1742,#1749),
  #1580);
#1599 = STYLED_ITEM('color',(#1600),#28);
#1600 = PRESENTATION_STYLE_ASSIGNMENT((#1601));
#1601 = SURFACE_STYLE_USAGE(.BOTH.,#1602);
#1602 = SURFACE_SIDE_STYLE('',(#1603));
#1603 = SURFACE_STYLE_FILL_AREA(#1604);
#1604 = FILL_AREA_STYLE('',(#1605));
#1605 = FILL_AREA_STYLE_COLOUR('',#1606);
#1606 = COLOUR_RGB('',0.800000011921,0.800000011921,0.800000011921);
#1607 = STYLED_ITEM('color',(#1608),#148);
#1608 = PRESENTATION_STYLE_ASSIGNMENT((#1609));
#1609 = SURFACE_STYLE_USAGE(.BOTH.,#1610);
#1610 = SURFACE_SIDE_STYLE('',(#1611));
#1611 = SURFACE_STYLE_FILL_AREA(#1612);
#1612 = FILL_AREA_STYLE('',(#1613));
#1613 = FILL_AREA_STYLE_COLOUR('',#1606);
#1614 = STYLED_ITEM('color',(#1615),#222);
#1615 = PRESENTATION_STYLE_ASSIGNMENT((#1616));
#1616 = SURFACE_STYLE_USAGE(.BOTH.,#1617);
#1617 = SURFACE_SIDE_STYLE('',(#1618));
#1618 = SURFACE_STYLE_FILL_AREA(#1619);
#1619 = FILL_AREA_STYLE('',(#1620));
#1620 = FILL_AREA_STYLE_COLOUR('',#1606);
#1621 = STYLED_ITEM('color',(#1622),#323);
#1622 = PRESENTATION_STYLE_ASSIGNMENT((#1623));
#1623 = SURFACE_STYLE_USAGE(.BOTH.,#1624);
#1624 = SURFACE_SIDE_STYLE('',(#1625));
#1625 = SURFACE_STYLE_FILL_AREA(#1626);
#1626 = FILL_AREA_STYLE('',(#1627));
#1627 = FILL_AREA_STYLE_COLOUR('',#1606);
#1628 = STYLED_ITEM('color',(#1629),#372);
#1629 = PRESENTATION_STYLE_ASSIGNMENT((#1630));
#1630 = SURFACE_STYLE_USAGE(.BOTH.,#1631);
#1631 = SURFACE_SIDE_STYLE('',(#1632));
#1632 = SURFACE_STYLE_FILL_AREA(#1633);
#1633 = FILL_AREA_STYLE('',(#1634));
#1634 = FILL_AREA_STYLE_COLOUR('',#1606);
#1635 = STYLED_ITEM('color',(#1636),#441);
#1636 = PRESENTATION_STYLE_ASSIGNMENT((#1637));
#1637 = SURFACE_STYLE_USAGE(.BOTH.,#1638);
#1638 = SURFACE_SIDE_STYLE('',(#1639));
#1639 = SURFACE_STYLE_FILL_AREA(#1640);
#1640 = FILL_AREA_STYLE('',(#1641));
#1641 = FILL_AREA_STYLE_COLOUR('',#1642);
#1642 = COLOUR_RGB('',0.156862750649,0.156862750649,0.156862750649);
#1643 = STYLED_ITEM('color',(#1644),#676);
#1644 = PRESENTATION_STYLE_ASSIGNMENT((#1645));
#1645 = SURFACE_STYLE_USAGE(.BOTH.,#1646);
#1646 = SURFACE_SIDE_STYLE('',(#1647));
#1647 = SURFACE_STYLE_FILL_AREA(#1648);
#1648 = FILL_AREA_STYLE('',(#1649));
#1649 = FILL_AREA_STYLE_COLOUR('',#1606);
#1650 = STYLED_ITEM('color',(#1651),#701);
#1651 = PRESENTATION_STYLE_ASSIGNMENT((#1652));
#1652 = SURFACE_STYLE_USAGE(.BOTH.,#1653);
#1653 = SURFACE_SIDE_STYLE('',(#1654));
#1654 = SURFACE_STYLE_FILL_AREA(#1655);
#1655 = FILL_AREA_STYLE('',(#1656));
#1656 = FILL_AREA_STYLE_COLOUR('',#1642);
#1657 = STYLED_ITEM('color',(#1658),#781);
#1658 = PRESENTATION_STYLE_ASSIGNMENT((#1659));
#1659 = SURFACE_STYLE_USAGE(.BOTH.,#1660);
#1660 = SURFACE_SIDE_STYLE('',(#1661));
#1661 = SURFACE_STYLE_FILL_AREA(#1662);
#1662 = FILL_AREA_STYLE('',(#1663));
#1663 = FILL_AREA_STYLE_COLOUR('',#1642);
#1664 = STYLED_ITEM('color',(#1665),#924);
#1665 = PRESENTATION_STYLE_ASSIGNMENT((#1666));
#1666 = SURFACE_STYLE_USAGE(.BOTH.,#1667);
#1667 = SURFACE_SIDE_STYLE('',(#1668));
#1668 = SURFACE_STYLE_FILL_AREA(#1669);
#1669 = FILL_AREA_STYLE('',(#1670));
#1670 = FILL_AREA_STYLE_COLOUR('',#1606);
#1671 = STYLED_ITEM('color',(#1672),#1029);
#1672 = PRESENTATION_STYLE_ASSIGNMENT((#1673));
#1673 = SURFACE_STYLE_USAGE(.BOTH.,#1674);
#1674 = SURFACE_SIDE_STYLE('',(#1675));
#1675 = SURFACE_STYLE_FILL_AREA(#1676);
#1676 = FILL_AREA_STYLE('',(#1677));
#1677 = FILL_AREA_STYLE_COLOUR('',#1606);
#1678 = STYLED_ITEM('color',(#1679),#1078);
#1679 = PRESENTATION_STYLE_ASSIGNMENT((#1680));
#1680 = SURFACE_STYLE_USAGE(.BOTH.,#1681);
#1681 = SURFACE_SIDE_STYLE('',(#1682));
#1682 = SURFACE_STYLE_FILL_AREA(#1683);
#1683 = FILL_AREA_STYLE('',(#1684));
#1684 = FILL_AREA_STYLE_COLOUR('',#1606);
#1685 = STYLED_ITEM('color',(#1686),#1151);
#1686 = PRESENTATION_STYLE_ASSIGNMENT((#1687));
#1687 = SURFACE_STYLE_USAGE(.BOTH.,#1688);
#1688 = SURFACE_SIDE_STYLE('',(#1689));
#1689 = SURFACE_STYLE_FILL_AREA(#1690);
#1690 = FILL_AREA_STYLE('',(#1691));
#1691 = FILL_AREA_STYLE_COLOUR('',#1642);
#1692 = STYLED_ITEM('color',(#1693),#1285);
#1693 = PRESENTATION_STYLE_ASSIGNMENT((#1694));
#1694 = SURFACE_STYLE_USAGE(.BOTH.,#1695);
#1695 = SURFACE_SIDE_STYLE('',(#1696));
#1696 = SURFACE_STYLE_FILL_AREA(#1697);
#1697 = FILL_AREA_STYLE('',(#1698));
#1698 = FILL_AREA_STYLE_COLOUR('',#1642);
#1699 = STYLED_ITEM('color',(#1700),#1404);
#1700 = PRESENTATION_STYLE_ASSIGNMENT((#1701));
#1701 = SURFACE_STYLE_USAGE(.BOTH.,#1702);
#1702 = SURFACE_SIDE_STYLE('',(#1703));
#1703 = SURFACE_STYLE_FILL_AREA(#1704);
#1704 = FILL_AREA_STYLE('',(#1705));
#1705 = FILL_AREA_STYLE_COLOUR('',#1642);
#1706 = STYLED_ITEM('color',(#1707),#1431);
#1707 = PRESENTATION_STYLE_ASSIGNMENT((#1708));
#1708 = SURFACE_STYLE_USAGE(.BOTH.,#1709);
#1709 = SURFACE_SIDE_STYLE('',(#1710));
#1710 = SURFACE_STYLE_FILL_AREA(#1711);
#1711 = FILL_AREA_STYLE('',(#1712));
#1712 = FILL_AREA_STYLE_COLOUR('',#1642);
#1713 = STYLED_ITEM('color',(#1714),#1458);
#1714 = PRESENTATION_STYLE_ASSIGNMENT((#1715));
#1715 = SURFACE_STYLE_USAGE(.BOTH.,#1716);
#1716 = SURFACE_SIDE_STYLE('',(#1717));
#1717 = SURFACE_STYLE_FILL_AREA(#1718);
#1718 = FILL_AREA_STYLE('',(#1719));
#1719 = FILL_AREA_STYLE_COLOUR('',#1606);
#1720 = STYLED_ITEM('color',(#1721),#1485);
#1721 = PRESENTATION_STYLE_ASSIGNMENT((#1722));
#1722 = SURFACE_STYLE_USAGE(.BOTH.,#1723);
#1723 = SURFACE_SIDE_STYLE('',(#1724));
#1724 = SURFACE_STYLE_FILL_AREA(#1725);
#1725 = FILL_AREA_STYLE('',(#1726));
#1726 = FILL_AREA_STYLE_COLOUR('',#1606);
#1727 = STYLED_ITEM('color',(#1728),#1512);
#1728 = PRESENTATION_STYLE_ASSIGNMENT((#1729));
#1729 = SURFACE_STYLE_USAGE(.BOTH.,#1730);
#1730 = SURFACE_SIDE_STYLE('',(#1731));
#1731 = SURFACE_STYLE_FILL_AREA(#1732);
#1732 = FILL_AREA_STYLE('',(#1733));
#1733 = FILL_AREA_STYLE_COLOUR('',#1606);
#1734 = STYLED_ITEM('color',(#1735),#1519);
#1735 = PRESENTATION_STYLE_ASSIGNMENT((#1736));
#1736 = SURFACE_STYLE_USAGE(.BOTH.,#1737);
#1737 = SURFACE_SIDE_STYLE('',(#1738));
#1738 = SURFACE_STYLE_FILL_AREA(#1739);
#1739 = FILL_AREA_STYLE('',(#1740));
#1740 = FILL_AREA_STYLE_COLOUR('',#1741);
#1741 = COLOUR_RGB('',0.46274510026,0.46274510026,0.46274510026);
#1742 = STYLED_ITEM('color',(#1743),#1546);
#1743 = PRESENTATION_STYLE_ASSIGNMENT((#1744));
#1744 = SURFACE_STYLE_USAGE(.BOTH.,#1745);
#1745 = SURFACE_SIDE_STYLE('',(#1746));
#1746 = SURFACE_STYLE_FILL_AREA(#1747);
#1747 = FILL_AREA_STYLE('',(#1748));
#1748 = FILL_AREA_STYLE_COLOUR('',#1741);
#1749 = STYLED_ITEM('color',(#1750),#1573);
#1750 = PRESENTATION_STYLE_ASSIGNMENT((#1751));
#1751 = SURFACE_STYLE_USAGE(.BOTH.,#1752);
#1752 = SURFACE_SIDE_STYLE('',(#1753));
#1753 = SURFACE_STYLE_FILL_AREA(#1754);
#1754 = FILL_AREA_STYLE('',(#1755));
#1755 = FILL_AREA_STYLE_COLOUR('',#1741);
ENDSEC;
END-ISO-10303-21;
