ISO-10303-21;
HEADER;
FILE_DESCRIPTION(('FreeCAD Model'),'2;1');
FILE_NAME('D:/Vitek/Work/freecad/SMD/Induct_7.2x7.2x3.0mm_simple.step',
  '2017-02-10T15:44:14',('Author'),(''),
  'Open CASCADE STEP processor 6.8','FreeCAD','Unknown');
FILE_SCHEMA(('AUTOMOTIVE_DESIGN_CC2 { 1 2 10303 214 -1 1 5 4 }'));
ENDSEC;
DATA;
#1 = APPLICATION_PROTOCOL_DEFINITION('committee draft',
  'automotive_design',1997,#2);
#2 = APPLICATION_CONTEXT(
  'core data for automotive mechanical design processes');
#3 = SHAPE_DEFINITION_REPRESENTATION(#4,#10);
#4 = PRODUCT_DEFINITION_SHAPE('','',#5);
#5 = PRODUCT_DEFINITION('design','',#6,#9);
#6 = PRODUCT_DEFINITION_FORMATION('','',#7);
#7 = PRODUCT('ASSEMBLY','ASSEMBLY','',(#8));
#8 = MECHANICAL_CONTEXT('',#2,'mechanical');
#9 = PRODUCT_DEFINITION_CONTEXT('part definition',#2,'design');
#10 = SHAPE_REPRESENTATION('',(#11,#15),#19);
#11 = AXIS2_PLACEMENT_3D('',#12,#13,#14);
#12 = CARTESIAN_POINT('',(0.E+000,0.E+000,0.E+000));
#13 = DIRECTION('',(0.E+000,0.E+000,1.));
#14 = DIRECTION('',(1.,0.E+000,-0.E+000));
#15 = AXIS2_PLACEMENT_3D('',#16,#17,#18);
#16 = CARTESIAN_POINT('',(0.E+000,0.E+000,0.E+000));
#17 = DIRECTION('',(0.E+000,0.E+000,1.));
#18 = DIRECTION('',(1.,0.E+000,0.E+000));
#19 = ( GEOMETRIC_REPRESENTATION_CONTEXT(3) 
GLOBAL_UNCERTAINTY_ASSIGNED_CONTEXT((#23)) GLOBAL_UNIT_ASSIGNED_CONTEXT(
(#20,#21,#22)) REPRESENTATION_CONTEXT('Context #1',
  '3D Context with UNIT and UNCERTAINTY') );
#20 = ( LENGTH_UNIT() NAMED_UNIT(*) SI_UNIT(.MILLI.,.METRE.) );
#21 = ( NAMED_UNIT(*) PLANE_ANGLE_UNIT() SI_UNIT($,.RADIAN.) );
#22 = ( NAMED_UNIT(*) SI_UNIT($,.STERADIAN.) SOLID_ANGLE_UNIT() );
#23 = UNCERTAINTY_MEASURE_WITH_UNIT(LENGTH_MEASURE(1.E-007),#20,
  'distance_accuracy_value','confusion accuracy');
#24 = PRODUCT_TYPE('part',$,(#7));
#25 = ADVANCED_BREP_SHAPE_REPRESENTATION('',(#11,#26),#1040);
#26 = MANIFOLD_SOLID_BREP('',#27);
#27 = CLOSED_SHELL('',(#28,#148,#224,#278,#327,#354,#537,#617,#666,#798,
    #874,#901,#908,#957,#1006,#1033));
#28 = ADVANCED_FACE('',(#29),#43,.T.);
#29 = FACE_BOUND('',#30,.T.);
#30 = EDGE_LOOP('',(#31,#66,#94,#122));
#31 = ORIENTED_EDGE('',*,*,#32,.F.);
#32 = EDGE_CURVE('',#33,#35,#37,.T.);
#33 = VERTEX_POINT('',#34);
#34 = CARTESIAN_POINT('',(-2.,3.7,0.E+000));
#35 = VERTEX_POINT('',#36);
#36 = CARTESIAN_POINT('',(2.,3.7,0.E+000));
#37 = SURFACE_CURVE('',#38,(#42,#54),.PCURVE_S1.);
#38 = LINE('',#39,#40);
#39 = CARTESIAN_POINT('',(-2.,3.7,0.E+000));
#40 = VECTOR('',#41,1.);
#41 = DIRECTION('',(1.,0.E+000,0.E+000));
#42 = PCURVE('',#43,#48);
#43 = PLANE('',#44);
#44 = AXIS2_PLACEMENT_3D('',#45,#46,#47);
#45 = CARTESIAN_POINT('',(-2.,3.7,0.E+000));
#46 = DIRECTION('',(0.E+000,1.,0.E+000));
#47 = DIRECTION('',(0.E+000,0.E+000,1.));
#48 = DEFINITIONAL_REPRESENTATION('',(#49),#53);
#49 = LINE('',#50,#51);
#50 = CARTESIAN_POINT('',(0.E+000,0.E+000));
#51 = VECTOR('',#52,1.);
#52 = DIRECTION('',(0.E+000,1.));
#53 = ( GEOMETRIC_REPRESENTATION_CONTEXT(2) 
PARAMETRIC_REPRESENTATION_CONTEXT() REPRESENTATION_CONTEXT('2D SPACE',''
  ) );
#54 = PCURVE('',#55,#60);
#55 = PLANE('',#56);
#56 = AXIS2_PLACEMENT_3D('',#57,#58,#59);
#57 = CARTESIAN_POINT('',(-2.,3.6,0.E+000));
#58 = DIRECTION('',(0.E+000,0.E+000,1.));
#59 = DIRECTION('',(1.,0.E+000,0.E+000));
#60 = DEFINITIONAL_REPRESENTATION('',(#61),#65);
#61 = LINE('',#62,#63);
#62 = CARTESIAN_POINT('',(0.E+000,0.1));
#63 = VECTOR('',#64,1.);
#64 = DIRECTION('',(1.,0.E+000));
#65 = ( GEOMETRIC_REPRESENTATION_CONTEXT(2) 
PARAMETRIC_REPRESENTATION_CONTEXT() REPRESENTATION_CONTEXT('2D SPACE',''
  ) );
#66 = ORIENTED_EDGE('',*,*,#67,.T.);
#67 = EDGE_CURVE('',#33,#68,#70,.T.);
#68 = VERTEX_POINT('',#69);
#69 = CARTESIAN_POINT('',(-2.,3.7,2.));
#70 = SURFACE_CURVE('',#71,(#75,#82),.PCURVE_S1.);
#71 = LINE('',#72,#73);
#72 = CARTESIAN_POINT('',(-2.,3.7,0.E+000));
#73 = VECTOR('',#74,1.);
#74 = DIRECTION('',(0.E+000,0.E+000,1.));
#75 = PCURVE('',#43,#76);
#76 = DEFINITIONAL_REPRESENTATION('',(#77),#81);
#77 = LINE('',#78,#79);
#78 = CARTESIAN_POINT('',(0.E+000,0.E+000));
#79 = VECTOR('',#80,1.);
#80 = DIRECTION('',(1.,0.E+000));
#81 = ( GEOMETRIC_REPRESENTATION_CONTEXT(2) 
PARAMETRIC_REPRESENTATION_CONTEXT() REPRESENTATION_CONTEXT('2D SPACE',''
  ) );
#82 = PCURVE('',#83,#88);
#83 = PLANE('',#84);
#84 = AXIS2_PLACEMENT_3D('',#85,#86,#87);
#85 = CARTESIAN_POINT('',(-2.,3.6,0.E+000));
#86 = DIRECTION('',(1.,0.E+000,0.E+000));
#87 = DIRECTION('',(0.E+000,0.E+000,1.));
#88 = DEFINITIONAL_REPRESENTATION('',(#89),#93);
#89 = LINE('',#90,#91);
#90 = CARTESIAN_POINT('',(0.E+000,-0.1));
#91 = VECTOR('',#92,1.);
#92 = DIRECTION('',(1.,0.E+000));
#93 = ( GEOMETRIC_REPRESENTATION_CONTEXT(2) 
PARAMETRIC_REPRESENTATION_CONTEXT() REPRESENTATION_CONTEXT('2D SPACE',''
  ) );
#94 = ORIENTED_EDGE('',*,*,#95,.T.);
#95 = EDGE_CURVE('',#68,#96,#98,.T.);
#96 = VERTEX_POINT('',#97);
#97 = CARTESIAN_POINT('',(2.,3.7,2.));
#98 = SURFACE_CURVE('',#99,(#103,#110),.PCURVE_S1.);
#99 = LINE('',#100,#101);
#100 = CARTESIAN_POINT('',(-2.,3.7,2.));
#101 = VECTOR('',#102,1.);
#102 = DIRECTION('',(1.,0.E+000,0.E+000));
#103 = PCURVE('',#43,#104);
#104 = DEFINITIONAL_REPRESENTATION('',(#105),#109);
#105 = LINE('',#106,#107);
#106 = CARTESIAN_POINT('',(2.,0.E+000));
#107 = VECTOR('',#108,1.);
#108 = DIRECTION('',(0.E+000,1.));
#109 = ( GEOMETRIC_REPRESENTATION_CONTEXT(2) 
PARAMETRIC_REPRESENTATION_CONTEXT() REPRESENTATION_CONTEXT('2D SPACE',''
  ) );
#110 = PCURVE('',#111,#116);
#111 = PLANE('',#112);
#112 = AXIS2_PLACEMENT_3D('',#113,#114,#115);
#113 = CARTESIAN_POINT('',(-2.,3.6,2.));
#114 = DIRECTION('',(0.E+000,0.E+000,1.));
#115 = DIRECTION('',(1.,0.E+000,0.E+000));
#116 = DEFINITIONAL_REPRESENTATION('',(#117),#121);
#117 = LINE('',#118,#119);
#118 = CARTESIAN_POINT('',(0.E+000,0.1));
#119 = VECTOR('',#120,1.);
#120 = DIRECTION('',(1.,0.E+000));
#121 = ( GEOMETRIC_REPRESENTATION_CONTEXT(2) 
PARAMETRIC_REPRESENTATION_CONTEXT() REPRESENTATION_CONTEXT('2D SPACE',''
  ) );
#122 = ORIENTED_EDGE('',*,*,#123,.F.);
#123 = EDGE_CURVE('',#35,#96,#124,.T.);
#124 = SURFACE_CURVE('',#125,(#129,#136),.PCURVE_S1.);
#125 = LINE('',#126,#127);
#126 = CARTESIAN_POINT('',(2.,3.7,0.E+000));
#127 = VECTOR('',#128,1.);
#128 = DIRECTION('',(0.E+000,0.E+000,1.));
#129 = PCURVE('',#43,#130);
#130 = DEFINITIONAL_REPRESENTATION('',(#131),#135);
#131 = LINE('',#132,#133);
#132 = CARTESIAN_POINT('',(0.E+000,4.));
#133 = VECTOR('',#134,1.);
#134 = DIRECTION('',(1.,0.E+000));
#135 = ( GEOMETRIC_REPRESENTATION_CONTEXT(2) 
PARAMETRIC_REPRESENTATION_CONTEXT() REPRESENTATION_CONTEXT('2D SPACE',''
  ) );
#136 = PCURVE('',#137,#142);
#137 = PLANE('',#138);
#138 = AXIS2_PLACEMENT_3D('',#139,#140,#141);
#139 = CARTESIAN_POINT('',(2.,3.6,0.E+000));
#140 = DIRECTION('',(1.,0.E+000,0.E+000));
#141 = DIRECTION('',(0.E+000,0.E+000,1.));
#142 = DEFINITIONAL_REPRESENTATION('',(#143),#147);
#143 = LINE('',#144,#145);
#144 = CARTESIAN_POINT('',(0.E+000,-0.1));
#145 = VECTOR('',#146,1.);
#146 = DIRECTION('',(1.,0.E+000));
#147 = ( GEOMETRIC_REPRESENTATION_CONTEXT(2) 
PARAMETRIC_REPRESENTATION_CONTEXT() REPRESENTATION_CONTEXT('2D SPACE',''
  ) );
#148 = ADVANCED_FACE('',(#149),#55,.F.);
#149 = FACE_BOUND('',#150,.F.);
#150 = EDGE_LOOP('',(#151,#174,#202,#223));
#151 = ORIENTED_EDGE('',*,*,#152,.F.);
#152 = EDGE_CURVE('',#153,#33,#155,.T.);
#153 = VERTEX_POINT('',#154);
#154 = CARTESIAN_POINT('',(-2.,3.6,0.E+000));
#155 = SURFACE_CURVE('',#156,(#160,#167),.PCURVE_S1.);
#156 = LINE('',#157,#158);
#157 = CARTESIAN_POINT('',(-2.,3.6,0.E+000));
#158 = VECTOR('',#159,1.);
#159 = DIRECTION('',(0.E+000,1.,0.E+000));
#160 = PCURVE('',#55,#161);
#161 = DEFINITIONAL_REPRESENTATION('',(#162),#166);
#162 = LINE('',#163,#164);
#163 = CARTESIAN_POINT('',(0.E+000,0.E+000));
#164 = VECTOR('',#165,1.);
#165 = DIRECTION('',(0.E+000,1.));
#166 = ( GEOMETRIC_REPRESENTATION_CONTEXT(2) 
PARAMETRIC_REPRESENTATION_CONTEXT() REPRESENTATION_CONTEXT('2D SPACE',''
  ) );
#167 = PCURVE('',#83,#168);
#168 = DEFINITIONAL_REPRESENTATION('',(#169),#173);
#169 = LINE('',#170,#171);
#170 = CARTESIAN_POINT('',(0.E+000,0.E+000));
#171 = VECTOR('',#172,1.);
#172 = DIRECTION('',(0.E+000,-1.));
#173 = ( GEOMETRIC_REPRESENTATION_CONTEXT(2) 
PARAMETRIC_REPRESENTATION_CONTEXT() REPRESENTATION_CONTEXT('2D SPACE',''
  ) );
#174 = ORIENTED_EDGE('',*,*,#175,.T.);
#175 = EDGE_CURVE('',#153,#176,#178,.T.);
#176 = VERTEX_POINT('',#177);
#177 = CARTESIAN_POINT('',(2.,3.6,0.E+000));
#178 = SURFACE_CURVE('',#179,(#183,#190),.PCURVE_S1.);
#179 = LINE('',#180,#181);
#180 = CARTESIAN_POINT('',(-2.,3.6,0.E+000));
#181 = VECTOR('',#182,1.);
#182 = DIRECTION('',(1.,0.E+000,0.E+000));
#183 = PCURVE('',#55,#184);
#184 = DEFINITIONAL_REPRESENTATION('',(#185),#189);
#185 = LINE('',#186,#187);
#186 = CARTESIAN_POINT('',(0.E+000,0.E+000));
#187 = VECTOR('',#188,1.);
#188 = DIRECTION('',(1.,0.E+000));
#189 = ( GEOMETRIC_REPRESENTATION_CONTEXT(2) 
PARAMETRIC_REPRESENTATION_CONTEXT() REPRESENTATION_CONTEXT('2D SPACE',''
  ) );
#190 = PCURVE('',#191,#196);
#191 = PLANE('',#192);
#192 = AXIS2_PLACEMENT_3D('',#193,#194,#195);
#193 = CARTESIAN_POINT('',(-3.6,-3.6,0.E+000));
#194 = DIRECTION('',(0.E+000,0.E+000,1.));
#195 = DIRECTION('',(1.,0.E+000,0.E+000));
#196 = DEFINITIONAL_REPRESENTATION('',(#197),#201);
#197 = LINE('',#198,#199);
#198 = CARTESIAN_POINT('',(1.6,7.2));
#199 = VECTOR('',#200,1.);
#200 = DIRECTION('',(1.,0.E+000));
#201 = ( GEOMETRIC_REPRESENTATION_CONTEXT(2) 
PARAMETRIC_REPRESENTATION_CONTEXT() REPRESENTATION_CONTEXT('2D SPACE',''
  ) );
#202 = ORIENTED_EDGE('',*,*,#203,.T.);
#203 = EDGE_CURVE('',#176,#35,#204,.T.);
#204 = SURFACE_CURVE('',#205,(#209,#216),.PCURVE_S1.);
#205 = LINE('',#206,#207);
#206 = CARTESIAN_POINT('',(2.,3.6,0.E+000));
#207 = VECTOR('',#208,1.);
#208 = DIRECTION('',(0.E+000,1.,0.E+000));
#209 = PCURVE('',#55,#210);
#210 = DEFINITIONAL_REPRESENTATION('',(#211),#215);
#211 = LINE('',#212,#213);
#212 = CARTESIAN_POINT('',(4.,0.E+000));
#213 = VECTOR('',#214,1.);
#214 = DIRECTION('',(0.E+000,1.));
#215 = ( GEOMETRIC_REPRESENTATION_CONTEXT(2) 
PARAMETRIC_REPRESENTATION_CONTEXT() REPRESENTATION_CONTEXT('2D SPACE',''
  ) );
#216 = PCURVE('',#137,#217);
#217 = DEFINITIONAL_REPRESENTATION('',(#218),#222);
#218 = LINE('',#219,#220);
#219 = CARTESIAN_POINT('',(0.E+000,0.E+000));
#220 = VECTOR('',#221,1.);
#221 = DIRECTION('',(0.E+000,-1.));
#222 = ( GEOMETRIC_REPRESENTATION_CONTEXT(2) 
PARAMETRIC_REPRESENTATION_CONTEXT() REPRESENTATION_CONTEXT('2D SPACE',''
  ) );
#223 = ORIENTED_EDGE('',*,*,#32,.F.);
#224 = ADVANCED_FACE('',(#225),#137,.T.);
#225 = FACE_BOUND('',#226,.T.);
#226 = EDGE_LOOP('',(#227,#255,#256,#257));
#227 = ORIENTED_EDGE('',*,*,#228,.F.);
#228 = EDGE_CURVE('',#176,#229,#231,.T.);
#229 = VERTEX_POINT('',#230);
#230 = CARTESIAN_POINT('',(2.,3.6,2.));
#231 = SURFACE_CURVE('',#232,(#236,#243),.PCURVE_S1.);
#232 = LINE('',#233,#234);
#233 = CARTESIAN_POINT('',(2.,3.6,0.E+000));
#234 = VECTOR('',#235,1.);
#235 = DIRECTION('',(0.E+000,0.E+000,1.));
#236 = PCURVE('',#137,#237);
#237 = DEFINITIONAL_REPRESENTATION('',(#238),#242);
#238 = LINE('',#239,#240);
#239 = CARTESIAN_POINT('',(0.E+000,0.E+000));
#240 = VECTOR('',#241,1.);
#241 = DIRECTION('',(1.,0.E+000));
#242 = ( GEOMETRIC_REPRESENTATION_CONTEXT(2) 
PARAMETRIC_REPRESENTATION_CONTEXT() REPRESENTATION_CONTEXT('2D SPACE',''
  ) );
#243 = PCURVE('',#244,#249);
#244 = PLANE('',#245);
#245 = AXIS2_PLACEMENT_3D('',#246,#247,#248);
#246 = CARTESIAN_POINT('',(-3.6,3.6,0.E+000));
#247 = DIRECTION('',(0.E+000,1.,0.E+000));
#248 = DIRECTION('',(0.E+000,0.E+000,1.));
#249 = DEFINITIONAL_REPRESENTATION('',(#250),#254);
#250 = LINE('',#251,#252);
#251 = CARTESIAN_POINT('',(0.E+000,5.6));
#252 = VECTOR('',#253,1.);
#253 = DIRECTION('',(1.,0.E+000));
#254 = ( GEOMETRIC_REPRESENTATION_CONTEXT(2) 
PARAMETRIC_REPRESENTATION_CONTEXT() REPRESENTATION_CONTEXT('2D SPACE',''
  ) );
#255 = ORIENTED_EDGE('',*,*,#203,.T.);
#256 = ORIENTED_EDGE('',*,*,#123,.T.);
#257 = ORIENTED_EDGE('',*,*,#258,.F.);
#258 = EDGE_CURVE('',#229,#96,#259,.T.);
#259 = SURFACE_CURVE('',#260,(#264,#271),.PCURVE_S1.);
#260 = LINE('',#261,#262);
#261 = CARTESIAN_POINT('',(2.,3.6,2.));
#262 = VECTOR('',#263,1.);
#263 = DIRECTION('',(0.E+000,1.,0.E+000));
#264 = PCURVE('',#137,#265);
#265 = DEFINITIONAL_REPRESENTATION('',(#266),#270);
#266 = LINE('',#267,#268);
#267 = CARTESIAN_POINT('',(2.,0.E+000));
#268 = VECTOR('',#269,1.);
#269 = DIRECTION('',(0.E+000,-1.));
#270 = ( GEOMETRIC_REPRESENTATION_CONTEXT(2) 
PARAMETRIC_REPRESENTATION_CONTEXT() REPRESENTATION_CONTEXT('2D SPACE',''
  ) );
#271 = PCURVE('',#111,#272);
#272 = DEFINITIONAL_REPRESENTATION('',(#273),#277);
#273 = LINE('',#274,#275);
#274 = CARTESIAN_POINT('',(4.,0.E+000));
#275 = VECTOR('',#276,1.);
#276 = DIRECTION('',(0.E+000,1.));
#277 = ( GEOMETRIC_REPRESENTATION_CONTEXT(2) 
PARAMETRIC_REPRESENTATION_CONTEXT() REPRESENTATION_CONTEXT('2D SPACE',''
  ) );
#278 = ADVANCED_FACE('',(#279),#111,.T.);
#279 = FACE_BOUND('',#280,.T.);
#280 = EDGE_LOOP('',(#281,#304,#325,#326));
#281 = ORIENTED_EDGE('',*,*,#282,.F.);
#282 = EDGE_CURVE('',#283,#68,#285,.T.);
#283 = VERTEX_POINT('',#284);
#284 = CARTESIAN_POINT('',(-2.,3.6,2.));
#285 = SURFACE_CURVE('',#286,(#290,#297),.PCURVE_S1.);
#286 = LINE('',#287,#288);
#287 = CARTESIAN_POINT('',(-2.,3.6,2.));
#288 = VECTOR('',#289,1.);
#289 = DIRECTION('',(0.E+000,1.,0.E+000));
#290 = PCURVE('',#111,#291);
#291 = DEFINITIONAL_REPRESENTATION('',(#292),#296);
#292 = LINE('',#293,#294);
#293 = CARTESIAN_POINT('',(0.E+000,0.E+000));
#294 = VECTOR('',#295,1.);
#295 = DIRECTION('',(0.E+000,1.));
#296 = ( GEOMETRIC_REPRESENTATION_CONTEXT(2) 
PARAMETRIC_REPRESENTATION_CONTEXT() REPRESENTATION_CONTEXT('2D SPACE',''
  ) );
#297 = PCURVE('',#83,#298);
#298 = DEFINITIONAL_REPRESENTATION('',(#299),#303);
#299 = LINE('',#300,#301);
#300 = CARTESIAN_POINT('',(2.,0.E+000));
#301 = VECTOR('',#302,1.);
#302 = DIRECTION('',(0.E+000,-1.));
#303 = ( GEOMETRIC_REPRESENTATION_CONTEXT(2) 
PARAMETRIC_REPRESENTATION_CONTEXT() REPRESENTATION_CONTEXT('2D SPACE',''
  ) );
#304 = ORIENTED_EDGE('',*,*,#305,.T.);
#305 = EDGE_CURVE('',#283,#229,#306,.T.);
#306 = SURFACE_CURVE('',#307,(#311,#318),.PCURVE_S1.);
#307 = LINE('',#308,#309);
#308 = CARTESIAN_POINT('',(-2.,3.6,2.));
#309 = VECTOR('',#310,1.);
#310 = DIRECTION('',(1.,0.E+000,0.E+000));
#311 = PCURVE('',#111,#312);
#312 = DEFINITIONAL_REPRESENTATION('',(#313),#317);
#313 = LINE('',#314,#315);
#314 = CARTESIAN_POINT('',(0.E+000,0.E+000));
#315 = VECTOR('',#316,1.);
#316 = DIRECTION('',(1.,0.E+000));
#317 = ( GEOMETRIC_REPRESENTATION_CONTEXT(2) 
PARAMETRIC_REPRESENTATION_CONTEXT() REPRESENTATION_CONTEXT('2D SPACE',''
  ) );
#318 = PCURVE('',#244,#319);
#319 = DEFINITIONAL_REPRESENTATION('',(#320),#324);
#320 = LINE('',#321,#322);
#321 = CARTESIAN_POINT('',(2.,1.6));
#322 = VECTOR('',#323,1.);
#323 = DIRECTION('',(0.E+000,1.));
#324 = ( GEOMETRIC_REPRESENTATION_CONTEXT(2) 
PARAMETRIC_REPRESENTATION_CONTEXT() REPRESENTATION_CONTEXT('2D SPACE',''
  ) );
#325 = ORIENTED_EDGE('',*,*,#258,.T.);
#326 = ORIENTED_EDGE('',*,*,#95,.F.);
#327 = ADVANCED_FACE('',(#328),#83,.F.);
#328 = FACE_BOUND('',#329,.F.);
#329 = EDGE_LOOP('',(#330,#351,#352,#353));
#330 = ORIENTED_EDGE('',*,*,#331,.F.);
#331 = EDGE_CURVE('',#153,#283,#332,.T.);
#332 = SURFACE_CURVE('',#333,(#337,#344),.PCURVE_S1.);
#333 = LINE('',#334,#335);
#334 = CARTESIAN_POINT('',(-2.,3.6,0.E+000));
#335 = VECTOR('',#336,1.);
#336 = DIRECTION('',(0.E+000,0.E+000,1.));
#337 = PCURVE('',#83,#338);
#338 = DEFINITIONAL_REPRESENTATION('',(#339),#343);
#339 = LINE('',#340,#341);
#340 = CARTESIAN_POINT('',(0.E+000,0.E+000));
#341 = VECTOR('',#342,1.);
#342 = DIRECTION('',(1.,0.E+000));
#343 = ( GEOMETRIC_REPRESENTATION_CONTEXT(2) 
PARAMETRIC_REPRESENTATION_CONTEXT() REPRESENTATION_CONTEXT('2D SPACE',''
  ) );
#344 = PCURVE('',#244,#345);
#345 = DEFINITIONAL_REPRESENTATION('',(#346),#350);
#346 = LINE('',#347,#348);
#347 = CARTESIAN_POINT('',(0.E+000,1.6));
#348 = VECTOR('',#349,1.);
#349 = DIRECTION('',(1.,0.E+000));
#350 = ( GEOMETRIC_REPRESENTATION_CONTEXT(2) 
PARAMETRIC_REPRESENTATION_CONTEXT() REPRESENTATION_CONTEXT('2D SPACE',''
  ) );
#351 = ORIENTED_EDGE('',*,*,#152,.T.);
#352 = ORIENTED_EDGE('',*,*,#67,.T.);
#353 = ORIENTED_EDGE('',*,*,#282,.F.);
#354 = ADVANCED_FACE('',(#355),#191,.F.);
#355 = FACE_BOUND('',#356,.F.);
#356 = EDGE_LOOP('',(#357,#387,#415,#443,#466,#494,#515,#516));
#357 = ORIENTED_EDGE('',*,*,#358,.F.);
#358 = EDGE_CURVE('',#359,#361,#363,.T.);
#359 = VERTEX_POINT('',#360);
#360 = CARTESIAN_POINT('',(-3.6,-3.6,0.E+000));
#361 = VERTEX_POINT('',#362);
#362 = CARTESIAN_POINT('',(-3.6,3.6,0.E+000));
#363 = SURFACE_CURVE('',#364,(#368,#375),.PCURVE_S1.);
#364 = LINE('',#365,#366);
#365 = CARTESIAN_POINT('',(-3.6,-3.6,0.E+000));
#366 = VECTOR('',#367,1.);
#367 = DIRECTION('',(0.E+000,1.,0.E+000));
#368 = PCURVE('',#191,#369);
#369 = DEFINITIONAL_REPRESENTATION('',(#370),#374);
#370 = LINE('',#371,#372);
#371 = CARTESIAN_POINT('',(0.E+000,0.E+000));
#372 = VECTOR('',#373,1.);
#373 = DIRECTION('',(0.E+000,1.));
#374 = ( GEOMETRIC_REPRESENTATION_CONTEXT(2) 
PARAMETRIC_REPRESENTATION_CONTEXT() REPRESENTATION_CONTEXT('2D SPACE',''
  ) );
#375 = PCURVE('',#376,#381);
#376 = PLANE('',#377);
#377 = AXIS2_PLACEMENT_3D('',#378,#379,#380);
#378 = CARTESIAN_POINT('',(-3.6,-3.6,0.E+000));
#379 = DIRECTION('',(1.,0.E+000,0.E+000));
#380 = DIRECTION('',(0.E+000,0.E+000,1.));
#381 = DEFINITIONAL_REPRESENTATION('',(#382),#386);
#382 = LINE('',#383,#384);
#383 = CARTESIAN_POINT('',(0.E+000,0.E+000));
#384 = VECTOR('',#385,1.);
#385 = DIRECTION('',(0.E+000,-1.));
#386 = ( GEOMETRIC_REPRESENTATION_CONTEXT(2) 
PARAMETRIC_REPRESENTATION_CONTEXT() REPRESENTATION_CONTEXT('2D SPACE',''
  ) );
#387 = ORIENTED_EDGE('',*,*,#388,.T.);
#388 = EDGE_CURVE('',#359,#389,#391,.T.);
#389 = VERTEX_POINT('',#390);
#390 = CARTESIAN_POINT('',(-2.,-3.6,0.E+000));
#391 = SURFACE_CURVE('',#392,(#396,#403),.PCURVE_S1.);
#392 = LINE('',#393,#394);
#393 = CARTESIAN_POINT('',(-3.6,-3.6,0.E+000));
#394 = VECTOR('',#395,1.);
#395 = DIRECTION('',(1.,0.E+000,0.E+000));
#396 = PCURVE('',#191,#397);
#397 = DEFINITIONAL_REPRESENTATION('',(#398),#402);
#398 = LINE('',#399,#400);
#399 = CARTESIAN_POINT('',(0.E+000,0.E+000));
#400 = VECTOR('',#401,1.);
#401 = DIRECTION('',(1.,0.E+000));
#402 = ( GEOMETRIC_REPRESENTATION_CONTEXT(2) 
PARAMETRIC_REPRESENTATION_CONTEXT() REPRESENTATION_CONTEXT('2D SPACE',''
  ) );
#403 = PCURVE('',#404,#409);
#404 = PLANE('',#405);
#405 = AXIS2_PLACEMENT_3D('',#406,#407,#408);
#406 = CARTESIAN_POINT('',(-3.6,-3.6,0.E+000));
#407 = DIRECTION('',(0.E+000,1.,0.E+000));
#408 = DIRECTION('',(0.E+000,0.E+000,1.));
#409 = DEFINITIONAL_REPRESENTATION('',(#410),#414);
#410 = LINE('',#411,#412);
#411 = CARTESIAN_POINT('',(0.E+000,0.E+000));
#412 = VECTOR('',#413,1.);
#413 = DIRECTION('',(0.E+000,1.));
#414 = ( GEOMETRIC_REPRESENTATION_CONTEXT(2) 
PARAMETRIC_REPRESENTATION_CONTEXT() REPRESENTATION_CONTEXT('2D SPACE',''
  ) );
#415 = ORIENTED_EDGE('',*,*,#416,.T.);
#416 = EDGE_CURVE('',#389,#417,#419,.T.);
#417 = VERTEX_POINT('',#418);
#418 = CARTESIAN_POINT('',(2.,-3.6,0.E+000));
#419 = SURFACE_CURVE('',#420,(#424,#431),.PCURVE_S1.);
#420 = LINE('',#421,#422);
#421 = CARTESIAN_POINT('',(-2.,-3.6,0.E+000));
#422 = VECTOR('',#423,1.);
#423 = DIRECTION('',(1.,0.E+000,0.E+000));
#424 = PCURVE('',#191,#425);
#425 = DEFINITIONAL_REPRESENTATION('',(#426),#430);
#426 = LINE('',#427,#428);
#427 = CARTESIAN_POINT('',(1.6,0.E+000));
#428 = VECTOR('',#429,1.);
#429 = DIRECTION('',(1.,0.E+000));
#430 = ( GEOMETRIC_REPRESENTATION_CONTEXT(2) 
PARAMETRIC_REPRESENTATION_CONTEXT() REPRESENTATION_CONTEXT('2D SPACE',''
  ) );
#431 = PCURVE('',#432,#437);
#432 = PLANE('',#433);
#433 = AXIS2_PLACEMENT_3D('',#434,#435,#436);
#434 = CARTESIAN_POINT('',(-2.,-3.7,0.E+000));
#435 = DIRECTION('',(0.E+000,0.E+000,1.));
#436 = DIRECTION('',(1.,0.E+000,0.E+000));
#437 = DEFINITIONAL_REPRESENTATION('',(#438),#442);
#438 = LINE('',#439,#440);
#439 = CARTESIAN_POINT('',(0.E+000,0.1));
#440 = VECTOR('',#441,1.);
#441 = DIRECTION('',(1.,0.E+000));
#442 = ( GEOMETRIC_REPRESENTATION_CONTEXT(2) 
PARAMETRIC_REPRESENTATION_CONTEXT() REPRESENTATION_CONTEXT('2D SPACE',''
  ) );
#443 = ORIENTED_EDGE('',*,*,#444,.T.);
#444 = EDGE_CURVE('',#417,#445,#447,.T.);
#445 = VERTEX_POINT('',#446);
#446 = CARTESIAN_POINT('',(3.6,-3.6,0.E+000));
#447 = SURFACE_CURVE('',#448,(#452,#459),.PCURVE_S1.);
#448 = LINE('',#449,#450);
#449 = CARTESIAN_POINT('',(-3.6,-3.6,0.E+000));
#450 = VECTOR('',#451,1.);
#451 = DIRECTION('',(1.,0.E+000,0.E+000));
#452 = PCURVE('',#191,#453);
#453 = DEFINITIONAL_REPRESENTATION('',(#454),#458);
#454 = LINE('',#455,#456);
#455 = CARTESIAN_POINT('',(0.E+000,0.E+000));
#456 = VECTOR('',#457,1.);
#457 = DIRECTION('',(1.,0.E+000));
#458 = ( GEOMETRIC_REPRESENTATION_CONTEXT(2) 
PARAMETRIC_REPRESENTATION_CONTEXT() REPRESENTATION_CONTEXT('2D SPACE',''
  ) );
#459 = PCURVE('',#404,#460);
#460 = DEFINITIONAL_REPRESENTATION('',(#461),#465);
#461 = LINE('',#462,#463);
#462 = CARTESIAN_POINT('',(0.E+000,0.E+000));
#463 = VECTOR('',#464,1.);
#464 = DIRECTION('',(0.E+000,1.));
#465 = ( GEOMETRIC_REPRESENTATION_CONTEXT(2) 
PARAMETRIC_REPRESENTATION_CONTEXT() REPRESENTATION_CONTEXT('2D SPACE',''
  ) );
#466 = ORIENTED_EDGE('',*,*,#467,.T.);
#467 = EDGE_CURVE('',#445,#468,#470,.T.);
#468 = VERTEX_POINT('',#469);
#469 = CARTESIAN_POINT('',(3.6,3.6,0.E+000));
#470 = SURFACE_CURVE('',#471,(#475,#482),.PCURVE_S1.);
#471 = LINE('',#472,#473);
#472 = CARTESIAN_POINT('',(3.6,-3.6,0.E+000));
#473 = VECTOR('',#474,1.);
#474 = DIRECTION('',(0.E+000,1.,0.E+000));
#475 = PCURVE('',#191,#476);
#476 = DEFINITIONAL_REPRESENTATION('',(#477),#481);
#477 = LINE('',#478,#479);
#478 = CARTESIAN_POINT('',(7.2,0.E+000));
#479 = VECTOR('',#480,1.);
#480 = DIRECTION('',(0.E+000,1.));
#481 = ( GEOMETRIC_REPRESENTATION_CONTEXT(2) 
PARAMETRIC_REPRESENTATION_CONTEXT() REPRESENTATION_CONTEXT('2D SPACE',''
  ) );
#482 = PCURVE('',#483,#488);
#483 = PLANE('',#484);
#484 = AXIS2_PLACEMENT_3D('',#485,#486,#487);
#485 = CARTESIAN_POINT('',(3.6,-3.6,0.E+000));
#486 = DIRECTION('',(1.,0.E+000,0.E+000));
#487 = DIRECTION('',(0.E+000,0.E+000,1.));
#488 = DEFINITIONAL_REPRESENTATION('',(#489),#493);
#489 = LINE('',#490,#491);
#490 = CARTESIAN_POINT('',(0.E+000,0.E+000));
#491 = VECTOR('',#492,1.);
#492 = DIRECTION('',(0.E+000,-1.));
#493 = ( GEOMETRIC_REPRESENTATION_CONTEXT(2) 
PARAMETRIC_REPRESENTATION_CONTEXT() REPRESENTATION_CONTEXT('2D SPACE',''
  ) );
#494 = ORIENTED_EDGE('',*,*,#495,.F.);
#495 = EDGE_CURVE('',#176,#468,#496,.T.);
#496 = SURFACE_CURVE('',#497,(#501,#508),.PCURVE_S1.);
#497 = LINE('',#498,#499);
#498 = CARTESIAN_POINT('',(-3.6,3.6,0.E+000));
#499 = VECTOR('',#500,1.);
#500 = DIRECTION('',(1.,0.E+000,0.E+000));
#501 = PCURVE('',#191,#502);
#502 = DEFINITIONAL_REPRESENTATION('',(#503),#507);
#503 = LINE('',#504,#505);
#504 = CARTESIAN_POINT('',(0.E+000,7.2));
#505 = VECTOR('',#506,1.);
#506 = DIRECTION('',(1.,0.E+000));
#507 = ( GEOMETRIC_REPRESENTATION_CONTEXT(2) 
PARAMETRIC_REPRESENTATION_CONTEXT() REPRESENTATION_CONTEXT('2D SPACE',''
  ) );
#508 = PCURVE('',#244,#509);
#509 = DEFINITIONAL_REPRESENTATION('',(#510),#514);
#510 = LINE('',#511,#512);
#511 = CARTESIAN_POINT('',(0.E+000,0.E+000));
#512 = VECTOR('',#513,1.);
#513 = DIRECTION('',(0.E+000,1.));
#514 = ( GEOMETRIC_REPRESENTATION_CONTEXT(2) 
PARAMETRIC_REPRESENTATION_CONTEXT() REPRESENTATION_CONTEXT('2D SPACE',''
  ) );
#515 = ORIENTED_EDGE('',*,*,#175,.F.);
#516 = ORIENTED_EDGE('',*,*,#517,.F.);
#517 = EDGE_CURVE('',#361,#153,#518,.T.);
#518 = SURFACE_CURVE('',#519,(#523,#530),.PCURVE_S1.);
#519 = LINE('',#520,#521);
#520 = CARTESIAN_POINT('',(-3.6,3.6,0.E+000));
#521 = VECTOR('',#522,1.);
#522 = DIRECTION('',(1.,0.E+000,0.E+000));
#523 = PCURVE('',#191,#524);
#524 = DEFINITIONAL_REPRESENTATION('',(#525),#529);
#525 = LINE('',#526,#527);
#526 = CARTESIAN_POINT('',(0.E+000,7.2));
#527 = VECTOR('',#528,1.);
#528 = DIRECTION('',(1.,0.E+000));
#529 = ( GEOMETRIC_REPRESENTATION_CONTEXT(2) 
PARAMETRIC_REPRESENTATION_CONTEXT() REPRESENTATION_CONTEXT('2D SPACE',''
  ) );
#530 = PCURVE('',#244,#531);
#531 = DEFINITIONAL_REPRESENTATION('',(#532),#536);
#532 = LINE('',#533,#534);
#533 = CARTESIAN_POINT('',(0.E+000,0.E+000));
#534 = VECTOR('',#535,1.);
#535 = DIRECTION('',(0.E+000,1.));
#536 = ( GEOMETRIC_REPRESENTATION_CONTEXT(2) 
PARAMETRIC_REPRESENTATION_CONTEXT() REPRESENTATION_CONTEXT('2D SPACE',''
  ) );
#537 = ADVANCED_FACE('',(#538),#244,.T.);
#538 = FACE_BOUND('',#539,.T.);
#539 = EDGE_LOOP('',(#540,#541,#564,#592,#613,#614,#615,#616));
#540 = ORIENTED_EDGE('',*,*,#517,.F.);
#541 = ORIENTED_EDGE('',*,*,#542,.T.);
#542 = EDGE_CURVE('',#361,#543,#545,.T.);
#543 = VERTEX_POINT('',#544);
#544 = CARTESIAN_POINT('',(-3.6,3.6,3.));
#545 = SURFACE_CURVE('',#546,(#550,#557),.PCURVE_S1.);
#546 = LINE('',#547,#548);
#547 = CARTESIAN_POINT('',(-3.6,3.6,0.E+000));
#548 = VECTOR('',#549,1.);
#549 = DIRECTION('',(0.E+000,0.E+000,1.));
#550 = PCURVE('',#244,#551);
#551 = DEFINITIONAL_REPRESENTATION('',(#552),#556);
#552 = LINE('',#553,#554);
#553 = CARTESIAN_POINT('',(0.E+000,0.E+000));
#554 = VECTOR('',#555,1.);
#555 = DIRECTION('',(1.,0.E+000));
#556 = ( GEOMETRIC_REPRESENTATION_CONTEXT(2) 
PARAMETRIC_REPRESENTATION_CONTEXT() REPRESENTATION_CONTEXT('2D SPACE',''
  ) );
#557 = PCURVE('',#376,#558);
#558 = DEFINITIONAL_REPRESENTATION('',(#559),#563);
#559 = LINE('',#560,#561);
#560 = CARTESIAN_POINT('',(0.E+000,-7.2));
#561 = VECTOR('',#562,1.);
#562 = DIRECTION('',(1.,0.E+000));
#563 = ( GEOMETRIC_REPRESENTATION_CONTEXT(2) 
PARAMETRIC_REPRESENTATION_CONTEXT() REPRESENTATION_CONTEXT('2D SPACE',''
  ) );
#564 = ORIENTED_EDGE('',*,*,#565,.T.);
#565 = EDGE_CURVE('',#543,#566,#568,.T.);
#566 = VERTEX_POINT('',#567);
#567 = CARTESIAN_POINT('',(3.6,3.6,3.));
#568 = SURFACE_CURVE('',#569,(#573,#580),.PCURVE_S1.);
#569 = LINE('',#570,#571);
#570 = CARTESIAN_POINT('',(-3.6,3.6,3.));
#571 = VECTOR('',#572,1.);
#572 = DIRECTION('',(1.,0.E+000,0.E+000));
#573 = PCURVE('',#244,#574);
#574 = DEFINITIONAL_REPRESENTATION('',(#575),#579);
#575 = LINE('',#576,#577);
#576 = CARTESIAN_POINT('',(3.,0.E+000));
#577 = VECTOR('',#578,1.);
#578 = DIRECTION('',(0.E+000,1.));
#579 = ( GEOMETRIC_REPRESENTATION_CONTEXT(2) 
PARAMETRIC_REPRESENTATION_CONTEXT() REPRESENTATION_CONTEXT('2D SPACE',''
  ) );
#580 = PCURVE('',#581,#586);
#581 = PLANE('',#582);
#582 = AXIS2_PLACEMENT_3D('',#583,#584,#585);
#583 = CARTESIAN_POINT('',(-3.6,-3.6,3.));
#584 = DIRECTION('',(0.E+000,0.E+000,1.));
#585 = DIRECTION('',(1.,0.E+000,0.E+000));
#586 = DEFINITIONAL_REPRESENTATION('',(#587),#591);
#587 = LINE('',#588,#589);
#588 = CARTESIAN_POINT('',(0.E+000,7.2));
#589 = VECTOR('',#590,1.);
#590 = DIRECTION('',(1.,0.E+000));
#591 = ( GEOMETRIC_REPRESENTATION_CONTEXT(2) 
PARAMETRIC_REPRESENTATION_CONTEXT() REPRESENTATION_CONTEXT('2D SPACE',''
  ) );
#592 = ORIENTED_EDGE('',*,*,#593,.F.);
#593 = EDGE_CURVE('',#468,#566,#594,.T.);
#594 = SURFACE_CURVE('',#595,(#599,#606),.PCURVE_S1.);
#595 = LINE('',#596,#597);
#596 = CARTESIAN_POINT('',(3.6,3.6,0.E+000));
#597 = VECTOR('',#598,1.);
#598 = DIRECTION('',(0.E+000,0.E+000,1.));
#599 = PCURVE('',#244,#600);
#600 = DEFINITIONAL_REPRESENTATION('',(#601),#605);
#601 = LINE('',#602,#603);
#602 = CARTESIAN_POINT('',(0.E+000,7.2));
#603 = VECTOR('',#604,1.);
#604 = DIRECTION('',(1.,0.E+000));
#605 = ( GEOMETRIC_REPRESENTATION_CONTEXT(2) 
PARAMETRIC_REPRESENTATION_CONTEXT() REPRESENTATION_CONTEXT('2D SPACE',''
  ) );
#606 = PCURVE('',#483,#607);
#607 = DEFINITIONAL_REPRESENTATION('',(#608),#612);
#608 = LINE('',#609,#610);
#609 = CARTESIAN_POINT('',(0.E+000,-7.2));
#610 = VECTOR('',#611,1.);
#611 = DIRECTION('',(1.,0.E+000));
#612 = ( GEOMETRIC_REPRESENTATION_CONTEXT(2) 
PARAMETRIC_REPRESENTATION_CONTEXT() REPRESENTATION_CONTEXT('2D SPACE',''
  ) );
#613 = ORIENTED_EDGE('',*,*,#495,.F.);
#614 = ORIENTED_EDGE('',*,*,#228,.T.);
#615 = ORIENTED_EDGE('',*,*,#305,.F.);
#616 = ORIENTED_EDGE('',*,*,#331,.F.);
#617 = ADVANCED_FACE('',(#618),#376,.F.);
#618 = FACE_BOUND('',#619,.F.);
#619 = EDGE_LOOP('',(#620,#643,#644,#645));
#620 = ORIENTED_EDGE('',*,*,#621,.F.);
#621 = EDGE_CURVE('',#359,#622,#624,.T.);
#622 = VERTEX_POINT('',#623);
#623 = CARTESIAN_POINT('',(-3.6,-3.6,3.));
#624 = SURFACE_CURVE('',#625,(#629,#636),.PCURVE_S1.);
#625 = LINE('',#626,#627);
#626 = CARTESIAN_POINT('',(-3.6,-3.6,0.E+000));
#627 = VECTOR('',#628,1.);
#628 = DIRECTION('',(0.E+000,0.E+000,1.));
#629 = PCURVE('',#376,#630);
#630 = DEFINITIONAL_REPRESENTATION('',(#631),#635);
#631 = LINE('',#632,#633);
#632 = CARTESIAN_POINT('',(0.E+000,0.E+000));
#633 = VECTOR('',#634,1.);
#634 = DIRECTION('',(1.,0.E+000));
#635 = ( GEOMETRIC_REPRESENTATION_CONTEXT(2) 
PARAMETRIC_REPRESENTATION_CONTEXT() REPRESENTATION_CONTEXT('2D SPACE',''
  ) );
#636 = PCURVE('',#404,#637);
#637 = DEFINITIONAL_REPRESENTATION('',(#638),#642);
#638 = LINE('',#639,#640);
#639 = CARTESIAN_POINT('',(0.E+000,0.E+000));
#640 = VECTOR('',#641,1.);
#641 = DIRECTION('',(1.,0.E+000));
#642 = ( GEOMETRIC_REPRESENTATION_CONTEXT(2) 
PARAMETRIC_REPRESENTATION_CONTEXT() REPRESENTATION_CONTEXT('2D SPACE',''
  ) );
#643 = ORIENTED_EDGE('',*,*,#358,.T.);
#644 = ORIENTED_EDGE('',*,*,#542,.T.);
#645 = ORIENTED_EDGE('',*,*,#646,.F.);
#646 = EDGE_CURVE('',#622,#543,#647,.T.);
#647 = SURFACE_CURVE('',#648,(#652,#659),.PCURVE_S1.);
#648 = LINE('',#649,#650);
#649 = CARTESIAN_POINT('',(-3.6,-3.6,3.));
#650 = VECTOR('',#651,1.);
#651 = DIRECTION('',(0.E+000,1.,0.E+000));
#652 = PCURVE('',#376,#653);
#653 = DEFINITIONAL_REPRESENTATION('',(#654),#658);
#654 = LINE('',#655,#656);
#655 = CARTESIAN_POINT('',(3.,0.E+000));
#656 = VECTOR('',#657,1.);
#657 = DIRECTION('',(0.E+000,-1.));
#658 = ( GEOMETRIC_REPRESENTATION_CONTEXT(2) 
PARAMETRIC_REPRESENTATION_CONTEXT() REPRESENTATION_CONTEXT('2D SPACE',''
  ) );
#659 = PCURVE('',#581,#660);
#660 = DEFINITIONAL_REPRESENTATION('',(#661),#665);
#661 = LINE('',#662,#663);
#662 = CARTESIAN_POINT('',(0.E+000,0.E+000));
#663 = VECTOR('',#664,1.);
#664 = DIRECTION('',(0.E+000,1.));
#665 = ( GEOMETRIC_REPRESENTATION_CONTEXT(2) 
PARAMETRIC_REPRESENTATION_CONTEXT() REPRESENTATION_CONTEXT('2D SPACE',''
  ) );
#666 = ADVANCED_FACE('',(#667),#404,.F.);
#667 = FACE_BOUND('',#668,.F.);
#668 = EDGE_LOOP('',(#669,#670,#671,#694,#715,#716,#744,#772));
#669 = ORIENTED_EDGE('',*,*,#388,.F.);
#670 = ORIENTED_EDGE('',*,*,#621,.T.);
#671 = ORIENTED_EDGE('',*,*,#672,.T.);
#672 = EDGE_CURVE('',#622,#673,#675,.T.);
#673 = VERTEX_POINT('',#674);
#674 = CARTESIAN_POINT('',(3.6,-3.6,3.));
#675 = SURFACE_CURVE('',#676,(#680,#687),.PCURVE_S1.);
#676 = LINE('',#677,#678);
#677 = CARTESIAN_POINT('',(-3.6,-3.6,3.));
#678 = VECTOR('',#679,1.);
#679 = DIRECTION('',(1.,0.E+000,0.E+000));
#680 = PCURVE('',#404,#681);
#681 = DEFINITIONAL_REPRESENTATION('',(#682),#686);
#682 = LINE('',#683,#684);
#683 = CARTESIAN_POINT('',(3.,0.E+000));
#684 = VECTOR('',#685,1.);
#685 = DIRECTION('',(0.E+000,1.));
#686 = ( GEOMETRIC_REPRESENTATION_CONTEXT(2) 
PARAMETRIC_REPRESENTATION_CONTEXT() REPRESENTATION_CONTEXT('2D SPACE',''
  ) );
#687 = PCURVE('',#581,#688);
#688 = DEFINITIONAL_REPRESENTATION('',(#689),#693);
#689 = LINE('',#690,#691);
#690 = CARTESIAN_POINT('',(0.E+000,0.E+000));
#691 = VECTOR('',#692,1.);
#692 = DIRECTION('',(1.,0.E+000));
#693 = ( GEOMETRIC_REPRESENTATION_CONTEXT(2) 
PARAMETRIC_REPRESENTATION_CONTEXT() REPRESENTATION_CONTEXT('2D SPACE',''
  ) );
#694 = ORIENTED_EDGE('',*,*,#695,.F.);
#695 = EDGE_CURVE('',#445,#673,#696,.T.);
#696 = SURFACE_CURVE('',#697,(#701,#708),.PCURVE_S1.);
#697 = LINE('',#698,#699);
#698 = CARTESIAN_POINT('',(3.6,-3.6,0.E+000));
#699 = VECTOR('',#700,1.);
#700 = DIRECTION('',(0.E+000,0.E+000,1.));
#701 = PCURVE('',#404,#702);
#702 = DEFINITIONAL_REPRESENTATION('',(#703),#707);
#703 = LINE('',#704,#705);
#704 = CARTESIAN_POINT('',(0.E+000,7.2));
#705 = VECTOR('',#706,1.);
#706 = DIRECTION('',(1.,0.E+000));
#707 = ( GEOMETRIC_REPRESENTATION_CONTEXT(2) 
PARAMETRIC_REPRESENTATION_CONTEXT() REPRESENTATION_CONTEXT('2D SPACE',''
  ) );
#708 = PCURVE('',#483,#709);
#709 = DEFINITIONAL_REPRESENTATION('',(#710),#714);
#710 = LINE('',#711,#712);
#711 = CARTESIAN_POINT('',(0.E+000,0.E+000));
#712 = VECTOR('',#713,1.);
#713 = DIRECTION('',(1.,0.E+000));
#714 = ( GEOMETRIC_REPRESENTATION_CONTEXT(2) 
PARAMETRIC_REPRESENTATION_CONTEXT() REPRESENTATION_CONTEXT('2D SPACE',''
  ) );
#715 = ORIENTED_EDGE('',*,*,#444,.F.);
#716 = ORIENTED_EDGE('',*,*,#717,.T.);
#717 = EDGE_CURVE('',#417,#718,#720,.T.);
#718 = VERTEX_POINT('',#719);
#719 = CARTESIAN_POINT('',(2.,-3.6,2.));
#720 = SURFACE_CURVE('',#721,(#725,#732),.PCURVE_S1.);
#721 = LINE('',#722,#723);
#722 = CARTESIAN_POINT('',(2.,-3.6,0.E+000));
#723 = VECTOR('',#724,1.);
#724 = DIRECTION('',(0.E+000,0.E+000,1.));
#725 = PCURVE('',#404,#726);
#726 = DEFINITIONAL_REPRESENTATION('',(#727),#731);
#727 = LINE('',#728,#729);
#728 = CARTESIAN_POINT('',(0.E+000,5.6));
#729 = VECTOR('',#730,1.);
#730 = DIRECTION('',(1.,0.E+000));
#731 = ( GEOMETRIC_REPRESENTATION_CONTEXT(2) 
PARAMETRIC_REPRESENTATION_CONTEXT() REPRESENTATION_CONTEXT('2D SPACE',''
  ) );
#732 = PCURVE('',#733,#738);
#733 = PLANE('',#734);
#734 = AXIS2_PLACEMENT_3D('',#735,#736,#737);
#735 = CARTESIAN_POINT('',(2.,-3.7,0.E+000));
#736 = DIRECTION('',(1.,0.E+000,0.E+000));
#737 = DIRECTION('',(0.E+000,0.E+000,1.));
#738 = DEFINITIONAL_REPRESENTATION('',(#739),#743);
#739 = LINE('',#740,#741);
#740 = CARTESIAN_POINT('',(0.E+000,-0.1));
#741 = VECTOR('',#742,1.);
#742 = DIRECTION('',(1.,0.E+000));
#743 = ( GEOMETRIC_REPRESENTATION_CONTEXT(2) 
PARAMETRIC_REPRESENTATION_CONTEXT() REPRESENTATION_CONTEXT('2D SPACE',''
  ) );
#744 = ORIENTED_EDGE('',*,*,#745,.F.);
#745 = EDGE_CURVE('',#746,#718,#748,.T.);
#746 = VERTEX_POINT('',#747);
#747 = CARTESIAN_POINT('',(-2.,-3.6,2.));
#748 = SURFACE_CURVE('',#749,(#753,#760),.PCURVE_S1.);
#749 = LINE('',#750,#751);
#750 = CARTESIAN_POINT('',(-2.,-3.6,2.));
#751 = VECTOR('',#752,1.);
#752 = DIRECTION('',(1.,0.E+000,0.E+000));
#753 = PCURVE('',#404,#754);
#754 = DEFINITIONAL_REPRESENTATION('',(#755),#759);
#755 = LINE('',#756,#757);
#756 = CARTESIAN_POINT('',(2.,1.6));
#757 = VECTOR('',#758,1.);
#758 = DIRECTION('',(0.E+000,1.));
#759 = ( GEOMETRIC_REPRESENTATION_CONTEXT(2) 
PARAMETRIC_REPRESENTATION_CONTEXT() REPRESENTATION_CONTEXT('2D SPACE',''
  ) );
#760 = PCURVE('',#761,#766);
#761 = PLANE('',#762);
#762 = AXIS2_PLACEMENT_3D('',#763,#764,#765);
#763 = CARTESIAN_POINT('',(-2.,-3.7,2.));
#764 = DIRECTION('',(0.E+000,0.E+000,1.));
#765 = DIRECTION('',(1.,0.E+000,0.E+000));
#766 = DEFINITIONAL_REPRESENTATION('',(#767),#771);
#767 = LINE('',#768,#769);
#768 = CARTESIAN_POINT('',(0.E+000,0.1));
#769 = VECTOR('',#770,1.);
#770 = DIRECTION('',(1.,0.E+000));
#771 = ( GEOMETRIC_REPRESENTATION_CONTEXT(2) 
PARAMETRIC_REPRESENTATION_CONTEXT() REPRESENTATION_CONTEXT('2D SPACE',''
  ) );
#772 = ORIENTED_EDGE('',*,*,#773,.F.);
#773 = EDGE_CURVE('',#389,#746,#774,.T.);
#774 = SURFACE_CURVE('',#775,(#779,#786),.PCURVE_S1.);
#775 = LINE('',#776,#777);
#776 = CARTESIAN_POINT('',(-2.,-3.6,0.E+000));
#777 = VECTOR('',#778,1.);
#778 = DIRECTION('',(0.E+000,0.E+000,1.));
#779 = PCURVE('',#404,#780);
#780 = DEFINITIONAL_REPRESENTATION('',(#781),#785);
#781 = LINE('',#782,#783);
#782 = CARTESIAN_POINT('',(0.E+000,1.6));
#783 = VECTOR('',#784,1.);
#784 = DIRECTION('',(1.,0.E+000));
#785 = ( GEOMETRIC_REPRESENTATION_CONTEXT(2) 
PARAMETRIC_REPRESENTATION_CONTEXT() REPRESENTATION_CONTEXT('2D SPACE',''
  ) );
#786 = PCURVE('',#787,#792);
#787 = PLANE('',#788);
#788 = AXIS2_PLACEMENT_3D('',#789,#790,#791);
#789 = CARTESIAN_POINT('',(-2.,-3.7,0.E+000));
#790 = DIRECTION('',(1.,0.E+000,0.E+000));
#791 = DIRECTION('',(0.E+000,0.E+000,1.));
#792 = DEFINITIONAL_REPRESENTATION('',(#793),#797);
#793 = LINE('',#794,#795);
#794 = CARTESIAN_POINT('',(0.E+000,-0.1));
#795 = VECTOR('',#796,1.);
#796 = DIRECTION('',(1.,0.E+000));
#797 = ( GEOMETRIC_REPRESENTATION_CONTEXT(2) 
PARAMETRIC_REPRESENTATION_CONTEXT() REPRESENTATION_CONTEXT('2D SPACE',''
  ) );
#798 = ADVANCED_FACE('',(#799),#432,.F.);
#799 = FACE_BOUND('',#800,.F.);
#800 = EDGE_LOOP('',(#801,#824,#852,#873));
#801 = ORIENTED_EDGE('',*,*,#802,.F.);
#802 = EDGE_CURVE('',#803,#389,#805,.T.);
#803 = VERTEX_POINT('',#804);
#804 = CARTESIAN_POINT('',(-2.,-3.7,0.E+000));
#805 = SURFACE_CURVE('',#806,(#810,#817),.PCURVE_S1.);
#806 = LINE('',#807,#808);
#807 = CARTESIAN_POINT('',(-2.,-3.7,0.E+000));
#808 = VECTOR('',#809,1.);
#809 = DIRECTION('',(0.E+000,1.,0.E+000));
#810 = PCURVE('',#432,#811);
#811 = DEFINITIONAL_REPRESENTATION('',(#812),#816);
#812 = LINE('',#813,#814);
#813 = CARTESIAN_POINT('',(0.E+000,0.E+000));
#814 = VECTOR('',#815,1.);
#815 = DIRECTION('',(0.E+000,1.));
#816 = ( GEOMETRIC_REPRESENTATION_CONTEXT(2) 
PARAMETRIC_REPRESENTATION_CONTEXT() REPRESENTATION_CONTEXT('2D SPACE',''
  ) );
#817 = PCURVE('',#787,#818);
#818 = DEFINITIONAL_REPRESENTATION('',(#819),#823);
#819 = LINE('',#820,#821);
#820 = CARTESIAN_POINT('',(0.E+000,0.E+000));
#821 = VECTOR('',#822,1.);
#822 = DIRECTION('',(0.E+000,-1.));
#823 = ( GEOMETRIC_REPRESENTATION_CONTEXT(2) 
PARAMETRIC_REPRESENTATION_CONTEXT() REPRESENTATION_CONTEXT('2D SPACE',''
  ) );
#824 = ORIENTED_EDGE('',*,*,#825,.T.);
#825 = EDGE_CURVE('',#803,#826,#828,.T.);
#826 = VERTEX_POINT('',#827);
#827 = CARTESIAN_POINT('',(2.,-3.7,0.E+000));
#828 = SURFACE_CURVE('',#829,(#833,#840),.PCURVE_S1.);
#829 = LINE('',#830,#831);
#830 = CARTESIAN_POINT('',(-2.,-3.7,0.E+000));
#831 = VECTOR('',#832,1.);
#832 = DIRECTION('',(1.,0.E+000,0.E+000));
#833 = PCURVE('',#432,#834);
#834 = DEFINITIONAL_REPRESENTATION('',(#835),#839);
#835 = LINE('',#836,#837);
#836 = CARTESIAN_POINT('',(0.E+000,0.E+000));
#837 = VECTOR('',#838,1.);
#838 = DIRECTION('',(1.,0.E+000));
#839 = ( GEOMETRIC_REPRESENTATION_CONTEXT(2) 
PARAMETRIC_REPRESENTATION_CONTEXT() REPRESENTATION_CONTEXT('2D SPACE',''
  ) );
#840 = PCURVE('',#841,#846);
#841 = PLANE('',#842);
#842 = AXIS2_PLACEMENT_3D('',#843,#844,#845);
#843 = CARTESIAN_POINT('',(-2.,-3.7,0.E+000));
#844 = DIRECTION('',(0.E+000,1.,0.E+000));
#845 = DIRECTION('',(0.E+000,0.E+000,1.));
#846 = DEFINITIONAL_REPRESENTATION('',(#847),#851);
#847 = LINE('',#848,#849);
#848 = CARTESIAN_POINT('',(0.E+000,0.E+000));
#849 = VECTOR('',#850,1.);
#850 = DIRECTION('',(0.E+000,1.));
#851 = ( GEOMETRIC_REPRESENTATION_CONTEXT(2) 
PARAMETRIC_REPRESENTATION_CONTEXT() REPRESENTATION_CONTEXT('2D SPACE',''
  ) );
#852 = ORIENTED_EDGE('',*,*,#853,.T.);
#853 = EDGE_CURVE('',#826,#417,#854,.T.);
#854 = SURFACE_CURVE('',#855,(#859,#866),.PCURVE_S1.);
#855 = LINE('',#856,#857);
#856 = CARTESIAN_POINT('',(2.,-3.7,0.E+000));
#857 = VECTOR('',#858,1.);
#858 = DIRECTION('',(0.E+000,1.,0.E+000));
#859 = PCURVE('',#432,#860);
#860 = DEFINITIONAL_REPRESENTATION('',(#861),#865);
#861 = LINE('',#862,#863);
#862 = CARTESIAN_POINT('',(4.,0.E+000));
#863 = VECTOR('',#864,1.);
#864 = DIRECTION('',(0.E+000,1.));
#865 = ( GEOMETRIC_REPRESENTATION_CONTEXT(2) 
PARAMETRIC_REPRESENTATION_CONTEXT() REPRESENTATION_CONTEXT('2D SPACE',''
  ) );
#866 = PCURVE('',#733,#867);
#867 = DEFINITIONAL_REPRESENTATION('',(#868),#872);
#868 = LINE('',#869,#870);
#869 = CARTESIAN_POINT('',(0.E+000,0.E+000));
#870 = VECTOR('',#871,1.);
#871 = DIRECTION('',(0.E+000,-1.));
#872 = ( GEOMETRIC_REPRESENTATION_CONTEXT(2) 
PARAMETRIC_REPRESENTATION_CONTEXT() REPRESENTATION_CONTEXT('2D SPACE',''
  ) );
#873 = ORIENTED_EDGE('',*,*,#416,.F.);
#874 = ADVANCED_FACE('',(#875),#483,.T.);
#875 = FACE_BOUND('',#876,.T.);
#876 = EDGE_LOOP('',(#877,#878,#879,#880));
#877 = ORIENTED_EDGE('',*,*,#695,.F.);
#878 = ORIENTED_EDGE('',*,*,#467,.T.);
#879 = ORIENTED_EDGE('',*,*,#593,.T.);
#880 = ORIENTED_EDGE('',*,*,#881,.F.);
#881 = EDGE_CURVE('',#673,#566,#882,.T.);
#882 = SURFACE_CURVE('',#883,(#887,#894),.PCURVE_S1.);
#883 = LINE('',#884,#885);
#884 = CARTESIAN_POINT('',(3.6,-3.6,3.));
#885 = VECTOR('',#886,1.);
#886 = DIRECTION('',(0.E+000,1.,0.E+000));
#887 = PCURVE('',#483,#888);
#888 = DEFINITIONAL_REPRESENTATION('',(#889),#893);
#889 = LINE('',#890,#891);
#890 = CARTESIAN_POINT('',(3.,0.E+000));
#891 = VECTOR('',#892,1.);
#892 = DIRECTION('',(0.E+000,-1.));
#893 = ( GEOMETRIC_REPRESENTATION_CONTEXT(2) 
PARAMETRIC_REPRESENTATION_CONTEXT() REPRESENTATION_CONTEXT('2D SPACE',''
  ) );
#894 = PCURVE('',#581,#895);
#895 = DEFINITIONAL_REPRESENTATION('',(#896),#900);
#896 = LINE('',#897,#898);
#897 = CARTESIAN_POINT('',(7.2,0.E+000));
#898 = VECTOR('',#899,1.);
#899 = DIRECTION('',(0.E+000,1.));
#900 = ( GEOMETRIC_REPRESENTATION_CONTEXT(2) 
PARAMETRIC_REPRESENTATION_CONTEXT() REPRESENTATION_CONTEXT('2D SPACE',''
  ) );
#901 = ADVANCED_FACE('',(#902),#581,.T.);
#902 = FACE_BOUND('',#903,.T.);
#903 = EDGE_LOOP('',(#904,#905,#906,#907));
#904 = ORIENTED_EDGE('',*,*,#646,.F.);
#905 = ORIENTED_EDGE('',*,*,#672,.T.);
#906 = ORIENTED_EDGE('',*,*,#881,.T.);
#907 = ORIENTED_EDGE('',*,*,#565,.F.);
#908 = ADVANCED_FACE('',(#909),#787,.F.);
#909 = FACE_BOUND('',#910,.F.);
#910 = EDGE_LOOP('',(#911,#934,#935,#936));
#911 = ORIENTED_EDGE('',*,*,#912,.F.);
#912 = EDGE_CURVE('',#803,#913,#915,.T.);
#913 = VERTEX_POINT('',#914);
#914 = CARTESIAN_POINT('',(-2.,-3.7,2.));
#915 = SURFACE_CURVE('',#916,(#920,#927),.PCURVE_S1.);
#916 = LINE('',#917,#918);
#917 = CARTESIAN_POINT('',(-2.,-3.7,0.E+000));
#918 = VECTOR('',#919,1.);
#919 = DIRECTION('',(0.E+000,0.E+000,1.));
#920 = PCURVE('',#787,#921);
#921 = DEFINITIONAL_REPRESENTATION('',(#922),#926);
#922 = LINE('',#923,#924);
#923 = CARTESIAN_POINT('',(0.E+000,0.E+000));
#924 = VECTOR('',#925,1.);
#925 = DIRECTION('',(1.,0.E+000));
#926 = ( GEOMETRIC_REPRESENTATION_CONTEXT(2) 
PARAMETRIC_REPRESENTATION_CONTEXT() REPRESENTATION_CONTEXT('2D SPACE',''
  ) );
#927 = PCURVE('',#841,#928);
#928 = DEFINITIONAL_REPRESENTATION('',(#929),#933);
#929 = LINE('',#930,#931);
#930 = CARTESIAN_POINT('',(0.E+000,0.E+000));
#931 = VECTOR('',#932,1.);
#932 = DIRECTION('',(1.,0.E+000));
#933 = ( GEOMETRIC_REPRESENTATION_CONTEXT(2) 
PARAMETRIC_REPRESENTATION_CONTEXT() REPRESENTATION_CONTEXT('2D SPACE',''
  ) );
#934 = ORIENTED_EDGE('',*,*,#802,.T.);
#935 = ORIENTED_EDGE('',*,*,#773,.T.);
#936 = ORIENTED_EDGE('',*,*,#937,.F.);
#937 = EDGE_CURVE('',#913,#746,#938,.T.);
#938 = SURFACE_CURVE('',#939,(#943,#950),.PCURVE_S1.);
#939 = LINE('',#940,#941);
#940 = CARTESIAN_POINT('',(-2.,-3.7,2.));
#941 = VECTOR('',#942,1.);
#942 = DIRECTION('',(0.E+000,1.,0.E+000));
#943 = PCURVE('',#787,#944);
#944 = DEFINITIONAL_REPRESENTATION('',(#945),#949);
#945 = LINE('',#946,#947);
#946 = CARTESIAN_POINT('',(2.,0.E+000));
#947 = VECTOR('',#948,1.);
#948 = DIRECTION('',(0.E+000,-1.));
#949 = ( GEOMETRIC_REPRESENTATION_CONTEXT(2) 
PARAMETRIC_REPRESENTATION_CONTEXT() REPRESENTATION_CONTEXT('2D SPACE',''
  ) );
#950 = PCURVE('',#761,#951);
#951 = DEFINITIONAL_REPRESENTATION('',(#952),#956);
#952 = LINE('',#953,#954);
#953 = CARTESIAN_POINT('',(0.E+000,0.E+000));
#954 = VECTOR('',#955,1.);
#955 = DIRECTION('',(0.E+000,1.));
#956 = ( GEOMETRIC_REPRESENTATION_CONTEXT(2) 
PARAMETRIC_REPRESENTATION_CONTEXT() REPRESENTATION_CONTEXT('2D SPACE',''
  ) );
#957 = ADVANCED_FACE('',(#958),#761,.T.);
#958 = FACE_BOUND('',#959,.T.);
#959 = EDGE_LOOP('',(#960,#961,#984,#1005));
#960 = ORIENTED_EDGE('',*,*,#937,.F.);
#961 = ORIENTED_EDGE('',*,*,#962,.T.);
#962 = EDGE_CURVE('',#913,#963,#965,.T.);
#963 = VERTEX_POINT('',#964);
#964 = CARTESIAN_POINT('',(2.,-3.7,2.));
#965 = SURFACE_CURVE('',#966,(#970,#977),.PCURVE_S1.);
#966 = LINE('',#967,#968);
#967 = CARTESIAN_POINT('',(-2.,-3.7,2.));
#968 = VECTOR('',#969,1.);
#969 = DIRECTION('',(1.,0.E+000,0.E+000));
#970 = PCURVE('',#761,#971);
#971 = DEFINITIONAL_REPRESENTATION('',(#972),#976);
#972 = LINE('',#973,#974);
#973 = CARTESIAN_POINT('',(0.E+000,0.E+000));
#974 = VECTOR('',#975,1.);
#975 = DIRECTION('',(1.,0.E+000));
#976 = ( GEOMETRIC_REPRESENTATION_CONTEXT(2) 
PARAMETRIC_REPRESENTATION_CONTEXT() REPRESENTATION_CONTEXT('2D SPACE',''
  ) );
#977 = PCURVE('',#841,#978);
#978 = DEFINITIONAL_REPRESENTATION('',(#979),#983);
#979 = LINE('',#980,#981);
#980 = CARTESIAN_POINT('',(2.,0.E+000));
#981 = VECTOR('',#982,1.);
#982 = DIRECTION('',(0.E+000,1.));
#983 = ( GEOMETRIC_REPRESENTATION_CONTEXT(2) 
PARAMETRIC_REPRESENTATION_CONTEXT() REPRESENTATION_CONTEXT('2D SPACE',''
  ) );
#984 = ORIENTED_EDGE('',*,*,#985,.T.);
#985 = EDGE_CURVE('',#963,#718,#986,.T.);
#986 = SURFACE_CURVE('',#987,(#991,#998),.PCURVE_S1.);
#987 = LINE('',#988,#989);
#988 = CARTESIAN_POINT('',(2.,-3.7,2.));
#989 = VECTOR('',#990,1.);
#990 = DIRECTION('',(0.E+000,1.,0.E+000));
#991 = PCURVE('',#761,#992);
#992 = DEFINITIONAL_REPRESENTATION('',(#993),#997);
#993 = LINE('',#994,#995);
#994 = CARTESIAN_POINT('',(4.,0.E+000));
#995 = VECTOR('',#996,1.);
#996 = DIRECTION('',(0.E+000,1.));
#997 = ( GEOMETRIC_REPRESENTATION_CONTEXT(2) 
PARAMETRIC_REPRESENTATION_CONTEXT() REPRESENTATION_CONTEXT('2D SPACE',''
  ) );
#998 = PCURVE('',#733,#999);
#999 = DEFINITIONAL_REPRESENTATION('',(#1000),#1004);
#1000 = LINE('',#1001,#1002);
#1001 = CARTESIAN_POINT('',(2.,0.E+000));
#1002 = VECTOR('',#1003,1.);
#1003 = DIRECTION('',(0.E+000,-1.));
#1004 = ( GEOMETRIC_REPRESENTATION_CONTEXT(2) 
PARAMETRIC_REPRESENTATION_CONTEXT() REPRESENTATION_CONTEXT('2D SPACE',''
  ) );
#1005 = ORIENTED_EDGE('',*,*,#745,.F.);
#1006 = ADVANCED_FACE('',(#1007),#733,.T.);
#1007 = FACE_BOUND('',#1008,.T.);
#1008 = EDGE_LOOP('',(#1009,#1030,#1031,#1032));
#1009 = ORIENTED_EDGE('',*,*,#1010,.F.);
#1010 = EDGE_CURVE('',#826,#963,#1011,.T.);
#1011 = SURFACE_CURVE('',#1012,(#1016,#1023),.PCURVE_S1.);
#1012 = LINE('',#1013,#1014);
#1013 = CARTESIAN_POINT('',(2.,-3.7,0.E+000));
#1014 = VECTOR('',#1015,1.);
#1015 = DIRECTION('',(0.E+000,0.E+000,1.));
#1016 = PCURVE('',#733,#1017);
#1017 = DEFINITIONAL_REPRESENTATION('',(#1018),#1022);
#1018 = LINE('',#1019,#1020);
#1019 = CARTESIAN_POINT('',(0.E+000,0.E+000));
#1020 = VECTOR('',#1021,1.);
#1021 = DIRECTION('',(1.,0.E+000));
#1022 = ( GEOMETRIC_REPRESENTATION_CONTEXT(2) 
PARAMETRIC_REPRESENTATION_CONTEXT() REPRESENTATION_CONTEXT('2D SPACE',''
  ) );
#1023 = PCURVE('',#841,#1024);
#1024 = DEFINITIONAL_REPRESENTATION('',(#1025),#1029);
#1025 = LINE('',#1026,#1027);
#1026 = CARTESIAN_POINT('',(0.E+000,4.));
#1027 = VECTOR('',#1028,1.);
#1028 = DIRECTION('',(1.,0.E+000));
#1029 = ( GEOMETRIC_REPRESENTATION_CONTEXT(2) 
PARAMETRIC_REPRESENTATION_CONTEXT() REPRESENTATION_CONTEXT('2D SPACE',''
  ) );
#1030 = ORIENTED_EDGE('',*,*,#853,.T.);
#1031 = ORIENTED_EDGE('',*,*,#717,.T.);
#1032 = ORIENTED_EDGE('',*,*,#985,.F.);
#1033 = ADVANCED_FACE('',(#1034),#841,.F.);
#1034 = FACE_BOUND('',#1035,.F.);
#1035 = EDGE_LOOP('',(#1036,#1037,#1038,#1039));
#1036 = ORIENTED_EDGE('',*,*,#825,.F.);
#1037 = ORIENTED_EDGE('',*,*,#912,.T.);
#1038 = ORIENTED_EDGE('',*,*,#962,.T.);
#1039 = ORIENTED_EDGE('',*,*,#1010,.F.);
#1040 = ( GEOMETRIC_REPRESENTATION_CONTEXT(3) 
GLOBAL_UNCERTAINTY_ASSIGNED_CONTEXT((#1044)) 
GLOBAL_UNIT_ASSIGNED_CONTEXT((#1041,#1042,#1043)) REPRESENTATION_CONTEXT
('Context #1','3D Context with UNIT and UNCERTAINTY') );
#1041 = ( LENGTH_UNIT() NAMED_UNIT(*) SI_UNIT(.MILLI.,.METRE.) );
#1042 = ( NAMED_UNIT(*) PLANE_ANGLE_UNIT() SI_UNIT($,.RADIAN.) );
#1043 = ( NAMED_UNIT(*) SI_UNIT($,.STERADIAN.) SOLID_ANGLE_UNIT() );
#1044 = UNCERTAINTY_MEASURE_WITH_UNIT(LENGTH_MEASURE(1.E-007),#1041,
  'distance_accuracy_value','confusion accuracy');
#1045 = SHAPE_DEFINITION_REPRESENTATION(#1046,#25);
#1046 = PRODUCT_DEFINITION_SHAPE('','',#1047);
#1047 = PRODUCT_DEFINITION('design','',#1048,#1051);
#1048 = PRODUCT_DEFINITION_FORMATION('','',#1049);
#1049 = PRODUCT('Induct_7.2x7.2x3.0mm','Induct_7.2x7.2x3.0mm','',(#1050)
  );
#1050 = MECHANICAL_CONTEXT('',#2,'mechanical');
#1051 = PRODUCT_DEFINITION_CONTEXT('part definition',#2,'design');
#1052 = CONTEXT_DEPENDENT_SHAPE_REPRESENTATION(#1053,#1055);
#1053 = ( REPRESENTATION_RELATIONSHIP('','',#25,#10) 
REPRESENTATION_RELATIONSHIP_WITH_TRANSFORMATION(#1054) 
SHAPE_REPRESENTATION_RELATIONSHIP() );
#1054 = ITEM_DEFINED_TRANSFORMATION('','',#11,#15);
#1055 = PRODUCT_DEFINITION_SHAPE('Placement','Placement of an item',
  #1056);
#1056 = NEXT_ASSEMBLY_USAGE_OCCURRENCE('9','=>[0:1:1:2]','',#5,#1047,$);
#1057 = PRODUCT_TYPE('part',$,(#1049));
#1058 = MECHANICAL_DESIGN_GEOMETRIC_PRESENTATION_REPRESENTATION('',(
    #1059,#1067,#1074,#1081,#1088,#1095,#1103,#1110,#1117,#1124,#1131,
    #1138,#1145,#1152,#1159,#1166),#1040);
#1059 = STYLED_ITEM('color',(#1060),#28);
#1060 = PRESENTATION_STYLE_ASSIGNMENT((#1061));
#1061 = SURFACE_STYLE_USAGE(.BOTH.,#1062);
#1062 = SURFACE_SIDE_STYLE('',(#1063));
#1063 = SURFACE_STYLE_FILL_AREA(#1064);
#1064 = FILL_AREA_STYLE('',(#1065));
#1065 = FILL_AREA_STYLE_COLOUR('',#1066);
#1066 = COLOUR_RGB('',0.800000011921,0.800000011921,0.800000011921);
#1067 = STYLED_ITEM('color',(#1068),#148);
#1068 = PRESENTATION_STYLE_ASSIGNMENT((#1069));
#1069 = SURFACE_STYLE_USAGE(.BOTH.,#1070);
#1070 = SURFACE_SIDE_STYLE('',(#1071));
#1071 = SURFACE_STYLE_FILL_AREA(#1072);
#1072 = FILL_AREA_STYLE('',(#1073));
#1073 = FILL_AREA_STYLE_COLOUR('',#1066);
#1074 = STYLED_ITEM('color',(#1075),#224);
#1075 = PRESENTATION_STYLE_ASSIGNMENT((#1076));
#1076 = SURFACE_STYLE_USAGE(.BOTH.,#1077);
#1077 = SURFACE_SIDE_STYLE('',(#1078));
#1078 = SURFACE_STYLE_FILL_AREA(#1079);
#1079 = FILL_AREA_STYLE('',(#1080));
#1080 = FILL_AREA_STYLE_COLOUR('',#1066);
#1081 = STYLED_ITEM('color',(#1082),#278);
#1082 = PRESENTATION_STYLE_ASSIGNMENT((#1083));
#1083 = SURFACE_STYLE_USAGE(.BOTH.,#1084);
#1084 = SURFACE_SIDE_STYLE('',(#1085));
#1085 = SURFACE_STYLE_FILL_AREA(#1086);
#1086 = FILL_AREA_STYLE('',(#1087));
#1087 = FILL_AREA_STYLE_COLOUR('',#1066);
#1088 = STYLED_ITEM('color',(#1089),#327);
#1089 = PRESENTATION_STYLE_ASSIGNMENT((#1090));
#1090 = SURFACE_STYLE_USAGE(.BOTH.,#1091);
#1091 = SURFACE_SIDE_STYLE('',(#1092));
#1092 = SURFACE_STYLE_FILL_AREA(#1093);
#1093 = FILL_AREA_STYLE('',(#1094));
#1094 = FILL_AREA_STYLE_COLOUR('',#1066);
#1095 = STYLED_ITEM('color',(#1096),#354);
#1096 = PRESENTATION_STYLE_ASSIGNMENT((#1097));
#1097 = SURFACE_STYLE_USAGE(.BOTH.,#1098);
#1098 = SURFACE_SIDE_STYLE('',(#1099));
#1099 = SURFACE_STYLE_FILL_AREA(#1100);
#1100 = FILL_AREA_STYLE('',(#1101));
#1101 = FILL_AREA_STYLE_COLOUR('',#1102);
#1102 = COLOUR_RGB('',0.156862750649,0.156862750649,0.156862750649);
#1103 = STYLED_ITEM('color',(#1104),#537);
#1104 = PRESENTATION_STYLE_ASSIGNMENT((#1105));
#1105 = SURFACE_STYLE_USAGE(.BOTH.,#1106);
#1106 = SURFACE_SIDE_STYLE('',(#1107));
#1107 = SURFACE_STYLE_FILL_AREA(#1108);
#1108 = FILL_AREA_STYLE('',(#1109));
#1109 = FILL_AREA_STYLE_COLOUR('',#1102);
#1110 = STYLED_ITEM('color',(#1111),#617);
#1111 = PRESENTATION_STYLE_ASSIGNMENT((#1112));
#1112 = SURFACE_STYLE_USAGE(.BOTH.,#1113);
#1113 = SURFACE_SIDE_STYLE('',(#1114));
#1114 = SURFACE_STYLE_FILL_AREA(#1115);
#1115 = FILL_AREA_STYLE('',(#1116));
#1116 = FILL_AREA_STYLE_COLOUR('',#1102);
#1117 = STYLED_ITEM('color',(#1118),#666);
#1118 = PRESENTATION_STYLE_ASSIGNMENT((#1119));
#1119 = SURFACE_STYLE_USAGE(.BOTH.,#1120);
#1120 = SURFACE_SIDE_STYLE('',(#1121));
#1121 = SURFACE_STYLE_FILL_AREA(#1122);
#1122 = FILL_AREA_STYLE('',(#1123));
#1123 = FILL_AREA_STYLE_COLOUR('',#1102);
#1124 = STYLED_ITEM('color',(#1125),#798);
#1125 = PRESENTATION_STYLE_ASSIGNMENT((#1126));
#1126 = SURFACE_STYLE_USAGE(.BOTH.,#1127);
#1127 = SURFACE_SIDE_STYLE('',(#1128));
#1128 = SURFACE_STYLE_FILL_AREA(#1129);
#1129 = FILL_AREA_STYLE('',(#1130));
#1130 = FILL_AREA_STYLE_COLOUR('',#1066);
#1131 = STYLED_ITEM('color',(#1132),#874);
#1132 = PRESENTATION_STYLE_ASSIGNMENT((#1133));
#1133 = SURFACE_STYLE_USAGE(.BOTH.,#1134);
#1134 = SURFACE_SIDE_STYLE('',(#1135));
#1135 = SURFACE_STYLE_FILL_AREA(#1136);
#1136 = FILL_AREA_STYLE('',(#1137));
#1137 = FILL_AREA_STYLE_COLOUR('',#1102);
#1138 = STYLED_ITEM('color',(#1139),#901);
#1139 = PRESENTATION_STYLE_ASSIGNMENT((#1140));
#1140 = SURFACE_STYLE_USAGE(.BOTH.,#1141);
#1141 = SURFACE_SIDE_STYLE('',(#1142));
#1142 = SURFACE_STYLE_FILL_AREA(#1143);
#1143 = FILL_AREA_STYLE('',(#1144));
#1144 = FILL_AREA_STYLE_COLOUR('',#1102);
#1145 = STYLED_ITEM('color',(#1146),#908);
#1146 = PRESENTATION_STYLE_ASSIGNMENT((#1147));
#1147 = SURFACE_STYLE_USAGE(.BOTH.,#1148);
#1148 = SURFACE_SIDE_STYLE('',(#1149));
#1149 = SURFACE_STYLE_FILL_AREA(#1150);
#1150 = FILL_AREA_STYLE('',(#1151));
#1151 = FILL_AREA_STYLE_COLOUR('',#1066);
#1152 = STYLED_ITEM('color',(#1153),#957);
#1153 = PRESENTATION_STYLE_ASSIGNMENT((#1154));
#1154 = SURFACE_STYLE_USAGE(.BOTH.,#1155);
#1155 = SURFACE_SIDE_STYLE('',(#1156));
#1156 = SURFACE_STYLE_FILL_AREA(#1157);
#1157 = FILL_AREA_STYLE('',(#1158));
#1158 = FILL_AREA_STYLE_COLOUR('',#1066);
#1159 = STYLED_ITEM('color',(#1160),#1006);
#1160 = PRESENTATION_STYLE_ASSIGNMENT((#1161));
#1161 = SURFACE_STYLE_USAGE(.BOTH.,#1162);
#1162 = SURFACE_SIDE_STYLE('',(#1163));
#1163 = SURFACE_STYLE_FILL_AREA(#1164);
#1164 = FILL_AREA_STYLE('',(#1165));
#1165 = FILL_AREA_STYLE_COLOUR('',#1066);
#1166 = STYLED_ITEM('color',(#1167),#1033);
#1167 = PRESENTATION_STYLE_ASSIGNMENT((#1168));
#1168 = SURFACE_STYLE_USAGE(.BOTH.,#1169);
#1169 = SURFACE_SIDE_STYLE('',(#1170));
#1170 = SURFACE_STYLE_FILL_AREA(#1171);
#1171 = FILL_AREA_STYLE('',(#1172));
#1172 = FILL_AREA_STYLE_COLOUR('',#1066);
ENDSEC;
END-ISO-10303-21;
