ISO-10303-21;
HEADER;
FILE_DESCRIPTION(('FreeCAD Model'),'2;1');
FILE_NAME('D:/Vitek/Work/freecad/SMD/R0603_simple.step',
  '2017-02-10T15:43:59',('Author'),(''),
  'Open CASCADE STEP processor 6.8','FreeCAD','Unknown');
FILE_SCHEMA(('AUTOMOTIVE_DESIGN_CC2 { 1 2 10303 214 -1 1 5 4 }'));
ENDSEC;
DATA;
#1 = APPLICATION_PROTOCOL_DEFINITION('committee draft',
  'automotive_design',1997,#2);
#2 = APPLICATION_CONTEXT(
  'core data for automotive mechanical design processes');
#3 = SHAPE_DEFINITION_REPRESENTATION(#4,#10);
#4 = PRODUCT_DEFINITION_SHAPE('','',#5);
#5 = PRODUCT_DEFINITION('design','',#6,#9);
#6 = PRODUCT_DEFINITION_FORMATION('','',#7);
#7 = PRODUCT('ASSEMBLY','ASSEMBLY','',(#8));
#8 = MECHANICAL_CONTEXT('',#2,'mechanical');
#9 = PRODUCT_DEFINITION_CONTEXT('part definition',#2,'design');
#10 = SHAPE_REPRESENTATION('',(#11,#15),#19);
#11 = AXIS2_PLACEMENT_3D('',#12,#13,#14);
#12 = CARTESIAN_POINT('',(0.E+000,0.E+000,0.E+000));
#13 = DIRECTION('',(0.E+000,0.E+000,1.));
#14 = DIRECTION('',(1.,0.E+000,-0.E+000));
#15 = AXIS2_PLACEMENT_3D('',#16,#17,#18);
#16 = CARTESIAN_POINT('',(0.E+000,0.E+000,0.E+000));
#17 = DIRECTION('',(0.E+000,0.E+000,1.));
#18 = DIRECTION('',(1.,0.E+000,0.E+000));
#19 = ( GEOMETRIC_REPRESENTATION_CONTEXT(3) 
GLOBAL_UNCERTAINTY_ASSIGNED_CONTEXT((#23)) GLOBAL_UNIT_ASSIGNED_CONTEXT(
(#20,#21,#22)) REPRESENTATION_CONTEXT('Context #1',
  '3D Context with UNIT and UNCERTAINTY') );
#20 = ( LENGTH_UNIT() NAMED_UNIT(*) SI_UNIT(.MILLI.,.METRE.) );
#21 = ( NAMED_UNIT(*) PLANE_ANGLE_UNIT() SI_UNIT($,.RADIAN.) );
#22 = ( NAMED_UNIT(*) SI_UNIT($,.STERADIAN.) SOLID_ANGLE_UNIT() );
#23 = UNCERTAINTY_MEASURE_WITH_UNIT(LENGTH_MEASURE(1.E-007),#20,
  'distance_accuracy_value','confusion accuracy');
#24 = PRODUCT_TYPE('part',$,(#7));
#25 = ADVANCED_BREP_SHAPE_REPRESENTATION('',(#11,#26),#728);
#26 = MANIFOLD_SOLID_BREP('',#27);
#27 = CLOSED_SHELL('',(#28,#148,#280,#334,#434,#461,#488,#520,#596,#645,
    #694,#721));
#28 = ADVANCED_FACE('',(#29),#43,.F.);
#29 = FACE_BOUND('',#30,.F.);
#30 = EDGE_LOOP('',(#31,#66,#94,#122));
#31 = ORIENTED_EDGE('',*,*,#32,.F.);
#32 = EDGE_CURVE('',#33,#35,#37,.T.);
#33 = VERTEX_POINT('',#34);
#34 = CARTESIAN_POINT('',(-0.74,-0.4,0.E+000));
#35 = VERTEX_POINT('',#36);
#36 = CARTESIAN_POINT('',(-0.74,-0.4,0.4));
#37 = SURFACE_CURVE('',#38,(#42,#54),.PCURVE_S1.);
#38 = LINE('',#39,#40);
#39 = CARTESIAN_POINT('',(-0.74,-0.4,0.E+000));
#40 = VECTOR('',#41,1.);
#41 = DIRECTION('',(0.E+000,0.E+000,1.));
#42 = PCURVE('',#43,#48);
#43 = PLANE('',#44);
#44 = AXIS2_PLACEMENT_3D('',#45,#46,#47);
#45 = CARTESIAN_POINT('',(-0.74,-0.4,0.E+000));
#46 = DIRECTION('',(1.,0.E+000,0.E+000));
#47 = DIRECTION('',(0.E+000,0.E+000,1.));
#48 = DEFINITIONAL_REPRESENTATION('',(#49),#53);
#49 = LINE('',#50,#51);
#50 = CARTESIAN_POINT('',(0.E+000,0.E+000));
#51 = VECTOR('',#52,1.);
#52 = DIRECTION('',(1.,0.E+000));
#53 = ( GEOMETRIC_REPRESENTATION_CONTEXT(2) 
PARAMETRIC_REPRESENTATION_CONTEXT() REPRESENTATION_CONTEXT('2D SPACE',''
  ) );
#54 = PCURVE('',#55,#60);
#55 = PLANE('',#56);
#56 = AXIS2_PLACEMENT_3D('',#57,#58,#59);
#57 = CARTESIAN_POINT('',(-0.74,-0.4,0.E+000));
#58 = DIRECTION('',(0.E+000,1.,0.E+000));
#59 = DIRECTION('',(0.E+000,0.E+000,1.));
#60 = DEFINITIONAL_REPRESENTATION('',(#61),#65);
#61 = LINE('',#62,#63);
#62 = CARTESIAN_POINT('',(0.E+000,0.E+000));
#63 = VECTOR('',#64,1.);
#64 = DIRECTION('',(1.,0.E+000));
#65 = ( GEOMETRIC_REPRESENTATION_CONTEXT(2) 
PARAMETRIC_REPRESENTATION_CONTEXT() REPRESENTATION_CONTEXT('2D SPACE',''
  ) );
#66 = ORIENTED_EDGE('',*,*,#67,.T.);
#67 = EDGE_CURVE('',#33,#68,#70,.T.);
#68 = VERTEX_POINT('',#69);
#69 = CARTESIAN_POINT('',(-0.74,0.4,0.E+000));
#70 = SURFACE_CURVE('',#71,(#75,#82),.PCURVE_S1.);
#71 = LINE('',#72,#73);
#72 = CARTESIAN_POINT('',(-0.74,-0.4,0.E+000));
#73 = VECTOR('',#74,1.);
#74 = DIRECTION('',(0.E+000,1.,0.E+000));
#75 = PCURVE('',#43,#76);
#76 = DEFINITIONAL_REPRESENTATION('',(#77),#81);
#77 = LINE('',#78,#79);
#78 = CARTESIAN_POINT('',(0.E+000,0.E+000));
#79 = VECTOR('',#80,1.);
#80 = DIRECTION('',(0.E+000,-1.));
#81 = ( GEOMETRIC_REPRESENTATION_CONTEXT(2) 
PARAMETRIC_REPRESENTATION_CONTEXT() REPRESENTATION_CONTEXT('2D SPACE',''
  ) );
#82 = PCURVE('',#83,#88);
#83 = PLANE('',#84);
#84 = AXIS2_PLACEMENT_3D('',#85,#86,#87);
#85 = CARTESIAN_POINT('',(-0.74,-0.4,0.E+000));
#86 = DIRECTION('',(0.E+000,0.E+000,1.));
#87 = DIRECTION('',(1.,0.E+000,0.E+000));
#88 = DEFINITIONAL_REPRESENTATION('',(#89),#93);
#89 = LINE('',#90,#91);
#90 = CARTESIAN_POINT('',(0.E+000,0.E+000));
#91 = VECTOR('',#92,1.);
#92 = DIRECTION('',(0.E+000,1.));
#93 = ( GEOMETRIC_REPRESENTATION_CONTEXT(2) 
PARAMETRIC_REPRESENTATION_CONTEXT() REPRESENTATION_CONTEXT('2D SPACE',''
  ) );
#94 = ORIENTED_EDGE('',*,*,#95,.T.);
#95 = EDGE_CURVE('',#68,#96,#98,.T.);
#96 = VERTEX_POINT('',#97);
#97 = CARTESIAN_POINT('',(-0.74,0.4,0.4));
#98 = SURFACE_CURVE('',#99,(#103,#110),.PCURVE_S1.);
#99 = LINE('',#100,#101);
#100 = CARTESIAN_POINT('',(-0.74,0.4,0.E+000));
#101 = VECTOR('',#102,1.);
#102 = DIRECTION('',(0.E+000,0.E+000,1.));
#103 = PCURVE('',#43,#104);
#104 = DEFINITIONAL_REPRESENTATION('',(#105),#109);
#105 = LINE('',#106,#107);
#106 = CARTESIAN_POINT('',(0.E+000,-0.8));
#107 = VECTOR('',#108,1.);
#108 = DIRECTION('',(1.,0.E+000));
#109 = ( GEOMETRIC_REPRESENTATION_CONTEXT(2) 
PARAMETRIC_REPRESENTATION_CONTEXT() REPRESENTATION_CONTEXT('2D SPACE',''
  ) );
#110 = PCURVE('',#111,#116);
#111 = PLANE('',#112);
#112 = AXIS2_PLACEMENT_3D('',#113,#114,#115);
#113 = CARTESIAN_POINT('',(-0.74,0.4,0.E+000));
#114 = DIRECTION('',(0.E+000,1.,0.E+000));
#115 = DIRECTION('',(0.E+000,0.E+000,1.));
#116 = DEFINITIONAL_REPRESENTATION('',(#117),#121);
#117 = LINE('',#118,#119);
#118 = CARTESIAN_POINT('',(0.E+000,0.E+000));
#119 = VECTOR('',#120,1.);
#120 = DIRECTION('',(1.,0.E+000));
#121 = ( GEOMETRIC_REPRESENTATION_CONTEXT(2) 
PARAMETRIC_REPRESENTATION_CONTEXT() REPRESENTATION_CONTEXT('2D SPACE',''
  ) );
#122 = ORIENTED_EDGE('',*,*,#123,.F.);
#123 = EDGE_CURVE('',#35,#96,#124,.T.);
#124 = SURFACE_CURVE('',#125,(#129,#136),.PCURVE_S1.);
#125 = LINE('',#126,#127);
#126 = CARTESIAN_POINT('',(-0.74,-0.4,0.4));
#127 = VECTOR('',#128,1.);
#128 = DIRECTION('',(0.E+000,1.,0.E+000));
#129 = PCURVE('',#43,#130);
#130 = DEFINITIONAL_REPRESENTATION('',(#131),#135);
#131 = LINE('',#132,#133);
#132 = CARTESIAN_POINT('',(0.4,0.E+000));
#133 = VECTOR('',#134,1.);
#134 = DIRECTION('',(0.E+000,-1.));
#135 = ( GEOMETRIC_REPRESENTATION_CONTEXT(2) 
PARAMETRIC_REPRESENTATION_CONTEXT() REPRESENTATION_CONTEXT('2D SPACE',''
  ) );
#136 = PCURVE('',#137,#142);
#137 = PLANE('',#138);
#138 = AXIS2_PLACEMENT_3D('',#139,#140,#141);
#139 = CARTESIAN_POINT('',(-0.74,-0.4,0.4));
#140 = DIRECTION('',(0.E+000,0.E+000,1.));
#141 = DIRECTION('',(1.,0.E+000,0.E+000));
#142 = DEFINITIONAL_REPRESENTATION('',(#143),#147);
#143 = LINE('',#144,#145);
#144 = CARTESIAN_POINT('',(0.E+000,0.E+000));
#145 = VECTOR('',#146,1.);
#146 = DIRECTION('',(0.E+000,1.));
#147 = ( GEOMETRIC_REPRESENTATION_CONTEXT(2) 
PARAMETRIC_REPRESENTATION_CONTEXT() REPRESENTATION_CONTEXT('2D SPACE',''
  ) );
#148 = ADVANCED_FACE('',(#149),#55,.F.);
#149 = FACE_BOUND('',#150,.F.);
#150 = EDGE_LOOP('',(#151,#174,#175,#198,#226,#254));
#151 = ORIENTED_EDGE('',*,*,#152,.F.);
#152 = EDGE_CURVE('',#33,#153,#155,.T.);
#153 = VERTEX_POINT('',#154);
#154 = CARTESIAN_POINT('',(0.74,-0.4,0.E+000));
#155 = SURFACE_CURVE('',#156,(#160,#167),.PCURVE_S1.);
#156 = LINE('',#157,#158);
#157 = CARTESIAN_POINT('',(-0.74,-0.4,0.E+000));
#158 = VECTOR('',#159,1.);
#159 = DIRECTION('',(1.,0.E+000,0.E+000));
#160 = PCURVE('',#55,#161);
#161 = DEFINITIONAL_REPRESENTATION('',(#162),#166);
#162 = LINE('',#163,#164);
#163 = CARTESIAN_POINT('',(0.E+000,0.E+000));
#164 = VECTOR('',#165,1.);
#165 = DIRECTION('',(0.E+000,1.));
#166 = ( GEOMETRIC_REPRESENTATION_CONTEXT(2) 
PARAMETRIC_REPRESENTATION_CONTEXT() REPRESENTATION_CONTEXT('2D SPACE',''
  ) );
#167 = PCURVE('',#83,#168);
#168 = DEFINITIONAL_REPRESENTATION('',(#169),#173);
#169 = LINE('',#170,#171);
#170 = CARTESIAN_POINT('',(0.E+000,0.E+000));
#171 = VECTOR('',#172,1.);
#172 = DIRECTION('',(1.,0.E+000));
#173 = ( GEOMETRIC_REPRESENTATION_CONTEXT(2) 
PARAMETRIC_REPRESENTATION_CONTEXT() REPRESENTATION_CONTEXT('2D SPACE',''
  ) );
#174 = ORIENTED_EDGE('',*,*,#32,.T.);
#175 = ORIENTED_EDGE('',*,*,#176,.T.);
#176 = EDGE_CURVE('',#35,#177,#179,.T.);
#177 = VERTEX_POINT('',#178);
#178 = CARTESIAN_POINT('',(-0.5,-0.4,0.4));
#179 = SURFACE_CURVE('',#180,(#184,#191),.PCURVE_S1.);
#180 = LINE('',#181,#182);
#181 = CARTESIAN_POINT('',(-0.74,-0.4,0.4));
#182 = VECTOR('',#183,1.);
#183 = DIRECTION('',(1.,0.E+000,0.E+000));
#184 = PCURVE('',#55,#185);
#185 = DEFINITIONAL_REPRESENTATION('',(#186),#190);
#186 = LINE('',#187,#188);
#187 = CARTESIAN_POINT('',(0.4,0.E+000));
#188 = VECTOR('',#189,1.);
#189 = DIRECTION('',(0.E+000,1.));
#190 = ( GEOMETRIC_REPRESENTATION_CONTEXT(2) 
PARAMETRIC_REPRESENTATION_CONTEXT() REPRESENTATION_CONTEXT('2D SPACE',''
  ) );
#191 = PCURVE('',#137,#192);
#192 = DEFINITIONAL_REPRESENTATION('',(#193),#197);
#193 = LINE('',#194,#195);
#194 = CARTESIAN_POINT('',(0.E+000,0.E+000));
#195 = VECTOR('',#196,1.);
#196 = DIRECTION('',(1.,0.E+000));
#197 = ( GEOMETRIC_REPRESENTATION_CONTEXT(2) 
PARAMETRIC_REPRESENTATION_CONTEXT() REPRESENTATION_CONTEXT('2D SPACE',''
  ) );
#198 = ORIENTED_EDGE('',*,*,#199,.T.);
#199 = EDGE_CURVE('',#177,#200,#202,.T.);
#200 = VERTEX_POINT('',#201);
#201 = CARTESIAN_POINT('',(0.5,-0.4,0.4));
#202 = SURFACE_CURVE('',#203,(#207,#214),.PCURVE_S1.);
#203 = LINE('',#204,#205);
#204 = CARTESIAN_POINT('',(-0.5,-0.4,0.4));
#205 = VECTOR('',#206,1.);
#206 = DIRECTION('',(1.,0.E+000,0.E+000));
#207 = PCURVE('',#55,#208);
#208 = DEFINITIONAL_REPRESENTATION('',(#209),#213);
#209 = LINE('',#210,#211);
#210 = CARTESIAN_POINT('',(0.4,0.24));
#211 = VECTOR('',#212,1.);
#212 = DIRECTION('',(0.E+000,1.));
#213 = ( GEOMETRIC_REPRESENTATION_CONTEXT(2) 
PARAMETRIC_REPRESENTATION_CONTEXT() REPRESENTATION_CONTEXT('2D SPACE',''
  ) );
#214 = PCURVE('',#215,#220);
#215 = PLANE('',#216);
#216 = AXIS2_PLACEMENT_3D('',#217,#218,#219);
#217 = CARTESIAN_POINT('',(-0.5,-0.4,0.4));
#218 = DIRECTION('',(0.E+000,1.,0.E+000));
#219 = DIRECTION('',(0.E+000,0.E+000,1.));
#220 = DEFINITIONAL_REPRESENTATION('',(#221),#225);
#221 = LINE('',#222,#223);
#222 = CARTESIAN_POINT('',(0.E+000,0.E+000));
#223 = VECTOR('',#224,1.);
#224 = DIRECTION('',(0.E+000,1.));
#225 = ( GEOMETRIC_REPRESENTATION_CONTEXT(2) 
PARAMETRIC_REPRESENTATION_CONTEXT() REPRESENTATION_CONTEXT('2D SPACE',''
  ) );
#226 = ORIENTED_EDGE('',*,*,#227,.T.);
#227 = EDGE_CURVE('',#200,#228,#230,.T.);
#228 = VERTEX_POINT('',#229);
#229 = CARTESIAN_POINT('',(0.74,-0.4,0.4));
#230 = SURFACE_CURVE('',#231,(#235,#242),.PCURVE_S1.);
#231 = LINE('',#232,#233);
#232 = CARTESIAN_POINT('',(-0.74,-0.4,0.4));
#233 = VECTOR('',#234,1.);
#234 = DIRECTION('',(1.,0.E+000,0.E+000));
#235 = PCURVE('',#55,#236);
#236 = DEFINITIONAL_REPRESENTATION('',(#237),#241);
#237 = LINE('',#238,#239);
#238 = CARTESIAN_POINT('',(0.4,0.E+000));
#239 = VECTOR('',#240,1.);
#240 = DIRECTION('',(0.E+000,1.));
#241 = ( GEOMETRIC_REPRESENTATION_CONTEXT(2) 
PARAMETRIC_REPRESENTATION_CONTEXT() REPRESENTATION_CONTEXT('2D SPACE',''
  ) );
#242 = PCURVE('',#243,#248);
#243 = PLANE('',#244);
#244 = AXIS2_PLACEMENT_3D('',#245,#246,#247);
#245 = CARTESIAN_POINT('',(-0.74,-0.4,0.4));
#246 = DIRECTION('',(0.E+000,0.E+000,1.));
#247 = DIRECTION('',(1.,0.E+000,0.E+000));
#248 = DEFINITIONAL_REPRESENTATION('',(#249),#253);
#249 = LINE('',#250,#251);
#250 = CARTESIAN_POINT('',(0.E+000,0.E+000));
#251 = VECTOR('',#252,1.);
#252 = DIRECTION('',(1.,0.E+000));
#253 = ( GEOMETRIC_REPRESENTATION_CONTEXT(2) 
PARAMETRIC_REPRESENTATION_CONTEXT() REPRESENTATION_CONTEXT('2D SPACE',''
  ) );
#254 = ORIENTED_EDGE('',*,*,#255,.F.);
#255 = EDGE_CURVE('',#153,#228,#256,.T.);
#256 = SURFACE_CURVE('',#257,(#261,#268),.PCURVE_S1.);
#257 = LINE('',#258,#259);
#258 = CARTESIAN_POINT('',(0.74,-0.4,0.E+000));
#259 = VECTOR('',#260,1.);
#260 = DIRECTION('',(0.E+000,0.E+000,1.));
#261 = PCURVE('',#55,#262);
#262 = DEFINITIONAL_REPRESENTATION('',(#263),#267);
#263 = LINE('',#264,#265);
#264 = CARTESIAN_POINT('',(0.E+000,1.48));
#265 = VECTOR('',#266,1.);
#266 = DIRECTION('',(1.,0.E+000));
#267 = ( GEOMETRIC_REPRESENTATION_CONTEXT(2) 
PARAMETRIC_REPRESENTATION_CONTEXT() REPRESENTATION_CONTEXT('2D SPACE',''
  ) );
#268 = PCURVE('',#269,#274);
#269 = PLANE('',#270);
#270 = AXIS2_PLACEMENT_3D('',#271,#272,#273);
#271 = CARTESIAN_POINT('',(0.74,-0.4,0.E+000));
#272 = DIRECTION('',(1.,0.E+000,0.E+000));
#273 = DIRECTION('',(0.E+000,0.E+000,1.));
#274 = DEFINITIONAL_REPRESENTATION('',(#275),#279);
#275 = LINE('',#276,#277);
#276 = CARTESIAN_POINT('',(0.E+000,0.E+000));
#277 = VECTOR('',#278,1.);
#278 = DIRECTION('',(1.,0.E+000));
#279 = ( GEOMETRIC_REPRESENTATION_CONTEXT(2) 
PARAMETRIC_REPRESENTATION_CONTEXT() REPRESENTATION_CONTEXT('2D SPACE',''
  ) );
#280 = ADVANCED_FACE('',(#281),#137,.T.);
#281 = FACE_BOUND('',#282,.T.);
#282 = EDGE_LOOP('',(#283,#306,#307,#308));
#283 = ORIENTED_EDGE('',*,*,#284,.F.);
#284 = EDGE_CURVE('',#96,#285,#287,.T.);
#285 = VERTEX_POINT('',#286);
#286 = CARTESIAN_POINT('',(-0.5,0.4,0.4));
#287 = SURFACE_CURVE('',#288,(#292,#299),.PCURVE_S1.);
#288 = LINE('',#289,#290);
#289 = CARTESIAN_POINT('',(-0.74,0.4,0.4));
#290 = VECTOR('',#291,1.);
#291 = DIRECTION('',(1.,0.E+000,0.E+000));
#292 = PCURVE('',#137,#293);
#293 = DEFINITIONAL_REPRESENTATION('',(#294),#298);
#294 = LINE('',#295,#296);
#295 = CARTESIAN_POINT('',(0.E+000,0.8));
#296 = VECTOR('',#297,1.);
#297 = DIRECTION('',(1.,0.E+000));
#298 = ( GEOMETRIC_REPRESENTATION_CONTEXT(2) 
PARAMETRIC_REPRESENTATION_CONTEXT() REPRESENTATION_CONTEXT('2D SPACE',''
  ) );
#299 = PCURVE('',#111,#300);
#300 = DEFINITIONAL_REPRESENTATION('',(#301),#305);
#301 = LINE('',#302,#303);
#302 = CARTESIAN_POINT('',(0.4,0.E+000));
#303 = VECTOR('',#304,1.);
#304 = DIRECTION('',(0.E+000,1.));
#305 = ( GEOMETRIC_REPRESENTATION_CONTEXT(2) 
PARAMETRIC_REPRESENTATION_CONTEXT() REPRESENTATION_CONTEXT('2D SPACE',''
  ) );
#306 = ORIENTED_EDGE('',*,*,#123,.F.);
#307 = ORIENTED_EDGE('',*,*,#176,.T.);
#308 = ORIENTED_EDGE('',*,*,#309,.T.);
#309 = EDGE_CURVE('',#177,#285,#310,.T.);
#310 = SURFACE_CURVE('',#311,(#315,#322),.PCURVE_S1.);
#311 = LINE('',#312,#313);
#312 = CARTESIAN_POINT('',(-0.5,-0.4,0.4));
#313 = VECTOR('',#314,1.);
#314 = DIRECTION('',(0.E+000,1.,0.E+000));
#315 = PCURVE('',#137,#316);
#316 = DEFINITIONAL_REPRESENTATION('',(#317),#321);
#317 = LINE('',#318,#319);
#318 = CARTESIAN_POINT('',(0.24,0.E+000));
#319 = VECTOR('',#320,1.);
#320 = DIRECTION('',(0.E+000,1.));
#321 = ( GEOMETRIC_REPRESENTATION_CONTEXT(2) 
PARAMETRIC_REPRESENTATION_CONTEXT() REPRESENTATION_CONTEXT('2D SPACE',''
  ) );
#322 = PCURVE('',#323,#328);
#323 = PLANE('',#324);
#324 = AXIS2_PLACEMENT_3D('',#325,#326,#327);
#325 = CARTESIAN_POINT('',(-0.5,-0.4,0.4));
#326 = DIRECTION('',(1.,0.E+000,0.E+000));
#327 = DIRECTION('',(0.E+000,0.E+000,1.));
#328 = DEFINITIONAL_REPRESENTATION('',(#329),#333);
#329 = LINE('',#330,#331);
#330 = CARTESIAN_POINT('',(0.E+000,0.E+000));
#331 = VECTOR('',#332,1.);
#332 = DIRECTION('',(0.E+000,-1.));
#333 = ( GEOMETRIC_REPRESENTATION_CONTEXT(2) 
PARAMETRIC_REPRESENTATION_CONTEXT() REPRESENTATION_CONTEXT('2D SPACE',''
  ) );
#334 = ADVANCED_FACE('',(#335),#111,.T.);
#335 = FACE_BOUND('',#336,.T.);
#336 = EDGE_LOOP('',(#337,#360,#361,#362,#390,#413));
#337 = ORIENTED_EDGE('',*,*,#338,.F.);
#338 = EDGE_CURVE('',#68,#339,#341,.T.);
#339 = VERTEX_POINT('',#340);
#340 = CARTESIAN_POINT('',(0.74,0.4,0.E+000));
#341 = SURFACE_CURVE('',#342,(#346,#353),.PCURVE_S1.);
#342 = LINE('',#343,#344);
#343 = CARTESIAN_POINT('',(-0.74,0.4,0.E+000));
#344 = VECTOR('',#345,1.);
#345 = DIRECTION('',(1.,0.E+000,0.E+000));
#346 = PCURVE('',#111,#347);
#347 = DEFINITIONAL_REPRESENTATION('',(#348),#352);
#348 = LINE('',#349,#350);
#349 = CARTESIAN_POINT('',(0.E+000,0.E+000));
#350 = VECTOR('',#351,1.);
#351 = DIRECTION('',(0.E+000,1.));
#352 = ( GEOMETRIC_REPRESENTATION_CONTEXT(2) 
PARAMETRIC_REPRESENTATION_CONTEXT() REPRESENTATION_CONTEXT('2D SPACE',''
  ) );
#353 = PCURVE('',#83,#354);
#354 = DEFINITIONAL_REPRESENTATION('',(#355),#359);
#355 = LINE('',#356,#357);
#356 = CARTESIAN_POINT('',(0.E+000,0.8));
#357 = VECTOR('',#358,1.);
#358 = DIRECTION('',(1.,0.E+000));
#359 = ( GEOMETRIC_REPRESENTATION_CONTEXT(2) 
PARAMETRIC_REPRESENTATION_CONTEXT() REPRESENTATION_CONTEXT('2D SPACE',''
  ) );
#360 = ORIENTED_EDGE('',*,*,#95,.T.);
#361 = ORIENTED_EDGE('',*,*,#284,.T.);
#362 = ORIENTED_EDGE('',*,*,#363,.T.);
#363 = EDGE_CURVE('',#285,#364,#366,.T.);
#364 = VERTEX_POINT('',#365);
#365 = CARTESIAN_POINT('',(0.5,0.4,0.4));
#366 = SURFACE_CURVE('',#367,(#371,#378),.PCURVE_S1.);
#367 = LINE('',#368,#369);
#368 = CARTESIAN_POINT('',(-0.5,0.4,0.4));
#369 = VECTOR('',#370,1.);
#370 = DIRECTION('',(1.,0.E+000,0.E+000));
#371 = PCURVE('',#111,#372);
#372 = DEFINITIONAL_REPRESENTATION('',(#373),#377);
#373 = LINE('',#374,#375);
#374 = CARTESIAN_POINT('',(0.4,0.24));
#375 = VECTOR('',#376,1.);
#376 = DIRECTION('',(0.E+000,1.));
#377 = ( GEOMETRIC_REPRESENTATION_CONTEXT(2) 
PARAMETRIC_REPRESENTATION_CONTEXT() REPRESENTATION_CONTEXT('2D SPACE',''
  ) );
#378 = PCURVE('',#379,#384);
#379 = PLANE('',#380);
#380 = AXIS2_PLACEMENT_3D('',#381,#382,#383);
#381 = CARTESIAN_POINT('',(-0.5,0.4,0.4));
#382 = DIRECTION('',(0.E+000,1.,0.E+000));
#383 = DIRECTION('',(0.E+000,0.E+000,1.));
#384 = DEFINITIONAL_REPRESENTATION('',(#385),#389);
#385 = LINE('',#386,#387);
#386 = CARTESIAN_POINT('',(0.E+000,0.E+000));
#387 = VECTOR('',#388,1.);
#388 = DIRECTION('',(0.E+000,1.));
#389 = ( GEOMETRIC_REPRESENTATION_CONTEXT(2) 
PARAMETRIC_REPRESENTATION_CONTEXT() REPRESENTATION_CONTEXT('2D SPACE',''
  ) );
#390 = ORIENTED_EDGE('',*,*,#391,.T.);
#391 = EDGE_CURVE('',#364,#392,#394,.T.);
#392 = VERTEX_POINT('',#393);
#393 = CARTESIAN_POINT('',(0.74,0.4,0.4));
#394 = SURFACE_CURVE('',#395,(#399,#406),.PCURVE_S1.);
#395 = LINE('',#396,#397);
#396 = CARTESIAN_POINT('',(-0.74,0.4,0.4));
#397 = VECTOR('',#398,1.);
#398 = DIRECTION('',(1.,0.E+000,0.E+000));
#399 = PCURVE('',#111,#400);
#400 = DEFINITIONAL_REPRESENTATION('',(#401),#405);
#401 = LINE('',#402,#403);
#402 = CARTESIAN_POINT('',(0.4,0.E+000));
#403 = VECTOR('',#404,1.);
#404 = DIRECTION('',(0.E+000,1.));
#405 = ( GEOMETRIC_REPRESENTATION_CONTEXT(2) 
PARAMETRIC_REPRESENTATION_CONTEXT() REPRESENTATION_CONTEXT('2D SPACE',''
  ) );
#406 = PCURVE('',#243,#407);
#407 = DEFINITIONAL_REPRESENTATION('',(#408),#412);
#408 = LINE('',#409,#410);
#409 = CARTESIAN_POINT('',(0.E+000,0.8));
#410 = VECTOR('',#411,1.);
#411 = DIRECTION('',(1.,0.E+000));
#412 = ( GEOMETRIC_REPRESENTATION_CONTEXT(2) 
PARAMETRIC_REPRESENTATION_CONTEXT() REPRESENTATION_CONTEXT('2D SPACE',''
  ) );
#413 = ORIENTED_EDGE('',*,*,#414,.F.);
#414 = EDGE_CURVE('',#339,#392,#415,.T.);
#415 = SURFACE_CURVE('',#416,(#420,#427),.PCURVE_S1.);
#416 = LINE('',#417,#418);
#417 = CARTESIAN_POINT('',(0.74,0.4,0.E+000));
#418 = VECTOR('',#419,1.);
#419 = DIRECTION('',(0.E+000,0.E+000,1.));
#420 = PCURVE('',#111,#421);
#421 = DEFINITIONAL_REPRESENTATION('',(#422),#426);
#422 = LINE('',#423,#424);
#423 = CARTESIAN_POINT('',(0.E+000,1.48));
#424 = VECTOR('',#425,1.);
#425 = DIRECTION('',(1.,0.E+000));
#426 = ( GEOMETRIC_REPRESENTATION_CONTEXT(2) 
PARAMETRIC_REPRESENTATION_CONTEXT() REPRESENTATION_CONTEXT('2D SPACE',''
  ) );
#427 = PCURVE('',#269,#428);
#428 = DEFINITIONAL_REPRESENTATION('',(#429),#433);
#429 = LINE('',#430,#431);
#430 = CARTESIAN_POINT('',(0.E+000,-0.8));
#431 = VECTOR('',#432,1.);
#432 = DIRECTION('',(1.,0.E+000));
#433 = ( GEOMETRIC_REPRESENTATION_CONTEXT(2) 
PARAMETRIC_REPRESENTATION_CONTEXT() REPRESENTATION_CONTEXT('2D SPACE',''
  ) );
#434 = ADVANCED_FACE('',(#435),#83,.F.);
#435 = FACE_BOUND('',#436,.F.);
#436 = EDGE_LOOP('',(#437,#438,#439,#460));
#437 = ORIENTED_EDGE('',*,*,#67,.F.);
#438 = ORIENTED_EDGE('',*,*,#152,.T.);
#439 = ORIENTED_EDGE('',*,*,#440,.T.);
#440 = EDGE_CURVE('',#153,#339,#441,.T.);
#441 = SURFACE_CURVE('',#442,(#446,#453),.PCURVE_S1.);
#442 = LINE('',#443,#444);
#443 = CARTESIAN_POINT('',(0.74,-0.4,0.E+000));
#444 = VECTOR('',#445,1.);
#445 = DIRECTION('',(0.E+000,1.,0.E+000));
#446 = PCURVE('',#83,#447);
#447 = DEFINITIONAL_REPRESENTATION('',(#448),#452);
#448 = LINE('',#449,#450);
#449 = CARTESIAN_POINT('',(1.48,0.E+000));
#450 = VECTOR('',#451,1.);
#451 = DIRECTION('',(0.E+000,1.));
#452 = ( GEOMETRIC_REPRESENTATION_CONTEXT(2) 
PARAMETRIC_REPRESENTATION_CONTEXT() REPRESENTATION_CONTEXT('2D SPACE',''
  ) );
#453 = PCURVE('',#269,#454);
#454 = DEFINITIONAL_REPRESENTATION('',(#455),#459);
#455 = LINE('',#456,#457);
#456 = CARTESIAN_POINT('',(0.E+000,0.E+000));
#457 = VECTOR('',#458,1.);
#458 = DIRECTION('',(0.E+000,-1.));
#459 = ( GEOMETRIC_REPRESENTATION_CONTEXT(2) 
PARAMETRIC_REPRESENTATION_CONTEXT() REPRESENTATION_CONTEXT('2D SPACE',''
  ) );
#460 = ORIENTED_EDGE('',*,*,#338,.F.);
#461 = ADVANCED_FACE('',(#462),#269,.T.);
#462 = FACE_BOUND('',#463,.T.);
#463 = EDGE_LOOP('',(#464,#465,#466,#467));
#464 = ORIENTED_EDGE('',*,*,#255,.F.);
#465 = ORIENTED_EDGE('',*,*,#440,.T.);
#466 = ORIENTED_EDGE('',*,*,#414,.T.);
#467 = ORIENTED_EDGE('',*,*,#468,.F.);
#468 = EDGE_CURVE('',#228,#392,#469,.T.);
#469 = SURFACE_CURVE('',#470,(#474,#481),.PCURVE_S1.);
#470 = LINE('',#471,#472);
#471 = CARTESIAN_POINT('',(0.74,-0.4,0.4));
#472 = VECTOR('',#473,1.);
#473 = DIRECTION('',(0.E+000,1.,0.E+000));
#474 = PCURVE('',#269,#475);
#475 = DEFINITIONAL_REPRESENTATION('',(#476),#480);
#476 = LINE('',#477,#478);
#477 = CARTESIAN_POINT('',(0.4,0.E+000));
#478 = VECTOR('',#479,1.);
#479 = DIRECTION('',(0.E+000,-1.));
#480 = ( GEOMETRIC_REPRESENTATION_CONTEXT(2) 
PARAMETRIC_REPRESENTATION_CONTEXT() REPRESENTATION_CONTEXT('2D SPACE',''
  ) );
#481 = PCURVE('',#243,#482);
#482 = DEFINITIONAL_REPRESENTATION('',(#483),#487);
#483 = LINE('',#484,#485);
#484 = CARTESIAN_POINT('',(1.48,0.E+000));
#485 = VECTOR('',#486,1.);
#486 = DIRECTION('',(0.E+000,1.));
#487 = ( GEOMETRIC_REPRESENTATION_CONTEXT(2) 
PARAMETRIC_REPRESENTATION_CONTEXT() REPRESENTATION_CONTEXT('2D SPACE',''
  ) );
#488 = ADVANCED_FACE('',(#489),#243,.T.);
#489 = FACE_BOUND('',#490,.T.);
#490 = EDGE_LOOP('',(#491,#492,#518,#519));
#491 = ORIENTED_EDGE('',*,*,#391,.F.);
#492 = ORIENTED_EDGE('',*,*,#493,.F.);
#493 = EDGE_CURVE('',#200,#364,#494,.T.);
#494 = SURFACE_CURVE('',#495,(#499,#506),.PCURVE_S1.);
#495 = LINE('',#496,#497);
#496 = CARTESIAN_POINT('',(0.5,-0.4,0.4));
#497 = VECTOR('',#498,1.);
#498 = DIRECTION('',(0.E+000,1.,0.E+000));
#499 = PCURVE('',#243,#500);
#500 = DEFINITIONAL_REPRESENTATION('',(#501),#505);
#501 = LINE('',#502,#503);
#502 = CARTESIAN_POINT('',(1.24,0.E+000));
#503 = VECTOR('',#504,1.);
#504 = DIRECTION('',(0.E+000,1.));
#505 = ( GEOMETRIC_REPRESENTATION_CONTEXT(2) 
PARAMETRIC_REPRESENTATION_CONTEXT() REPRESENTATION_CONTEXT('2D SPACE',''
  ) );
#506 = PCURVE('',#507,#512);
#507 = PLANE('',#508);
#508 = AXIS2_PLACEMENT_3D('',#509,#510,#511);
#509 = CARTESIAN_POINT('',(0.5,-0.4,0.4));
#510 = DIRECTION('',(1.,0.E+000,0.E+000));
#511 = DIRECTION('',(0.E+000,0.E+000,1.));
#512 = DEFINITIONAL_REPRESENTATION('',(#513),#517);
#513 = LINE('',#514,#515);
#514 = CARTESIAN_POINT('',(0.E+000,0.E+000));
#515 = VECTOR('',#516,1.);
#516 = DIRECTION('',(0.E+000,-1.));
#517 = ( GEOMETRIC_REPRESENTATION_CONTEXT(2) 
PARAMETRIC_REPRESENTATION_CONTEXT() REPRESENTATION_CONTEXT('2D SPACE',''
  ) );
#518 = ORIENTED_EDGE('',*,*,#227,.T.);
#519 = ORIENTED_EDGE('',*,*,#468,.T.);
#520 = ADVANCED_FACE('',(#521),#215,.F.);
#521 = FACE_BOUND('',#522,.F.);
#522 = EDGE_LOOP('',(#523,#524,#547,#575));
#523 = ORIENTED_EDGE('',*,*,#199,.F.);
#524 = ORIENTED_EDGE('',*,*,#525,.T.);
#525 = EDGE_CURVE('',#177,#526,#528,.T.);
#526 = VERTEX_POINT('',#527);
#527 = CARTESIAN_POINT('',(-0.5,-0.4,0.41));
#528 = SURFACE_CURVE('',#529,(#533,#540),.PCURVE_S1.);
#529 = LINE('',#530,#531);
#530 = CARTESIAN_POINT('',(-0.5,-0.4,0.4));
#531 = VECTOR('',#532,1.);
#532 = DIRECTION('',(0.E+000,0.E+000,1.));
#533 = PCURVE('',#215,#534);
#534 = DEFINITIONAL_REPRESENTATION('',(#535),#539);
#535 = LINE('',#536,#537);
#536 = CARTESIAN_POINT('',(0.E+000,0.E+000));
#537 = VECTOR('',#538,1.);
#538 = DIRECTION('',(1.,0.E+000));
#539 = ( GEOMETRIC_REPRESENTATION_CONTEXT(2) 
PARAMETRIC_REPRESENTATION_CONTEXT() REPRESENTATION_CONTEXT('2D SPACE',''
  ) );
#540 = PCURVE('',#323,#541);
#541 = DEFINITIONAL_REPRESENTATION('',(#542),#546);
#542 = LINE('',#543,#544);
#543 = CARTESIAN_POINT('',(0.E+000,0.E+000));
#544 = VECTOR('',#545,1.);
#545 = DIRECTION('',(1.,0.E+000));
#546 = ( GEOMETRIC_REPRESENTATION_CONTEXT(2) 
PARAMETRIC_REPRESENTATION_CONTEXT() REPRESENTATION_CONTEXT('2D SPACE',''
  ) );
#547 = ORIENTED_EDGE('',*,*,#548,.T.);
#548 = EDGE_CURVE('',#526,#549,#551,.T.);
#549 = VERTEX_POINT('',#550);
#550 = CARTESIAN_POINT('',(0.5,-0.4,0.41));
#551 = SURFACE_CURVE('',#552,(#556,#563),.PCURVE_S1.);
#552 = LINE('',#553,#554);
#553 = CARTESIAN_POINT('',(-0.5,-0.4,0.41));
#554 = VECTOR('',#555,1.);
#555 = DIRECTION('',(1.,0.E+000,0.E+000));
#556 = PCURVE('',#215,#557);
#557 = DEFINITIONAL_REPRESENTATION('',(#558),#562);
#558 = LINE('',#559,#560);
#559 = CARTESIAN_POINT('',(1.E-002,0.E+000));
#560 = VECTOR('',#561,1.);
#561 = DIRECTION('',(0.E+000,1.));
#562 = ( GEOMETRIC_REPRESENTATION_CONTEXT(2) 
PARAMETRIC_REPRESENTATION_CONTEXT() REPRESENTATION_CONTEXT('2D SPACE',''
  ) );
#563 = PCURVE('',#564,#569);
#564 = PLANE('',#565);
#565 = AXIS2_PLACEMENT_3D('',#566,#567,#568);
#566 = CARTESIAN_POINT('',(-0.5,-0.4,0.41));
#567 = DIRECTION('',(0.E+000,0.E+000,1.));
#568 = DIRECTION('',(1.,0.E+000,0.E+000));
#569 = DEFINITIONAL_REPRESENTATION('',(#570),#574);
#570 = LINE('',#571,#572);
#571 = CARTESIAN_POINT('',(0.E+000,0.E+000));
#572 = VECTOR('',#573,1.);
#573 = DIRECTION('',(1.,0.E+000));
#574 = ( GEOMETRIC_REPRESENTATION_CONTEXT(2) 
PARAMETRIC_REPRESENTATION_CONTEXT() REPRESENTATION_CONTEXT('2D SPACE',''
  ) );
#575 = ORIENTED_EDGE('',*,*,#576,.F.);
#576 = EDGE_CURVE('',#200,#549,#577,.T.);
#577 = SURFACE_CURVE('',#578,(#582,#589),.PCURVE_S1.);
#578 = LINE('',#579,#580);
#579 = CARTESIAN_POINT('',(0.5,-0.4,0.4));
#580 = VECTOR('',#581,1.);
#581 = DIRECTION('',(0.E+000,0.E+000,1.));
#582 = PCURVE('',#215,#583);
#583 = DEFINITIONAL_REPRESENTATION('',(#584),#588);
#584 = LINE('',#585,#586);
#585 = CARTESIAN_POINT('',(0.E+000,1.));
#586 = VECTOR('',#587,1.);
#587 = DIRECTION('',(1.,0.E+000));
#588 = ( GEOMETRIC_REPRESENTATION_CONTEXT(2) 
PARAMETRIC_REPRESENTATION_CONTEXT() REPRESENTATION_CONTEXT('2D SPACE',''
  ) );
#589 = PCURVE('',#507,#590);
#590 = DEFINITIONAL_REPRESENTATION('',(#591),#595);
#591 = LINE('',#592,#593);
#592 = CARTESIAN_POINT('',(0.E+000,0.E+000));
#593 = VECTOR('',#594,1.);
#594 = DIRECTION('',(1.,0.E+000));
#595 = ( GEOMETRIC_REPRESENTATION_CONTEXT(2) 
PARAMETRIC_REPRESENTATION_CONTEXT() REPRESENTATION_CONTEXT('2D SPACE',''
  ) );
#596 = ADVANCED_FACE('',(#597),#323,.F.);
#597 = FACE_BOUND('',#598,.F.);
#598 = EDGE_LOOP('',(#599,#600,#601,#624));
#599 = ORIENTED_EDGE('',*,*,#525,.F.);
#600 = ORIENTED_EDGE('',*,*,#309,.T.);
#601 = ORIENTED_EDGE('',*,*,#602,.T.);
#602 = EDGE_CURVE('',#285,#603,#605,.T.);
#603 = VERTEX_POINT('',#604);
#604 = CARTESIAN_POINT('',(-0.5,0.4,0.41));
#605 = SURFACE_CURVE('',#606,(#610,#617),.PCURVE_S1.);
#606 = LINE('',#607,#608);
#607 = CARTESIAN_POINT('',(-0.5,0.4,0.4));
#608 = VECTOR('',#609,1.);
#609 = DIRECTION('',(0.E+000,0.E+000,1.));
#610 = PCURVE('',#323,#611);
#611 = DEFINITIONAL_REPRESENTATION('',(#612),#616);
#612 = LINE('',#613,#614);
#613 = CARTESIAN_POINT('',(0.E+000,-0.8));
#614 = VECTOR('',#615,1.);
#615 = DIRECTION('',(1.,0.E+000));
#616 = ( GEOMETRIC_REPRESENTATION_CONTEXT(2) 
PARAMETRIC_REPRESENTATION_CONTEXT() REPRESENTATION_CONTEXT('2D SPACE',''
  ) );
#617 = PCURVE('',#379,#618);
#618 = DEFINITIONAL_REPRESENTATION('',(#619),#623);
#619 = LINE('',#620,#621);
#620 = CARTESIAN_POINT('',(0.E+000,0.E+000));
#621 = VECTOR('',#622,1.);
#622 = DIRECTION('',(1.,0.E+000));
#623 = ( GEOMETRIC_REPRESENTATION_CONTEXT(2) 
PARAMETRIC_REPRESENTATION_CONTEXT() REPRESENTATION_CONTEXT('2D SPACE',''
  ) );
#624 = ORIENTED_EDGE('',*,*,#625,.F.);
#625 = EDGE_CURVE('',#526,#603,#626,.T.);
#626 = SURFACE_CURVE('',#627,(#631,#638),.PCURVE_S1.);
#627 = LINE('',#628,#629);
#628 = CARTESIAN_POINT('',(-0.5,-0.4,0.41));
#629 = VECTOR('',#630,1.);
#630 = DIRECTION('',(0.E+000,1.,0.E+000));
#631 = PCURVE('',#323,#632);
#632 = DEFINITIONAL_REPRESENTATION('',(#633),#637);
#633 = LINE('',#634,#635);
#634 = CARTESIAN_POINT('',(1.E-002,0.E+000));
#635 = VECTOR('',#636,1.);
#636 = DIRECTION('',(0.E+000,-1.));
#637 = ( GEOMETRIC_REPRESENTATION_CONTEXT(2) 
PARAMETRIC_REPRESENTATION_CONTEXT() REPRESENTATION_CONTEXT('2D SPACE',''
  ) );
#638 = PCURVE('',#564,#639);
#639 = DEFINITIONAL_REPRESENTATION('',(#640),#644);
#640 = LINE('',#641,#642);
#641 = CARTESIAN_POINT('',(0.E+000,0.E+000));
#642 = VECTOR('',#643,1.);
#643 = DIRECTION('',(0.E+000,1.));
#644 = ( GEOMETRIC_REPRESENTATION_CONTEXT(2) 
PARAMETRIC_REPRESENTATION_CONTEXT() REPRESENTATION_CONTEXT('2D SPACE',''
  ) );
#645 = ADVANCED_FACE('',(#646),#379,.T.);
#646 = FACE_BOUND('',#647,.T.);
#647 = EDGE_LOOP('',(#648,#649,#650,#673));
#648 = ORIENTED_EDGE('',*,*,#363,.F.);
#649 = ORIENTED_EDGE('',*,*,#602,.T.);
#650 = ORIENTED_EDGE('',*,*,#651,.T.);
#651 = EDGE_CURVE('',#603,#652,#654,.T.);
#652 = VERTEX_POINT('',#653);
#653 = CARTESIAN_POINT('',(0.5,0.4,0.41));
#654 = SURFACE_CURVE('',#655,(#659,#666),.PCURVE_S1.);
#655 = LINE('',#656,#657);
#656 = CARTESIAN_POINT('',(-0.5,0.4,0.41));
#657 = VECTOR('',#658,1.);
#658 = DIRECTION('',(1.,0.E+000,0.E+000));
#659 = PCURVE('',#379,#660);
#660 = DEFINITIONAL_REPRESENTATION('',(#661),#665);
#661 = LINE('',#662,#663);
#662 = CARTESIAN_POINT('',(1.E-002,0.E+000));
#663 = VECTOR('',#664,1.);
#664 = DIRECTION('',(0.E+000,1.));
#665 = ( GEOMETRIC_REPRESENTATION_CONTEXT(2) 
PARAMETRIC_REPRESENTATION_CONTEXT() REPRESENTATION_CONTEXT('2D SPACE',''
  ) );
#666 = PCURVE('',#564,#667);
#667 = DEFINITIONAL_REPRESENTATION('',(#668),#672);
#668 = LINE('',#669,#670);
#669 = CARTESIAN_POINT('',(0.E+000,0.8));
#670 = VECTOR('',#671,1.);
#671 = DIRECTION('',(1.,0.E+000));
#672 = ( GEOMETRIC_REPRESENTATION_CONTEXT(2) 
PARAMETRIC_REPRESENTATION_CONTEXT() REPRESENTATION_CONTEXT('2D SPACE',''
  ) );
#673 = ORIENTED_EDGE('',*,*,#674,.F.);
#674 = EDGE_CURVE('',#364,#652,#675,.T.);
#675 = SURFACE_CURVE('',#676,(#680,#687),.PCURVE_S1.);
#676 = LINE('',#677,#678);
#677 = CARTESIAN_POINT('',(0.5,0.4,0.4));
#678 = VECTOR('',#679,1.);
#679 = DIRECTION('',(0.E+000,0.E+000,1.));
#680 = PCURVE('',#379,#681);
#681 = DEFINITIONAL_REPRESENTATION('',(#682),#686);
#682 = LINE('',#683,#684);
#683 = CARTESIAN_POINT('',(0.E+000,1.));
#684 = VECTOR('',#685,1.);
#685 = DIRECTION('',(1.,0.E+000));
#686 = ( GEOMETRIC_REPRESENTATION_CONTEXT(2) 
PARAMETRIC_REPRESENTATION_CONTEXT() REPRESENTATION_CONTEXT('2D SPACE',''
  ) );
#687 = PCURVE('',#507,#688);
#688 = DEFINITIONAL_REPRESENTATION('',(#689),#693);
#689 = LINE('',#690,#691);
#690 = CARTESIAN_POINT('',(0.E+000,-0.8));
#691 = VECTOR('',#692,1.);
#692 = DIRECTION('',(1.,0.E+000));
#693 = ( GEOMETRIC_REPRESENTATION_CONTEXT(2) 
PARAMETRIC_REPRESENTATION_CONTEXT() REPRESENTATION_CONTEXT('2D SPACE',''
  ) );
#694 = ADVANCED_FACE('',(#695),#507,.T.);
#695 = FACE_BOUND('',#696,.T.);
#696 = EDGE_LOOP('',(#697,#698,#699,#700));
#697 = ORIENTED_EDGE('',*,*,#576,.F.);
#698 = ORIENTED_EDGE('',*,*,#493,.T.);
#699 = ORIENTED_EDGE('',*,*,#674,.T.);
#700 = ORIENTED_EDGE('',*,*,#701,.F.);
#701 = EDGE_CURVE('',#549,#652,#702,.T.);
#702 = SURFACE_CURVE('',#703,(#707,#714),.PCURVE_S1.);
#703 = LINE('',#704,#705);
#704 = CARTESIAN_POINT('',(0.5,-0.4,0.41));
#705 = VECTOR('',#706,1.);
#706 = DIRECTION('',(0.E+000,1.,0.E+000));
#707 = PCURVE('',#507,#708);
#708 = DEFINITIONAL_REPRESENTATION('',(#709),#713);
#709 = LINE('',#710,#711);
#710 = CARTESIAN_POINT('',(1.E-002,0.E+000));
#711 = VECTOR('',#712,1.);
#712 = DIRECTION('',(0.E+000,-1.));
#713 = ( GEOMETRIC_REPRESENTATION_CONTEXT(2) 
PARAMETRIC_REPRESENTATION_CONTEXT() REPRESENTATION_CONTEXT('2D SPACE',''
  ) );
#714 = PCURVE('',#564,#715);
#715 = DEFINITIONAL_REPRESENTATION('',(#716),#720);
#716 = LINE('',#717,#718);
#717 = CARTESIAN_POINT('',(1.,0.E+000));
#718 = VECTOR('',#719,1.);
#719 = DIRECTION('',(0.E+000,1.));
#720 = ( GEOMETRIC_REPRESENTATION_CONTEXT(2) 
PARAMETRIC_REPRESENTATION_CONTEXT() REPRESENTATION_CONTEXT('2D SPACE',''
  ) );
#721 = ADVANCED_FACE('',(#722),#564,.T.);
#722 = FACE_BOUND('',#723,.T.);
#723 = EDGE_LOOP('',(#724,#725,#726,#727));
#724 = ORIENTED_EDGE('',*,*,#625,.F.);
#725 = ORIENTED_EDGE('',*,*,#548,.T.);
#726 = ORIENTED_EDGE('',*,*,#701,.T.);
#727 = ORIENTED_EDGE('',*,*,#651,.F.);
#728 = ( GEOMETRIC_REPRESENTATION_CONTEXT(3) 
GLOBAL_UNCERTAINTY_ASSIGNED_CONTEXT((#732)) GLOBAL_UNIT_ASSIGNED_CONTEXT
((#729,#730,#731)) REPRESENTATION_CONTEXT('Context #1',
  '3D Context with UNIT and UNCERTAINTY') );
#729 = ( LENGTH_UNIT() NAMED_UNIT(*) SI_UNIT(.MILLI.,.METRE.) );
#730 = ( NAMED_UNIT(*) PLANE_ANGLE_UNIT() SI_UNIT($,.RADIAN.) );
#731 = ( NAMED_UNIT(*) SI_UNIT($,.STERADIAN.) SOLID_ANGLE_UNIT() );
#732 = UNCERTAINTY_MEASURE_WITH_UNIT(LENGTH_MEASURE(1.E-007),#729,
  'distance_accuracy_value','confusion accuracy');
#733 = SHAPE_DEFINITION_REPRESENTATION(#734,#25);
#734 = PRODUCT_DEFINITION_SHAPE('','',#735);
#735 = PRODUCT_DEFINITION('design','',#736,#739);
#736 = PRODUCT_DEFINITION_FORMATION('','',#737);
#737 = PRODUCT('R0603','R0603','',(#738));
#738 = MECHANICAL_CONTEXT('',#2,'mechanical');
#739 = PRODUCT_DEFINITION_CONTEXT('part definition',#2,'design');
#740 = CONTEXT_DEPENDENT_SHAPE_REPRESENTATION(#741,#743);
#741 = ( REPRESENTATION_RELATIONSHIP('','',#25,#10) 
REPRESENTATION_RELATIONSHIP_WITH_TRANSFORMATION(#742) 
SHAPE_REPRESENTATION_RELATIONSHIP() );
#742 = ITEM_DEFINED_TRANSFORMATION('','',#11,#15);
#743 = PRODUCT_DEFINITION_SHAPE('Placement','Placement of an item',#744
  );
#744 = NEXT_ASSEMBLY_USAGE_OCCURRENCE('8','=>[0:1:1:2]','',#5,#735,$);
#745 = PRODUCT_TYPE('part',$,(#737));
#746 = MECHANICAL_DESIGN_GEOMETRIC_PRESENTATION_REPRESENTATION('',(#747,
    #755,#762,#769,#776,#783,#790,#797,#805,#812,#819,#826),#728);
#747 = STYLED_ITEM('color',(#748),#28);
#748 = PRESENTATION_STYLE_ASSIGNMENT((#749));
#749 = SURFACE_STYLE_USAGE(.BOTH.,#750);
#750 = SURFACE_SIDE_STYLE('',(#751));
#751 = SURFACE_STYLE_FILL_AREA(#752);
#752 = FILL_AREA_STYLE('',(#753));
#753 = FILL_AREA_STYLE_COLOUR('',#754);
#754 = DRAUGHTING_PRE_DEFINED_COLOUR('white');
#755 = STYLED_ITEM('color',(#756),#148);
#756 = PRESENTATION_STYLE_ASSIGNMENT((#757));
#757 = SURFACE_STYLE_USAGE(.BOTH.,#758);
#758 = SURFACE_SIDE_STYLE('',(#759));
#759 = SURFACE_STYLE_FILL_AREA(#760);
#760 = FILL_AREA_STYLE('',(#761));
#761 = FILL_AREA_STYLE_COLOUR('',#754);
#762 = STYLED_ITEM('color',(#763),#280);
#763 = PRESENTATION_STYLE_ASSIGNMENT((#764));
#764 = SURFACE_STYLE_USAGE(.BOTH.,#765);
#765 = SURFACE_SIDE_STYLE('',(#766));
#766 = SURFACE_STYLE_FILL_AREA(#767);
#767 = FILL_AREA_STYLE('',(#768));
#768 = FILL_AREA_STYLE_COLOUR('',#754);
#769 = STYLED_ITEM('color',(#770),#334);
#770 = PRESENTATION_STYLE_ASSIGNMENT((#771));
#771 = SURFACE_STYLE_USAGE(.BOTH.,#772);
#772 = SURFACE_SIDE_STYLE('',(#773));
#773 = SURFACE_STYLE_FILL_AREA(#774);
#774 = FILL_AREA_STYLE('',(#775));
#775 = FILL_AREA_STYLE_COLOUR('',#754);
#776 = STYLED_ITEM('color',(#777),#434);
#777 = PRESENTATION_STYLE_ASSIGNMENT((#778));
#778 = SURFACE_STYLE_USAGE(.BOTH.,#779);
#779 = SURFACE_SIDE_STYLE('',(#780));
#780 = SURFACE_STYLE_FILL_AREA(#781);
#781 = FILL_AREA_STYLE('',(#782));
#782 = FILL_AREA_STYLE_COLOUR('',#754);
#783 = STYLED_ITEM('color',(#784),#461);
#784 = PRESENTATION_STYLE_ASSIGNMENT((#785));
#785 = SURFACE_STYLE_USAGE(.BOTH.,#786);
#786 = SURFACE_SIDE_STYLE('',(#787));
#787 = SURFACE_STYLE_FILL_AREA(#788);
#788 = FILL_AREA_STYLE('',(#789));
#789 = FILL_AREA_STYLE_COLOUR('',#754);
#790 = STYLED_ITEM('color',(#791),#488);
#791 = PRESENTATION_STYLE_ASSIGNMENT((#792));
#792 = SURFACE_STYLE_USAGE(.BOTH.,#793);
#793 = SURFACE_SIDE_STYLE('',(#794));
#794 = SURFACE_STYLE_FILL_AREA(#795);
#795 = FILL_AREA_STYLE('',(#796));
#796 = FILL_AREA_STYLE_COLOUR('',#754);
#797 = STYLED_ITEM('color',(#798),#520);
#798 = PRESENTATION_STYLE_ASSIGNMENT((#799));
#799 = SURFACE_STYLE_USAGE(.BOTH.,#800);
#800 = SURFACE_SIDE_STYLE('',(#801));
#801 = SURFACE_STYLE_FILL_AREA(#802);
#802 = FILL_AREA_STYLE('',(#803));
#803 = FILL_AREA_STYLE_COLOUR('',#804);
#804 = COLOUR_RGB('',7.843137532473E-002,7.843137532473E-002,
  7.843137532473E-002);
#805 = STYLED_ITEM('color',(#806),#596);
#806 = PRESENTATION_STYLE_ASSIGNMENT((#807));
#807 = SURFACE_STYLE_USAGE(.BOTH.,#808);
#808 = SURFACE_SIDE_STYLE('',(#809));
#809 = SURFACE_STYLE_FILL_AREA(#810);
#810 = FILL_AREA_STYLE('',(#811));
#811 = FILL_AREA_STYLE_COLOUR('',#804);
#812 = STYLED_ITEM('color',(#813),#645);
#813 = PRESENTATION_STYLE_ASSIGNMENT((#814));
#814 = SURFACE_STYLE_USAGE(.BOTH.,#815);
#815 = SURFACE_SIDE_STYLE('',(#816));
#816 = SURFACE_STYLE_FILL_AREA(#817);
#817 = FILL_AREA_STYLE('',(#818));
#818 = FILL_AREA_STYLE_COLOUR('',#804);
#819 = STYLED_ITEM('color',(#820),#694);
#820 = PRESENTATION_STYLE_ASSIGNMENT((#821));
#821 = SURFACE_STYLE_USAGE(.BOTH.,#822);
#822 = SURFACE_SIDE_STYLE('',(#823));
#823 = SURFACE_STYLE_FILL_AREA(#824);
#824 = FILL_AREA_STYLE('',(#825));
#825 = FILL_AREA_STYLE_COLOUR('',#804);
#826 = STYLED_ITEM('color',(#827),#721);
#827 = PRESENTATION_STYLE_ASSIGNMENT((#828));
#828 = SURFACE_STYLE_USAGE(.BOTH.,#829);
#829 = SURFACE_SIDE_STYLE('',(#830));
#830 = SURFACE_STYLE_FILL_AREA(#831);
#831 = FILL_AREA_STYLE('',(#832));
#832 = FILL_AREA_STYLE_COLOUR('',#804);
ENDSEC;
END-ISO-10303-21;
