ISO-10303-21;
HEADER;

/* File generated by Shapr3D Version 26.142.11496.0 */

FILE_DESCRIPTION(('HOOPS Exchange Step'),'2;1');

FILE_NAME('C:\\Users\\TranHuyBao\\AppData\\Local\\Packages\\Shapr3D.Shapr3D_dvv5p1vgwv6mp\\TempState\\export\\temp_export',
'2026-08-15T18:22:45+07:00',
('TR\X2\1EA6\X0\N HUY B\X2\1EA2\X0\O'),
('Shapr3D Limited'),
'HOOPS Exchange 2026.3',
'Shapr3D',
'Authorized');

FILE_SCHEMA( ('AP242_MANAGED_MODEL_BASED_3D_ENGINEERING_MIM_LF {1 0 10303 442 1 1 4}') );

ENDSEC;

DATA;
#3=(NAMED_UNIT(*)PLANE_ANGLE_UNIT()SI_UNIT($,.RADIAN.));
#4=PLANE_ANGLE_MEASURE_WITH_UNIT(PLANE_ANGLE_MEASURE(0.0174532925),#3);
#5=(CONVERSION_BASED_UNIT('DEGREE',#4)NAMED_UNIT(#6)PLANE_ANGLE_UNIT());
#6=DIMENSIONAL_EXPONENTS(0.,0.,0.,0.,0.,0.,0.);
#7=(NAMED_UNIT(*)SI_UNIT($,.STERADIAN.)SOLID_ANGLE_UNIT());
#8=(LENGTH_UNIT()NAMED_UNIT(*)SI_UNIT(.MILLI.,.METRE.));
#9=UNCERTAINTY_MEASURE_WITH_UNIT(LENGTH_MEASURE(1.000000E-05),#8,'DISTANCE_ACCURACY_VALUE','Maximum Tolerance applied to model');
#10=(GEOMETRIC_REPRESENTATION_CONTEXT(3)GLOBAL_UNCERTAINTY_ASSIGNED_CONTEXT((#9))GLOBAL_UNIT_ASSIGNED_CONTEXT((#8,#5,#7))REPRESENTATION_CONTEXT('','root'));
#12=CARTESIAN_POINT('',(0.,0.,0.));
#13=DIRECTION('',(0.,0.,1.));
#14=DIRECTION('',(1.,0.,0.));
#15=AXIS2_PLACEMENT_3D('',#12,#13,#14);
#27=CARTESIAN_POINT('',(0.,-0.2,0.));
#28=DIRECTION('',(0.,-1.,0.));
#29=DIRECTION('',(1.,0.,0.));
#30=AXIS2_PLACEMENT_3D('',#27,#28,#29);
#31=PLANE('',#30);
#32=CARTESIAN_POINT('',(-12.,-0.2,-24.));
#33=VERTEX_POINT('',#32);
#34=CARTESIAN_POINT('',(-10.5,-0.2,-26.));
#35=VERTEX_POINT('',#34);
#36=CARTESIAN_POINT('',(-12.,-0.2,-24.));
#37=DIRECTION('',(0.6,0.,-0.8));
#38=VECTOR('',#37,2.5);
#39=LINE('',#36,#38);
#40=EDGE_CURVE('',#33,#35,#39,.T.);
#41=ORIENTED_EDGE('',*,*,#40,.F.);
#42=CARTESIAN_POINT('',(-17.5,-0.2,-22.));
#43=VERTEX_POINT('',#42);
#44=CARTESIAN_POINT('',(-16.670982127,-0.2,-28.282700849));
#45=DIRECTION('',(-0.,-1.,-0.));
#46=DIRECTION('',(0.737078109,-0.,0.675807562));
#47=AXIS2_PLACEMENT_3D('',#44,#45,#46);
#48=CIRCLE('',#47,6.337160294);
#49=EDGE_CURVE('',#33,#43,#48,.T.);
#50=ORIENTED_EDGE('',*,*,#49,.T.);
#51=CARTESIAN_POINT('',(-17.5,-0.2,-26.));
#52=VERTEX_POINT('',#51);
#53=CARTESIAN_POINT('',(-17.5,-0.2,-26.));
#54=DIRECTION('',(0.,0.,1.));
#55=VECTOR('',#54,4.);
#56=LINE('',#53,#55);
#57=EDGE_CURVE('',#52,#43,#56,.T.);
#58=ORIENTED_EDGE('',*,*,#57,.F.);
#59=CARTESIAN_POINT('',(-10.5,-0.2,-26.));
#60=DIRECTION('',(-1.,0.,0.));
#61=VECTOR('',#60,7.);
#62=LINE('',#59,#61);
#63=EDGE_CURVE('',#35,#52,#62,.T.);
#64=ORIENTED_EDGE('',*,*,#63,.F.);
#65=EDGE_LOOP('',(#41,#50,#58,#64));
#66=FACE_BOUND('',#65,.T.);
#67=ADVANCED_FACE('',(#66),#31,.T.);
#68=CARTESIAN_POINT('',(0.,8.9,0.));
#69=DIRECTION('',(0.,-1.,0.));
#70=DIRECTION('',(1.,0.,0.));
#71=AXIS2_PLACEMENT_3D('',#68,#69,#70);
#72=PLANE('',#71);
#73=CARTESIAN_POINT('',(-9.355339409,8.9,10.911774923));
#74=VERTEX_POINT('',#73);
#75=CARTESIAN_POINT('',(-9.355339409,8.9,13.911774923));
#76=VERTEX_POINT('',#75);
#77=CARTESIAN_POINT('',(-9.355339409,8.9,12.411774923));
#78=DIRECTION('',(0.,-1.,0.));
#79=DIRECTION('',(0.,0.,-1.));
#80=AXIS2_PLACEMENT_3D('',#77,#78,#79);
#81=CIRCLE('',#80,1.5);
#82=EDGE_CURVE('',#74,#76,#81,.T.);
#83=ORIENTED_EDGE('',*,*,#82,.T.);
#84=CARTESIAN_POINT('',(-9.355339409,8.9,12.411774923));
#85=DIRECTION('',(0.,-1.,0.));
#86=DIRECTION('',(0.,0.,-1.));
#87=AXIS2_PLACEMENT_3D('',#84,#85,#86);
#88=CIRCLE('',#87,1.5);
#89=EDGE_CURVE('',#76,#74,#88,.T.);
#90=ORIENTED_EDGE('',*,*,#89,.T.);
#91=EDGE_LOOP('',(#83,#90));
#92=FACE_BOUND('',#91,.T.);
#93=CARTESIAN_POINT('',(-14.501984799,8.9,-18.840462771));
#94=VERTEX_POINT('',#93);
#95=CARTESIAN_POINT('',(-9.,8.9,-24.));
#96=VERTEX_POINT('',#95);
#97=CARTESIAN_POINT('',(-19.012946381,8.9,-29.16417404));
#98=DIRECTION('',(-0.,1.,0.));
#99=DIRECTION('',(0.134290466,0.,0.990942012));
#100=AXIS2_PLACEMENT_3D('',#97,#98,#99);
#101=CIRCLE('',#100,11.266223357);
#102=EDGE_CURVE('',#94,#96,#101,.T.);
#103=ORIENTED_EDGE('',*,*,#102,.F.);
#104=CARTESIAN_POINT('',(-17.5,8.9,-14.258753826));
#105=VERTEX_POINT('',#104);
#106=CARTESIAN_POINT('',(-12.5,8.9,-14.258753826));
#107=DIRECTION('',(-0.,1.,-0.));
#108=DIRECTION('',(0.,0.,-1.));
#109=AXIS2_PLACEMENT_3D('',#106,#107,#108);
#110=CIRCLE('',#109,5.);
#111=EDGE_CURVE('',#94,#105,#110,.T.);
#112=ORIENTED_EDGE('',*,*,#111,.T.);
#113=CARTESIAN_POINT('',(-17.5,8.9,26.));
#114=VERTEX_POINT('',#113);
#115=CARTESIAN_POINT('',(-17.5,8.9,-14.258753826));
#116=DIRECTION('',(0.,0.,1.));
#117=VECTOR('',#116,40.258753826);
#118=LINE('',#115,#117);
#119=EDGE_CURVE('',#105,#114,#118,.T.);
#120=ORIENTED_EDGE('',*,*,#119,.T.);
#121=CARTESIAN_POINT('',(-5.8,8.9,26.));
#122=VERTEX_POINT('',#121);
#123=CARTESIAN_POINT('',(-17.5,8.9,26.));
#124=DIRECTION('',(1.,0.,-0.));
#125=VECTOR('',#124,11.7);
#126=LINE('',#123,#125);
#127=EDGE_CURVE('',#114,#122,#126,.T.);
#128=ORIENTED_EDGE('',*,*,#127,.T.);
#129=CARTESIAN_POINT('',(-5.8,8.9,-14.4));
#130=VERTEX_POINT('',#129);
#131=CARTESIAN_POINT('',(-5.8,8.9,-14.4));
#132=DIRECTION('',(0.,0.,1.));
#133=VECTOR('',#132,40.4);
#134=LINE('',#131,#133);
#135=EDGE_CURVE('',#130,#122,#134,.T.);
#136=ORIENTED_EDGE('',*,*,#135,.F.);
#137=CARTESIAN_POINT('',(-0.2,8.9,-20.));
#138=VERTEX_POINT('',#137);
#139=CARTESIAN_POINT('',(-0.2,8.9,-14.4));
#140=DIRECTION('',(0.,-1.,0.));
#141=DIRECTION('',(0.,0.,-1.));
#142=AXIS2_PLACEMENT_3D('',#139,#140,#141);
#143=CIRCLE('',#142,5.6);
#144=EDGE_CURVE('',#130,#138,#143,.T.);
#145=ORIENTED_EDGE('',*,*,#144,.T.);
#146=CARTESIAN_POINT('',(0.2,8.9,-20.));
#147=VERTEX_POINT('',#146);
#148=CARTESIAN_POINT('',(0.2,8.9,-20.));
#149=DIRECTION('',(-1.,0.,0.));
#150=VECTOR('',#149,0.4);
#151=LINE('',#148,#150);
#152=EDGE_CURVE('',#147,#138,#151,.T.);
#153=ORIENTED_EDGE('',*,*,#152,.F.);
#154=CARTESIAN_POINT('',(5.8,8.9,-14.4));
#155=VERTEX_POINT('',#154);
#156=CARTESIAN_POINT('',(0.2,8.9,-14.4));
#157=DIRECTION('',(0.,-1.,0.));
#158=DIRECTION('',(0.,0.,-1.));
#159=AXIS2_PLACEMENT_3D('',#156,#157,#158);
#160=CIRCLE('',#159,5.6);
#161=EDGE_CURVE('',#147,#155,#160,.T.);
#162=ORIENTED_EDGE('',*,*,#161,.T.);
#163=CARTESIAN_POINT('',(5.8,8.9,-8.521175649));
#164=VERTEX_POINT('',#163);
#165=CARTESIAN_POINT('',(5.8,8.9,-8.521175649));
#166=DIRECTION('',(0.,0.,-1.));
#167=VECTOR('',#166,5.878824351);
#168=LINE('',#165,#167);
#169=EDGE_CURVE('',#164,#155,#168,.T.);
#170=ORIENTED_EDGE('',*,*,#169,.F.);
#171=CARTESIAN_POINT('',(9.415384615,8.9,-0.824640988));
#172=VERTEX_POINT('',#171);
#173=CARTESIAN_POINT('',(15.8,8.9,-8.521178287));
#174=DIRECTION('',(-0.,1.,-0.));
#175=DIRECTION('',(0.,0.,-1.));
#176=AXIS2_PLACEMENT_3D('',#173,#174,#175);
#177=CIRCLE('',#176,10.);
#178=EDGE_CURVE('',#164,#172,#177,.T.);
#179=ORIENTED_EDGE('',*,*,#178,.T.);
#180=CARTESIAN_POINT('',(10.5,8.9,1.484320202));
#181=VERTEX_POINT('',#180);
#182=CARTESIAN_POINT('',(7.5,8.9,1.484320202));
#183=DIRECTION('',(0.,-1.,0.));
#184=DIRECTION('',(0.,0.,-1.));
#185=AXIS2_PLACEMENT_3D('',#182,#183,#184);
#186=CIRCLE('',#185,3.);
#187=EDGE_CURVE('',#172,#181,#186,.T.);
#188=ORIENTED_EDGE('',*,*,#187,.T.);
#189=CARTESIAN_POINT('',(10.5,8.9,26.));
#190=VERTEX_POINT('',#189);
#191=CARTESIAN_POINT('',(10.5,8.9,26.));
#192=DIRECTION('',(0.,0.,-1.));
#193=VECTOR('',#192,24.515679798);
#194=LINE('',#191,#193);
#195=EDGE_CURVE('',#190,#181,#194,.T.);
#196=ORIENTED_EDGE('',*,*,#195,.F.);
#197=CARTESIAN_POINT('',(17.5,8.9,26.));
#198=VERTEX_POINT('',#197);
#199=CARTESIAN_POINT('',(10.5,8.9,26.));
#200=DIRECTION('',(1.,0.,-0.));
#201=VECTOR('',#200,7.);
#202=LINE('',#199,#201);
#203=EDGE_CURVE('',#190,#198,#202,.T.);
#204=ORIENTED_EDGE('',*,*,#203,.T.);
#205=CARTESIAN_POINT('',(17.5,8.9,-26.));
#206=VERTEX_POINT('',#205);
#207=CARTESIAN_POINT('',(17.5,8.9,26.));
#208=DIRECTION('',(0.,0.,-1.));
#209=VECTOR('',#208,52.);
#210=LINE('',#207,#209);
#211=EDGE_CURVE('',#198,#206,#210,.T.);
#212=ORIENTED_EDGE('',*,*,#211,.T.);
#213=CARTESIAN_POINT('',(-7.5,8.9,-26.));
#214=VERTEX_POINT('',#213);
#215=CARTESIAN_POINT('',(17.5,8.9,-26.));
#216=DIRECTION('',(-1.,0.,0.));
#217=VECTOR('',#216,25.);
#218=LINE('',#215,#217);
#219=EDGE_CURVE('',#206,#214,#218,.T.);
#220=ORIENTED_EDGE('',*,*,#219,.T.);
#221=CARTESIAN_POINT('',(-9.,8.9,-24.));
#222=DIRECTION('',(0.6,0.,-0.8));
#223=VECTOR('',#222,2.5);
#224=LINE('',#221,#223);
#225=EDGE_CURVE('',#96,#214,#224,.T.);
#226=ORIENTED_EDGE('',*,*,#225,.F.);
#227=EDGE_LOOP('',(#103,#112,#120,#128,#136,#145,#153,#162,#170,#179,#188,#196,#204,#212,#220,#226));
#228=FACE_BOUND('',#227,.T.);
#229=ADVANCED_FACE('',(#92,#228),#72,.F.);
#230=CARTESIAN_POINT('',(0.,8.9,0.));
#231=DIRECTION('',(0.,-1.,0.));
#232=DIRECTION('',(1.,0.,0.));
#233=AXIS2_PLACEMENT_3D('',#230,#231,#232);
#234=PLANE('',#233);
#235=CARTESIAN_POINT('',(-17.5,8.9,-26.));
#236=VERTEX_POINT('',#235);
#237=CARTESIAN_POINT('',(-17.5,8.9,-22.));
#238=VERTEX_POINT('',#237);
#239=CARTESIAN_POINT('',(-17.5,8.9,-26.));
#240=DIRECTION('',(0.,0.,1.));
#241=VECTOR('',#240,4.);
#242=LINE('',#239,#241);
#243=EDGE_CURVE('',#236,#238,#242,.T.);
#244=ORIENTED_EDGE('',*,*,#243,.T.);
#245=CARTESIAN_POINT('',(-16.670982127,8.9,-21.945540555));
#246=VERTEX_POINT('',#245);
#247=CARTESIAN_POINT('',(-16.670982127,8.9,-28.282700849));
#248=DIRECTION('',(0.,1.,0.));
#249=DIRECTION('',(-0.130818511,0.,0.991406333));
#250=AXIS2_PLACEMENT_3D('',#247,#248,#249);
#251=CIRCLE('',#250,6.337160294);
#252=EDGE_CURVE('',#238,#246,#251,.T.);
#253=ORIENTED_EDGE('',*,*,#252,.T.);
#254=CARTESIAN_POINT('',(-12.,8.9,-24.));
#255=VERTEX_POINT('',#254);
#256=CARTESIAN_POINT('',(-16.670982127,8.9,-28.282700849));
#257=DIRECTION('',(0.,1.,0.));
#258=DIRECTION('',(-0.130818511,0.,0.991406333));
#259=AXIS2_PLACEMENT_3D('',#256,#257,#258);
#260=CIRCLE('',#259,6.337160294);
#261=EDGE_CURVE('',#246,#255,#260,.T.);
#262=ORIENTED_EDGE('',*,*,#261,.T.);
#263=CARTESIAN_POINT('',(-10.5,8.9,-26.));
#264=VERTEX_POINT('',#263);
#265=CARTESIAN_POINT('',(-10.5,8.9,-26.));
#266=DIRECTION('',(-0.6,0.,0.8));
#267=VECTOR('',#266,2.5);
#268=LINE('',#265,#267);
#269=EDGE_CURVE('',#264,#255,#268,.T.);
#270=ORIENTED_EDGE('',*,*,#269,.F.);
#271=CARTESIAN_POINT('',(-10.5,8.9,-26.));
#272=DIRECTION('',(-1.,0.,0.));
#273=VECTOR('',#272,7.);
#274=LINE('',#271,#273);
#275=EDGE_CURVE('',#264,#236,#274,.T.);
#276=ORIENTED_EDGE('',*,*,#275,.T.);
#277=EDGE_LOOP('',(#244,#253,#262,#270,#276));
#278=FACE_BOUND('',#277,.T.);
#279=ADVANCED_FACE('',(#278),#234,.F.);
#280=CARTESIAN_POINT('',(0.,2.,-26.));
#281=DIRECTION('',(0.,0.,1.));
#282=DIRECTION('',(1.,0.,0.));
#283=AXIS2_PLACEMENT_3D('',#280,#281,#282);
#284=PLANE('',#283);
#285=CARTESIAN_POINT('',(-10.5,-0.2,-26.));
#286=DIRECTION('',(0.,1.,0.));
#287=VECTOR('',#286,9.1);
#288=LINE('',#285,#287);
#289=EDGE_CURVE('',#35,#264,#288,.T.);
#290=ORIENTED_EDGE('',*,*,#289,.F.);
#291=ORIENTED_EDGE('',*,*,#63,.T.);
#292=CARTESIAN_POINT('',(-17.5,8.9,-26.));
#293=DIRECTION('',(0.,-1.,0.));
#294=VECTOR('',#293,9.1);
#295=LINE('',#292,#294);
#296=EDGE_CURVE('',#236,#52,#295,.T.);
#297=ORIENTED_EDGE('',*,*,#296,.F.);
#298=ORIENTED_EDGE('',*,*,#275,.F.);
#299=EDGE_LOOP('',(#290,#291,#297,#298));
#300=FACE_BOUND('',#299,.T.);
#301=ADVANCED_FACE('',(#300),#284,.F.);
#302=CARTESIAN_POINT('',(-5.8,8.9,0.));
#303=DIRECTION('',(1.,0.,0.));
#304=DIRECTION('',(0.,0.,-1.));
#305=AXIS2_PLACEMENT_3D('',#302,#303,#304);
#306=PLANE('',#305);
#307=ORIENTED_EDGE('',*,*,#135,.T.);
#308=CARTESIAN_POINT('',(-5.8,-0.2,26.));
#309=VERTEX_POINT('',#308);
#310=CARTESIAN_POINT('',(-5.8,8.9,26.));
#311=DIRECTION('',(0.,-1.,0.));
#312=VECTOR('',#311,9.1);
#313=LINE('',#310,#312);
#314=EDGE_CURVE('',#122,#309,#313,.T.);
#315=ORIENTED_EDGE('',*,*,#314,.T.);
#316=CARTESIAN_POINT('',(-5.8,-0.2,-14.4));
#317=VERTEX_POINT('',#316);
#318=CARTESIAN_POINT('',(-5.8,-0.2,-14.4));
#319=DIRECTION('',(0.,0.,1.));
#320=VECTOR('',#319,40.4);
#321=LINE('',#318,#320);
#322=EDGE_CURVE('',#317,#309,#321,.T.);
#323=ORIENTED_EDGE('',*,*,#322,.F.);
#324=CARTESIAN_POINT('',(-5.8,2.8,-14.4));
#325=VERTEX_POINT('',#324);
#326=CARTESIAN_POINT('',(-5.8,-0.2,-14.4));
#327=DIRECTION('',(-0.,1.,-0.));
#328=VECTOR('',#327,3.);
#329=LINE('',#326,#328);
#330=EDGE_CURVE('',#317,#325,#329,.T.);
#331=ORIENTED_EDGE('',*,*,#330,.T.);
#332=CARTESIAN_POINT('',(-5.8,2.8,23.));
#333=VERTEX_POINT('',#332);
#334=CARTESIAN_POINT('',(-5.8,2.8,-14.4));
#335=DIRECTION('',(0.,0.,1.));
#336=VECTOR('',#335,37.4);
#337=LINE('',#334,#336);
#338=EDGE_CURVE('',#325,#333,#337,.T.);
#339=ORIENTED_EDGE('',*,*,#338,.T.);
#340=CARTESIAN_POINT('',(-5.8,5.9,23.));
#341=VERTEX_POINT('',#340);
#342=CARTESIAN_POINT('',(-5.8,5.9,23.));
#343=DIRECTION('',(0.,-1.,0.));
#344=VECTOR('',#343,3.1);
#345=LINE('',#342,#344);
#346=EDGE_CURVE('',#341,#333,#345,.T.);
#347=ORIENTED_EDGE('',*,*,#346,.F.);
#348=CARTESIAN_POINT('',(-5.8,5.9,-14.4));
#349=VERTEX_POINT('',#348);
#350=CARTESIAN_POINT('',(-5.8,5.9,-14.4));
#351=DIRECTION('',(0.,0.,1.));
#352=VECTOR('',#351,37.4);
#353=LINE('',#350,#352);
#354=EDGE_CURVE('',#349,#341,#353,.T.);
#355=ORIENTED_EDGE('',*,*,#354,.F.);
#356=CARTESIAN_POINT('',(-5.8,5.9,-14.4));
#357=DIRECTION('',(-0.,1.,-0.));
#358=VECTOR('',#357,3.);
#359=LINE('',#356,#358);
#360=EDGE_CURVE('',#349,#130,#359,.T.);
#361=ORIENTED_EDGE('',*,*,#360,.T.);
#362=EDGE_LOOP('',(#307,#315,#323,#331,#339,#347,#355,#361));
#363=FACE_BOUND('',#362,.T.);
#364=ADVANCED_FACE('',(#363),#306,.T.);
#365=CARTESIAN_POINT('',(-17.5,8.9,0.));
#366=DIRECTION('',(1.,0.,0.));
#367=DIRECTION('',(0.,0.,-1.));
#368=AXIS2_PLACEMENT_3D('',#365,#366,#367);
#369=PLANE('',#368);
#370=CARTESIAN_POINT('',(-17.5,1.3,-22.));
#371=VERTEX_POINT('',#370);
#372=CARTESIAN_POINT('',(-17.5,1.3,-14.258753826));
#373=VERTEX_POINT('',#372);
#374=CARTESIAN_POINT('',(-17.5,1.3,-22.));
#375=DIRECTION('',(0.,-0.,1.));
#376=VECTOR('',#375,7.741246174);
#377=LINE('',#374,#376);
#378=EDGE_CURVE('',#371,#373,#377,.T.);
#379=ORIENTED_EDGE('',*,*,#378,.T.);
#380=CARTESIAN_POINT('',(-17.5,-0.2,-14.258753826));
#381=VERTEX_POINT('',#380);
#382=CARTESIAN_POINT('',(-17.5,1.3,-14.258753826));
#383=DIRECTION('',(0.,-1.,-0.));
#384=VECTOR('',#383,1.5);
#385=LINE('',#382,#384);
#386=EDGE_CURVE('',#373,#381,#385,.T.);
#387=ORIENTED_EDGE('',*,*,#386,.T.);
#388=CARTESIAN_POINT('',(-17.5,-0.2,26.));
#389=VERTEX_POINT('',#388);
#390=CARTESIAN_POINT('',(-17.5,-0.2,-14.258753826));
#391=DIRECTION('',(0.,0.,1.));
#392=VECTOR('',#391,40.258753826);
#393=LINE('',#390,#392);
#394=EDGE_CURVE('',#381,#389,#393,.T.);
#395=ORIENTED_EDGE('',*,*,#394,.T.);
#396=CARTESIAN_POINT('',(-17.5,8.9,26.));
#397=DIRECTION('',(0.,-1.,0.));
#398=VECTOR('',#397,9.1);
#399=LINE('',#396,#398);
#400=EDGE_CURVE('',#114,#389,#399,.T.);
#401=ORIENTED_EDGE('',*,*,#400,.F.);
#402=ORIENTED_EDGE('',*,*,#119,.F.);
#403=CARTESIAN_POINT('',(-17.5,7.4,-14.258753826));
#404=VERTEX_POINT('',#403);
#405=CARTESIAN_POINT('',(-17.5,8.9,-14.258753826));
#406=DIRECTION('',(-0.,-1.,-0.));
#407=VECTOR('',#406,1.5);
#408=LINE('',#405,#407);
#409=EDGE_CURVE('',#105,#404,#408,.T.);
#410=ORIENTED_EDGE('',*,*,#409,.T.);
#411=CARTESIAN_POINT('',(-17.5,7.4,-22.));
#412=VERTEX_POINT('',#411);
#413=CARTESIAN_POINT('',(-17.5,7.4,-22.));
#414=DIRECTION('',(0.,0.,1.));
#415=VECTOR('',#414,7.741246174);
#416=LINE('',#413,#415);
#417=EDGE_CURVE('',#412,#404,#416,.T.);
#418=ORIENTED_EDGE('',*,*,#417,.F.);
#419=CARTESIAN_POINT('',(-17.5,7.4,-22.));
#420=DIRECTION('',(0.,1.,0.));
#421=VECTOR('',#420,1.5);
#422=LINE('',#419,#421);
#423=EDGE_CURVE('',#412,#238,#422,.T.);
#424=ORIENTED_EDGE('',*,*,#423,.T.);
#425=ORIENTED_EDGE('',*,*,#243,.F.);
#426=ORIENTED_EDGE('',*,*,#296,.T.);
#427=ORIENTED_EDGE('',*,*,#57,.T.);
#428=CARTESIAN_POINT('',(-17.5,1.3,-22.));
#429=DIRECTION('',(0.,-1.,-0.));
#430=VECTOR('',#429,1.5);
#431=LINE('',#428,#430);
#432=EDGE_CURVE('',#371,#43,#431,.T.);
#433=ORIENTED_EDGE('',*,*,#432,.F.);
#434=EDGE_LOOP('',(#379,#387,#395,#401,#402,#410,#418,#424,#425,#426,#427,#433));
#435=FACE_BOUND('',#434,.T.);
#436=CARTESIAN_POINT('',(-17.5,5.9,23.));
#437=VERTEX_POINT('',#436);
#438=CARTESIAN_POINT('',(-17.5,2.8,23.));
#439=VERTEX_POINT('',#438);
#440=CARTESIAN_POINT('',(-17.5,5.9,23.));
#441=DIRECTION('',(0.,-1.,0.));
#442=VECTOR('',#441,3.1);
#443=LINE('',#440,#442);
#444=EDGE_CURVE('',#437,#439,#443,.T.);
#445=ORIENTED_EDGE('',*,*,#444,.T.);
#446=CARTESIAN_POINT('',(-17.5,2.8,-21.));
#447=VERTEX_POINT('',#446);
#448=CARTESIAN_POINT('',(-17.5,2.8,-21.));
#449=DIRECTION('',(0.,0.,1.));
#450=VECTOR('',#449,44.);
#451=LINE('',#448,#450);
#452=EDGE_CURVE('',#447,#439,#451,.T.);
#453=ORIENTED_EDGE('',*,*,#452,.F.);
#454=CARTESIAN_POINT('',(-17.5,5.9,-21.));
#455=VERTEX_POINT('',#454);
#456=CARTESIAN_POINT('',(-17.5,5.9,-21.));
#457=DIRECTION('',(0.,-1.,0.));
#458=VECTOR('',#457,3.1);
#459=LINE('',#456,#458);
#460=EDGE_CURVE('',#455,#447,#459,.T.);
#461=ORIENTED_EDGE('',*,*,#460,.F.);
#462=CARTESIAN_POINT('',(-17.5,5.9,-21.));
#463=DIRECTION('',(0.,0.,1.));
#464=VECTOR('',#463,44.);
#465=LINE('',#462,#464);
#466=EDGE_CURVE('',#455,#437,#465,.T.);
#467=ORIENTED_EDGE('',*,*,#466,.T.);
#468=EDGE_LOOP('',(#445,#453,#461,#467));
#469=FACE_BOUND('',#468,.T.);
#470=ADVANCED_FACE('',(#435,#469),#369,.F.);
#471=CARTESIAN_POINT('',(6.,8.9,0.));
#472=DIRECTION('',(-1.,0.,0.));
#473=DIRECTION('',(0.,0.,1.));
#474=AXIS2_PLACEMENT_3D('',#471,#472,#473);
#475=PLANE('',#474);
#476=CARTESIAN_POINT('',(6.,2.8,-8.351837585));
#477=VERTEX_POINT('',#476);
#478=CARTESIAN_POINT('',(6.,2.8,-14.4));
#479=VERTEX_POINT('',#478);
#480=CARTESIAN_POINT('',(6.,2.8,-8.351837585));
#481=DIRECTION('',(0.,0.,-1.));
#482=VECTOR('',#481,6.048162415);
#483=LINE('',#480,#482);
#484=EDGE_CURVE('',#477,#479,#483,.T.);
#485=ORIENTED_EDGE('',*,*,#484,.T.);
#486=CARTESIAN_POINT('',(6.,-0.2,-14.4));
#487=VERTEX_POINT('',#486);
#488=CARTESIAN_POINT('',(6.,2.8,-14.4));
#489=DIRECTION('',(0.,-1.,0.));
#490=VECTOR('',#489,3.);
#491=LINE('',#488,#490);
#492=EDGE_CURVE('',#479,#487,#491,.T.);
#493=ORIENTED_EDGE('',*,*,#492,.T.);
#494=CARTESIAN_POINT('',(6.,-0.2,-8.351837585));
#495=VERTEX_POINT('',#494);
#496=CARTESIAN_POINT('',(6.,-0.2,-8.351837585));
#497=DIRECTION('',(0.,0.,-1.));
#498=VECTOR('',#497,6.048162415);
#499=LINE('',#496,#498);
#500=EDGE_CURVE('',#495,#487,#499,.T.);
#501=ORIENTED_EDGE('',*,*,#500,.F.);
#502=CARTESIAN_POINT('',(6.,-0.2,-8.351837585));
#503=DIRECTION('',(-0.,1.,-0.));
#504=VECTOR('',#503,3.);
#505=LINE('',#502,#504);
#506=EDGE_CURVE('',#495,#477,#505,.T.);
#507=ORIENTED_EDGE('',*,*,#506,.T.);
#508=EDGE_LOOP('',(#485,#493,#501,#507));
#509=FACE_BOUND('',#508,.T.);
#510=ADVANCED_FACE('',(#509),#475,.T.);
#511=CARTESIAN_POINT('',(5.8,8.9,0.));
#512=DIRECTION('',(-1.,0.,0.));
#513=DIRECTION('',(0.,0.,1.));
#514=AXIS2_PLACEMENT_3D('',#511,#512,#513);
#515=PLANE('',#514);
#516=ORIENTED_EDGE('',*,*,#169,.T.);
#517=CARTESIAN_POINT('',(5.8,5.9,-14.4));
#518=VERTEX_POINT('',#517);
#519=CARTESIAN_POINT('',(5.8,8.9,-14.4));
#520=DIRECTION('',(0.,-1.,0.));
#521=VECTOR('',#520,3.);
#522=LINE('',#519,#521);
#523=EDGE_CURVE('',#155,#518,#522,.T.);
#524=ORIENTED_EDGE('',*,*,#523,.T.);
#525=CARTESIAN_POINT('',(5.8,5.9,-8.521175649));
#526=VERTEX_POINT('',#525);
#527=CARTESIAN_POINT('',(5.8,5.9,-8.521175649));
#528=DIRECTION('',(0.,0.,-1.));
#529=VECTOR('',#528,5.878824351);
#530=LINE('',#527,#529);
#531=EDGE_CURVE('',#526,#518,#530,.T.);
#532=ORIENTED_EDGE('',*,*,#531,.F.);
#533=CARTESIAN_POINT('',(5.8,5.9,-8.521178287));
#534=DIRECTION('',(0.,1.,0.));
#535=VECTOR('',#534,3.);
#536=LINE('',#533,#535);
#537=EDGE_CURVE('',#526,#164,#536,.T.);
#538=ORIENTED_EDGE('',*,*,#537,.T.);
#539=EDGE_LOOP('',(#516,#524,#532,#538));
#540=FACE_BOUND('',#539,.T.);
#541=ADVANCED_FACE('',(#540),#515,.T.);
#542=CARTESIAN_POINT('',(0.,2.8,0.));
#543=DIRECTION('',(0.,-1.,0.));
#544=DIRECTION('',(1.,0.,0.));
#545=AXIS2_PLACEMENT_3D('',#542,#543,#544);
#546=PLANE('',#545);
#547=CARTESIAN_POINT('',(-9.355339409,2.8,10.911774923));
#548=VERTEX_POINT('',#547);
#549=CARTESIAN_POINT('',(-9.355339409,2.8,13.911774923));
#550=VERTEX_POINT('',#549);
#551=CARTESIAN_POINT('',(-9.355339409,2.8,12.411774923));
#552=DIRECTION('',(0.,-1.,0.));
#553=DIRECTION('',(0.,0.,-1.));
#554=AXIS2_PLACEMENT_3D('',#551,#552,#553);
#555=CIRCLE('',#554,1.5);
#556=EDGE_CURVE('',#548,#550,#555,.T.);
#557=ORIENTED_EDGE('',*,*,#556,.T.);
#558=CARTESIAN_POINT('',(-9.355339409,2.8,12.411774923));
#559=DIRECTION('',(0.,-1.,0.));
#560=DIRECTION('',(0.,0.,-1.));
#561=AXIS2_PLACEMENT_3D('',#558,#559,#560);
#562=CIRCLE('',#561,1.5);
#563=EDGE_CURVE('',#550,#548,#562,.T.);
#564=ORIENTED_EDGE('',*,*,#563,.T.);
#565=EDGE_LOOP('',(#557,#564));
#566=FACE_BOUND('',#565,.T.);
#567=ORIENTED_EDGE('',*,*,#484,.F.);
#568=CARTESIAN_POINT('',(9.461538462,2.8,-0.785562365));
#569=VERTEX_POINT('',#568);
#570=CARTESIAN_POINT('',(16.,2.8,-8.351837585));
#571=DIRECTION('',(-0.,1.,-0.));
#572=DIRECTION('',(0.,0.,-1.));
#573=AXIS2_PLACEMENT_3D('',#570,#571,#572);
#574=CIRCLE('',#573,10.);
#575=EDGE_CURVE('',#477,#569,#574,.T.);
#576=ORIENTED_EDGE('',*,*,#575,.T.);
#577=CARTESIAN_POINT('',(10.5,2.8,1.484320202));
#578=VERTEX_POINT('',#577);
#579=CARTESIAN_POINT('',(7.5,2.8,1.484320202));
#580=DIRECTION('',(0.,-1.,0.));
#581=DIRECTION('',(0.,0.,-1.));
#582=AXIS2_PLACEMENT_3D('',#579,#580,#581);
#583=CIRCLE('',#582,3.);
#584=EDGE_CURVE('',#569,#578,#583,.T.);
#585=ORIENTED_EDGE('',*,*,#584,.T.);
#586=CARTESIAN_POINT('',(10.5,2.8,23.));
#587=VERTEX_POINT('',#586);
#588=CARTESIAN_POINT('',(10.5,2.8,1.484320202));
#589=DIRECTION('',(0.,0.,1.));
#590=VECTOR('',#589,21.515679798);
#591=LINE('',#588,#590);
#592=EDGE_CURVE('',#578,#587,#591,.T.);
#593=ORIENTED_EDGE('',*,*,#592,.T.);
#594=CARTESIAN_POINT('',(17.5,2.8,23.));
#595=VERTEX_POINT('',#594);
#596=CARTESIAN_POINT('',(17.5,2.8,23.));
#597=DIRECTION('',(-1.,0.,0.));
#598=VECTOR('',#597,7.);
#599=LINE('',#596,#598);
#600=EDGE_CURVE('',#595,#587,#599,.T.);
#601=ORIENTED_EDGE('',*,*,#600,.F.);
#602=CARTESIAN_POINT('',(17.5,2.8,-21.));
#603=VERTEX_POINT('',#602);
#604=CARTESIAN_POINT('',(17.5,2.8,23.));
#605=DIRECTION('',(0.,0.,-1.));
#606=VECTOR('',#605,44.);
#607=LINE('',#604,#606);
#608=EDGE_CURVE('',#595,#603,#607,.T.);
#609=ORIENTED_EDGE('',*,*,#608,.T.);
#610=CARTESIAN_POINT('',(17.5,2.8,-21.));
#611=DIRECTION('',(-1.,0.,0.));
#612=VECTOR('',#611,35.);
#613=LINE('',#610,#612);
#614=EDGE_CURVE('',#603,#447,#613,.T.);
#615=ORIENTED_EDGE('',*,*,#614,.T.);
#616=ORIENTED_EDGE('',*,*,#452,.T.);
#617=CARTESIAN_POINT('',(-5.8,2.8,23.));
#618=DIRECTION('',(-1.,0.,0.));
#619=VECTOR('',#618,11.7);
#620=LINE('',#617,#619);
#621=EDGE_CURVE('',#333,#439,#620,.T.);
#622=ORIENTED_EDGE('',*,*,#621,.F.);
#623=ORIENTED_EDGE('',*,*,#338,.F.);
#624=CARTESIAN_POINT('',(-0.2,2.8,-20.));
#625=VERTEX_POINT('',#624);
#626=CARTESIAN_POINT('',(-0.2,2.8,-14.4));
#627=DIRECTION('',(0.,-1.,0.));
#628=DIRECTION('',(0.,0.,-1.));
#629=AXIS2_PLACEMENT_3D('',#626,#627,#628);
#630=CIRCLE('',#629,5.6);
#631=EDGE_CURVE('',#325,#625,#630,.T.);
#632=ORIENTED_EDGE('',*,*,#631,.T.);
#633=CARTESIAN_POINT('',(0.4,2.8,-20.));
#634=VERTEX_POINT('',#633);
#635=CARTESIAN_POINT('',(0.4,2.8,-20.));
#636=DIRECTION('',(-1.,0.,0.));
#637=VECTOR('',#636,0.6);
#638=LINE('',#635,#637);
#639=EDGE_CURVE('',#634,#625,#638,.T.);
#640=ORIENTED_EDGE('',*,*,#639,.F.);
#641=CARTESIAN_POINT('',(0.4,2.8,-14.4));
#642=DIRECTION('',(0.,-1.,0.));
#643=DIRECTION('',(0.,0.,-1.));
#644=AXIS2_PLACEMENT_3D('',#641,#642,#643);
#645=CIRCLE('',#644,5.6);
#646=EDGE_CURVE('',#634,#479,#645,.T.);
#647=ORIENTED_EDGE('',*,*,#646,.T.);
#648=EDGE_LOOP('',(#567,#576,#585,#593,#601,#609,#615,#616,#622,#623,#632,#640,#647));
#649=FACE_BOUND('',#648,.T.);
#650=ADVANCED_FACE('',(#566,#649),#546,.F.);
#651=CARTESIAN_POINT('',(0.,5.9,0.));
#652=DIRECTION('',(0.,-1.,0.));
#653=DIRECTION('',(1.,0.,0.));
#654=AXIS2_PLACEMENT_3D('',#651,#652,#653);
#655=PLANE('',#654);
#656=CARTESIAN_POINT('',(-9.355339409,5.9,13.911774923));
#657=VERTEX_POINT('',#656);
#658=CARTESIAN_POINT('',(-9.355339409,5.9,10.911774923));
#659=VERTEX_POINT('',#658);
#660=CARTESIAN_POINT('',(-9.355339409,5.9,12.411774923));
#661=DIRECTION('',(0.,-1.,0.));
#662=DIRECTION('',(0.,0.,-1.));
#663=AXIS2_PLACEMENT_3D('',#660,#661,#662);
#664=CIRCLE('',#663,1.5);
#665=EDGE_CURVE('',#657,#659,#664,.T.);
#666=ORIENTED_EDGE('',*,*,#665,.F.);
#667=CARTESIAN_POINT('',(-9.355339409,5.9,12.411774923));
#668=DIRECTION('',(0.,-1.,0.));
#669=DIRECTION('',(0.,0.,-1.));
#670=AXIS2_PLACEMENT_3D('',#667,#668,#669);
#671=CIRCLE('',#670,1.5);
#672=EDGE_CURVE('',#659,#657,#671,.T.);
#673=ORIENTED_EDGE('',*,*,#672,.F.);
#674=EDGE_LOOP('',(#666,#673));
#675=FACE_BOUND('',#674,.T.);
#676=CARTESIAN_POINT('',(10.5,5.9,1.484320202));
#677=VERTEX_POINT('',#676);
#678=CARTESIAN_POINT('',(9.415384615,5.9,-0.824640988));
#679=VERTEX_POINT('',#678);
#680=CARTESIAN_POINT('',(7.5,5.9,1.484320202));
#681=DIRECTION('',(-0.,1.,-0.));
#682=DIRECTION('',(0.,0.,-1.));
#683=AXIS2_PLACEMENT_3D('',#680,#681,#682);
#684=CIRCLE('',#683,3.);
#685=EDGE_CURVE('',#677,#679,#684,.T.);
#686=ORIENTED_EDGE('',*,*,#685,.T.);
#687=CARTESIAN_POINT('',(15.8,5.9,-8.521178287));
#688=DIRECTION('',(0.,-1.,0.));
#689=DIRECTION('',(0.,0.,-1.));
#690=AXIS2_PLACEMENT_3D('',#687,#688,#689);
#691=CIRCLE('',#690,10.);
#692=EDGE_CURVE('',#679,#526,#691,.T.);
#693=ORIENTED_EDGE('',*,*,#692,.T.);
#694=ORIENTED_EDGE('',*,*,#531,.T.);
#695=CARTESIAN_POINT('',(0.2,5.9,-20.));
#696=VERTEX_POINT('',#695);
#697=CARTESIAN_POINT('',(0.2,5.9,-14.4));
#698=DIRECTION('',(-0.,1.,-0.));
#699=DIRECTION('',(0.,0.,-1.));
#700=AXIS2_PLACEMENT_3D('',#697,#698,#699);
#701=CIRCLE('',#700,5.6);
#702=EDGE_CURVE('',#518,#696,#701,.T.);
#703=ORIENTED_EDGE('',*,*,#702,.T.);
#704=CARTESIAN_POINT('',(-0.2,5.9,-20.));
#705=VERTEX_POINT('',#704);
#706=CARTESIAN_POINT('',(0.2,5.9,-20.));
#707=DIRECTION('',(-1.,0.,0.));
#708=VECTOR('',#707,0.4);
#709=LINE('',#706,#708);
#710=EDGE_CURVE('',#696,#705,#709,.T.);
#711=ORIENTED_EDGE('',*,*,#710,.T.);
#712=CARTESIAN_POINT('',(-0.2,5.9,-14.4));
#713=DIRECTION('',(-0.,1.,-0.));
#714=DIRECTION('',(0.,0.,-1.));
#715=AXIS2_PLACEMENT_3D('',#712,#713,#714);
#716=CIRCLE('',#715,5.6);
#717=EDGE_CURVE('',#705,#349,#716,.T.);
#718=ORIENTED_EDGE('',*,*,#717,.T.);
#719=ORIENTED_EDGE('',*,*,#354,.T.);
#720=CARTESIAN_POINT('',(-5.8,5.9,23.));
#721=DIRECTION('',(-1.,0.,0.));
#722=VECTOR('',#721,11.7);
#723=LINE('',#720,#722);
#724=EDGE_CURVE('',#341,#437,#723,.T.);
#725=ORIENTED_EDGE('',*,*,#724,.T.);
#726=ORIENTED_EDGE('',*,*,#466,.F.);
#727=CARTESIAN_POINT('',(17.5,5.9,-21.));
#728=VERTEX_POINT('',#727);
#729=CARTESIAN_POINT('',(17.5,5.9,-21.));
#730=DIRECTION('',(-1.,0.,0.));
#731=VECTOR('',#730,35.);
#732=LINE('',#729,#731);
#733=EDGE_CURVE('',#728,#455,#732,.T.);
#734=ORIENTED_EDGE('',*,*,#733,.F.);
#735=CARTESIAN_POINT('',(17.5,5.9,23.));
#736=VERTEX_POINT('',#735);
#737=CARTESIAN_POINT('',(17.5,5.9,23.));
#738=DIRECTION('',(0.,0.,-1.));
#739=VECTOR('',#738,44.);
#740=LINE('',#737,#739);
#741=EDGE_CURVE('',#736,#728,#740,.T.);
#742=ORIENTED_EDGE('',*,*,#741,.F.);
#743=CARTESIAN_POINT('',(10.5,5.9,23.));
#744=VERTEX_POINT('',#743);
#745=CARTESIAN_POINT('',(17.5,5.9,23.));
#746=DIRECTION('',(-1.,0.,0.));
#747=VECTOR('',#746,7.);
#748=LINE('',#745,#747);
#749=EDGE_CURVE('',#736,#744,#748,.T.);
#750=ORIENTED_EDGE('',*,*,#749,.T.);
#751=CARTESIAN_POINT('',(10.5,5.9,1.484320202));
#752=DIRECTION('',(0.,0.,1.));
#753=VECTOR('',#752,21.515679798);
#754=LINE('',#751,#753);
#755=EDGE_CURVE('',#677,#744,#754,.T.);
#756=ORIENTED_EDGE('',*,*,#755,.F.);
#757=EDGE_LOOP('',(#686,#693,#694,#703,#711,#718,#719,#725,#726,#734,#742,#750,#756));
#758=FACE_BOUND('',#757,.T.);
#759=ADVANCED_FACE('',(#675,#758),#655,.T.);
#760=CARTESIAN_POINT('',(0.,8.9,-20.));
#761=DIRECTION('',(0.,0.,1.));
#762=DIRECTION('',(1.,0.,0.));
#763=AXIS2_PLACEMENT_3D('',#760,#761,#762);
#764=PLANE('',#763);
#765=ORIENTED_EDGE('',*,*,#152,.T.);
#766=CARTESIAN_POINT('',(-0.2,8.9,-20.));
#767=DIRECTION('',(0.,-1.,0.));
#768=VECTOR('',#767,3.);
#769=LINE('',#766,#768);
#770=EDGE_CURVE('',#138,#705,#769,.T.);
#771=ORIENTED_EDGE('',*,*,#770,.T.);
#772=ORIENTED_EDGE('',*,*,#710,.F.);
#773=CARTESIAN_POINT('',(0.2,5.9,-20.));
#774=DIRECTION('',(-0.,1.,-0.));
#775=VECTOR('',#774,3.);
#776=LINE('',#773,#775);
#777=EDGE_CURVE('',#696,#147,#776,.T.);
#778=ORIENTED_EDGE('',*,*,#777,.T.);
#779=EDGE_LOOP('',(#765,#771,#772,#778));
#780=FACE_BOUND('',#779,.T.);
#781=ADVANCED_FACE('',(#780),#764,.T.);
#782=CARTESIAN_POINT('',(17.5,8.9,-25.));
#783=DIRECTION('',(-1.,0.,0.));
#784=DIRECTION('',(0.,0.,1.));
#785=AXIS2_PLACEMENT_3D('',#782,#783,#784);
#786=PLANE('',#785);
#787=CARTESIAN_POINT('',(17.5,5.9,23.));
#788=DIRECTION('',(0.,-1.,0.));
#789=VECTOR('',#788,3.1);
#790=LINE('',#787,#789);
#791=EDGE_CURVE('',#736,#595,#790,.T.);
#792=ORIENTED_EDGE('',*,*,#791,.F.);
#793=ORIENTED_EDGE('',*,*,#741,.T.);
#794=CARTESIAN_POINT('',(17.5,5.9,-21.));
#795=DIRECTION('',(0.,-1.,0.));
#796=VECTOR('',#795,3.1);
#797=LINE('',#794,#796);
#798=EDGE_CURVE('',#728,#603,#797,.T.);
#799=ORIENTED_EDGE('',*,*,#798,.T.);
#800=ORIENTED_EDGE('',*,*,#608,.F.);
#801=EDGE_LOOP('',(#792,#793,#799,#800));
#802=FACE_BOUND('',#801,.T.);
#803=ORIENTED_EDGE('',*,*,#211,.F.);
#804=CARTESIAN_POINT('',(17.5,-0.2,26.));
#805=VERTEX_POINT('',#804);
#806=CARTESIAN_POINT('',(17.5,8.9,26.));
#807=DIRECTION('',(0.,-1.,0.));
#808=VECTOR('',#807,9.1);
#809=LINE('',#806,#808);
#810=EDGE_CURVE('',#198,#805,#809,.T.);
#811=ORIENTED_EDGE('',*,*,#810,.T.);
#812=CARTESIAN_POINT('',(17.5,-0.2,-26.));
#813=VERTEX_POINT('',#812);
#814=CARTESIAN_POINT('',(17.5,-0.2,26.));
#815=DIRECTION('',(0.,0.,-1.));
#816=VECTOR('',#815,52.);
#817=LINE('',#814,#816);
#818=EDGE_CURVE('',#805,#813,#817,.T.);
#819=ORIENTED_EDGE('',*,*,#818,.T.);
#820=CARTESIAN_POINT('',(17.5,8.9,-26.));
#821=DIRECTION('',(0.,-1.,0.));
#822=VECTOR('',#821,9.1);
#823=LINE('',#820,#822);
#824=EDGE_CURVE('',#206,#813,#823,.T.);
#825=ORIENTED_EDGE('',*,*,#824,.F.);
#826=EDGE_LOOP('',(#803,#811,#819,#825));
#827=FACE_BOUND('',#826,.T.);
#828=ADVANCED_FACE('',(#802,#827),#786,.F.);
#829=CARTESIAN_POINT('',(0.,2.,-20.));
#830=DIRECTION('',(0.,0.,1.));
#831=DIRECTION('',(1.,0.,0.));
#832=AXIS2_PLACEMENT_3D('',#829,#830,#831);
#833=PLANE('',#832);
#834=ORIENTED_EDGE('',*,*,#639,.T.);
#835=CARTESIAN_POINT('',(-0.2,-0.2,-20.));
#836=VERTEX_POINT('',#835);
#837=CARTESIAN_POINT('',(-0.2,2.8,-20.));
#838=DIRECTION('',(0.,-1.,0.));
#839=VECTOR('',#838,3.);
#840=LINE('',#837,#839);
#841=EDGE_CURVE('',#625,#836,#840,.T.);
#842=ORIENTED_EDGE('',*,*,#841,.T.);
#843=CARTESIAN_POINT('',(0.4,-0.2,-20.));
#844=VERTEX_POINT('',#843);
#845=CARTESIAN_POINT('',(0.4,-0.2,-20.));
#846=DIRECTION('',(-1.,0.,0.));
#847=VECTOR('',#846,0.6);
#848=LINE('',#845,#847);
#849=EDGE_CURVE('',#844,#836,#848,.T.);
#850=ORIENTED_EDGE('',*,*,#849,.F.);
#851=CARTESIAN_POINT('',(0.4,-0.2,-20.));
#852=DIRECTION('',(-0.,1.,-0.));
#853=VECTOR('',#852,3.);
#854=LINE('',#851,#853);
#855=EDGE_CURVE('',#844,#634,#854,.T.);
#856=ORIENTED_EDGE('',*,*,#855,.T.);
#857=EDGE_LOOP('',(#834,#842,#850,#856));
#858=FACE_BOUND('',#857,.T.);
#859=ADVANCED_FACE('',(#858),#833,.T.);
#860=CARTESIAN_POINT('',(0.,-0.2,0.));
#861=DIRECTION('',(0.,-1.,0.));
#862=DIRECTION('',(1.,0.,0.));
#863=AXIS2_PLACEMENT_3D('',#860,#861,#862);
#864=PLANE('',#863);
#865=ORIENTED_EDGE('',*,*,#394,.F.);
#866=CARTESIAN_POINT('',(-14.501984799,-0.2,-18.840462771));
#867=VERTEX_POINT('',#866);
#868=CARTESIAN_POINT('',(-12.5,-0.2,-14.258753826));
#869=DIRECTION('',(0.,-1.,0.));
#870=DIRECTION('',(0.,0.,-1.));
#871=AXIS2_PLACEMENT_3D('',#868,#869,#870);
#872=CIRCLE('',#871,5.);
#873=EDGE_CURVE('',#381,#867,#872,.T.);
#874=ORIENTED_EDGE('',*,*,#873,.T.);
#875=CARTESIAN_POINT('',(-9.,-0.2,-24.));
#876=VERTEX_POINT('',#875);
#877=CARTESIAN_POINT('',(-19.012946381,-0.2,-29.16417404));
#878=DIRECTION('',(0.,-1.,-0.));
#879=DIRECTION('',(0.888758022,-0.,0.458376678));
#880=AXIS2_PLACEMENT_3D('',#877,#878,#879);
#881=CIRCLE('',#880,11.266223357);
#882=EDGE_CURVE('',#876,#867,#881,.T.);
#883=ORIENTED_EDGE('',*,*,#882,.F.);
#884=CARTESIAN_POINT('',(-7.5,-0.2,-26.));
#885=VERTEX_POINT('',#884);
#886=CARTESIAN_POINT('',(-7.5,-0.2,-26.));
#887=DIRECTION('',(-0.6,0.,0.8));
#888=VECTOR('',#887,2.5);
#889=LINE('',#886,#888);
#890=EDGE_CURVE('',#885,#876,#889,.T.);
#891=ORIENTED_EDGE('',*,*,#890,.F.);
#892=CARTESIAN_POINT('',(17.5,-0.2,-26.));
#893=DIRECTION('',(-1.,0.,0.));
#894=VECTOR('',#893,25.);
#895=LINE('',#892,#894);
#896=EDGE_CURVE('',#813,#885,#895,.T.);
#897=ORIENTED_EDGE('',*,*,#896,.F.);
#898=ORIENTED_EDGE('',*,*,#818,.F.);
#899=CARTESIAN_POINT('',(10.5,-0.2,26.));
#900=VERTEX_POINT('',#899);
#901=CARTESIAN_POINT('',(10.5,-0.2,26.));
#902=DIRECTION('',(1.,0.,-0.));
#903=VECTOR('',#902,7.);
#904=LINE('',#901,#903);
#905=EDGE_CURVE('',#900,#805,#904,.T.);
#906=ORIENTED_EDGE('',*,*,#905,.F.);
#907=CARTESIAN_POINT('',(10.5,-0.2,1.484320202));
#908=VERTEX_POINT('',#907);
#909=CARTESIAN_POINT('',(10.5,-0.2,1.484320202));
#910=DIRECTION('',(0.,0.,1.));
#911=VECTOR('',#910,24.515679798);
#912=LINE('',#909,#911);
#913=EDGE_CURVE('',#908,#900,#912,.T.);
#914=ORIENTED_EDGE('',*,*,#913,.F.);
#915=CARTESIAN_POINT('',(9.461538462,-0.2,-0.785562365));
#916=VERTEX_POINT('',#915);
#917=CARTESIAN_POINT('',(7.5,-0.2,1.484320202));
#918=DIRECTION('',(-0.,1.,-0.));
#919=DIRECTION('',(0.,0.,-1.));
#920=AXIS2_PLACEMENT_3D('',#917,#918,#919);
#921=CIRCLE('',#920,3.);
#922=EDGE_CURVE('',#908,#916,#921,.T.);
#923=ORIENTED_EDGE('',*,*,#922,.T.);
#924=CARTESIAN_POINT('',(16.,-0.2,-8.351837585));
#925=DIRECTION('',(0.,-1.,0.));
#926=DIRECTION('',(0.,0.,-1.));
#927=AXIS2_PLACEMENT_3D('',#924,#925,#926);
#928=CIRCLE('',#927,10.);
#929=EDGE_CURVE('',#916,#495,#928,.T.);
#930=ORIENTED_EDGE('',*,*,#929,.T.);
#931=ORIENTED_EDGE('',*,*,#500,.T.);
#932=CARTESIAN_POINT('',(0.4,-0.2,-14.4));
#933=DIRECTION('',(-0.,1.,-0.));
#934=DIRECTION('',(0.,0.,-1.));
#935=AXIS2_PLACEMENT_3D('',#932,#933,#934);
#936=CIRCLE('',#935,5.6);
#937=EDGE_CURVE('',#487,#844,#936,.T.);
#938=ORIENTED_EDGE('',*,*,#937,.T.);
#939=ORIENTED_EDGE('',*,*,#849,.T.);
#940=CARTESIAN_POINT('',(-0.2,-0.2,-14.4));
#941=DIRECTION('',(-0.,1.,-0.));
#942=DIRECTION('',(0.,0.,-1.));
#943=AXIS2_PLACEMENT_3D('',#940,#941,#942);
#944=CIRCLE('',#943,5.6);
#945=EDGE_CURVE('',#836,#317,#944,.T.);
#946=ORIENTED_EDGE('',*,*,#945,.T.);
#947=ORIENTED_EDGE('',*,*,#322,.T.);
#948=CARTESIAN_POINT('',(-17.5,-0.2,26.));
#949=DIRECTION('',(1.,0.,-0.));
#950=VECTOR('',#949,11.7);
#951=LINE('',#948,#950);
#952=EDGE_CURVE('',#389,#309,#951,.T.);
#953=ORIENTED_EDGE('',*,*,#952,.F.);
#954=EDGE_LOOP('',(#865,#874,#883,#891,#897,#898,#906,#914,#923,#930,#931,#938,#939,#946,#947,#953));
#955=FACE_BOUND('',#954,.T.);
#956=CARTESIAN_POINT('',(-9.355339409,-0.2,13.911774923));
#957=VERTEX_POINT('',#956);
#958=CARTESIAN_POINT('',(-9.355339409,-0.2,10.911774923));
#959=VERTEX_POINT('',#958);
#960=CARTESIAN_POINT('',(-9.355339409,-0.2,12.411774923));
#961=DIRECTION('',(0.,-1.,0.));
#962=DIRECTION('',(0.,0.,-1.));
#963=AXIS2_PLACEMENT_3D('',#960,#961,#962);
#964=CIRCLE('',#963,1.5);
#965=EDGE_CURVE('',#957,#959,#964,.T.);
#966=ORIENTED_EDGE('',*,*,#965,.F.);
#967=CARTESIAN_POINT('',(-9.355339409,-0.2,12.411774923));
#968=DIRECTION('',(0.,-1.,0.));
#969=DIRECTION('',(0.,0.,-1.));
#970=AXIS2_PLACEMENT_3D('',#967,#968,#969);
#971=CIRCLE('',#970,1.5);
#972=EDGE_CURVE('',#959,#957,#971,.T.);
#973=ORIENTED_EDGE('',*,*,#972,.F.);
#974=EDGE_LOOP('',(#966,#973));
#975=FACE_BOUND('',#974,.T.);
#976=ADVANCED_FACE('',(#955,#975),#864,.T.);
#977=CARTESIAN_POINT('',(0.,2.,-26.));
#978=DIRECTION('',(0.,0.,1.));
#979=DIRECTION('',(1.,0.,0.));
#980=AXIS2_PLACEMENT_3D('',#977,#978,#979);
#981=PLANE('',#980);
#982=ORIENTED_EDGE('',*,*,#896,.T.);
#983=CARTESIAN_POINT('',(-7.5,-0.2,-26.));
#984=DIRECTION('',(0.,1.,0.));
#985=VECTOR('',#984,9.1);
#986=LINE('',#983,#985);
#987=EDGE_CURVE('',#885,#214,#986,.T.);
#988=ORIENTED_EDGE('',*,*,#987,.T.);
#989=ORIENTED_EDGE('',*,*,#219,.F.);
#990=ORIENTED_EDGE('',*,*,#824,.T.);
#991=EDGE_LOOP('',(#982,#988,#989,#990));
#992=FACE_BOUND('',#991,.T.);
#993=ADVANCED_FACE('',(#992),#981,.F.);
#994=CARTESIAN_POINT('',(0.,12.,-21.));
#995=DIRECTION('',(0.,0.,1.));
#996=DIRECTION('',(1.,0.,0.));
#997=AXIS2_PLACEMENT_3D('',#994,#995,#996);
#998=PLANE('',#997);
#999=ORIENTED_EDGE('',*,*,#798,.F.);
#1000=ORIENTED_EDGE('',*,*,#733,.T.);
#1001=ORIENTED_EDGE('',*,*,#460,.T.);
#1002=ORIENTED_EDGE('',*,*,#614,.F.);
#1003=EDGE_LOOP('',(#999,#1000,#1001,#1002));
#1004=FACE_BOUND('',#1003,.T.);
#1005=ADVANCED_FACE('',(#1004),#998,.T.);
#1006=CARTESIAN_POINT('',(10.5,-31.1,10.));
#1007=DIRECTION('',(1.,0.,0.));
#1008=DIRECTION('',(0.,0.,-1.));
#1009=AXIS2_PLACEMENT_3D('',#1006,#1007,#1008);
#1010=PLANE('',#1009);
#1011=ORIENTED_EDGE('',*,*,#913,.T.);
#1012=CARTESIAN_POINT('',(10.5,-0.2,26.));
#1013=DIRECTION('',(0.,1.,0.));
#1014=VECTOR('',#1013,9.1);
#1015=LINE('',#1012,#1014);
#1016=EDGE_CURVE('',#900,#190,#1015,.T.);
#1017=ORIENTED_EDGE('',*,*,#1016,.T.);
#1018=ORIENTED_EDGE('',*,*,#195,.T.);
#1019=CARTESIAN_POINT('',(10.5,8.9,1.484320202));
#1020=DIRECTION('',(0.,-1.,0.));
#1021=VECTOR('',#1020,3.);
#1022=LINE('',#1019,#1021);
#1023=EDGE_CURVE('',#181,#677,#1022,.T.);
#1024=ORIENTED_EDGE('',*,*,#1023,.T.);
#1025=ORIENTED_EDGE('',*,*,#755,.T.);
#1026=CARTESIAN_POINT('',(10.5,2.8,23.));
#1027=DIRECTION('',(0.,1.,0.));
#1028=VECTOR('',#1027,3.1);
#1029=LINE('',#1026,#1028);
#1030=EDGE_CURVE('',#587,#744,#1029,.T.);
#1031=ORIENTED_EDGE('',*,*,#1030,.F.);
#1032=ORIENTED_EDGE('',*,*,#592,.F.);
#1033=CARTESIAN_POINT('',(10.5,2.8,1.484320202));
#1034=DIRECTION('',(0.,-1.,0.));
#1035=VECTOR('',#1034,3.);
#1036=LINE('',#1033,#1035);
#1037=EDGE_CURVE('',#578,#908,#1036,.T.);
#1038=ORIENTED_EDGE('',*,*,#1037,.T.);
#1039=EDGE_LOOP('',(#1011,#1017,#1018,#1024,#1025,#1031,#1032,#1038));
#1040=FACE_BOUND('',#1039,.T.);
#1041=ADVANCED_FACE('',(#1040),#1010,.F.);
#1042=CARTESIAN_POINT('',(16.,-31.1,-8.351837585));
#1043=DIRECTION('',(0.,-1.,0.));
#1044=DIRECTION('',(0.,0.,-1.));
#1045=AXIS2_PLACEMENT_3D('',#1042,#1043,#1044);
#1046=CYLINDRICAL_SURFACE('',#1045,10.);
#1047=ORIENTED_EDGE('',*,*,#929,.F.);
#1048=CARTESIAN_POINT('',(9.461538462,-0.2,-0.785562365));
#1049=DIRECTION('',(-0.,1.,-0.));
#1050=VECTOR('',#1049,3.);
#1051=LINE('',#1048,#1050);
#1052=EDGE_CURVE('',#916,#569,#1051,.T.);
#1053=ORIENTED_EDGE('',*,*,#1052,.T.);
#1054=ORIENTED_EDGE('',*,*,#575,.F.);
#1055=ORIENTED_EDGE('',*,*,#506,.F.);
#1056=EDGE_LOOP('',(#1047,#1053,#1054,#1055));
#1057=FACE_BOUND('',#1056,.T.);
#1058=ADVANCED_FACE('',(#1057),#1046,.T.);
#1059=CARTESIAN_POINT('',(15.8,-31.1,-8.521178287));
#1060=DIRECTION('',(0.,-1.,0.));
#1061=DIRECTION('',(0.,0.,-1.));
#1062=AXIS2_PLACEMENT_3D('',#1059,#1060,#1061);
#1063=CYLINDRICAL_SURFACE('',#1062,10.);
#1064=ORIENTED_EDGE('',*,*,#692,.F.);
#1065=CARTESIAN_POINT('',(9.415384615,5.9,-0.824640988));
#1066=DIRECTION('',(-0.,1.,-0.));
#1067=VECTOR('',#1066,3.);
#1068=LINE('',#1065,#1067);
#1069=EDGE_CURVE('',#679,#172,#1068,.T.);
#1070=ORIENTED_EDGE('',*,*,#1069,.T.);
#1071=ORIENTED_EDGE('',*,*,#178,.F.);
#1072=ORIENTED_EDGE('',*,*,#537,.F.);
#1073=EDGE_LOOP('',(#1064,#1070,#1071,#1072));
#1074=FACE_BOUND('',#1073,.T.);
#1075=ADVANCED_FACE('',(#1074),#1063,.T.);
#1076=CARTESIAN_POINT('',(7.5,-31.1,1.484320202));
#1077=DIRECTION('',(0.,-1.,0.));
#1078=DIRECTION('',(0.,0.,-1.));
#1079=AXIS2_PLACEMENT_3D('',#1076,#1077,#1078);
#1080=CYLINDRICAL_SURFACE('',#1079,3.);
#1081=ORIENTED_EDGE('',*,*,#685,.F.);
#1082=ORIENTED_EDGE('',*,*,#1023,.F.);
#1083=ORIENTED_EDGE('',*,*,#187,.F.);
#1084=ORIENTED_EDGE('',*,*,#1069,.F.);
#1085=EDGE_LOOP('',(#1081,#1082,#1083,#1084));
#1086=FACE_BOUND('',#1085,.T.);
#1087=ADVANCED_FACE('',(#1086),#1080,.F.);
#1088=CARTESIAN_POINT('',(7.5,-31.1,1.484320202));
#1089=DIRECTION('',(0.,-1.,0.));
#1090=DIRECTION('',(0.,0.,-1.));
#1091=AXIS2_PLACEMENT_3D('',#1088,#1089,#1090);
#1092=CYLINDRICAL_SURFACE('',#1091,3.);
#1093=ORIENTED_EDGE('',*,*,#922,.F.);
#1094=ORIENTED_EDGE('',*,*,#1037,.F.);
#1095=ORIENTED_EDGE('',*,*,#584,.F.);
#1096=ORIENTED_EDGE('',*,*,#1052,.F.);
#1097=EDGE_LOOP('',(#1093,#1094,#1095,#1096));
#1098=FACE_BOUND('',#1097,.T.);
#1099=ADVANCED_FACE('',(#1098),#1092,.F.);
#1100=CARTESIAN_POINT('',(-0.2,2.,-14.4));
#1101=DIRECTION('',(0.,1.,0.));
#1102=DIRECTION('',(0.,-0.,1.));
#1103=AXIS2_PLACEMENT_3D('',#1100,#1101,#1102);
#1104=CYLINDRICAL_SURFACE('',#1103,5.6);
#1105=ORIENTED_EDGE('',*,*,#631,.F.);
#1106=ORIENTED_EDGE('',*,*,#330,.F.);
#1107=ORIENTED_EDGE('',*,*,#945,.F.);
#1108=ORIENTED_EDGE('',*,*,#841,.F.);
#1109=EDGE_LOOP('',(#1105,#1106,#1107,#1108));
#1110=FACE_BOUND('',#1109,.T.);
#1111=ADVANCED_FACE('',(#1110),#1104,.F.);
#1112=CARTESIAN_POINT('',(0.4,8.9,-14.4));
#1113=DIRECTION('',(0.,1.,0.));
#1114=DIRECTION('',(0.,-0.,1.));
#1115=AXIS2_PLACEMENT_3D('',#1112,#1113,#1114);
#1116=CYLINDRICAL_SURFACE('',#1115,5.6);
#1117=ORIENTED_EDGE('',*,*,#646,.F.);
#1118=ORIENTED_EDGE('',*,*,#855,.F.);
#1119=ORIENTED_EDGE('',*,*,#937,.F.);
#1120=ORIENTED_EDGE('',*,*,#492,.F.);
#1121=EDGE_LOOP('',(#1117,#1118,#1119,#1120));
#1122=FACE_BOUND('',#1121,.T.);
#1123=ADVANCED_FACE('',(#1122),#1116,.F.);
#1124=CARTESIAN_POINT('',(-0.2,8.9,-14.4));
#1125=DIRECTION('',(0.,1.,0.));
#1126=DIRECTION('',(0.,-0.,1.));
#1127=AXIS2_PLACEMENT_3D('',#1124,#1125,#1126);
#1128=CYLINDRICAL_SURFACE('',#1127,5.6);
#1129=ORIENTED_EDGE('',*,*,#144,.F.);
#1130=ORIENTED_EDGE('',*,*,#360,.F.);
#1131=ORIENTED_EDGE('',*,*,#717,.F.);
#1132=ORIENTED_EDGE('',*,*,#770,.F.);
#1133=EDGE_LOOP('',(#1129,#1130,#1131,#1132));
#1134=FACE_BOUND('',#1133,.T.);
#1135=ADVANCED_FACE('',(#1134),#1128,.F.);
#1136=CARTESIAN_POINT('',(0.2,8.9,-14.4));
#1137=DIRECTION('',(0.,1.,0.));
#1138=DIRECTION('',(0.,-0.,1.));
#1139=AXIS2_PLACEMENT_3D('',#1136,#1137,#1138);
#1140=CYLINDRICAL_SURFACE('',#1139,5.6);
#1141=ORIENTED_EDGE('',*,*,#161,.F.);
#1142=ORIENTED_EDGE('',*,*,#777,.F.);
#1143=ORIENTED_EDGE('',*,*,#702,.F.);
#1144=ORIENTED_EDGE('',*,*,#523,.F.);
#1145=EDGE_LOOP('',(#1141,#1142,#1143,#1144));
#1146=FACE_BOUND('',#1145,.T.);
#1147=ADVANCED_FACE('',(#1146),#1140,.F.);
#1148=CARTESIAN_POINT('',(-4.5,7.,23.));
#1149=DIRECTION('',(0.,0.,1.));
#1150=DIRECTION('',(1.,0.,0.));
#1151=AXIS2_PLACEMENT_3D('',#1148,#1149,#1150);
#1152=PLANE('',#1151);
#1153=ORIENTED_EDGE('',*,*,#724,.F.);
#1154=ORIENTED_EDGE('',*,*,#346,.T.);
#1155=ORIENTED_EDGE('',*,*,#621,.T.);
#1156=ORIENTED_EDGE('',*,*,#444,.F.);
#1157=EDGE_LOOP('',(#1153,#1154,#1155,#1156));
#1158=FACE_BOUND('',#1157,.T.);
#1159=ADVANCED_FACE('',(#1158),#1152,.F.);
#1160=CARTESIAN_POINT('',(10.5,6.9,23.));
#1161=DIRECTION('',(0.,0.,1.));
#1162=DIRECTION('',(1.,0.,0.));
#1163=AXIS2_PLACEMENT_3D('',#1160,#1161,#1162);
#1164=PLANE('',#1163);
#1165=ORIENTED_EDGE('',*,*,#600,.T.);
#1166=ORIENTED_EDGE('',*,*,#1030,.T.);
#1167=ORIENTED_EDGE('',*,*,#749,.F.);
#1168=ORIENTED_EDGE('',*,*,#791,.T.);
#1169=EDGE_LOOP('',(#1165,#1166,#1167,#1168));
#1170=FACE_BOUND('',#1169,.T.);
#1171=ADVANCED_FACE('',(#1170),#1164,.F.);
#1172=CARTESIAN_POINT('',(10.5,8.9,26.));
#1173=DIRECTION('',(0.,0.,-1.));
#1174=DIRECTION('',(-1.,0.,0.));
#1175=AXIS2_PLACEMENT_3D('',#1172,#1173,#1174);
#1176=PLANE('',#1175);
#1177=ORIENTED_EDGE('',*,*,#1016,.F.);
#1178=ORIENTED_EDGE('',*,*,#905,.T.);
#1179=ORIENTED_EDGE('',*,*,#810,.F.);
#1180=ORIENTED_EDGE('',*,*,#203,.F.);
#1181=EDGE_LOOP('',(#1177,#1178,#1179,#1180));
#1182=FACE_BOUND('',#1181,.T.);
#1183=ADVANCED_FACE('',(#1182),#1176,.F.);
#1184=CARTESIAN_POINT('',(-10.5,8.9,26.));
#1185=DIRECTION('',(0.,0.,-1.));
#1186=DIRECTION('',(-1.,0.,0.));
#1187=AXIS2_PLACEMENT_3D('',#1184,#1185,#1186);
#1188=PLANE('',#1187);
#1189=ORIENTED_EDGE('',*,*,#400,.T.);
#1190=ORIENTED_EDGE('',*,*,#952,.T.);
#1191=ORIENTED_EDGE('',*,*,#314,.F.);
#1192=ORIENTED_EDGE('',*,*,#127,.F.);
#1193=EDGE_LOOP('',(#1189,#1190,#1191,#1192));
#1194=FACE_BOUND('',#1193,.T.);
#1195=ADVANCED_FACE('',(#1194),#1188,.F.);
#1196=CARTESIAN_POINT('',(-9.355339409,-12.2,12.411774923));
#1197=DIRECTION('',(0.,1.,0.));
#1198=DIRECTION('',(0.,-0.,1.));
#1199=AXIS2_PLACEMENT_3D('',#1196,#1197,#1198);
#1200=CYLINDRICAL_SURFACE('',#1199,1.5);
#1201=CARTESIAN_POINT('',(-9.355339409,2.8,13.911774923));
#1202=DIRECTION('',(-0.,-1.,-0.));
#1203=VECTOR('',#1202,3.);
#1204=LINE('',#1201,#1203);
#1205=EDGE_CURVE('',#550,#957,#1204,.T.);
#1206=ORIENTED_EDGE('',*,*,#1205,.F.);
#1207=ORIENTED_EDGE('',*,*,#556,.F.);
#1208=ORIENTED_EDGE('',*,*,#563,.F.);
#1209=ORIENTED_EDGE('',*,*,#1205,.T.);
#1210=ORIENTED_EDGE('',*,*,#965,.T.);
#1211=ORIENTED_EDGE('',*,*,#972,.T.);
#1212=EDGE_LOOP('',(#1206,#1207,#1208,#1209,#1210,#1211));
#1213=FACE_BOUND('',#1212,.T.);
#1214=ADVANCED_FACE('',(#1213),#1200,.F.);
#1215=CARTESIAN_POINT('',(-9.355339409,-12.2,12.411774923));
#1216=DIRECTION('',(0.,1.,0.));
#1217=DIRECTION('',(0.,-0.,1.));
#1218=AXIS2_PLACEMENT_3D('',#1215,#1216,#1217);
#1219=CYLINDRICAL_SURFACE('',#1218,1.5);
#1220=CARTESIAN_POINT('',(-9.355339409,8.9,13.911774923));
#1221=DIRECTION('',(-0.,-1.,-0.));
#1222=VECTOR('',#1221,3.);
#1223=LINE('',#1220,#1222);
#1224=EDGE_CURVE('',#76,#657,#1223,.T.);
#1225=ORIENTED_EDGE('',*,*,#1224,.F.);
#1226=ORIENTED_EDGE('',*,*,#82,.F.);
#1227=ORIENTED_EDGE('',*,*,#89,.F.);
#1228=ORIENTED_EDGE('',*,*,#1224,.T.);
#1229=ORIENTED_EDGE('',*,*,#665,.T.);
#1230=ORIENTED_EDGE('',*,*,#672,.T.);
#1231=EDGE_LOOP('',(#1225,#1226,#1227,#1228,#1229,#1230));
#1232=FACE_BOUND('',#1231,.T.);
#1233=ADVANCED_FACE('',(#1232),#1219,.F.);
#1234=CARTESIAN_POINT('',(-8.25,-14.8,-25.));
#1235=DIRECTION('',(0.8,0.,0.6));
#1236=DIRECTION('',(0.6,0.,-0.8));
#1237=AXIS2_PLACEMENT_3D('',#1234,#1235,#1236);
#1238=PLANE('',#1237);
#1239=ORIENTED_EDGE('',*,*,#890,.T.);
#1240=CARTESIAN_POINT('',(-9.,1.3,-24.));
#1241=VERTEX_POINT('',#1240);
#1242=CARTESIAN_POINT('',(-9.,-0.2,-24.));
#1243=DIRECTION('',(0.,1.,0.));
#1244=VECTOR('',#1243,1.5);
#1245=LINE('',#1242,#1244);
#1246=EDGE_CURVE('',#876,#1241,#1245,.T.);
#1247=ORIENTED_EDGE('',*,*,#1246,.T.);
#1248=CARTESIAN_POINT('',(-9.,7.4,-24.));
#1249=VERTEX_POINT('',#1248);
#1250=CARTESIAN_POINT('',(-9.,1.3,-24.));
#1251=DIRECTION('',(0.,1.,0.));
#1252=VECTOR('',#1251,6.1);
#1253=LINE('',#1250,#1252);
#1254=EDGE_CURVE('',#1241,#1249,#1253,.T.);
#1255=ORIENTED_EDGE('',*,*,#1254,.T.);
#1256=CARTESIAN_POINT('',(-9.,7.4,-24.));
#1257=DIRECTION('',(0.,1.,0.));
#1258=VECTOR('',#1257,1.5);
#1259=LINE('',#1256,#1258);
#1260=EDGE_CURVE('',#1249,#96,#1259,.T.);
#1261=ORIENTED_EDGE('',*,*,#1260,.T.);
#1262=ORIENTED_EDGE('',*,*,#225,.T.);
#1263=ORIENTED_EDGE('',*,*,#987,.F.);
#1264=EDGE_LOOP('',(#1239,#1247,#1255,#1261,#1262,#1263));
#1265=FACE_BOUND('',#1264,.T.);
#1266=ADVANCED_FACE('',(#1265),#1238,.F.);
#1267=CARTESIAN_POINT('',(-11.25,-14.8,-25.));
#1268=DIRECTION('',(-0.8,0.,-0.6));
#1269=DIRECTION('',(-0.6,0.,0.8));
#1270=AXIS2_PLACEMENT_3D('',#1267,#1268,#1269);
#1271=PLANE('',#1270);
#1272=ORIENTED_EDGE('',*,*,#40,.T.);
#1273=ORIENTED_EDGE('',*,*,#289,.T.);
#1274=ORIENTED_EDGE('',*,*,#269,.T.);
#1275=CARTESIAN_POINT('',(-12.,7.4,-24.));
#1276=VERTEX_POINT('',#1275);
#1277=CARTESIAN_POINT('',(-12.,7.4,-24.));
#1278=DIRECTION('',(0.,1.,0.));
#1279=VECTOR('',#1278,1.5);
#1280=LINE('',#1277,#1279);
#1281=EDGE_CURVE('',#1276,#255,#1280,.T.);
#1282=ORIENTED_EDGE('',*,*,#1281,.F.);
#1283=CARTESIAN_POINT('',(-12.,1.3,-24.));
#1284=VERTEX_POINT('',#1283);
#1285=CARTESIAN_POINT('',(-12.,1.3,-24.));
#1286=DIRECTION('',(0.,1.,0.));
#1287=VECTOR('',#1286,6.1);
#1288=LINE('',#1285,#1287);
#1289=EDGE_CURVE('',#1284,#1276,#1288,.T.);
#1290=ORIENTED_EDGE('',*,*,#1289,.F.);
#1291=CARTESIAN_POINT('',(-12.,-0.2,-24.));
#1292=DIRECTION('',(0.,1.,0.));
#1293=VECTOR('',#1292,1.5);
#1294=LINE('',#1291,#1293);
#1295=EDGE_CURVE('',#33,#1284,#1294,.T.);
#1296=ORIENTED_EDGE('',*,*,#1295,.F.);
#1297=EDGE_LOOP('',(#1272,#1273,#1274,#1282,#1290,#1296));
#1298=FACE_BOUND('',#1297,.T.);
#1299=ADVANCED_FACE('',(#1298),#1271,.F.);
#1300=CARTESIAN_POINT('',(-10.5,-14.8,-24.));
#1301=DIRECTION('',(0.,0.,1.));
#1302=DIRECTION('',(1.,0.,0.));
#1303=AXIS2_PLACEMENT_3D('',#1300,#1301,#1302);
#1304=PLANE('',#1303);
#1305=ORIENTED_EDGE('',*,*,#1254,.F.);
#1306=CARTESIAN_POINT('',(-9.,1.3,-24.));
#1307=DIRECTION('',(-1.,0.,0.));
#1308=VECTOR('',#1307,3.);
#1309=LINE('',#1306,#1308);
#1310=EDGE_CURVE('',#1241,#1284,#1309,.T.);
#1311=ORIENTED_EDGE('',*,*,#1310,.T.);
#1312=ORIENTED_EDGE('',*,*,#1289,.T.);
#1313=CARTESIAN_POINT('',(-12.,7.4,-24.));
#1314=DIRECTION('',(1.,0.,-0.));
#1315=VECTOR('',#1314,3.);
#1316=LINE('',#1313,#1315);
#1317=EDGE_CURVE('',#1276,#1249,#1316,.T.);
#1318=ORIENTED_EDGE('',*,*,#1317,.T.);
#1319=EDGE_LOOP('',(#1305,#1311,#1312,#1318));
#1320=FACE_BOUND('',#1319,.T.);
#1321=ADVANCED_FACE('',(#1320),#1304,.F.);
#1322=CARTESIAN_POINT('',(-16.670982127,7.4,-28.282700849));
#1323=DIRECTION('',(0.,1.,0.));
#1324=DIRECTION('',(0.,-0.,1.));
#1325=AXIS2_PLACEMENT_3D('',#1322,#1323,#1324);
#1326=CYLINDRICAL_SURFACE('',#1325,6.337160294);
#1327=CARTESIAN_POINT('',(-16.670982127,7.4,-21.945540555));
#1328=VERTEX_POINT('',#1327);
#1329=CARTESIAN_POINT('',(-16.670982127,8.9,-21.945540555));
#1330=DIRECTION('',(-0.,-1.,-0.));
#1331=VECTOR('',#1330,1.5);
#1332=LINE('',#1329,#1331);
#1333=EDGE_CURVE('',#246,#1328,#1332,.T.);
#1334=ORIENTED_EDGE('',*,*,#1333,.T.);
#1335=CARTESIAN_POINT('',(-16.670982127,7.4,-28.282700849));
#1336=DIRECTION('',(0.,1.,0.));
#1337=DIRECTION('',(-0.130818511,0.,0.991406333));
#1338=AXIS2_PLACEMENT_3D('',#1335,#1336,#1337);
#1339=CIRCLE('',#1338,6.337160294);
#1340=EDGE_CURVE('',#1328,#1276,#1339,.T.);
#1341=ORIENTED_EDGE('',*,*,#1340,.T.);
#1342=ORIENTED_EDGE('',*,*,#1281,.T.);
#1343=ORIENTED_EDGE('',*,*,#261,.F.);
#1344=EDGE_LOOP('',(#1334,#1341,#1342,#1343));
#1345=FACE_BOUND('',#1344,.T.);
#1346=ADVANCED_FACE('',(#1345),#1326,.T.);
#1347=CARTESIAN_POINT('',(-19.012946381,7.4,-29.16417404));
#1348=DIRECTION('',(0.,1.,0.));
#1349=DIRECTION('',(0.,-0.,1.));
#1350=AXIS2_PLACEMENT_3D('',#1347,#1348,#1349);
#1351=CYLINDRICAL_SURFACE('',#1350,11.266223357);
#1352=CARTESIAN_POINT('',(-14.501984799,7.4,-18.840462771));
#1353=VERTEX_POINT('',#1352);
#1354=CARTESIAN_POINT('',(-19.012946381,7.4,-29.16417404));
#1355=DIRECTION('',(-0.,1.,0.));
#1356=DIRECTION('',(0.134290466,0.,0.990942012));
#1357=AXIS2_PLACEMENT_3D('',#1354,#1355,#1356);
#1358=CIRCLE('',#1357,11.266223357);
#1359=EDGE_CURVE('',#1353,#1249,#1358,.T.);
#1360=ORIENTED_EDGE('',*,*,#1359,.F.);
#1361=CARTESIAN_POINT('',(-14.501984799,7.4,-18.840462771));
#1362=DIRECTION('',(0.,1.,0.));
#1363=VECTOR('',#1362,1.5);
#1364=LINE('',#1361,#1363);
#1365=EDGE_CURVE('',#1353,#94,#1364,.T.);
#1366=ORIENTED_EDGE('',*,*,#1365,.T.);
#1367=ORIENTED_EDGE('',*,*,#102,.T.);
#1368=ORIENTED_EDGE('',*,*,#1260,.F.);
#1369=EDGE_LOOP('',(#1360,#1366,#1367,#1368));
#1370=FACE_BOUND('',#1369,.T.);
#1371=ADVANCED_FACE('',(#1370),#1351,.F.);
#1372=CARTESIAN_POINT('',(0.,7.4,0.));
#1373=DIRECTION('',(0.,1.,0.));
#1374=DIRECTION('',(-1.,0.,0.));
#1375=AXIS2_PLACEMENT_3D('',#1372,#1373,#1374);
#1376=PLANE('',#1375);
#1377=ORIENTED_EDGE('',*,*,#1317,.F.);
#1378=ORIENTED_EDGE('',*,*,#1340,.F.);
#1379=CARTESIAN_POINT('',(-16.670982127,7.4,-28.282700849));
#1380=DIRECTION('',(0.,1.,0.));
#1381=DIRECTION('',(-0.130818511,0.,0.991406333));
#1382=AXIS2_PLACEMENT_3D('',#1379,#1380,#1381);
#1383=CIRCLE('',#1382,6.337160294);
#1384=EDGE_CURVE('',#412,#1328,#1383,.T.);
#1385=ORIENTED_EDGE('',*,*,#1384,.F.);
#1386=ORIENTED_EDGE('',*,*,#417,.T.);
#1387=CARTESIAN_POINT('',(-12.5,7.4,-14.258753826));
#1388=DIRECTION('',(-0.,-1.,-0.));
#1389=DIRECTION('',(0.,-0.,1.));
#1390=AXIS2_PLACEMENT_3D('',#1387,#1388,#1389);
#1391=CIRCLE('',#1390,5.);
#1392=EDGE_CURVE('',#404,#1353,#1391,.T.);
#1393=ORIENTED_EDGE('',*,*,#1392,.T.);
#1394=ORIENTED_EDGE('',*,*,#1359,.T.);
#1395=EDGE_LOOP('',(#1377,#1378,#1385,#1386,#1393,#1394));
#1396=FACE_BOUND('',#1395,.T.);
#1397=ADVANCED_FACE('',(#1396),#1376,.T.);
#1398=CARTESIAN_POINT('',(-19.012946381,1.3,-29.16417404));
#1399=DIRECTION('',(0.,-1.,-0.));
#1400=DIRECTION('',(0.,0.,-1.));
#1401=AXIS2_PLACEMENT_3D('',#1398,#1399,#1400);
#1402=CYLINDRICAL_SURFACE('',#1401,11.266223357);
#1403=ORIENTED_EDGE('',*,*,#882,.T.);
#1404=CARTESIAN_POINT('',(-14.501984799,1.3,-18.840462771));
#1405=VERTEX_POINT('',#1404);
#1406=CARTESIAN_POINT('',(-14.501984799,-0.2,-18.840462771));
#1407=DIRECTION('',(-0.,1.,0.));
#1408=VECTOR('',#1407,1.5);
#1409=LINE('',#1406,#1408);
#1410=EDGE_CURVE('',#867,#1405,#1409,.T.);
#1411=ORIENTED_EDGE('',*,*,#1410,.T.);
#1412=CARTESIAN_POINT('',(-19.012946381,1.3,-29.16417404));
#1413=DIRECTION('',(0.,-1.,-0.));
#1414=DIRECTION('',(0.888758022,-0.,0.458376678));
#1415=AXIS2_PLACEMENT_3D('',#1412,#1413,#1414);
#1416=CIRCLE('',#1415,11.266223357);
#1417=EDGE_CURVE('',#1241,#1405,#1416,.T.);
#1418=ORIENTED_EDGE('',*,*,#1417,.F.);
#1419=ORIENTED_EDGE('',*,*,#1246,.F.);
#1420=EDGE_LOOP('',(#1403,#1411,#1418,#1419));
#1421=FACE_BOUND('',#1420,.T.);
#1422=ADVANCED_FACE('',(#1421),#1402,.F.);
#1423=CARTESIAN_POINT('',(-16.670982127,1.3,-28.282700849));
#1424=DIRECTION('',(0.,-1.,-0.));
#1425=DIRECTION('',(0.,0.,-1.));
#1426=AXIS2_PLACEMENT_3D('',#1423,#1424,#1425);
#1427=CYLINDRICAL_SURFACE('',#1426,6.337160294);
#1428=ORIENTED_EDGE('',*,*,#49,.F.);
#1429=ORIENTED_EDGE('',*,*,#1295,.T.);
#1430=CARTESIAN_POINT('',(-16.670982127,1.3,-28.282700849));
#1431=DIRECTION('',(-0.,-1.,-0.));
#1432=DIRECTION('',(0.737078109,-0.,0.675807562));
#1433=AXIS2_PLACEMENT_3D('',#1430,#1431,#1432);
#1434=CIRCLE('',#1433,6.337160294);
#1435=EDGE_CURVE('',#1284,#371,#1434,.T.);
#1436=ORIENTED_EDGE('',*,*,#1435,.T.);
#1437=ORIENTED_EDGE('',*,*,#432,.T.);
#1438=EDGE_LOOP('',(#1428,#1429,#1436,#1437));
#1439=FACE_BOUND('',#1438,.T.);
#1440=ADVANCED_FACE('',(#1439),#1427,.T.);
#1441=CARTESIAN_POINT('',(0.,1.3,-0.));
#1442=DIRECTION('',(0.,-1.,-0.));
#1443=DIRECTION('',(-1.,0.,0.));
#1444=AXIS2_PLACEMENT_3D('',#1441,#1442,#1443);
#1445=PLANE('',#1444);
#1446=ORIENTED_EDGE('',*,*,#1310,.F.);
#1447=ORIENTED_EDGE('',*,*,#1417,.T.);
#1448=CARTESIAN_POINT('',(-12.5,1.3,-14.258753826));
#1449=DIRECTION('',(-0.,1.,0.));
#1450=DIRECTION('',(0.,0.,-1.));
#1451=AXIS2_PLACEMENT_3D('',#1448,#1449,#1450);
#1452=CIRCLE('',#1451,5.);
#1453=EDGE_CURVE('',#1405,#373,#1452,.T.);
#1454=ORIENTED_EDGE('',*,*,#1453,.T.);
#1455=ORIENTED_EDGE('',*,*,#378,.F.);
#1456=ORIENTED_EDGE('',*,*,#1435,.F.);
#1457=EDGE_LOOP('',(#1446,#1447,#1454,#1455,#1456));
#1458=FACE_BOUND('',#1457,.T.);
#1459=ADVANCED_FACE('',(#1458),#1445,.T.);
#1460=CARTESIAN_POINT('',(-12.5,7.4,-14.258753826));
#1461=DIRECTION('',(0.,1.,0.));
#1462=DIRECTION('',(0.,-0.,1.));
#1463=AXIS2_PLACEMENT_3D('',#1460,#1461,#1462);
#1464=CYLINDRICAL_SURFACE('',#1463,5.);
#1465=ORIENTED_EDGE('',*,*,#1392,.F.);
#1466=ORIENTED_EDGE('',*,*,#409,.F.);
#1467=ORIENTED_EDGE('',*,*,#111,.F.);
#1468=ORIENTED_EDGE('',*,*,#1365,.F.);
#1469=EDGE_LOOP('',(#1465,#1466,#1467,#1468));
#1470=FACE_BOUND('',#1469,.T.);
#1471=ADVANCED_FACE('',(#1470),#1464,.T.);
#1472=CARTESIAN_POINT('',(-12.5,1.3,-14.258753826));
#1473=DIRECTION('',(0.,-1.,-0.));
#1474=DIRECTION('',(0.,0.,-1.));
#1475=AXIS2_PLACEMENT_3D('',#1472,#1473,#1474);
#1476=CYLINDRICAL_SURFACE('',#1475,5.);
#1477=ORIENTED_EDGE('',*,*,#1453,.F.);
#1478=ORIENTED_EDGE('',*,*,#1410,.F.);
#1479=ORIENTED_EDGE('',*,*,#873,.F.);
#1480=ORIENTED_EDGE('',*,*,#386,.F.);
#1481=EDGE_LOOP('',(#1477,#1478,#1479,#1480));
#1482=FACE_BOUND('',#1481,.T.);
#1483=ADVANCED_FACE('',(#1482),#1476,.T.);
#1484=CARTESIAN_POINT('',(-16.670982127,7.4,-28.282700849));
#1485=DIRECTION('',(0.,1.,0.));
#1486=DIRECTION('',(0.,-0.,1.));
#1487=AXIS2_PLACEMENT_3D('',#1484,#1485,#1486);
#1488=CYLINDRICAL_SURFACE('',#1487,6.337160294);
#1489=ORIENTED_EDGE('',*,*,#1333,.F.);
#1490=ORIENTED_EDGE('',*,*,#252,.F.);
#1491=ORIENTED_EDGE('',*,*,#423,.F.);
#1492=ORIENTED_EDGE('',*,*,#1384,.T.);
#1493=EDGE_LOOP('',(#1489,#1490,#1491,#1492));
#1494=FACE_BOUND('',#1493,.T.);
#1495=ADVANCED_FACE('',(#1494),#1488,.T.);
#1496=CLOSED_SHELL('',(#67,#229,#279,#301,#364,#470,#510,#541,#650,#759,#781,#828,#859,#976,#993,#1005,#1041,#1058,#1075,#1087,#1099,#1111,#1123,#1135,#1147,#1159,
#1171,#1183,#1195,#1214,#1233,#1266,#1299,#1321,#1346,#1371,#1397,#1422,#1440,#1459,#1471,#1483,#1495));
#1497=MANIFOLD_SOLID_BREP('Body 01 (1)',#1496);
#1498=COLOUR_RGB('',0.627451003,0.627451003,0.643137276);
#1499=FILL_AREA_STYLE_COLOUR('',#1498);
#1500=FILL_AREA_STYLE('',(#1499));
#1501=SURFACE_STYLE_FILL_AREA(#1500);
#1502=SURFACE_SIDE_STYLE('',(#1501));
#1503=SURFACE_STYLE_USAGE(.BOTH.,#1502);
#1504=PRESENTATION_STYLE_ASSIGNMENT((#1503));
#26=STYLED_ITEM('',(#1504),#1497);
#16=SHAPE_REPRESENTATION('root',(#15),#10);
#17=ADVANCED_BREP_SHAPE_REPRESENTATION('root',(#1497),#10);
#1512=SHAPE_REPRESENTATION_RELATIONSHIP('','',#16,#17);
#1513=CARTESIAN_POINT('',(0.,0.,0.));
#1514=DIRECTION('',(0.,0.,1.));
#1515=DIRECTION('',(1.,0.,0.));
#1516=AXIS2_PLACEMENT_3D('',#1513,#1514,#1515);
#1518=MAPPED_ITEM('',#1517,#1516);
#1517=REPRESENTATION_MAP(#1516,#16);
#1519=APPLICATION_CONTEXT('Managed model based 3d engineering');
#1520=APPLICATION_PROTOCOL_DEFINITION('international standard','ap242_managed_model_based_3d_engineering',2014,#1519);
#1521=PRODUCT_CONTEXT('',#1519,'mechanical');
#1522=PRODUCT_DEFINITION_CONTEXT('part definition',#1519,'design');
#24=PRODUCT('root','root','',(#1521));
#1523=PRODUCT_RELATED_PRODUCT_CATEGORY('part','',(#24));
#1524=PRODUCT_DEFINITION_FORMATION_WITH_SPECIFIED_SOURCE('','',#24,.NOT_KNOWN.);
#25=PRODUCT_DEFINITION('design','',#1524,#1522);
#23=PRODUCT_DEFINITION_SHAPE('','',#25);
#1525=SHAPE_DEFINITION_REPRESENTATION(#23,#16);
#11=DRAUGHTING_MODEL('',(#1518),#10);
#1526=DESCRIPTIVE_REPRESENTATION_ITEM('KEY','C:\\Users\\TranHuyBao\\AppData\\Local\\Packages\\Shapr3D.Shapr3D_dvv5p1vgwv6mp\\TempState\\44669a19-8bbf-449d-81db-16efce8b4d2a.tmp');
#1527=PROPERTY_DEFINITION('KEY','',#25);
#1528=REPRESENTATION('',(#1526),#10);
#1529=PROPERTY_DEFINITION_REPRESENTATION(#1527,#1528);
#1530=GENERAL_PROPERTY('','KEY','');
#1531=GENERAL_PROPERTY_ASSOCIATION('','',#1530,#1527);
#1=MECHANICAL_DESIGN_GEOMETRIC_PRESENTATION_REPRESENTATION('',(#26),#10);
ENDSEC;
END-ISO-10303-21;
