ISO-10303-21;
HEADER;

/* File generated by Shapr3D Version 26.142.11496.0 */

FILE_DESCRIPTION(('HOOPS Exchange Step'),'2;1');

FILE_NAME('C:\\Users\\TranHuyBao\\AppData\\Local\\Packages\\Shapr3D.Shapr3D_dvv5p1vgwv6mp\\TempState\\export\\temp_export',
'2026-08-15T18:22:54+07:00',
('TR\X2\1EA6\X0\N HUY B\X2\1EA2\X0\O'),
('Shapr3D Limited'),
'HOOPS Exchange 2026.3',
'Shapr3D',
'Authorized');

FILE_SCHEMA( ('AP242_MANAGED_MODEL_BASED_3D_ENGINEERING_MIM_LF {1 0 10303 442 1 1 4}') );

ENDSEC;

DATA;
#3=(NAMED_UNIT(*)PLANE_ANGLE_UNIT()SI_UNIT($,.RADIAN.));
#4=PLANE_ANGLE_MEASURE_WITH_UNIT(PLANE_ANGLE_MEASURE(0.0174532925),#3);
#5=(CONVERSION_BASED_UNIT('DEGREE',#4)NAMED_UNIT(#6)PLANE_ANGLE_UNIT());
#6=DIMENSIONAL_EXPONENTS(0.,0.,0.,0.,0.,0.,0.);
#7=(NAMED_UNIT(*)SI_UNIT($,.STERADIAN.)SOLID_ANGLE_UNIT());
#8=(LENGTH_UNIT()NAMED_UNIT(*)SI_UNIT(.MILLI.,.METRE.));
#9=UNCERTAINTY_MEASURE_WITH_UNIT(LENGTH_MEASURE(1.000000E-05),#8,'DISTANCE_ACCURACY_VALUE','Maximum Tolerance applied to model');
#10=(GEOMETRIC_REPRESENTATION_CONTEXT(3)GLOBAL_UNCERTAINTY_ASSIGNED_CONTEXT((#9))GLOBAL_UNIT_ASSIGNED_CONTEXT((#8,#5,#7))REPRESENTATION_CONTEXT('','root'));
#12=CARTESIAN_POINT('',(0.,0.,0.));
#13=DIRECTION('',(0.,0.,1.));
#14=DIRECTION('',(1.,0.,0.));
#15=AXIS2_PLACEMENT_3D('',#12,#13,#14);
#27=CARTESIAN_POINT('',(57.1,5.7,0.));
#28=DIRECTION('',(0.,1.,0.));
#29=DIRECTION('',(-1.,0.,0.));
#30=AXIS2_PLACEMENT_3D('',#27,#28,#29);
#31=PLANE('',#30);
#32=CARTESIAN_POINT('',(47.744660591,5.7,13.911774923));
#33=VERTEX_POINT('',#32);
#34=CARTESIAN_POINT('',(47.744660591,5.7,12.411774923));
#35=DIRECTION('',(0.,1.,0.));
#36=DIRECTION('',(0.,-0.,1.));
#37=AXIS2_PLACEMENT_3D('',#34,#35,#36);
#38=CIRCLE('',#37,1.5);
#39=EDGE_CURVE('',#33,#33,#38,.T.);
#40=ORIENTED_EDGE('',*,*,#39,.F.);
#41=EDGE_LOOP('',(#40));
#42=FACE_BOUND('',#41,.T.);
#43=CARTESIAN_POINT('',(67.408194094,5.7,16.473179747));
#44=VERTEX_POINT('',#43);
#45=CARTESIAN_POINT('',(43.1,5.7,7.));
#46=VERTEX_POINT('',#45);
#47=CARTESIAN_POINT('',(57.1,5.7,7.));
#48=DIRECTION('',(-0.,-1.,-0.));
#49=DIRECTION('',(0.,-0.,1.));
#50=AXIS2_PLACEMENT_3D('',#47,#48,#49);
#51=CIRCLE('',#50,14.);
#52=EDGE_CURVE('',#44,#46,#51,.T.);
#53=ORIENTED_EDGE('',*,*,#52,.F.);
#54=CARTESIAN_POINT('',(57.973988017,5.7,-6.972692831));
#55=VERTEX_POINT('',#54);
#56=CARTESIAN_POINT('',(55.222756976,5.7,7.755369521));
#57=DIRECTION('',(0.,1.,0.));
#58=DIRECTION('',(0.,-0.,1.));
#59=AXIS2_PLACEMENT_3D('',#56,#57,#58);
#60=CIRCLE('',#59,14.982826599);
#61=EDGE_CURVE('',#44,#55,#60,.T.);
#62=ORIENTED_EDGE('',*,*,#61,.T.);
#63=CARTESIAN_POINT('',(56.239143125,5.7,-7.491918214));
#64=VERTEX_POINT('',#63);
#65=CARTESIAN_POINT('',(58.223698879,5.7,-10.964890783));
#66=DIRECTION('',(-0.,-1.,-0.));
#67=DIRECTION('',(0.,-0.,1.));
#68=AXIS2_PLACEMENT_3D('',#65,#66,#67);
#69=CIRCLE('',#68,4.);
#70=EDGE_CURVE('',#55,#64,#69,.T.);
#71=ORIENTED_EDGE('',*,*,#70,.T.);
#72=CARTESIAN_POINT('',(50.845778367,5.7,-10.573840933));
#73=VERTEX_POINT('',#72);
#74=CARTESIAN_POINT('',(56.239143125,5.7,-7.491918214));
#75=DIRECTION('',(-0.868243142,0.,-0.496138938));
#76=VECTOR('',#75,6.211813831);
#77=LINE('',#74,#76);
#78=EDGE_CURVE('',#64,#73,#77,.T.);
#79=ORIENTED_EDGE('',*,*,#78,.T.);
#80=CARTESIAN_POINT('',(49.357361552,5.7,-10.969111507));
#81=VERTEX_POINT('',#80);
#82=CARTESIAN_POINT('',(49.357361552,5.7,-7.969111507));
#83=DIRECTION('',(0.,1.,0.));
#84=DIRECTION('',(0.,-0.,1.));
#85=AXIS2_PLACEMENT_3D('',#82,#83,#84);
#86=CIRCLE('',#85,3.);
#87=EDGE_CURVE('',#73,#81,#86,.T.);
#88=ORIENTED_EDGE('',*,*,#87,.T.);
#89=CARTESIAN_POINT('',(30.154054863,5.7,-10.969111507));
#90=VERTEX_POINT('',#89);
#91=CARTESIAN_POINT('',(49.357361552,5.7,-10.969111507));
#92=DIRECTION('',(-1.,0.,0.));
#93=VECTOR('',#92,19.203306689);
#94=LINE('',#91,#93);
#95=EDGE_CURVE('',#81,#90,#94,.T.);
#96=ORIENTED_EDGE('',*,*,#95,.T.);
#97=CARTESIAN_POINT('',(30.154054863,5.7,-8.618357399));
#98=VERTEX_POINT('',#97);
#99=CARTESIAN_POINT('',(30.154054863,5.7,-10.969111507));
#100=DIRECTION('',(0.,0.,1.));
#101=VECTOR('',#100,2.350754108);
#102=LINE('',#99,#101);
#103=EDGE_CURVE('',#90,#98,#102,.T.);
#104=ORIENTED_EDGE('',*,*,#103,.T.);
#105=CARTESIAN_POINT('',(30.825853728,5.7,-8.148798936));
#106=VERTEX_POINT('',#105);
#107=CARTESIAN_POINT('',(30.654054863,5.7,-8.618357399));
#108=DIRECTION('',(0.,1.,0.));
#109=DIRECTION('',(0.,-0.,1.));
#110=AXIS2_PLACEMENT_3D('',#107,#108,#109);
#111=CIRCLE('',#110,0.5);
#112=EDGE_CURVE('',#98,#106,#111,.T.);
#113=ORIENTED_EDGE('',*,*,#112,.T.);
#114=CARTESIAN_POINT('',(33.653889971,5.7,-9.183501649));
#115=VERTEX_POINT('',#114);
#116=CARTESIAN_POINT('',(33.653889971,5.7,-9.183501649));
#117=DIRECTION('',(-0.939116926,0.,0.343597729));
#118=VECTOR('',#117,3.011378206);
#119=LINE('',#116,#118);
#120=EDGE_CURVE('',#115,#106,#119,.T.);
#121=ORIENTED_EDGE('',*,*,#120,.F.);
#122=CARTESIAN_POINT('',(33.653889971,5.7,-7.794967702));
#123=VERTEX_POINT('',#122);
#124=CARTESIAN_POINT('',(33.653889971,5.7,-9.183501649));
#125=DIRECTION('',(0.,0.,1.));
#126=VECTOR('',#125,1.388533947);
#127=LINE('',#124,#126);
#128=EDGE_CURVE('',#115,#123,#127,.T.);
#129=ORIENTED_EDGE('',*,*,#128,.T.);
#130=CARTESIAN_POINT('',(33.154054863,5.7,-1.836899943));
#131=VERTEX_POINT('',#130);
#132=CARTESIAN_POINT('',(33.154054863,5.7,-4.836899943));
#133=DIRECTION('',(0.,1.,0.));
#134=DIRECTION('',(0.,-0.,1.));
#135=AXIS2_PLACEMENT_3D('',#132,#133,#134);
#136=CIRCLE('',#135,3.);
#137=EDGE_CURVE('',#123,#131,#136,.T.);
#138=ORIENTED_EDGE('',*,*,#137,.T.);
#139=CARTESIAN_POINT('',(33.387444605,5.7,-1.845992183));
#140=VERTEX_POINT('',#139);
#141=CARTESIAN_POINT('',(33.154054863,5.7,-4.836899943));
#142=DIRECTION('',(0.,1.,0.));
#143=DIRECTION('',(0.,-0.,1.));
#144=AXIS2_PLACEMENT_3D('',#141,#142,#143);
#145=CIRCLE('',#144,3.);
#146=EDGE_CURVE('',#131,#140,#145,.T.);
#147=ORIENTED_EDGE('',*,*,#146,.T.);
#148=CARTESIAN_POINT('',(34.088585458,5.7,7.139182569));
#149=DIRECTION('',(0.,1.,0.));
#150=DIRECTION('',(0.999880745,0.,-0.015443299));
#151=AXIS2_PLACEMENT_3D('',#148,#149,#150);
#152=CIRCLE('',#151,9.012489325);
#153=EDGE_CURVE('',#46,#140,#152,.T.);
#154=ORIENTED_EDGE('',*,*,#153,.F.);
#155=EDGE_LOOP('',(#53,#62,#71,#79,#88,#96,#104,#113,#121,#129,#138,#147,#154));
#156=FACE_BOUND('',#155,.T.);
#157=ADVANCED_FACE('',(#42,#156),#31,.T.);
#158=CARTESIAN_POINT('',(57.1,4.7,7.));
#159=DIRECTION('',(0.,-1.,0.));
#160=DIRECTION('',(0.,0.,-1.));
#161=AXIS2_PLACEMENT_3D('',#158,#159,#160);
#162=CYLINDRICAL_SURFACE('',#161,14.);
#163=CARTESIAN_POINT('',(67.408194094,3.,16.473179747));
#164=VERTEX_POINT('',#163);
#165=CARTESIAN_POINT('',(67.408194094,5.7,16.473179747));
#166=DIRECTION('',(0.,-1.,0.));
#167=VECTOR('',#166,2.7);
#168=LINE('',#165,#167);
#169=EDGE_CURVE('',#44,#164,#168,.T.);
#170=ORIENTED_EDGE('',*,*,#169,.F.);
#171=ORIENTED_EDGE('',*,*,#52,.T.);
#172=CARTESIAN_POINT('',(43.1,3.,7.));
#173=VERTEX_POINT('',#172);
#174=CARTESIAN_POINT('',(43.1,3.,7.));
#175=DIRECTION('',(0.,1.,0.));
#176=VECTOR('',#175,2.7);
#177=LINE('',#174,#176);
#178=EDGE_CURVE('',#173,#46,#177,.T.);
#179=ORIENTED_EDGE('',*,*,#178,.F.);
#180=CARTESIAN_POINT('',(57.1,3.,7.));
#181=DIRECTION('',(-0.,-1.,-0.));
#182=DIRECTION('',(0.,-0.,1.));
#183=AXIS2_PLACEMENT_3D('',#180,#181,#182);
#184=CIRCLE('',#183,14.);
#185=EDGE_CURVE('',#164,#173,#184,.T.);
#186=ORIENTED_EDGE('',*,*,#185,.F.);
#187=EDGE_LOOP('',(#170,#171,#179,#186));
#188=FACE_BOUND('',#187,.T.);
#189=ADVANCED_FACE('',(#188),#162,.T.);
#190=CARTESIAN_POINT('',(30.154054863,3.,-5.969111507));
#191=DIRECTION('',(-1.,0.,0.));
#192=DIRECTION('',(0.,0.,1.));
#193=AXIS2_PLACEMENT_3D('',#190,#191,#192);
#194=PLANE('',#193);
#195=CARTESIAN_POINT('',(30.154054863,3.,-10.969111507));
#196=VERTEX_POINT('',#195);
#197=CARTESIAN_POINT('',(30.154054863,3.,-8.618357399));
#198=VERTEX_POINT('',#197);
#199=CARTESIAN_POINT('',(30.154054863,3.,-10.969111507));
#200=DIRECTION('',(0.,0.,1.));
#201=VECTOR('',#200,2.350754108);
#202=LINE('',#199,#201);
#203=EDGE_CURVE('',#196,#198,#202,.T.);
#204=ORIENTED_EDGE('',*,*,#203,.T.);
#205=CARTESIAN_POINT('',(30.154054863,3.,-8.618357399));
#206=DIRECTION('',(0.,1.,0.));
#207=VECTOR('',#206,2.7);
#208=LINE('',#205,#207);
#209=EDGE_CURVE('',#198,#98,#208,.T.);
#210=ORIENTED_EDGE('',*,*,#209,.T.);
#211=ORIENTED_EDGE('',*,*,#103,.F.);
#212=CARTESIAN_POINT('',(30.154054863,3.,-10.969111507));
#213=DIRECTION('',(0.,1.,0.));
#214=VECTOR('',#213,2.7);
#215=LINE('',#212,#214);
#216=EDGE_CURVE('',#196,#90,#215,.T.);
#217=ORIENTED_EDGE('',*,*,#216,.F.);
#218=EDGE_LOOP('',(#204,#210,#211,#217));
#219=FACE_BOUND('',#218,.T.);
#220=ADVANCED_FACE('',(#219),#194,.T.);
#221=CARTESIAN_POINT('',(34.088585458,3.,7.139182569));
#222=DIRECTION('',(0.,1.,0.));
#223=DIRECTION('',(0.,-0.,1.));
#224=AXIS2_PLACEMENT_3D('',#221,#222,#223);
#225=CYLINDRICAL_SURFACE('',#224,9.012489325);
#226=ORIENTED_EDGE('',*,*,#153,.T.);
#227=CARTESIAN_POINT('',(33.387444605,3.,-1.845992183));
#228=VERTEX_POINT('',#227);
#229=CARTESIAN_POINT('',(33.387444605,5.7,-1.845992183));
#230=DIRECTION('',(-0.,-1.,-0.));
#231=VECTOR('',#230,2.7);
#232=LINE('',#229,#231);
#233=EDGE_CURVE('',#140,#228,#232,.T.);
#234=ORIENTED_EDGE('',*,*,#233,.T.);
#235=CARTESIAN_POINT('',(34.088585458,3.,7.139182569));
#236=DIRECTION('',(0.,1.,0.));
#237=DIRECTION('',(0.999880745,0.,-0.015443299));
#238=AXIS2_PLACEMENT_3D('',#235,#236,#237);
#239=CIRCLE('',#238,9.012489325);
#240=EDGE_CURVE('',#173,#228,#239,.T.);
#241=ORIENTED_EDGE('',*,*,#240,.F.);
#242=ORIENTED_EDGE('',*,*,#178,.T.);
#243=EDGE_LOOP('',(#226,#234,#241,#242));
#244=FACE_BOUND('',#243,.T.);
#245=ADVANCED_FACE('',(#244),#225,.F.);
#246=CARTESIAN_POINT('',(53.627027432,3.,-8.984555753));
#247=DIRECTION('',(0.496138938,0.,-0.868243142));
#248=DIRECTION('',(-0.868243142,0.,-0.496138938));
#249=AXIS2_PLACEMENT_3D('',#246,#247,#248);
#250=PLANE('',#249);
#251=ORIENTED_EDGE('',*,*,#78,.F.);
#252=CARTESIAN_POINT('',(56.239143125,3.,-7.491918214));
#253=VERTEX_POINT('',#252);
#254=CARTESIAN_POINT('',(56.239143125,5.7,-7.491918214));
#255=DIRECTION('',(0.,-1.,0.));
#256=VECTOR('',#255,2.7);
#257=LINE('',#254,#256);
#258=EDGE_CURVE('',#64,#253,#257,.T.);
#259=ORIENTED_EDGE('',*,*,#258,.T.);
#260=CARTESIAN_POINT('',(50.845778367,3.,-10.573840933));
#261=VERTEX_POINT('',#260);
#262=CARTESIAN_POINT('',(56.239143125,3.,-7.491918214));
#263=DIRECTION('',(-0.868243142,0.,-0.496138938));
#264=VECTOR('',#263,6.211813831);
#265=LINE('',#262,#264);
#266=EDGE_CURVE('',#253,#261,#265,.T.);
#267=ORIENTED_EDGE('',*,*,#266,.T.);
#268=CARTESIAN_POINT('',(50.845778367,3.,-10.573840933));
#269=DIRECTION('',(0.,1.,0.));
#270=VECTOR('',#269,2.7);
#271=LINE('',#268,#270);
#272=EDGE_CURVE('',#261,#73,#271,.T.);
#273=ORIENTED_EDGE('',*,*,#272,.T.);
#274=EDGE_LOOP('',(#251,#259,#267,#273));
#275=FACE_BOUND('',#274,.T.);
#276=ADVANCED_FACE('',(#275),#250,.T.);
#277=CARTESIAN_POINT('',(40.154054863,3.,-10.969111507));
#278=DIRECTION('',(0.,0.,-1.));
#279=DIRECTION('',(-1.,0.,0.));
#280=AXIS2_PLACEMENT_3D('',#277,#278,#279);
#281=PLANE('',#280);
#282=ORIENTED_EDGE('',*,*,#95,.F.);
#283=CARTESIAN_POINT('',(49.357361552,3.,-10.969111507));
#284=VERTEX_POINT('',#283);
#285=CARTESIAN_POINT('',(49.357361552,5.7,-10.969111507));
#286=DIRECTION('',(-0.,-1.,-0.));
#287=VECTOR('',#286,2.7);
#288=LINE('',#285,#287);
#289=EDGE_CURVE('',#81,#284,#288,.T.);
#290=ORIENTED_EDGE('',*,*,#289,.T.);
#291=CARTESIAN_POINT('',(49.357361552,3.,-10.969111507));
#292=DIRECTION('',(-1.,0.,0.));
#293=VECTOR('',#292,19.203306689);
#294=LINE('',#291,#293);
#295=EDGE_CURVE('',#284,#196,#294,.T.);
#296=ORIENTED_EDGE('',*,*,#295,.T.);
#297=ORIENTED_EDGE('',*,*,#216,.T.);
#298=EDGE_LOOP('',(#282,#290,#296,#297));
#299=FACE_BOUND('',#298,.T.);
#300=ADVANCED_FACE('',(#299),#281,.T.);
#301=CARTESIAN_POINT('',(57.1,3.,0.));
#302=DIRECTION('',(0.,1.,0.));
#303=DIRECTION('',(-1.,0.,0.));
#304=AXIS2_PLACEMENT_3D('',#301,#302,#303);
#305=PLANE('',#304);
#306=CARTESIAN_POINT('',(57.973988017,3.,-6.972692831));
#307=VERTEX_POINT('',#306);
#308=CARTESIAN_POINT('',(58.223698879,3.,-10.964890783));
#309=DIRECTION('',(0.,1.,0.));
#310=DIRECTION('',(0.,-0.,1.));
#311=AXIS2_PLACEMENT_3D('',#308,#309,#310);
#312=CIRCLE('',#311,4.);
#313=EDGE_CURVE('',#253,#307,#312,.T.);
#314=ORIENTED_EDGE('',*,*,#313,.T.);
#315=CARTESIAN_POINT('',(55.222756976,3.,7.755369521));
#316=DIRECTION('',(0.,-1.,0.));
#317=DIRECTION('',(0.183625634,0.,-0.982996249));
#318=AXIS2_PLACEMENT_3D('',#315,#316,#317);
#319=CIRCLE('',#318,14.982826599);
#320=EDGE_CURVE('',#307,#164,#319,.T.);
#321=ORIENTED_EDGE('',*,*,#320,.T.);
#322=ORIENTED_EDGE('',*,*,#185,.T.);
#323=ORIENTED_EDGE('',*,*,#240,.T.);
#324=CARTESIAN_POINT('',(33.154054863,3.,-1.836899943));
#325=VERTEX_POINT('',#324);
#326=CARTESIAN_POINT('',(33.154054863,3.,-4.836899943));
#327=DIRECTION('',(-0.,-1.,-0.));
#328=DIRECTION('',(0.,-0.,1.));
#329=AXIS2_PLACEMENT_3D('',#326,#327,#328);
#330=CIRCLE('',#329,3.);
#331=EDGE_CURVE('',#228,#325,#330,.T.);
#332=ORIENTED_EDGE('',*,*,#331,.T.);
#333=CARTESIAN_POINT('',(33.653889971,3.,-7.794967702));
#334=VERTEX_POINT('',#333);
#335=CARTESIAN_POINT('',(33.154054863,3.,-4.836899943));
#336=DIRECTION('',(-0.,-1.,-0.));
#337=DIRECTION('',(0.,-0.,1.));
#338=AXIS2_PLACEMENT_3D('',#335,#336,#337);
#339=CIRCLE('',#338,3.);
#340=EDGE_CURVE('',#325,#334,#339,.T.);
#341=ORIENTED_EDGE('',*,*,#340,.T.);
#342=CARTESIAN_POINT('',(33.653889971,3.,-9.183501649));
#343=VERTEX_POINT('',#342);
#344=CARTESIAN_POINT('',(33.653889971,3.,-9.183501649));
#345=DIRECTION('',(0.,0.,1.));
#346=VECTOR('',#345,1.388533947);
#347=LINE('',#344,#346);
#348=EDGE_CURVE('',#343,#334,#347,.T.);
#349=ORIENTED_EDGE('',*,*,#348,.F.);
#350=CARTESIAN_POINT('',(30.825853728,3.,-8.148798936));
#351=VERTEX_POINT('',#350);
#352=CARTESIAN_POINT('',(33.653889971,3.,-9.183501649));
#353=DIRECTION('',(-0.939116926,0.,0.343597729));
#354=VECTOR('',#353,3.011378206);
#355=LINE('',#352,#354);
#356=EDGE_CURVE('',#343,#351,#355,.T.);
#357=ORIENTED_EDGE('',*,*,#356,.T.);
#358=CARTESIAN_POINT('',(30.654054863,3.,-8.618357399));
#359=DIRECTION('',(-0.,-1.,-0.));
#360=DIRECTION('',(0.,-0.,1.));
#361=AXIS2_PLACEMENT_3D('',#358,#359,#360);
#362=CIRCLE('',#361,0.5);
#363=EDGE_CURVE('',#351,#198,#362,.T.);
#364=ORIENTED_EDGE('',*,*,#363,.T.);
#365=ORIENTED_EDGE('',*,*,#203,.F.);
#366=ORIENTED_EDGE('',*,*,#295,.F.);
#367=CARTESIAN_POINT('',(49.357361552,3.,-7.969111507));
#368=DIRECTION('',(-0.,-1.,-0.));
#369=DIRECTION('',(0.,-0.,1.));
#370=AXIS2_PLACEMENT_3D('',#367,#368,#369);
#371=CIRCLE('',#370,3.);
#372=EDGE_CURVE('',#284,#261,#371,.T.);
#373=ORIENTED_EDGE('',*,*,#372,.T.);
#374=ORIENTED_EDGE('',*,*,#266,.F.);
#375=EDGE_LOOP('',(#314,#321,#322,#323,#332,#341,#349,#357,#364,#365,#366,#373,#374));
#376=FACE_BOUND('',#375,.T.);
#377=CARTESIAN_POINT('',(47.744660591,3.,13.911774923));
#378=VERTEX_POINT('',#377);
#379=CARTESIAN_POINT('',(47.744660591,3.,12.411774923));
#380=DIRECTION('',(0.,1.,0.));
#381=DIRECTION('',(0.,-0.,1.));
#382=AXIS2_PLACEMENT_3D('',#379,#380,#381);
#383=CIRCLE('',#382,1.5);
#384=EDGE_CURVE('',#378,#378,#383,.T.);
#385=ORIENTED_EDGE('',*,*,#384,.T.);
#386=EDGE_LOOP('',(#385));
#387=FACE_BOUND('',#386,.T.);
#388=ADVANCED_FACE('',(#376,#387),#305,.F.);
#389=CARTESIAN_POINT('',(47.744660591,-12.2,12.411774923));
#390=DIRECTION('',(0.,1.,0.));
#391=DIRECTION('',(0.,-0.,1.));
#392=AXIS2_PLACEMENT_3D('',#389,#390,#391);
#393=CYLINDRICAL_SURFACE('',#392,1.5);
#394=CARTESIAN_POINT('',(47.744660591,5.7,13.911774923));
#395=DIRECTION('',(-0.,-1.,-0.));
#396=VECTOR('',#395,2.7);
#397=LINE('',#394,#396);
#398=EDGE_CURVE('',#33,#378,#397,.T.);
#399=ORIENTED_EDGE('',*,*,#398,.F.);
#400=ORIENTED_EDGE('',*,*,#39,.T.);
#401=ORIENTED_EDGE('',*,*,#398,.T.);
#402=ORIENTED_EDGE('',*,*,#384,.F.);
#403=EDGE_LOOP('',(#399,#400,#401,#402));
#404=FACE_BOUND('',#403,.T.);
#405=ADVANCED_FACE('',(#404),#393,.F.);
#406=CARTESIAN_POINT('',(33.154054863,3.,-4.836899943));
#407=DIRECTION('',(0.,1.,0.));
#408=DIRECTION('',(0.,-0.,1.));
#409=AXIS2_PLACEMENT_3D('',#406,#407,#408);
#410=CYLINDRICAL_SURFACE('',#409,3.);
#411=CARTESIAN_POINT('',(33.154054863,5.7,-1.836899943));
#412=DIRECTION('',(-0.,-1.,-0.));
#413=VECTOR('',#412,2.7);
#414=LINE('',#411,#413);
#415=EDGE_CURVE('',#131,#325,#414,.T.);
#416=ORIENTED_EDGE('',*,*,#415,.T.);
#417=ORIENTED_EDGE('',*,*,#331,.F.);
#418=ORIENTED_EDGE('',*,*,#233,.F.);
#419=ORIENTED_EDGE('',*,*,#146,.F.);
#420=EDGE_LOOP('',(#416,#417,#418,#419));
#421=FACE_BOUND('',#420,.T.);
#422=ADVANCED_FACE('',(#421),#410,.T.);
#423=CARTESIAN_POINT('',(49.357361552,3.,-7.969111507));
#424=DIRECTION('',(0.,1.,0.));
#425=DIRECTION('',(0.,-0.,1.));
#426=AXIS2_PLACEMENT_3D('',#423,#424,#425);
#427=CYLINDRICAL_SURFACE('',#426,3.);
#428=ORIENTED_EDGE('',*,*,#372,.F.);
#429=ORIENTED_EDGE('',*,*,#289,.F.);
#430=ORIENTED_EDGE('',*,*,#87,.F.);
#431=ORIENTED_EDGE('',*,*,#272,.F.);
#432=EDGE_LOOP('',(#428,#429,#430,#431));
#433=FACE_BOUND('',#432,.T.);
#434=ADVANCED_FACE('',(#433),#427,.T.);
#435=CARTESIAN_POINT('',(58.223698879,4.7,-10.964890783));
#436=DIRECTION('',(0.,-1.,0.));
#437=DIRECTION('',(0.,0.,-1.));
#438=AXIS2_PLACEMENT_3D('',#435,#436,#437);
#439=CYLINDRICAL_SURFACE('',#438,4.);
#440=ORIENTED_EDGE('',*,*,#313,.F.);
#441=ORIENTED_EDGE('',*,*,#258,.F.);
#442=ORIENTED_EDGE('',*,*,#70,.F.);
#443=CARTESIAN_POINT('',(57.973988017,3.,-6.972692831));
#444=DIRECTION('',(-0.,1.,-0.));
#445=VECTOR('',#444,2.7);
#446=LINE('',#443,#445);
#447=EDGE_CURVE('',#307,#55,#446,.T.);
#448=ORIENTED_EDGE('',*,*,#447,.F.);
#449=EDGE_LOOP('',(#440,#441,#442,#448));
#450=FACE_BOUND('',#449,.T.);
#451=ADVANCED_FACE('',(#450),#439,.F.);
#452=CARTESIAN_POINT('',(31.653972417,-14.1,-8.451785383));
#453=DIRECTION('',(-0.343597729,0.,-0.939116926));
#454=DIRECTION('',(-0.939116926,0.,0.343597729));
#455=AXIS2_PLACEMENT_3D('',#452,#453,#454);
#456=PLANE('',#455);
#457=ORIENTED_EDGE('',*,*,#120,.T.);
#458=CARTESIAN_POINT('',(30.825853728,5.7,-8.148798936));
#459=DIRECTION('',(-0.,-1.,-0.));
#460=VECTOR('',#459,2.7);
#461=LINE('',#458,#460);
#462=EDGE_CURVE('',#106,#351,#461,.T.);
#463=ORIENTED_EDGE('',*,*,#462,.T.);
#464=ORIENTED_EDGE('',*,*,#356,.F.);
#465=CARTESIAN_POINT('',(33.653889971,3.,-9.183501649));
#466=DIRECTION('',(0.,1.,0.));
#467=VECTOR('',#466,2.7);
#468=LINE('',#465,#467);
#469=EDGE_CURVE('',#343,#115,#468,.T.);
#470=ORIENTED_EDGE('',*,*,#469,.T.);
#471=EDGE_LOOP('',(#457,#463,#464,#470));
#472=FACE_BOUND('',#471,.T.);
#473=ADVANCED_FACE('',(#472),#456,.F.);
#474=CARTESIAN_POINT('',(33.653889971,-14.1,-7.709648768));
#475=DIRECTION('',(-1.,0.,0.));
#476=DIRECTION('',(0.,0.,1.));
#477=AXIS2_PLACEMENT_3D('',#474,#475,#476);
#478=PLANE('',#477);
#479=CARTESIAN_POINT('',(33.653889971,5.7,-7.794967702));
#480=DIRECTION('',(-0.,-1.,-0.));
#481=VECTOR('',#480,2.7);
#482=LINE('',#479,#481);
#483=EDGE_CURVE('',#123,#334,#482,.T.);
#484=ORIENTED_EDGE('',*,*,#483,.F.);
#485=ORIENTED_EDGE('',*,*,#128,.F.);
#486=ORIENTED_EDGE('',*,*,#469,.F.);
#487=ORIENTED_EDGE('',*,*,#348,.T.);
#488=EDGE_LOOP('',(#484,#485,#486,#487));
#489=FACE_BOUND('',#488,.T.);
#490=ADVANCED_FACE('',(#489),#478,.T.);
#491=CARTESIAN_POINT('',(30.654054863,3.,-8.618357399));
#492=DIRECTION('',(0.,-1.,0.));
#493=DIRECTION('',(0.,0.,-1.));
#494=AXIS2_PLACEMENT_3D('',#491,#492,#493);
#495=CYLINDRICAL_SURFACE('',#494,0.5);
#496=ORIENTED_EDGE('',*,*,#363,.F.);
#497=ORIENTED_EDGE('',*,*,#462,.F.);
#498=ORIENTED_EDGE('',*,*,#112,.F.);
#499=ORIENTED_EDGE('',*,*,#209,.F.);
#500=EDGE_LOOP('',(#496,#497,#498,#499));
#501=FACE_BOUND('',#500,.T.);
#502=ADVANCED_FACE('',(#501),#495,.T.);
#503=CARTESIAN_POINT('',(55.222756976,5.8,7.755369521));
#504=DIRECTION('',(0.,-1.,0.));
#505=DIRECTION('',(0.,0.,-1.));
#506=AXIS2_PLACEMENT_3D('',#503,#504,#505);
#507=CYLINDRICAL_SURFACE('',#506,14.982826599);
#508=ORIENTED_EDGE('',*,*,#169,.T.);
#509=ORIENTED_EDGE('',*,*,#320,.F.);
#510=ORIENTED_EDGE('',*,*,#447,.T.);
#511=ORIENTED_EDGE('',*,*,#61,.F.);
#512=EDGE_LOOP('',(#508,#509,#510,#511));
#513=FACE_BOUND('',#512,.T.);
#514=ADVANCED_FACE('',(#513),#507,.T.);
#515=CARTESIAN_POINT('',(33.154054863,3.,-4.836899943));
#516=DIRECTION('',(0.,1.,0.));
#517=DIRECTION('',(0.,-0.,1.));
#518=AXIS2_PLACEMENT_3D('',#515,#516,#517);
#519=CYLINDRICAL_SURFACE('',#518,3.);
#520=ORIENTED_EDGE('',*,*,#415,.F.);
#521=ORIENTED_EDGE('',*,*,#137,.F.);
#522=ORIENTED_EDGE('',*,*,#483,.T.);
#523=ORIENTED_EDGE('',*,*,#340,.F.);
#524=EDGE_LOOP('',(#520,#521,#522,#523));
#525=FACE_BOUND('',#524,.T.);
#526=ADVANCED_FACE('',(#525),#519,.T.);
#527=CLOSED_SHELL('',(#157,#189,#220,#245,#276,#300,#388,#405,#422,#434,#451,#473,#490,#502,#514,#526));
#528=MANIFOLD_SOLID_BREP('Body 03',#527);
#529=COLOUR_RGB('',0.627451003,0.627451003,0.643137276);
#530=FILL_AREA_STYLE_COLOUR('',#529);
#531=FILL_AREA_STYLE('',(#530));
#532=SURFACE_STYLE_FILL_AREA(#531);
#533=SURFACE_SIDE_STYLE('',(#532));
#534=SURFACE_STYLE_USAGE(.BOTH.,#533);
#535=PRESENTATION_STYLE_ASSIGNMENT((#534));
#26=STYLED_ITEM('',(#535),#528);
#16=SHAPE_REPRESENTATION('root',(#15),#10);
#17=ADVANCED_BREP_SHAPE_REPRESENTATION('root',(#528),#10);
#543=SHAPE_REPRESENTATION_RELATIONSHIP('','',#16,#17);
#544=CARTESIAN_POINT('',(0.,0.,0.));
#545=DIRECTION('',(0.,0.,1.));
#546=DIRECTION('',(1.,0.,0.));
#547=AXIS2_PLACEMENT_3D('',#544,#545,#546);
#549=MAPPED_ITEM('',#548,#547);
#548=REPRESENTATION_MAP(#547,#16);
#550=APPLICATION_CONTEXT('Managed model based 3d engineering');
#551=APPLICATION_PROTOCOL_DEFINITION('international standard','ap242_managed_model_based_3d_engineering',2014,#550);
#552=PRODUCT_CONTEXT('',#550,'mechanical');
#553=PRODUCT_DEFINITION_CONTEXT('part definition',#550,'design');
#24=PRODUCT('root','root','',(#552));
#554=PRODUCT_RELATED_PRODUCT_CATEGORY('part','',(#24));
#555=PRODUCT_DEFINITION_FORMATION_WITH_SPECIFIED_SOURCE('','',#24,.NOT_KNOWN.);
#25=PRODUCT_DEFINITION('design','',#555,#553);
#23=PRODUCT_DEFINITION_SHAPE('','',#25);
#556=SHAPE_DEFINITION_REPRESENTATION(#23,#16);
#11=DRAUGHTING_MODEL('',(#549),#10);
#557=DESCRIPTIVE_REPRESENTATION_ITEM('KEY','C:\\Users\\TranHuyBao\\AppData\\Local\\Packages\\Shapr3D.Shapr3D_dvv5p1vgwv6mp\\TempState\\67cfe586-6ba0-4c52-802c-f5fe0e0d3d89.tmp');
#558=PROPERTY_DEFINITION('KEY','',#25);
#559=REPRESENTATION('',(#557),#10);
#560=PROPERTY_DEFINITION_REPRESENTATION(#558,#559);
#561=GENERAL_PROPERTY('','KEY','');
#562=GENERAL_PROPERTY_ASSOCIATION('','',#561,#558);
#1=MECHANICAL_DESIGN_GEOMETRIC_PRESENTATION_REPRESENTATION('',(#26),#10);
ENDSEC;
END-ISO-10303-21;
