G04*
G04 #@! TF.GenerationSoftware,Altium Limited,Altium Designer,24.1.2 (44)*
G04*
G04 Layer_Color=16711935*
%FSLAX44Y44*%
%MOMM*%
G71*
G04*
G04 #@! TF.SameCoordinates,FACD1C8F-268C-462D-A2B8-4F1E1D882815*
G04*
G04*
G04 #@! TF.FilePolarity,Positive*
G04*
G01*
G75*
%ADD10C,0.2000*%
%ADD12C,0.1270*%
%ADD51C,0.1000*%
G36*
X198280Y875180D02*
X203280D01*
Y862180D01*
X198280D01*
Y875180D01*
D02*
G37*
G36*
X213280D02*
X218280D01*
Y862180D01*
X213280D01*
Y875180D01*
D02*
G37*
G36*
X198280Y896770D02*
X203280D01*
Y883770D01*
X198280D01*
Y896770D01*
D02*
G37*
G36*
X213280D02*
X218280D01*
Y883770D01*
X213280D01*
Y896770D01*
D02*
G37*
D10*
X564880Y340210D02*
G03*
X564880Y340210I-1000J0D01*
G01*
X495320Y722310D02*
G03*
X495320Y722310I-1000J0D01*
G01*
X496590Y554320D02*
G03*
X496590Y554320I-1000J0D01*
G01*
X77200Y472710D02*
G03*
X77200Y472710I-1000J0D01*
G01*
X172160Y629320D02*
G03*
X172160Y629320I-1000J0D01*
G01*
X177240Y797310D02*
G03*
X177240Y797310I-1000J0D01*
G01*
X256120Y869950D02*
G03*
X256120Y869950I-1000J0D01*
G01*
X269320Y828410D02*
G03*
X269320Y828410I-1000J0D01*
G01*
D12*
X506890Y849530D02*
X526890D01*
Y837030D02*
Y849530D01*
X506890Y837030D02*
X526890D01*
X506890D02*
Y849530D01*
X554320Y834810D02*
X609320D01*
X554320Y822560D02*
Y834810D01*
X531020Y822560D02*
X554320D01*
X531020Y697060D02*
Y822560D01*
Y697060D02*
X554320D01*
Y684810D02*
Y697060D01*
Y684810D02*
X609320D01*
Y834810D01*
X504350Y678280D02*
X524350D01*
X504350D02*
Y690780D01*
X524350D01*
Y678280D02*
Y690780D01*
X555590Y666820D02*
X610590D01*
X555590Y654570D02*
Y666820D01*
X532290Y654570D02*
X555590D01*
X532290Y529070D02*
Y654570D01*
Y529070D02*
X555590D01*
Y516820D02*
Y529070D01*
Y516820D02*
X610590D01*
Y666820D01*
X504350Y670460D02*
X524350D01*
Y657960D02*
Y670460D01*
X504350Y657960D02*
X524350D01*
X504350D02*
Y670460D01*
X508770Y503020D02*
X528770D01*
X508770D02*
Y515520D01*
X528770D01*
Y503020D02*
Y515520D01*
X494130Y382110D02*
X506630D01*
X494130Y362110D02*
Y382110D01*
Y362110D02*
X506630D01*
Y382110D01*
X417860Y65410D02*
Y247410D01*
X262860D02*
X417860D01*
X262860Y65410D02*
Y247410D01*
Y65410D02*
X417860D01*
X248360Y222410D02*
Y234410D01*
X242360Y228410D02*
X254360D01*
X34390Y430690D02*
X46890D01*
Y450690D01*
X34390D02*
X46890D01*
X34390Y430690D02*
Y450690D01*
X56160Y516820D02*
X111160D01*
Y529070D01*
X134460D01*
Y654570D01*
X111160D02*
X134460D01*
X111160D02*
Y666820D01*
X56160D02*
X111160D01*
X56160Y516820D02*
Y666820D01*
X134780Y671730D02*
X154780D01*
Y659230D02*
Y671730D01*
X134780Y659230D02*
X154780D01*
X134780D02*
Y671730D01*
X134780Y679550D02*
X154780D01*
X134780D02*
Y692050D01*
X154780D01*
Y679550D02*
Y692050D01*
X61240Y684810D02*
X116240D01*
Y697060D01*
X139540D01*
Y822560D01*
X116240D02*
X139540D01*
X116240D02*
Y834810D01*
X61240D02*
X116240D01*
X61240Y684810D02*
Y834810D01*
X134780Y843180D02*
X154780D01*
Y830680D02*
Y843180D01*
X134780Y830680D02*
X154780D01*
X134780D02*
Y843180D01*
X218280Y862180D02*
Y875180D01*
X198280D02*
X218280D01*
X198280Y862180D02*
Y875180D01*
Y862180D02*
X218280D01*
X218280Y883770D02*
Y896770D01*
X198280D02*
X218280D01*
X198280Y883770D02*
Y896770D01*
Y883770D02*
X218280D01*
X249020Y793590D02*
X261520D01*
Y773590D02*
Y793590D01*
X249020Y773590D02*
X261520D01*
X249020D02*
Y793590D01*
X602080Y380840D02*
X614580D01*
X602080Y360840D02*
Y380840D01*
Y360840D02*
X614580D01*
Y380840D01*
X132240Y506830D02*
X152240D01*
X132240D02*
Y519330D01*
X152240D01*
Y506830D02*
Y519330D01*
X132180Y430690D02*
X144680D01*
Y450690D01*
X132180D02*
X144680D01*
X132180Y430690D02*
Y450690D01*
X269270Y765360D02*
X368270D01*
X269270Y804360D02*
X368270D01*
Y765360D02*
Y804360D01*
X269270Y765360D02*
Y804360D01*
D51*
X526030Y346710D02*
Y473710D01*
X576330D01*
Y346710D02*
Y473710D01*
X526030Y346710D02*
X576330D01*
X114050Y339210D02*
Y466210D01*
X63750Y339210D02*
X114050D01*
X63750D02*
Y466210D01*
X114050D01*
X261620Y857500D02*
Y907800D01*
Y857500D02*
X388620D01*
Y907800D01*
X261620D02*
X388620D01*
M02*
