M48
;Layer_Color=5220458
;FILE_FORMAT=4:3
METRIC,LZ
;TYPE=PLATED
T01F00S00C0.400
T03F00S00C0.762
T04F00S00C1.020
T05F00S00C2.700
T06F00S00C3.000
%
T01
X0050419Y0024003
X0055245Y0031623
X0006604Y0022987
X0015113Y0049657
X0012192Y006477
X0018034Y0067691
X0018161Y0079629
X0024511Y0076073
X0032512Y0077724
X0033782Y0074549
X0032258Y0051054
X0037592Y0051181
X0049657Y0060198
X0048514Y0072263
X0048895Y0077089
X0053086Y0070358
X0056642Y0048641
X0050546Y0082296
X0023876Y008128
T03
X0027306Y0028069
X0029846
X0037846
X0040386
Y0046609
X0037846
Y0052959
X0040386
X0029846
X0027306
Y0046609
X0029846
Y0071499
X0027306
X0037846
X0040386
T04
X0053848Y0035941
Y0038481
Y0041021
X0056388
Y0038481
Y0035941
X0045847Y0037084
Y0034544
Y0032004
Y0029464
Y0039624
X0020447
Y0037084
Y0034544
Y0032004
Y0029464
X001016Y0035191
X000762
Y0037731
X001016
Y0040271
X000762
Y0042811
X001016
Y0045351
X000762
X0020447Y0044704
Y0042164
Y0047244
Y0049784
Y0052324
Y0054864
Y0057404
Y0059944
Y0062484
Y0065024
Y0067564
Y0070104
Y0072644
Y0075184
Y0077724
Y0080264
X0045847
Y0077724
Y0075184
Y0072644
Y0070104
Y0067564
Y0065024
Y0062484
Y0059944
Y0057404
Y0054864
Y0052324
Y0049784
Y0047244
Y0044704
Y0042164
X0053848Y0043561
Y0046101
X0056388
Y0043561
X0045847Y0082804
X0037592Y0086995
X0035052
X0032512
X0029972
X0027432
Y0089535
X0029972
X0032512
X0035052
X0037592
X0020447Y0082804
T05
X0030436Y0022891
X0037636
T06
X0063373Y0012065
X0004191
X0063373Y0086868
X0004191
M30
