G04*
G04 #@! TF.GenerationSoftware,Altium Limited,Altium Designer,24.1.2 (44)*
G04*
G04 Layer_Color=32768*
%FSLAX44Y44*%
%MOMM*%
G71*
G04*
G04 #@! TF.SameCoordinates,FACD1C8F-268C-462D-A2B8-4F1E1D882815*
G04*
G04*
G04 #@! TF.FilePolarity,Positive*
G04*
G01*
G75*
%ADD52C,0.0500*%
D52*
X581680Y344210D02*
Y476210D01*
X520680D02*
X581680D01*
X520680Y344210D02*
Y476210D01*
Y344210D02*
X581680D01*
X500240Y833880D02*
Y852680D01*
Y833880D02*
X533540D01*
Y852680D01*
X500240D02*
X533540D01*
X551820Y682310D02*
Y694560D01*
X528520D02*
X551820D01*
X528520D02*
Y713310D01*
X498820D02*
X528520D01*
X498820D02*
Y806310D01*
X528520D01*
Y825060D01*
X551820D01*
Y837310D01*
X569820D01*
Y840810D01*
X613820D01*
Y678810D02*
Y840810D01*
X569820Y678810D02*
X613820D01*
X569820D02*
Y682310D01*
X551820D02*
X569820D01*
X531000Y675130D02*
Y693930D01*
X497700D02*
X531000D01*
X497700Y675130D02*
Y693930D01*
Y675130D02*
X531000D01*
X553090Y514320D02*
Y526570D01*
X529790D02*
X553090D01*
X529790D02*
Y545320D01*
X500090D02*
X529790D01*
X500090D02*
Y638320D01*
X529790D01*
Y657070D01*
X553090D01*
Y669320D01*
X571090D01*
Y672820D01*
X615090D01*
Y510820D02*
Y672820D01*
X571090Y510820D02*
X615090D01*
X571090D02*
Y514320D01*
X553090D02*
X571090D01*
X497700Y654810D02*
Y673610D01*
Y654810D02*
X531000D01*
Y673610D01*
X497700D02*
X531000D01*
X535420Y499870D02*
Y518670D01*
X502120D02*
X535420D01*
X502120Y499870D02*
Y518670D01*
Y499870D02*
X535420D01*
X509780Y355460D02*
Y388760D01*
X490980Y355460D02*
X509780D01*
X490980D02*
Y388760D01*
X509780D01*
X420360Y62910D02*
Y250010D01*
X260360D02*
X420360D01*
X260360Y62910D02*
Y250010D01*
Y62910D02*
X420360D01*
X31240Y424040D02*
Y457340D01*
X50040D01*
Y424040D02*
Y457340D01*
X31240Y424040D02*
X50040D01*
X58400Y336710D02*
Y468710D01*
Y336710D02*
X119400D01*
Y468710D01*
X58400D02*
X119400D01*
X113660Y657070D02*
Y669320D01*
Y657070D02*
X136960D01*
Y638320D02*
Y657070D01*
Y638320D02*
X166660D01*
Y545320D02*
Y638320D01*
X136960Y545320D02*
X166660D01*
X136960Y526570D02*
Y545320D01*
X113660Y526570D02*
X136960D01*
X113660Y514320D02*
Y526570D01*
X95660Y514320D02*
X113660D01*
X95660Y510820D02*
Y514320D01*
X51660Y510820D02*
X95660D01*
X51660D02*
Y672820D01*
X95660D01*
Y669320D02*
Y672820D01*
Y669320D02*
X113660D01*
X128130Y656080D02*
Y674880D01*
Y656080D02*
X161430D01*
Y674880D01*
X128130D02*
X161430D01*
X161430Y676400D02*
Y695200D01*
X128130D02*
X161430D01*
X128130Y676400D02*
Y695200D01*
Y676400D02*
X161430D01*
X118740Y825060D02*
Y837310D01*
Y825060D02*
X142040D01*
Y806310D02*
Y825060D01*
Y806310D02*
X171740D01*
Y713310D02*
Y806310D01*
X142040Y713310D02*
X171740D01*
X142040Y694560D02*
Y713310D01*
X118740Y694560D02*
X142040D01*
X118740Y682310D02*
Y694560D01*
X100740Y682310D02*
X118740D01*
X100740Y678810D02*
Y682310D01*
X56740Y678810D02*
X100740D01*
X56740D02*
Y840810D01*
X100740D01*
Y837310D02*
Y840810D01*
Y837310D02*
X118740D01*
X128130Y827530D02*
Y846330D01*
Y827530D02*
X161430D01*
Y846330D01*
X128130D02*
X161430D01*
X225780Y858680D02*
Y878680D01*
X190780D02*
X225780D01*
X190780Y858680D02*
Y878680D01*
Y858680D02*
X225780D01*
X225780Y880270D02*
Y900270D01*
X190780D02*
X225780D01*
X190780Y880270D02*
Y900270D01*
Y880270D02*
X225780D01*
X259120Y852150D02*
Y913150D01*
X391120D01*
Y852150D02*
Y913150D01*
X259120Y852150D02*
X391120D01*
X245870Y766940D02*
Y800240D01*
Y766940D02*
X264670D01*
Y800240D01*
X245870D02*
X264670D01*
X617730Y354190D02*
Y387490D01*
X598930Y354190D02*
X617730D01*
X598930D02*
Y387490D01*
X617730D01*
X158890Y503680D02*
Y522480D01*
X125590D02*
X158890D01*
X125590Y503680D02*
Y522480D01*
Y503680D02*
X158890D01*
X129030Y424040D02*
Y457340D01*
X147830D01*
Y424040D02*
Y457340D01*
X129030Y424040D02*
X147830D01*
X266770Y748310D02*
X370770D01*
X266770Y821410D02*
X370770D01*
Y748310D02*
Y821410D01*
X266770Y748310D02*
Y821410D01*
M02*
