G04*
G04 #@! TF.GenerationSoftware,Altium Limited,Altium Designer,24.1.2 (44)*
G04*
G04 Layer_Color=16711935*
%FSLAX44Y44*%
%MOMM*%
G71*
G04*
G04 #@! TF.SameCoordinates,FACD1C8F-268C-462D-A2B8-4F1E1D882815*
G04*
G04*
G04 #@! TF.FilePolarity,Negative*
G04*
G01*
G75*
G04:AMPARAMS|DCode=26|XSize=1.1232mm|YSize=1.5832mm|CornerRadius=0.2166mm|HoleSize=0mm|Usage=FLASHONLY|Rotation=270.000|XOffset=0mm|YOffset=0mm|HoleType=Round|Shape=RoundedRectangle|*
%AMROUNDEDRECTD26*
21,1,1.1232,1.1500,0,0,270.0*
21,1,0.6900,1.5832,0,0,270.0*
1,1,0.4332,-0.5750,-0.3450*
1,1,0.4332,-0.5750,0.3450*
1,1,0.4332,0.5750,0.3450*
1,1,0.4332,0.5750,-0.3450*
%
%ADD26ROUNDEDRECTD26*%
%ADD28C,1.7232*%
%ADD29C,3.9200*%
%ADD30R,3.9200X3.9200*%
%ADD31O,1.4040X2.6040*%
%ADD32O,2.7032X1.4032*%
%ADD33R,2.7032X1.4032*%
%ADD34C,1.7272*%
%ADD35C,5.2032*%
%ADD36C,1.0032*%
G04:AMPARAMS|DCode=50|XSize=2.1032mm|YSize=0.8032mm|CornerRadius=0.1766mm|HoleSize=0mm|Usage=FLASHONLY|Rotation=270.000|XOffset=0mm|YOffset=0mm|HoleType=Round|Shape=RoundedRectangle|*
%AMROUNDEDRECTD50*
21,1,2.1032,0.4500,0,0,270.0*
21,1,1.7500,0.8032,0,0,270.0*
1,1,0.3532,-0.2250,-0.8750*
1,1,0.3532,-0.2250,0.8750*
1,1,0.3532,0.2250,0.8750*
1,1,0.3532,0.2250,-0.8750*
%
%ADD50ROUNDEDRECTD50*%
D26*
X255270Y774040D02*
D03*
Y793140D02*
D03*
D28*
X538480Y461010D02*
D03*
X563880D02*
D03*
X538480Y435610D02*
D03*
X563880D02*
D03*
X538480Y410210D02*
D03*
X563880D02*
D03*
X538480Y384810D02*
D03*
X563880D02*
D03*
X538480Y359410D02*
D03*
X563880D02*
D03*
X101600Y351910D02*
D03*
X76200D02*
D03*
X101600Y377310D02*
D03*
X76200D02*
D03*
X101600Y402710D02*
D03*
X76200D02*
D03*
X101600Y428110D02*
D03*
X76200D02*
D03*
X101600Y453510D02*
D03*
X76200D02*
D03*
X274320Y869950D02*
D03*
Y895350D02*
D03*
X299720Y869950D02*
D03*
Y895350D02*
D03*
X325120Y869950D02*
D03*
Y895350D02*
D03*
X350520Y869950D02*
D03*
Y895350D02*
D03*
X375920Y869950D02*
D03*
Y895350D02*
D03*
D29*
X376360Y228910D02*
D03*
D30*
X304360D02*
D03*
D31*
X407860Y168910D02*
D03*
X272860D02*
D03*
D32*
X458470Y701040D02*
D03*
Y624840D02*
D03*
Y650240D02*
D03*
Y675640D02*
D03*
Y726440D02*
D03*
Y751840D02*
D03*
Y777240D02*
D03*
Y802640D02*
D03*
Y828040D02*
D03*
X204470Y701040D02*
D03*
X458470Y599440D02*
D03*
Y574040D02*
D03*
X204470D02*
D03*
Y599440D02*
D03*
Y624840D02*
D03*
Y650240D02*
D03*
Y675640D02*
D03*
X458470Y294640D02*
D03*
Y320040D02*
D03*
Y345440D02*
D03*
Y370840D02*
D03*
Y396240D02*
D03*
Y421640D02*
D03*
Y447040D02*
D03*
Y472440D02*
D03*
Y497840D02*
D03*
Y523240D02*
D03*
Y548640D02*
D03*
X204470Y294640D02*
D03*
Y320040D02*
D03*
Y345440D02*
D03*
Y370840D02*
D03*
Y396240D02*
D03*
Y421640D02*
D03*
Y447040D02*
D03*
Y472440D02*
D03*
Y497840D02*
D03*
Y523240D02*
D03*
Y548640D02*
D03*
Y726440D02*
D03*
Y751840D02*
D03*
Y777240D02*
D03*
Y802640D02*
D03*
D33*
Y828040D02*
D03*
D34*
X298460Y466090D02*
D03*
X378460D02*
D03*
X403860D02*
D03*
X273060D02*
D03*
X298460Y280690D02*
D03*
X273060D02*
D03*
X403860D02*
D03*
X378460D02*
D03*
X298460Y714990D02*
D03*
X378460D02*
D03*
X403860D02*
D03*
X273060D02*
D03*
X298460Y529590D02*
D03*
X273060D02*
D03*
X403860D02*
D03*
X378460D02*
D03*
D35*
X633730Y120650D02*
D03*
X41910D02*
D03*
X633730Y868680D02*
D03*
X41910D02*
D03*
D36*
X245110Y760730D02*
D03*
X238760Y812800D02*
D03*
X375920Y511810D02*
D03*
X322580Y510540D02*
D03*
X151130Y496570D02*
D03*
X121920Y647700D02*
D03*
X505460Y822960D02*
D03*
X485140Y722630D02*
D03*
X181610Y796290D02*
D03*
X180340Y676910D02*
D03*
X552450Y316230D02*
D03*
X566420Y486410D02*
D03*
X530860Y703580D02*
D03*
X325120Y777240D02*
D03*
X504190Y240030D02*
D03*
X66040Y229870D02*
D03*
X337820Y745490D02*
D03*
X496570Y601980D02*
D03*
X488950Y770890D02*
D03*
D50*
X274320Y760310D02*
D03*
X287020D02*
D03*
X299720D02*
D03*
X312420D02*
D03*
X325120D02*
D03*
X337820D02*
D03*
X350520D02*
D03*
X363220D02*
D03*
Y809410D02*
D03*
X350520D02*
D03*
X337820D02*
D03*
X325120D02*
D03*
X312420D02*
D03*
X299720D02*
D03*
X287020D02*
D03*
X274320D02*
D03*
M02*
