G04*
G04 #@! TF.GenerationSoftware,Altium Limited,Altium Designer,24.1.2 (44)*
G04*
G04 Layer_Physical_Order=2*
G04 Layer_Color=16711680*
%FSLAX44Y44*%
%MOMM*%
G71*
G04*
G04 #@! TF.SameCoordinates,FACD1C8F-268C-462D-A2B8-4F1E1D882815*
G04*
G04*
G04 #@! TF.FilePolarity,Positive*
G04*
G01*
G75*
G04:AMPARAMS|DCode=18|XSize=0.92mm|YSize=1.38mm|CornerRadius=0.115mm|HoleSize=0mm|Usage=FLASHONLY|Rotation=270.000|XOffset=0mm|YOffset=0mm|HoleType=Round|Shape=RoundedRectangle|*
%AMROUNDEDRECTD18*
21,1,0.9200,1.1500,0,0,270.0*
21,1,0.6900,1.3800,0,0,270.0*
1,1,0.2300,-0.5750,-0.3450*
1,1,0.2300,-0.5750,0.3450*
1,1,0.2300,0.5750,0.3450*
1,1,0.2300,0.5750,-0.3450*
%
%ADD18ROUNDEDRECTD18*%
%ADD37C,0.4000*%
%ADD38C,0.8000*%
%ADD39C,0.3810*%
%ADD40C,1.5200*%
%ADD41C,3.7160*%
%ADD42R,3.7160X3.7160*%
%ADD43O,1.2000X2.4000*%
%ADD44O,2.5000X1.2000*%
%ADD45R,2.5000X1.2000*%
%ADD46C,1.5240*%
%ADD47C,5.0000*%
%ADD48C,0.8000*%
G04:AMPARAMS|DCode=49|XSize=1.9mm|YSize=0.6mm|CornerRadius=0.075mm|HoleSize=0mm|Usage=FLASHONLY|Rotation=270.000|XOffset=0mm|YOffset=0mm|HoleType=Round|Shape=RoundedRectangle|*
%AMROUNDEDRECTD49*
21,1,1.9000,0.4500,0,0,270.0*
21,1,1.7500,0.6000,0,0,270.0*
1,1,0.1500,-0.2250,-0.8750*
1,1,0.1500,-0.2250,0.8750*
1,1,0.1500,0.2250,0.8750*
1,1,0.1500,0.2250,-0.8750*
%
%ADD49ROUNDEDRECTD49*%
G36*
X291752Y901722D02*
X291606Y901576D01*
X290271Y899264D01*
X289580Y896685D01*
Y894015D01*
X290271Y891436D01*
X291606Y889124D01*
X293494Y887236D01*
X295806Y885901D01*
X298385Y885210D01*
X301055D01*
X302944Y885716D01*
X307233Y881428D01*
Y878437D01*
X306060Y877951D01*
X305946Y878064D01*
X303634Y879399D01*
X301055Y880090D01*
X298385D01*
X295806Y879399D01*
X293494Y878064D01*
X291606Y876176D01*
X290271Y873864D01*
X289580Y871285D01*
Y868615D01*
X290086Y866726D01*
X283815Y860455D01*
X282833Y858984D01*
X282488Y857250D01*
Y820592D01*
X282398Y820532D01*
X281671Y819444D01*
X281416Y818160D01*
Y800660D01*
X281671Y799377D01*
X281896Y799039D01*
X281288Y797901D01*
X280052D01*
X279443Y799039D01*
X279669Y799377D01*
X279925Y800660D01*
Y818160D01*
X279669Y819444D01*
X278942Y820532D01*
X278852Y820592D01*
Y836930D01*
X278852Y836930D01*
X278507Y838664D01*
X277525Y840135D01*
X262342Y855317D01*
Y889421D01*
X266035D01*
X266206Y889124D01*
X268094Y887236D01*
X270406Y885901D01*
X272985Y885210D01*
X275655D01*
X278234Y885901D01*
X280546Y887236D01*
X282434Y889124D01*
X283769Y891436D01*
X284460Y894015D01*
Y896685D01*
X283769Y899264D01*
X282434Y901576D01*
X282288Y901722D01*
X282774Y902895D01*
X291266D01*
X291752Y901722D01*
D02*
G37*
G36*
X342552D02*
X342406Y901576D01*
X341071Y899264D01*
X340380Y896685D01*
Y894015D01*
X341071Y891436D01*
X342406Y889124D01*
X344294Y887236D01*
X346606Y885901D01*
X349185Y885210D01*
X351855D01*
X353744Y885716D01*
X358033Y881428D01*
Y878437D01*
X356860Y877951D01*
X356746Y878064D01*
X354434Y879399D01*
X351855Y880090D01*
X349185D01*
X346606Y879399D01*
X344294Y878064D01*
X342967Y876737D01*
X341697Y877263D01*
Y883305D01*
X341352Y885039D01*
X340370Y886510D01*
X340370Y886510D01*
X334754Y892126D01*
X335260Y894015D01*
Y896685D01*
X334569Y899264D01*
X333234Y901576D01*
X333088Y901722D01*
X333574Y902895D01*
X342066D01*
X342552Y901722D01*
D02*
G37*
G36*
X317152D02*
X317006Y901576D01*
X315671Y899264D01*
X314980Y896685D01*
Y894015D01*
X315671Y891436D01*
X317006Y889124D01*
X318894Y887236D01*
X321206Y885901D01*
X323785Y885210D01*
X326455D01*
X328344Y885716D01*
X332633Y881428D01*
Y878437D01*
X331460Y877951D01*
X331346Y878064D01*
X329034Y879399D01*
X326455Y880090D01*
X323785D01*
X321206Y879399D01*
X318894Y878064D01*
X317567Y876737D01*
X316297Y877263D01*
Y883305D01*
X315952Y885039D01*
X314970Y886510D01*
X314970Y886510D01*
X309354Y892126D01*
X309860Y894015D01*
Y896685D01*
X309169Y899264D01*
X307834Y901576D01*
X307688Y901722D01*
X308174Y902895D01*
X316666D01*
X317152Y901722D01*
D02*
G37*
G36*
X307233Y861463D02*
Y854662D01*
X296515Y843945D01*
X295533Y842474D01*
X295188Y840740D01*
Y820592D01*
X295098Y820532D01*
X294371Y819444D01*
X294116Y818160D01*
Y800660D01*
X294371Y799377D01*
X294597Y799039D01*
X293988Y797901D01*
X292752D01*
X292143Y799039D01*
X292369Y799377D01*
X292624Y800660D01*
Y818160D01*
X292369Y819444D01*
X291642Y820532D01*
X291552Y820592D01*
Y855373D01*
X296496Y860316D01*
X298385Y859810D01*
X301055D01*
X303634Y860501D01*
X305946Y861836D01*
X306060Y861949D01*
X307233Y861463D01*
D02*
G37*
G36*
X318894Y861836D02*
X320588Y860858D01*
Y851507D01*
X309215Y840135D01*
X308233Y838664D01*
X307888Y836930D01*
Y820592D01*
X307798Y820532D01*
X307071Y819444D01*
X306815Y818160D01*
Y800660D01*
X307071Y799377D01*
X307297Y799039D01*
X306688Y797901D01*
X305452D01*
X304844Y799039D01*
X305069Y799377D01*
X305324Y800660D01*
Y818160D01*
X305069Y819444D01*
X304342Y820532D01*
X304252Y820592D01*
Y838863D01*
X314970Y849580D01*
X314970Y849580D01*
X315952Y851051D01*
X316297Y852785D01*
Y862637D01*
X317567Y863163D01*
X318894Y861836D01*
D02*
G37*
G36*
X12700Y902895D02*
X265866D01*
X266352Y901722D01*
X266206Y901576D01*
X264871Y899264D01*
X264662Y898485D01*
X260042D01*
X258307Y898140D01*
X256837Y897158D01*
X254605Y894926D01*
X253623Y893455D01*
X253278Y891721D01*
Y853440D01*
X253623Y851706D01*
X254605Y850235D01*
X269788Y835053D01*
Y820592D01*
X269698Y820532D01*
X268971Y819444D01*
X268715Y818160D01*
Y800660D01*
X268971Y799377D01*
X269196Y799039D01*
X268518Y797769D01*
X264548D01*
X264496Y798030D01*
X263680Y799250D01*
X262460Y800066D01*
X261020Y800352D01*
X249520D01*
X248080Y800066D01*
X246860Y799250D01*
X246044Y798030D01*
X245992Y797769D01*
X238150D01*
X236378Y797417D01*
X234877Y796413D01*
X234877Y796413D01*
X230407Y791943D01*
X229403Y790441D01*
X229051Y788670D01*
X229051Y788670D01*
Y456577D01*
X224143Y451669D01*
X218183D01*
X217061Y453131D01*
X215277Y454500D01*
X213199Y455360D01*
X210970Y455654D01*
X197970D01*
X195741Y455360D01*
X193663Y454500D01*
X191879Y453131D01*
X190510Y451347D01*
X189650Y449269D01*
X189356Y447040D01*
X189650Y444811D01*
X190510Y442733D01*
X191879Y440949D01*
X193663Y439580D01*
X195741Y438720D01*
X197970Y438426D01*
X210970D01*
X213199Y438720D01*
X215277Y439580D01*
X217061Y440949D01*
X218183Y442411D01*
X226060D01*
X226060Y442411D01*
X227831Y442763D01*
X229333Y443767D01*
X236953Y451387D01*
X237957Y452889D01*
X238309Y454660D01*
X238309Y454660D01*
Y756890D01*
X239579Y757230D01*
X239877Y756714D01*
X241094Y755497D01*
X242586Y754636D01*
X244249Y754190D01*
X245971D01*
X247634Y754636D01*
X249126Y755497D01*
X249730Y756101D01*
X255270D01*
X255632Y756173D01*
X255842Y756033D01*
X257613Y755681D01*
X268715D01*
Y751560D01*
X268971Y750276D01*
X269698Y749188D01*
X270786Y748461D01*
X272070Y748205D01*
X276570D01*
X277854Y748461D01*
X278942Y749188D01*
X279669Y750276D01*
X279925Y751560D01*
Y755681D01*
X281416D01*
Y751560D01*
X281671Y750276D01*
X282398Y749188D01*
X283486Y748461D01*
X284770Y748205D01*
X289270D01*
X290554Y748461D01*
X291642Y749188D01*
X292369Y750276D01*
X292624Y751560D01*
Y769060D01*
X292369Y770343D01*
X291642Y771432D01*
X290554Y772159D01*
X289270Y772414D01*
X284770D01*
X283486Y772159D01*
X282398Y771432D01*
X281671Y770343D01*
X281416Y769060D01*
Y764939D01*
X279925D01*
Y769060D01*
X279669Y770343D01*
X278942Y771432D01*
X277854Y772159D01*
X276570Y772414D01*
X272070D01*
X270786Y772159D01*
X269698Y771432D01*
X268971Y770343D01*
X268715Y769060D01*
Y764939D01*
X259899D01*
Y766828D01*
X261020D01*
X262460Y767114D01*
X263680Y767930D01*
X264496Y769150D01*
X264782Y770590D01*
Y777490D01*
X264496Y778930D01*
X263680Y780150D01*
X262460Y780966D01*
X261020Y781252D01*
X249520D01*
X248080Y780966D01*
X246860Y780150D01*
X246044Y778930D01*
X245758Y777490D01*
Y770590D01*
X246044Y769150D01*
X246520Y768438D01*
X246206Y767768D01*
X245773Y767270D01*
X244249D01*
X242586Y766824D01*
X241094Y765963D01*
X239877Y764746D01*
X239579Y764230D01*
X238309Y764570D01*
Y786753D01*
X240067Y788511D01*
X245992D01*
X246044Y788250D01*
X246860Y787030D01*
X248080Y786214D01*
X249520Y785928D01*
X261020D01*
X262460Y786214D01*
X263680Y787030D01*
X264496Y788250D01*
X264548Y788511D01*
X344133D01*
X345891Y786753D01*
Y771421D01*
X345171Y770343D01*
X344916Y769060D01*
Y751560D01*
X345171Y750276D01*
X345898Y749188D01*
X346986Y748461D01*
X348270Y748205D01*
X352770D01*
X354054Y748461D01*
X355142Y749188D01*
X355869Y750276D01*
X356124Y751560D01*
Y755667D01*
X357394Y756232D01*
X357616Y756033D01*
Y751560D01*
X357871Y750276D01*
X358598Y749188D01*
X359686Y748461D01*
X360970Y748205D01*
X361950D01*
Y760310D01*
Y772414D01*
X360970D01*
X359686Y772159D01*
X358598Y771432D01*
X357871Y770343D01*
X357616Y769060D01*
Y764587D01*
X357394Y764387D01*
X356124Y764953D01*
Y769060D01*
X355869Y770343D01*
X355149Y771421D01*
Y788670D01*
X354797Y790441D01*
X353793Y791943D01*
X353793Y791943D01*
X349701Y796036D01*
X350227Y797306D01*
X352770D01*
X354054Y797561D01*
X355142Y798288D01*
X355869Y799377D01*
X356124Y800660D01*
Y818160D01*
X355869Y819444D01*
X355142Y820532D01*
X355052Y820592D01*
Y835053D01*
X357947Y837947D01*
X358524Y837654D01*
X358994Y837199D01*
X358688Y835660D01*
Y820592D01*
X358598Y820532D01*
X357871Y819444D01*
X357616Y818160D01*
Y800660D01*
X357871Y799377D01*
X358598Y798288D01*
X359686Y797561D01*
X360970Y797306D01*
X365470D01*
X366754Y797561D01*
X367842Y798288D01*
X368569Y799377D01*
X368825Y800660D01*
Y818160D01*
X368569Y819444D01*
X367842Y820532D01*
X367752Y820592D01*
Y833783D01*
X379125Y845155D01*
X379125Y845155D01*
X380107Y846626D01*
X380452Y848360D01*
X380452Y848360D01*
Y860858D01*
X382146Y861836D01*
X384034Y863724D01*
X385369Y866036D01*
X386060Y868615D01*
Y871285D01*
X385369Y873864D01*
X384034Y876176D01*
X382146Y878064D01*
X379834Y879399D01*
X377255Y880090D01*
X374585D01*
X372006Y879399D01*
X369694Y878064D01*
X368367Y876737D01*
X367097Y877263D01*
Y883305D01*
X366752Y885039D01*
X365770Y886510D01*
X365770Y886510D01*
X360154Y892126D01*
X360660Y894015D01*
Y896685D01*
X359969Y899264D01*
X358634Y901576D01*
X358488Y901722D01*
X358974Y902895D01*
X367466D01*
X367952Y901722D01*
X367806Y901576D01*
X366471Y899264D01*
X365780Y896685D01*
Y896620D01*
X386060D01*
Y896685D01*
X385369Y899264D01*
X384034Y901576D01*
X383888Y901722D01*
X384374Y902895D01*
X646250D01*
X646261Y902885D01*
Y902885D01*
X646261Y902885D01*
X650120Y902505D01*
X654889Y901058D01*
X659284Y898708D01*
X663137Y895547D01*
X666299Y891694D01*
X668648Y887299D01*
X670095Y882530D01*
X670485Y878563D01*
Y876577D01*
X670475Y876469D01*
X670485Y876469D01*
X670485Y120452D01*
X670451Y120451D01*
X670485Y120017D01*
Y118110D01*
X670521Y117929D01*
X670171Y113476D01*
X668937Y108337D01*
X666914Y103455D01*
X664153Y98948D01*
X660721Y94930D01*
X656702Y91497D01*
X652196Y88736D01*
X647313Y86713D01*
X642174Y85479D01*
X638611Y85199D01*
X638611Y85199D01*
Y85199D01*
X638578Y85165D01*
X13962Y85165D01*
X12700Y85165D01*
X11487Y85301D01*
X10412Y85443D01*
X8281Y86326D01*
X6450Y87730D01*
X5045Y89561D01*
X4162Y91692D01*
X3871Y93910D01*
X3885Y93980D01*
Y125730D01*
X3885Y894080D01*
X3871Y894150D01*
X4163Y896368D01*
X5045Y898499D01*
X6450Y900330D01*
X8281Y901734D01*
X10412Y902617D01*
X12630Y902909D01*
X12700Y902895D01*
D02*
G37*
%LPC*%
G36*
X275655Y880090D02*
X272985D01*
X270406Y879399D01*
X268094Y878064D01*
X266206Y876176D01*
X264871Y873864D01*
X264180Y871285D01*
Y868615D01*
X264871Y866036D01*
X266206Y863724D01*
X268094Y861836D01*
X270406Y860501D01*
X272985Y859810D01*
X275655D01*
X278234Y860501D01*
X280546Y861836D01*
X282434Y863724D01*
X283769Y866036D01*
X284460Y868615D01*
Y871285D01*
X283769Y873864D01*
X282434Y876176D01*
X280546Y878064D01*
X278234Y879399D01*
X275655Y880090D01*
D02*
G37*
G36*
X386060Y894080D02*
X377190D01*
Y885210D01*
X377255D01*
X379834Y885901D01*
X382146Y887236D01*
X384034Y889124D01*
X385369Y891436D01*
X386060Y894015D01*
Y894080D01*
D02*
G37*
G36*
X374650D02*
X365780D01*
Y894015D01*
X366471Y891436D01*
X367806Y889124D01*
X369694Y887236D01*
X372006Y885901D01*
X374585Y885210D01*
X374650D01*
Y894080D01*
D02*
G37*
G36*
X635897Y896220D02*
X631562D01*
X627281Y895542D01*
X623158Y894202D01*
X619296Y892234D01*
X615789Y889686D01*
X612724Y886621D01*
X610176Y883114D01*
X608208Y879252D01*
X606868Y875129D01*
X606190Y870847D01*
Y866513D01*
X606868Y862231D01*
X608208Y858108D01*
X610176Y854246D01*
X612724Y850739D01*
X615789Y847674D01*
X619296Y845126D01*
X623158Y843158D01*
X627281Y841818D01*
X631562Y841140D01*
X635897D01*
X640179Y841818D01*
X644302Y843158D01*
X648164Y845126D01*
X651671Y847674D01*
X654736Y850739D01*
X657284Y854246D01*
X659252Y858108D01*
X660592Y862231D01*
X661270Y866513D01*
Y870847D01*
X660592Y875129D01*
X659252Y879252D01*
X657284Y883114D01*
X654736Y886621D01*
X651671Y889686D01*
X648164Y892234D01*
X644302Y894202D01*
X640179Y895542D01*
X635897Y896220D01*
D02*
G37*
G36*
X44078D02*
X39743D01*
X35461Y895542D01*
X31338Y894202D01*
X27476Y892234D01*
X23969Y889686D01*
X20904Y886621D01*
X18356Y883114D01*
X16388Y879252D01*
X15048Y875129D01*
X14370Y870847D01*
Y866513D01*
X15048Y862231D01*
X16388Y858108D01*
X18356Y854246D01*
X20904Y850739D01*
X23969Y847674D01*
X27476Y845126D01*
X31338Y843158D01*
X35461Y841818D01*
X39743Y841140D01*
X44078D01*
X48359Y841818D01*
X52482Y843158D01*
X56344Y845126D01*
X59851Y847674D01*
X62916Y850739D01*
X65464Y854246D01*
X67432Y858108D01*
X68772Y862231D01*
X69450Y866513D01*
Y870847D01*
X68772Y875129D01*
X67432Y879252D01*
X65464Y883114D01*
X62916Y886621D01*
X59851Y889686D01*
X56344Y892234D01*
X52482Y894202D01*
X48359Y895542D01*
X44078Y896220D01*
D02*
G37*
G36*
X464970Y836654D02*
X459740D01*
Y829310D01*
X473416D01*
X473290Y830269D01*
X472430Y832347D01*
X471061Y834131D01*
X469277Y835500D01*
X467199Y836360D01*
X464970Y836654D01*
D02*
G37*
G36*
X219510Y836580D02*
X205740D01*
Y829310D01*
X219510D01*
Y836580D01*
D02*
G37*
G36*
X203200D02*
X189430D01*
Y829310D01*
X203200D01*
Y836580D01*
D02*
G37*
G36*
X219510Y826770D02*
X205740D01*
Y819500D01*
X219510D01*
Y826770D01*
D02*
G37*
G36*
X203200D02*
X189430D01*
Y819500D01*
X203200D01*
Y826770D01*
D02*
G37*
G36*
X473416D02*
X459740D01*
Y819426D01*
X464970D01*
X467199Y819720D01*
X469277Y820580D01*
X471061Y821949D01*
X472430Y823733D01*
X473290Y825811D01*
X473416Y826770D01*
D02*
G37*
G36*
X457200Y836654D02*
X451970D01*
X449741Y836360D01*
X447663Y835500D01*
X446538Y834636D01*
X398780D01*
X397073Y834412D01*
X395482Y833753D01*
X394116Y832704D01*
X381416Y820004D01*
X380367Y818638D01*
X379708Y817047D01*
X379484Y815340D01*
Y767729D01*
X378661Y766906D01*
X368825D01*
Y769060D01*
X368569Y770343D01*
X367842Y771432D01*
X366754Y772159D01*
X365470Y772414D01*
X364490D01*
Y760310D01*
Y748205D01*
X365470D01*
X366754Y748461D01*
X367842Y749188D01*
X368569Y750276D01*
X368825Y751560D01*
Y753714D01*
X381394D01*
X383101Y753938D01*
X384692Y754597D01*
X386058Y755646D01*
X390744Y760332D01*
X391793Y761698D01*
X392452Y763289D01*
X392676Y764996D01*
Y812608D01*
X401512Y821444D01*
X446538D01*
X447663Y820580D01*
X449741Y819720D01*
X451970Y819426D01*
X457200D01*
Y828040D01*
Y836654D01*
D02*
G37*
G36*
X239621Y819340D02*
X237899D01*
X236236Y818894D01*
X234744Y818033D01*
X234520Y817809D01*
X193604D01*
X193604Y817809D01*
X191833Y817457D01*
X191791Y817429D01*
X185420D01*
X185420Y817429D01*
X183649Y817077D01*
X182147Y816073D01*
X178337Y812263D01*
X177333Y810761D01*
X176981Y808990D01*
X176981Y808990D01*
Y800910D01*
X176377Y800306D01*
X175516Y798814D01*
X175070Y797151D01*
Y795429D01*
X175516Y793766D01*
X176346Y792327D01*
Y682156D01*
X176324Y682143D01*
X175107Y680926D01*
X174246Y679434D01*
X173800Y677771D01*
Y676049D01*
X174246Y674386D01*
X175107Y672894D01*
X176324Y671677D01*
X177816Y670816D01*
X179479Y670370D01*
X181201D01*
X182864Y670816D01*
X184356Y671677D01*
X185573Y672894D01*
X186434Y674386D01*
X186880Y676049D01*
Y677771D01*
X186434Y679434D01*
X185604Y680873D01*
Y791044D01*
X185626Y791057D01*
X186843Y792274D01*
X187704Y793766D01*
X188150Y795429D01*
Y797151D01*
X187704Y798814D01*
X186843Y800306D01*
X186239Y800910D01*
Y807073D01*
X187337Y808171D01*
X190014D01*
X190576Y807032D01*
X190510Y806947D01*
X189650Y804869D01*
X189524Y803910D01*
X219417D01*
X219290Y804869D01*
X218430Y806947D01*
X218073Y807412D01*
X218634Y808551D01*
X233760D01*
X234744Y807567D01*
X236236Y806706D01*
X237899Y806260D01*
X239621D01*
X241284Y806706D01*
X242776Y807567D01*
X243993Y808784D01*
X244854Y810276D01*
X245300Y811939D01*
Y813661D01*
X244854Y815324D01*
X243993Y816816D01*
X242776Y818033D01*
X241284Y818894D01*
X239621Y819340D01*
D02*
G37*
G36*
X464970Y811254D02*
X451970D01*
X449741Y810960D01*
X447663Y810100D01*
X445879Y808731D01*
X444510Y806947D01*
X443650Y804869D01*
X443356Y802640D01*
X443650Y800411D01*
X444510Y798333D01*
X445879Y796549D01*
X447663Y795180D01*
X449741Y794320D01*
X451970Y794026D01*
X464970D01*
X467199Y794320D01*
X469277Y795180D01*
X471061Y796549D01*
X472430Y798333D01*
X473290Y800411D01*
X473584Y802640D01*
X473290Y804869D01*
X472430Y806947D01*
X471061Y808731D01*
X469277Y810100D01*
X467199Y810960D01*
X464970Y811254D01*
D02*
G37*
G36*
X219417Y801370D02*
X205740D01*
Y794026D01*
X210970D01*
X213199Y794320D01*
X215277Y795180D01*
X217061Y796549D01*
X218430Y798333D01*
X219290Y800411D01*
X219417Y801370D01*
D02*
G37*
G36*
X203200D02*
X189524D01*
X189650Y800411D01*
X190510Y798333D01*
X191879Y796549D01*
X193663Y795180D01*
X195741Y794320D01*
X197970Y794026D01*
X203200D01*
Y801370D01*
D02*
G37*
G36*
X464970Y785854D02*
X451970D01*
X449741Y785560D01*
X447663Y784700D01*
X445879Y783331D01*
X444510Y781547D01*
X443650Y779469D01*
X443356Y777240D01*
X443650Y775011D01*
X444510Y772933D01*
X445879Y771149D01*
X447663Y769780D01*
X449741Y768920D01*
X451970Y768626D01*
X464970D01*
X467199Y768920D01*
X469277Y769780D01*
X471061Y771149D01*
X472430Y772933D01*
X473290Y775011D01*
X473584Y777240D01*
X473290Y779469D01*
X472430Y781547D01*
X471061Y783331D01*
X469277Y784700D01*
X467199Y785560D01*
X464970Y785854D01*
D02*
G37*
G36*
X210970D02*
X197970D01*
X195741Y785560D01*
X193663Y784700D01*
X191879Y783331D01*
X190510Y781547D01*
X189650Y779469D01*
X189356Y777240D01*
X189650Y775011D01*
X190510Y772933D01*
X191879Y771149D01*
X193663Y769780D01*
X195741Y768920D01*
X197970Y768626D01*
X210970D01*
X213199Y768920D01*
X215277Y769780D01*
X217061Y771149D01*
X218430Y772933D01*
X219290Y775011D01*
X219584Y777240D01*
X219290Y779469D01*
X218430Y781547D01*
X217061Y783331D01*
X215277Y784700D01*
X213199Y785560D01*
X210970Y785854D01*
D02*
G37*
G36*
X301970Y772414D02*
X300990D01*
Y761580D01*
X305324D01*
Y769060D01*
X305069Y770343D01*
X304342Y771432D01*
X303254Y772159D01*
X301970Y772414D01*
D02*
G37*
G36*
X298450D02*
X297470D01*
X296186Y772159D01*
X295098Y771432D01*
X294371Y770343D01*
X294116Y769060D01*
Y761580D01*
X298450D01*
Y772414D01*
D02*
G37*
G36*
X489811Y777430D02*
X488089D01*
X486426Y776984D01*
X484934Y776123D01*
X483717Y774906D01*
X482856Y773414D01*
X482410Y771751D01*
Y770029D01*
X482856Y768366D01*
X483717Y766874D01*
X484418Y766173D01*
Y756372D01*
X472257D01*
X471061Y757931D01*
X469277Y759300D01*
X467199Y760160D01*
X464970Y760454D01*
X451970D01*
X449741Y760160D01*
X447663Y759300D01*
X445879Y757931D01*
X444510Y756147D01*
X443650Y754069D01*
X443356Y751840D01*
X443650Y749611D01*
X444510Y747533D01*
X445879Y745749D01*
X447663Y744380D01*
X449741Y743520D01*
X451970Y743226D01*
X464970D01*
X467199Y743520D01*
X469277Y744380D01*
X471061Y745749D01*
X472257Y747308D01*
X486718D01*
X488452Y747653D01*
X489923Y748635D01*
X492155Y750867D01*
X493137Y752337D01*
X493482Y754072D01*
Y766173D01*
X494183Y766874D01*
X495044Y768366D01*
X495490Y770029D01*
Y771751D01*
X495044Y773414D01*
X494183Y774906D01*
X492966Y776123D01*
X491474Y776984D01*
X489811Y777430D01*
D02*
G37*
G36*
X305324Y759040D02*
X300990D01*
Y748205D01*
X301970D01*
X303254Y748461D01*
X304342Y749188D01*
X305069Y750276D01*
X305324Y751560D01*
Y759040D01*
D02*
G37*
G36*
X298450D02*
X294116D01*
Y751560D01*
X294371Y750276D01*
X295098Y749188D01*
X296186Y748461D01*
X297470Y748205D01*
X298450D01*
Y759040D01*
D02*
G37*
G36*
X210970Y760454D02*
X197970D01*
X195741Y760160D01*
X193663Y759300D01*
X191879Y757931D01*
X190510Y756147D01*
X189650Y754069D01*
X189356Y751840D01*
X189650Y749611D01*
X190510Y747533D01*
X191879Y745749D01*
X193663Y744380D01*
X195741Y743520D01*
X197970Y743226D01*
X210970D01*
X213199Y743520D01*
X215277Y744380D01*
X217061Y745749D01*
X218430Y747533D01*
X219290Y749611D01*
X219584Y751840D01*
X219290Y754069D01*
X218430Y756147D01*
X217061Y757931D01*
X215277Y759300D01*
X213199Y760160D01*
X210970Y760454D01*
D02*
G37*
G36*
X325981Y783780D02*
X324259D01*
X322596Y783334D01*
X321104Y782473D01*
X319887Y781256D01*
X319026Y779764D01*
X318580Y778101D01*
Y776379D01*
X319026Y774716D01*
X319887Y773224D01*
X320491Y772620D01*
Y771421D01*
X319771Y770343D01*
X319515Y769060D01*
Y751560D01*
X319771Y750276D01*
X320498Y749188D01*
X321586Y748461D01*
X322870Y748205D01*
X327370D01*
X328654Y748461D01*
X329742Y749188D01*
X330469Y750276D01*
X330724Y751560D01*
Y765499D01*
X330946Y766106D01*
X332215Y765882D01*
Y751560D01*
X332471Y750276D01*
X332826Y749745D01*
X332587Y749506D01*
X331726Y748014D01*
X331280Y746351D01*
Y744629D01*
X331726Y742966D01*
X332587Y741474D01*
X333804Y740257D01*
X335296Y739396D01*
X336959Y738950D01*
X338681D01*
X340344Y739396D01*
X341836Y740257D01*
X343053Y741474D01*
X343914Y742966D01*
X344360Y744629D01*
Y746351D01*
X343914Y748014D01*
X343053Y749506D01*
X342814Y749745D01*
X343169Y750276D01*
X343424Y751560D01*
Y769060D01*
X343169Y770343D01*
X342442Y771432D01*
X341354Y772159D01*
X340070Y772414D01*
X335570D01*
X334286Y772159D01*
X333198Y771432D01*
X332471Y770343D01*
X332215Y769060D01*
Y768278D01*
X330946Y768054D01*
X330724Y768661D01*
Y769060D01*
X330469Y770343D01*
X329749Y771421D01*
Y772620D01*
X330353Y773224D01*
X331214Y774716D01*
X331660Y776379D01*
Y778101D01*
X331214Y779764D01*
X330353Y781256D01*
X329136Y782473D01*
X327644Y783334D01*
X325981Y783780D01*
D02*
G37*
G36*
X314670Y772414D02*
X310170D01*
X308886Y772159D01*
X307798Y771432D01*
X307071Y770343D01*
X306815Y769060D01*
Y751560D01*
X307071Y750276D01*
X307791Y749198D01*
Y744867D01*
X306693Y743769D01*
X247453D01*
X245682Y743417D01*
X244180Y742413D01*
X244180Y742413D01*
X241837Y740070D01*
X240833Y738568D01*
X240481Y736797D01*
X240481Y736797D01*
Y414667D01*
X226683Y400869D01*
X218183D01*
X217061Y402331D01*
X215277Y403700D01*
X213199Y404560D01*
X210970Y404854D01*
X197970D01*
X195741Y404560D01*
X193663Y403700D01*
X191879Y402331D01*
X190510Y400547D01*
X189650Y398469D01*
X189356Y396240D01*
X189650Y394011D01*
X190510Y391933D01*
X191879Y390149D01*
X193663Y388780D01*
X195741Y387920D01*
X197970Y387626D01*
X210970D01*
X213199Y387920D01*
X215277Y388780D01*
X217061Y390149D01*
X218183Y391611D01*
X228600D01*
X228600Y391611D01*
X230371Y391963D01*
X231873Y392967D01*
X248383Y409477D01*
X248383Y409477D01*
X249387Y410979D01*
X249739Y412750D01*
X249739Y412750D01*
Y734511D01*
X308610D01*
X308610Y734511D01*
X310381Y734863D01*
X311883Y735867D01*
X315693Y739677D01*
X316697Y741179D01*
X317049Y742950D01*
X317049Y742950D01*
Y749198D01*
X317769Y750276D01*
X318025Y751560D01*
Y769060D01*
X317769Y770343D01*
X317042Y771432D01*
X315954Y772159D01*
X314670Y772414D01*
D02*
G37*
G36*
X464970Y735054D02*
X451970D01*
X449741Y734760D01*
X447663Y733900D01*
X445879Y732531D01*
X444510Y730747D01*
X443650Y728669D01*
X443356Y726440D01*
X443650Y724211D01*
X444510Y722133D01*
X445879Y720349D01*
X447663Y718980D01*
X449741Y718120D01*
X451970Y717826D01*
X464970D01*
X467199Y718120D01*
X469277Y718980D01*
X471061Y720349D01*
X472430Y722133D01*
X473290Y724211D01*
X473584Y726440D01*
X473290Y728669D01*
X472430Y730747D01*
X471061Y732531D01*
X469277Y733900D01*
X467199Y734760D01*
X464970Y735054D01*
D02*
G37*
G36*
X210970D02*
X197970D01*
X195741Y734760D01*
X193663Y733900D01*
X191879Y732531D01*
X190510Y730747D01*
X189650Y728669D01*
X189356Y726440D01*
X189650Y724211D01*
X190510Y722133D01*
X191879Y720349D01*
X193663Y718980D01*
X195741Y718120D01*
X197970Y717826D01*
X210970D01*
X213199Y718120D01*
X215277Y718980D01*
X217061Y720349D01*
X218430Y722133D01*
X219290Y724211D01*
X219584Y726440D01*
X219290Y728669D01*
X218430Y730747D01*
X217061Y732531D01*
X215277Y733900D01*
X213199Y734760D01*
X210970Y735054D01*
D02*
G37*
G36*
X299798Y725150D02*
X299730D01*
Y716260D01*
X308620D01*
Y716328D01*
X307928Y718912D01*
X306590Y721228D01*
X304698Y723120D01*
X302382Y724458D01*
X299798Y725150D01*
D02*
G37*
G36*
X274398D02*
X274330D01*
Y716260D01*
X283220D01*
Y716328D01*
X282528Y718912D01*
X281190Y721228D01*
X279298Y723120D01*
X276982Y724458D01*
X274398Y725150D01*
D02*
G37*
G36*
X297190D02*
X297122D01*
X294538Y724458D01*
X292222Y723120D01*
X290330Y721228D01*
X288992Y718912D01*
X288300Y716328D01*
Y716260D01*
X297190D01*
Y725150D01*
D02*
G37*
G36*
X271790D02*
X271722D01*
X269138Y724458D01*
X266822Y723120D01*
X264930Y721228D01*
X263592Y718912D01*
X262900Y716328D01*
Y716260D01*
X271790D01*
Y725150D01*
D02*
G37*
G36*
X505460Y829556D02*
X505031Y829500D01*
X504599D01*
X504181Y829388D01*
X503753Y829332D01*
X503353Y829166D01*
X502936Y829054D01*
X502561Y828838D01*
X502162Y828673D01*
X501819Y828409D01*
X501444Y828193D01*
X501139Y827888D01*
X500796Y827624D01*
X500532Y827281D01*
X500227Y826976D01*
X500011Y826601D01*
X499747Y826258D01*
X499582Y825859D01*
X499366Y825484D01*
X499254Y825067D01*
X499088Y824667D01*
X499032Y824239D01*
X498920Y823821D01*
Y823389D01*
X498864Y822960D01*
Y730049D01*
X498041Y729226D01*
X485140D01*
X484711Y729170D01*
X484279D01*
X483861Y729058D01*
X483433Y729002D01*
X483033Y728836D01*
X482616Y728724D01*
X482241Y728508D01*
X481842Y728343D01*
X481499Y728079D01*
X481124Y727863D01*
X480819Y727558D01*
X480476Y727294D01*
X480212Y726951D01*
X479907Y726646D01*
X479691Y726271D01*
X479427Y725928D01*
X479262Y725529D01*
X479046Y725154D01*
X478934Y724737D01*
X478768Y724337D01*
X478712Y723909D01*
X478600Y723491D01*
Y723059D01*
X478544Y722630D01*
X478600Y722201D01*
Y721769D01*
X478712Y721351D01*
X478768Y720923D01*
X478934Y720523D01*
X479046Y720106D01*
X479262Y719731D01*
X479427Y719332D01*
X479691Y718989D01*
X479907Y718614D01*
X480212Y718309D01*
X480476Y717966D01*
X480819Y717702D01*
X481124Y717397D01*
X481499Y717181D01*
X481842Y716917D01*
X482241Y716752D01*
X482616Y716536D01*
X483033Y716424D01*
X483433Y716258D01*
X483861Y716202D01*
X484279Y716090D01*
X484711D01*
X485140Y716034D01*
X500774D01*
X502481Y716258D01*
X504072Y716917D01*
X505438Y717966D01*
X510124Y722652D01*
X511173Y724018D01*
X511832Y725609D01*
X512056Y727316D01*
Y822960D01*
X512000Y823389D01*
Y823821D01*
X511888Y824239D01*
X511832Y824667D01*
X511666Y825067D01*
X511554Y825484D01*
X511338Y825859D01*
X511173Y826258D01*
X510909Y826601D01*
X510693Y826976D01*
X510388Y827281D01*
X510124Y827624D01*
X509781Y827888D01*
X509476Y828193D01*
X509101Y828409D01*
X508758Y828673D01*
X508359Y828838D01*
X507984Y829054D01*
X507567Y829166D01*
X507167Y829332D01*
X506739Y829388D01*
X506321Y829500D01*
X505889D01*
X505460Y829556D01*
D02*
G37*
G36*
X405198Y725150D02*
X402522D01*
X399938Y724458D01*
X397622Y723120D01*
X395730Y721228D01*
X394392Y718912D01*
X393700Y716328D01*
Y713652D01*
X394392Y711068D01*
X395730Y708752D01*
X397622Y706860D01*
X399938Y705522D01*
X402522Y704830D01*
X405198D01*
X407782Y705522D01*
X410098Y706860D01*
X411990Y708752D01*
X413328Y711068D01*
X414020Y713652D01*
Y716328D01*
X413328Y718912D01*
X411990Y721228D01*
X410098Y723120D01*
X407782Y724458D01*
X405198Y725150D01*
D02*
G37*
G36*
X379798D02*
X377122D01*
X374538Y724458D01*
X372222Y723120D01*
X370330Y721228D01*
X368992Y718912D01*
X368300Y716328D01*
Y713652D01*
X368992Y711068D01*
X370330Y708752D01*
X372222Y706860D01*
X374538Y705522D01*
X377122Y704830D01*
X379798D01*
X382382Y705522D01*
X384698Y706860D01*
X386590Y708752D01*
X387928Y711068D01*
X388620Y713652D01*
Y716328D01*
X387928Y718912D01*
X386590Y721228D01*
X384698Y723120D01*
X382382Y724458D01*
X379798Y725150D01*
D02*
G37*
G36*
X308620Y713720D02*
X299730D01*
Y704830D01*
X299798D01*
X302382Y705522D01*
X304698Y706860D01*
X306590Y708752D01*
X307928Y711068D01*
X308620Y713652D01*
Y713720D01*
D02*
G37*
G36*
X297190D02*
X288300D01*
Y713652D01*
X288992Y711068D01*
X290330Y708752D01*
X292222Y706860D01*
X294538Y705522D01*
X297122Y704830D01*
X297190D01*
Y713720D01*
D02*
G37*
G36*
X283220D02*
X274330D01*
Y704830D01*
X274398D01*
X276982Y705522D01*
X279298Y706860D01*
X281190Y708752D01*
X282528Y711068D01*
X283220Y713652D01*
Y713720D01*
D02*
G37*
G36*
X271790D02*
X262900D01*
Y713652D01*
X263592Y711068D01*
X264930Y708752D01*
X266822Y706860D01*
X269138Y705522D01*
X271722Y704830D01*
X271790D01*
Y713720D01*
D02*
G37*
G36*
X464970Y709654D02*
X451970D01*
X449741Y709360D01*
X447663Y708500D01*
X445879Y707131D01*
X444510Y705347D01*
X443650Y703269D01*
X443356Y701040D01*
X443650Y698811D01*
X444510Y696733D01*
X445879Y694949D01*
X447663Y693580D01*
X449741Y692720D01*
X451970Y692426D01*
X464970D01*
X467199Y692720D01*
X469277Y693580D01*
X471061Y694949D01*
X472430Y696733D01*
X473290Y698811D01*
X473584Y701040D01*
X473290Y703269D01*
X472430Y705347D01*
X471061Y707131D01*
X469277Y708500D01*
X467199Y709360D01*
X464970Y709654D01*
D02*
G37*
G36*
X210970D02*
X197970D01*
X195741Y709360D01*
X193663Y708500D01*
X191879Y707131D01*
X190510Y705347D01*
X189650Y703269D01*
X189356Y701040D01*
X189650Y698811D01*
X190510Y696733D01*
X191879Y694949D01*
X193663Y693580D01*
X195741Y692720D01*
X197970Y692426D01*
X210970D01*
X213199Y692720D01*
X215277Y693580D01*
X217061Y694949D01*
X218430Y696733D01*
X219290Y698811D01*
X219584Y701040D01*
X219290Y703269D01*
X218430Y705347D01*
X217061Y707131D01*
X215277Y708500D01*
X213199Y709360D01*
X210970Y709654D01*
D02*
G37*
G36*
X464970Y684254D02*
X451970D01*
X449741Y683960D01*
X447663Y683100D01*
X445879Y681731D01*
X444510Y679947D01*
X443650Y677869D01*
X443356Y675640D01*
X443650Y673411D01*
X444510Y671333D01*
X445879Y669549D01*
X447663Y668180D01*
X449741Y667320D01*
X451970Y667026D01*
X464970D01*
X467199Y667320D01*
X469277Y668180D01*
X471061Y669549D01*
X472430Y671333D01*
X473290Y673411D01*
X473584Y675640D01*
X473290Y677869D01*
X472430Y679947D01*
X471061Y681731D01*
X469277Y683100D01*
X467199Y683960D01*
X464970Y684254D01*
D02*
G37*
G36*
X210970D02*
X197970D01*
X195741Y683960D01*
X193663Y683100D01*
X191879Y681731D01*
X190510Y679947D01*
X189650Y677869D01*
X189356Y675640D01*
X189650Y673411D01*
X190510Y671333D01*
X191879Y669549D01*
X193663Y668180D01*
X195741Y667320D01*
X197970Y667026D01*
X210970D01*
X213199Y667320D01*
X215277Y668180D01*
X217061Y669549D01*
X218430Y671333D01*
X219290Y673411D01*
X219584Y675640D01*
X219290Y677869D01*
X218430Y679947D01*
X217061Y681731D01*
X215277Y683100D01*
X213199Y683960D01*
X210970Y684254D01*
D02*
G37*
G36*
X122781Y654240D02*
X121059D01*
X119396Y653794D01*
X117904Y652933D01*
X117300Y652329D01*
X54610D01*
X54610Y652329D01*
X52839Y651977D01*
X51337Y650973D01*
X43717Y643353D01*
X42713Y641851D01*
X42361Y640080D01*
X42361Y640080D01*
Y502920D01*
X42361Y502920D01*
X42361Y502920D01*
Y336550D01*
X42361Y336550D01*
X42713Y334779D01*
X43717Y333277D01*
X48797Y328197D01*
X48797Y328197D01*
X50299Y327193D01*
X52070Y326841D01*
X52070Y326841D01*
X146050D01*
X146050Y326841D01*
X147821Y327193D01*
X149323Y328197D01*
X172831Y351704D01*
X190412D01*
X191038Y350434D01*
X190510Y349747D01*
X189650Y347669D01*
X189356Y345440D01*
X189650Y343211D01*
X190510Y341133D01*
X191879Y339349D01*
X193663Y337980D01*
X195741Y337120D01*
X197970Y336826D01*
X210970D01*
X213199Y337120D01*
X215277Y337980D01*
X217061Y339349D01*
X218430Y341133D01*
X219290Y343211D01*
X219584Y345440D01*
X219290Y347669D01*
X218430Y349747D01*
X217902Y350434D01*
X218528Y351704D01*
X318233D01*
X318234Y351704D01*
X320005Y352057D01*
X321507Y353060D01*
X325853Y357407D01*
X325853Y357407D01*
X326857Y358909D01*
X327209Y360680D01*
X327209Y360680D01*
Y505920D01*
X327813Y506524D01*
X328674Y508016D01*
X329120Y509679D01*
Y511401D01*
X328674Y513064D01*
X327813Y514556D01*
X326596Y515773D01*
X325104Y516634D01*
X323441Y517080D01*
X321719D01*
X320056Y516634D01*
X318564Y515773D01*
X317347Y514556D01*
X316486Y513064D01*
X316040Y511401D01*
Y509679D01*
X316486Y508016D01*
X317347Y506524D01*
X317951Y505920D01*
Y362597D01*
X316316Y360962D01*
X210985D01*
X210970Y362226D01*
X213199Y362520D01*
X215277Y363380D01*
X217061Y364749D01*
X218430Y366533D01*
X219290Y368611D01*
X219584Y370840D01*
X219290Y373069D01*
X218430Y375147D01*
X217061Y376931D01*
X215277Y378300D01*
X213199Y379160D01*
X210970Y379454D01*
X197970D01*
X195741Y379160D01*
X193663Y378300D01*
X191879Y376931D01*
X190510Y375147D01*
X189650Y373069D01*
X189356Y370840D01*
X189650Y368611D01*
X190510Y366533D01*
X191879Y364749D01*
X193663Y363380D01*
X195741Y362520D01*
X197970Y362226D01*
X197955Y360962D01*
X170914D01*
X170914Y360962D01*
X169142Y360610D01*
X167640Y359607D01*
X167640Y359607D01*
X144133Y336099D01*
X53987D01*
X51619Y338467D01*
Y491282D01*
X52601Y492088D01*
X53340Y491941D01*
X146510D01*
X147114Y491337D01*
X148606Y490476D01*
X150269Y490030D01*
X151991D01*
X153654Y490476D01*
X155146Y491337D01*
X156363Y492554D01*
X156758Y493238D01*
X158028Y492898D01*
Y420977D01*
X156338Y419287D01*
X108913D01*
X108387Y420557D01*
X109714Y421884D01*
X111049Y424196D01*
X111740Y426775D01*
Y429445D01*
X111049Y432024D01*
X109714Y434336D01*
X107826Y436224D01*
X105514Y437559D01*
X102935Y438250D01*
X100265D01*
X97686Y437559D01*
X95374Y436224D01*
X93486Y434336D01*
X92151Y432024D01*
X91460Y429445D01*
Y426775D01*
X92151Y424196D01*
X93486Y421884D01*
X94813Y420557D01*
X94287Y419287D01*
X88245D01*
X86511Y418942D01*
X85040Y417960D01*
X85040Y417960D01*
X79424Y412344D01*
X77535Y412850D01*
X74865D01*
X72286Y412159D01*
X69974Y410824D01*
X68086Y408936D01*
X66751Y406624D01*
X66060Y404045D01*
Y401375D01*
X66751Y398796D01*
X68086Y396484D01*
X69974Y394596D01*
X72286Y393261D01*
X74865Y392570D01*
X77535D01*
X80114Y393261D01*
X82426Y394596D01*
X84314Y396484D01*
X85649Y398796D01*
X86340Y401375D01*
Y404045D01*
X85834Y405934D01*
X90122Y410223D01*
X93113D01*
X93600Y409050D01*
X93486Y408936D01*
X92151Y406624D01*
X91460Y404045D01*
Y401375D01*
X92151Y398796D01*
X93486Y396484D01*
X94813Y395157D01*
X94287Y393887D01*
X88245D01*
X86511Y393542D01*
X85040Y392560D01*
X85040Y392560D01*
X79424Y386944D01*
X77535Y387450D01*
X74865D01*
X72286Y386759D01*
X69974Y385424D01*
X68086Y383536D01*
X66751Y381224D01*
X66060Y378645D01*
Y375975D01*
X66751Y373396D01*
X68086Y371084D01*
X69974Y369196D01*
X72286Y367861D01*
X74865Y367170D01*
X77535D01*
X80114Y367861D01*
X82426Y369196D01*
X84314Y371084D01*
X85649Y373396D01*
X86340Y375975D01*
Y378645D01*
X85834Y380534D01*
X90122Y384823D01*
X93113D01*
X93600Y383650D01*
X93486Y383536D01*
X92151Y381224D01*
X91460Y378645D01*
Y375975D01*
X92151Y373396D01*
X93486Y371084D01*
X95374Y369196D01*
X97686Y367861D01*
X100265Y367170D01*
X102935D01*
X105514Y367861D01*
X107826Y369196D01*
X109714Y371084D01*
X111049Y373396D01*
X111740Y375975D01*
Y378645D01*
X111049Y381224D01*
X109714Y383536D01*
X109600Y383650D01*
X110086Y384823D01*
X167105D01*
X168839Y385168D01*
X170310Y386150D01*
X177195Y393035D01*
X178177Y394506D01*
X178522Y396240D01*
X178522Y396240D01*
Y508663D01*
X188567Y518708D01*
X190683D01*
X191879Y517149D01*
X193663Y515780D01*
X195741Y514920D01*
X197970Y514626D01*
X210970D01*
X213199Y514920D01*
X215277Y515780D01*
X217061Y517149D01*
X218430Y518933D01*
X219290Y521011D01*
X219584Y523240D01*
X219290Y525469D01*
X218430Y527547D01*
X217061Y529331D01*
X215277Y530700D01*
X213199Y531560D01*
X210970Y531854D01*
X197970D01*
X195741Y531560D01*
X193663Y530700D01*
X191879Y529331D01*
X190683Y527772D01*
X186690D01*
X186690Y527772D01*
X184956Y527427D01*
X183485Y526445D01*
X183485Y526445D01*
X170785Y513745D01*
X169803Y512274D01*
X169458Y510540D01*
Y398117D01*
X165228Y393887D01*
X108913D01*
X108387Y395157D01*
X109714Y396484D01*
X111049Y398796D01*
X111740Y401375D01*
Y404045D01*
X111049Y406624D01*
X109714Y408936D01*
X109600Y409050D01*
X110086Y410223D01*
X158215D01*
X159949Y410568D01*
X161420Y411550D01*
X165765Y415895D01*
X165765Y415895D01*
X166747Y417366D01*
X167092Y419100D01*
X167092Y419100D01*
Y525173D01*
X187297Y545378D01*
X190078D01*
X190510Y544333D01*
X191879Y542549D01*
X193663Y541180D01*
X195741Y540320D01*
X197970Y540026D01*
X210970D01*
X213199Y540320D01*
X215277Y541180D01*
X217061Y542549D01*
X218430Y544333D01*
X219290Y546411D01*
X219584Y548640D01*
X219290Y550869D01*
X218430Y552947D01*
X217061Y554731D01*
X215277Y556100D01*
X213199Y556960D01*
X210970Y557254D01*
X197970D01*
X195741Y556960D01*
X193663Y556100D01*
X191879Y554731D01*
X191658Y554442D01*
X185420D01*
X183686Y554097D01*
X182215Y553115D01*
X159355Y530255D01*
X158373Y528784D01*
X158028Y527050D01*
Y500242D01*
X156758Y499902D01*
X156363Y500586D01*
X155146Y501803D01*
X153654Y502664D01*
X151991Y503110D01*
X150269D01*
X148606Y502664D01*
X147114Y501803D01*
X146510Y501199D01*
X55257D01*
X51619Y504837D01*
Y638163D01*
X56527Y643071D01*
X117300D01*
X117904Y642467D01*
X119396Y641606D01*
X121059Y641160D01*
X122781D01*
X124444Y641606D01*
X125936Y642467D01*
X127153Y643684D01*
X128014Y645176D01*
X128460Y646839D01*
Y648561D01*
X128014Y650224D01*
X127153Y651716D01*
X125936Y652933D01*
X124444Y653794D01*
X122781Y654240D01*
D02*
G37*
G36*
X464970Y658854D02*
X451970D01*
X449741Y658560D01*
X447663Y657700D01*
X445879Y656331D01*
X444510Y654547D01*
X443650Y652469D01*
X443356Y650240D01*
X443650Y648011D01*
X444510Y645933D01*
X445879Y644149D01*
X447663Y642780D01*
X449741Y641920D01*
X451970Y641626D01*
X464970D01*
X467199Y641920D01*
X469277Y642780D01*
X471061Y644149D01*
X472430Y645933D01*
X473290Y648011D01*
X473584Y650240D01*
X473290Y652469D01*
X472430Y654547D01*
X471061Y656331D01*
X469277Y657700D01*
X467199Y658560D01*
X464970Y658854D01*
D02*
G37*
G36*
X210970D02*
X197970D01*
X195741Y658560D01*
X193663Y657700D01*
X191879Y656331D01*
X190510Y654547D01*
X189650Y652469D01*
X189356Y650240D01*
X189650Y648011D01*
X190510Y645933D01*
X191879Y644149D01*
X193663Y642780D01*
X195741Y641920D01*
X197970Y641626D01*
X210970D01*
X213199Y641920D01*
X215277Y642780D01*
X217061Y644149D01*
X218430Y645933D01*
X219290Y648011D01*
X219584Y650240D01*
X219290Y652469D01*
X218430Y654547D01*
X217061Y656331D01*
X215277Y657700D01*
X213199Y658560D01*
X210970Y658854D01*
D02*
G37*
G36*
X464970Y633454D02*
X451970D01*
X449741Y633160D01*
X447663Y632300D01*
X445879Y630931D01*
X444510Y629147D01*
X443650Y627069D01*
X443356Y624840D01*
X443650Y622611D01*
X444510Y620533D01*
X445879Y618749D01*
X447663Y617380D01*
X449741Y616520D01*
X451970Y616226D01*
X464970D01*
X467199Y616520D01*
X469277Y617380D01*
X471061Y618749D01*
X472430Y620533D01*
X473290Y622611D01*
X473584Y624840D01*
X473290Y627069D01*
X472430Y629147D01*
X471061Y630931D01*
X469277Y632300D01*
X467199Y633160D01*
X464970Y633454D01*
D02*
G37*
G36*
X210970D02*
X197970D01*
X195741Y633160D01*
X193663Y632300D01*
X191879Y630931D01*
X190510Y629147D01*
X189650Y627069D01*
X189356Y624840D01*
X189650Y622611D01*
X190510Y620533D01*
X191879Y618749D01*
X193663Y617380D01*
X195741Y616520D01*
X197970Y616226D01*
X210970D01*
X213199Y616520D01*
X215277Y617380D01*
X217061Y618749D01*
X218430Y620533D01*
X219290Y622611D01*
X219584Y624840D01*
X219290Y627069D01*
X218430Y629147D01*
X217061Y630931D01*
X215277Y632300D01*
X213199Y633160D01*
X210970Y633454D01*
D02*
G37*
G36*
X497431Y608520D02*
X495709D01*
X494046Y608074D01*
X492554Y607213D01*
X491337Y605996D01*
X490476Y604504D01*
X490333Y603972D01*
X472257D01*
X471061Y605531D01*
X469277Y606900D01*
X467199Y607760D01*
X464970Y608054D01*
X451970D01*
X449741Y607760D01*
X447663Y606900D01*
X445879Y605531D01*
X444510Y603747D01*
X443650Y601669D01*
X443356Y599440D01*
X443650Y597211D01*
X444510Y595133D01*
X445879Y593349D01*
X447663Y591980D01*
X449741Y591120D01*
X451970Y590826D01*
X464970D01*
X467199Y591120D01*
X469277Y591980D01*
X471061Y593349D01*
X472257Y594908D01*
X492896D01*
X494631Y595253D01*
X495139Y595593D01*
X495709Y595440D01*
X497431D01*
X499094Y595886D01*
X500586Y596747D01*
X501803Y597964D01*
X502664Y599456D01*
X503110Y601119D01*
Y602841D01*
X502664Y604504D01*
X501803Y605996D01*
X500586Y607213D01*
X499094Y608074D01*
X497431Y608520D01*
D02*
G37*
G36*
X210970Y608054D02*
X197970D01*
X195741Y607760D01*
X193663Y606900D01*
X191879Y605531D01*
X190510Y603747D01*
X189650Y601669D01*
X189356Y599440D01*
X189650Y597211D01*
X190510Y595133D01*
X191879Y593349D01*
X193663Y591980D01*
X195741Y591120D01*
X197970Y590826D01*
X210970D01*
X213199Y591120D01*
X215277Y591980D01*
X217061Y593349D01*
X218430Y595133D01*
X219290Y597211D01*
X219584Y599440D01*
X219290Y601669D01*
X218430Y603747D01*
X217061Y605531D01*
X215277Y606900D01*
X213199Y607760D01*
X210970Y608054D01*
D02*
G37*
G36*
X464970Y582654D02*
X451970D01*
X449741Y582360D01*
X447663Y581500D01*
X445879Y580131D01*
X444510Y578347D01*
X443650Y576269D01*
X443356Y574040D01*
X443650Y571811D01*
X444510Y569733D01*
X445879Y567949D01*
X447663Y566580D01*
X449741Y565720D01*
X451970Y565426D01*
X464970D01*
X467199Y565720D01*
X469277Y566580D01*
X471061Y567949D01*
X472430Y569733D01*
X473290Y571811D01*
X473584Y574040D01*
X473290Y576269D01*
X472430Y578347D01*
X471061Y580131D01*
X469277Y581500D01*
X467199Y582360D01*
X464970Y582654D01*
D02*
G37*
G36*
X210970D02*
X197970D01*
X195741Y582360D01*
X193663Y581500D01*
X191879Y580131D01*
X190510Y578347D01*
X189650Y576269D01*
X189356Y574040D01*
X189650Y571811D01*
X190510Y569733D01*
X191879Y567949D01*
X193663Y566580D01*
X195741Y565720D01*
X197970Y565426D01*
X210970D01*
X213199Y565720D01*
X215277Y566580D01*
X217061Y567949D01*
X218430Y569733D01*
X219290Y571811D01*
X219584Y574040D01*
X219290Y576269D01*
X218430Y578347D01*
X217061Y580131D01*
X215277Y581500D01*
X213199Y582360D01*
X210970Y582654D01*
D02*
G37*
G36*
X299798Y539750D02*
X299730D01*
Y530860D01*
X308620D01*
Y530928D01*
X307928Y533512D01*
X306590Y535828D01*
X304698Y537720D01*
X302382Y539058D01*
X299798Y539750D01*
D02*
G37*
G36*
X274398D02*
X274330D01*
Y530860D01*
X283220D01*
Y530928D01*
X282528Y533512D01*
X281190Y535828D01*
X279298Y537720D01*
X276982Y539058D01*
X274398Y539750D01*
D02*
G37*
G36*
X297190D02*
X297122D01*
X294538Y539058D01*
X292222Y537720D01*
X290330Y535828D01*
X288992Y533512D01*
X288300Y530928D01*
Y530860D01*
X297190D01*
Y539750D01*
D02*
G37*
G36*
X271790D02*
X271722D01*
X269138Y539058D01*
X266822Y537720D01*
X264930Y535828D01*
X263592Y533512D01*
X262900Y530928D01*
Y530860D01*
X271790D01*
Y539750D01*
D02*
G37*
G36*
X405198D02*
X402522D01*
X399938Y539058D01*
X397622Y537720D01*
X395730Y535828D01*
X394392Y533512D01*
X393700Y530928D01*
Y528252D01*
X394392Y525668D01*
X395730Y523352D01*
X397622Y521460D01*
X399938Y520122D01*
X402522Y519430D01*
X405198D01*
X407782Y520122D01*
X410098Y521460D01*
X411990Y523352D01*
X413328Y525668D01*
X414020Y528252D01*
Y530928D01*
X413328Y533512D01*
X411990Y535828D01*
X410098Y537720D01*
X407782Y539058D01*
X405198Y539750D01*
D02*
G37*
G36*
X308620Y528320D02*
X299730D01*
Y519430D01*
X299798D01*
X302382Y520122D01*
X304698Y521460D01*
X306590Y523352D01*
X307928Y525668D01*
X308620Y528252D01*
Y528320D01*
D02*
G37*
G36*
X297190D02*
X288300D01*
Y528252D01*
X288992Y525668D01*
X290330Y523352D01*
X292222Y521460D01*
X294538Y520122D01*
X297122Y519430D01*
X297190D01*
Y528320D01*
D02*
G37*
G36*
X283220D02*
X274330D01*
Y519430D01*
X274398D01*
X276982Y520122D01*
X279298Y521460D01*
X281190Y523352D01*
X282528Y525668D01*
X283220Y528252D01*
Y528320D01*
D02*
G37*
G36*
X271790D02*
X262900D01*
Y528252D01*
X263592Y525668D01*
X264930Y523352D01*
X266822Y521460D01*
X269138Y520122D01*
X271722Y519430D01*
X271790D01*
Y528320D01*
D02*
G37*
G36*
X464970Y506454D02*
X451970D01*
X449741Y506160D01*
X447663Y505300D01*
X445879Y503931D01*
X444510Y502147D01*
X443650Y500069D01*
X443356Y497840D01*
X443650Y495611D01*
X444510Y493533D01*
X445879Y491749D01*
X447663Y490380D01*
X449741Y489520D01*
X451970Y489226D01*
X464970D01*
X467199Y489520D01*
X469277Y490380D01*
X471061Y491749D01*
X472430Y493533D01*
X473290Y495611D01*
X473584Y497840D01*
X473290Y500069D01*
X472430Y502147D01*
X471061Y503931D01*
X469277Y505300D01*
X467199Y506160D01*
X464970Y506454D01*
D02*
G37*
G36*
X210970D02*
X197970D01*
X195741Y506160D01*
X193663Y505300D01*
X191879Y503931D01*
X190510Y502147D01*
X189650Y500069D01*
X189356Y497840D01*
X189650Y495611D01*
X190510Y493533D01*
X191879Y491749D01*
X193663Y490380D01*
X195741Y489520D01*
X197970Y489226D01*
X210970D01*
X213199Y489520D01*
X215277Y490380D01*
X217061Y491749D01*
X218430Y493533D01*
X219290Y495611D01*
X219584Y497840D01*
X219290Y500069D01*
X218430Y502147D01*
X217061Y503931D01*
X215277Y505300D01*
X213199Y506160D01*
X210970Y506454D01*
D02*
G37*
G36*
X561734Y710176D02*
X530860D01*
X530431Y710120D01*
X529999D01*
X529581Y710008D01*
X529153Y709952D01*
X528753Y709786D01*
X528336Y709674D01*
X527961Y709458D01*
X527562Y709293D01*
X527219Y709029D01*
X526844Y708813D01*
X526539Y708508D01*
X526196Y708244D01*
X525932Y707901D01*
X525627Y707596D01*
X525411Y707221D01*
X525147Y706878D01*
X524982Y706479D01*
X524766Y706104D01*
X524654Y705687D01*
X524488Y705287D01*
X524432Y704859D01*
X524320Y704441D01*
Y704009D01*
X524264Y703580D01*
X524320Y703151D01*
Y702719D01*
X524432Y702301D01*
X524488Y701873D01*
X524654Y701473D01*
X524766Y701056D01*
X524982Y700681D01*
X525147Y700282D01*
X525411Y699939D01*
X525627Y699564D01*
X525932Y699259D01*
X526196Y698916D01*
X526539Y698652D01*
X526844Y698347D01*
X527219Y698131D01*
X527562Y697867D01*
X527961Y697702D01*
X528336Y697486D01*
X528753Y697374D01*
X529153Y697208D01*
X529581Y697152D01*
X529999Y697040D01*
X530431D01*
X530860Y696984D01*
X559001D01*
X559824Y696161D01*
Y486410D01*
X559880Y485981D01*
Y485549D01*
X559992Y485131D01*
X560048Y484703D01*
X560214Y484303D01*
X560326Y483886D01*
X560542Y483511D01*
X560707Y483112D01*
X560971Y482769D01*
X561187Y482394D01*
X561492Y482089D01*
X561756Y481746D01*
X562099Y481482D01*
X562404Y481177D01*
X562779Y480961D01*
X563122Y480697D01*
X563521Y480532D01*
X563896Y480316D01*
X564313Y480204D01*
X564713Y480038D01*
X565141Y479982D01*
X565559Y479870D01*
X565991D01*
X566420Y479814D01*
X566849Y479870D01*
X567281D01*
X567699Y479982D01*
X568127Y480038D01*
X568527Y480204D01*
X568944Y480316D01*
X569319Y480532D01*
X569718Y480697D01*
X570061Y480961D01*
X570436Y481177D01*
X570741Y481482D01*
X571084Y481746D01*
X571348Y482089D01*
X571653Y482394D01*
X571869Y482769D01*
X572133Y483112D01*
X572298Y483511D01*
X572514Y483886D01*
X572626Y484303D01*
X572792Y484703D01*
X572848Y485131D01*
X572960Y485549D01*
Y485981D01*
X573016Y486410D01*
Y698894D01*
X572792Y700601D01*
X572133Y702192D01*
X571084Y703558D01*
X566398Y708244D01*
X565032Y709293D01*
X563441Y709952D01*
X561734Y710176D01*
D02*
G37*
G36*
X299798Y476250D02*
X299730D01*
Y467360D01*
X308620D01*
Y467428D01*
X307928Y470012D01*
X306590Y472328D01*
X304698Y474220D01*
X302382Y475558D01*
X299798Y476250D01*
D02*
G37*
G36*
X274398D02*
X274330D01*
Y467360D01*
X283220D01*
Y467428D01*
X282528Y470012D01*
X281190Y472328D01*
X279298Y474220D01*
X276982Y475558D01*
X274398Y476250D01*
D02*
G37*
G36*
X297190D02*
X297122D01*
X294538Y475558D01*
X292222Y474220D01*
X290330Y472328D01*
X288992Y470012D01*
X288300Y467428D01*
Y467360D01*
X297190D01*
Y476250D01*
D02*
G37*
G36*
X271790D02*
X271722D01*
X269138Y475558D01*
X266822Y474220D01*
X264930Y472328D01*
X263592Y470012D01*
X262900Y467428D01*
Y467360D01*
X271790D01*
Y476250D01*
D02*
G37*
G36*
X464970Y481054D02*
X451970D01*
X449741Y480760D01*
X447663Y479900D01*
X445879Y478531D01*
X444510Y476747D01*
X443650Y474669D01*
X443356Y472440D01*
X443650Y470211D01*
X444510Y468133D01*
X445879Y466349D01*
X447663Y464980D01*
X449741Y464120D01*
X451970Y463826D01*
X464970D01*
X467199Y464120D01*
X469277Y464980D01*
X471061Y466349D01*
X472430Y468133D01*
X473290Y470211D01*
X473584Y472440D01*
X473290Y474669D01*
X472430Y476747D01*
X471061Y478531D01*
X469277Y479900D01*
X467199Y480760D01*
X464970Y481054D01*
D02*
G37*
G36*
X210970D02*
X197970D01*
X195741Y480760D01*
X193663Y479900D01*
X191879Y478531D01*
X190510Y476747D01*
X189650Y474669D01*
X189356Y472440D01*
X189650Y470211D01*
X190510Y468133D01*
X191879Y466349D01*
X193663Y464980D01*
X195741Y464120D01*
X197970Y463826D01*
X210970D01*
X213199Y464120D01*
X215277Y464980D01*
X217061Y466349D01*
X218430Y468133D01*
X219290Y470211D01*
X219584Y472440D01*
X219290Y474669D01*
X218430Y476747D01*
X217061Y478531D01*
X215277Y479900D01*
X213199Y480760D01*
X210970Y481054D01*
D02*
G37*
G36*
X565215Y471150D02*
X565150D01*
Y462280D01*
X574020D01*
Y462345D01*
X573329Y464924D01*
X571994Y467236D01*
X570106Y469124D01*
X567794Y470459D01*
X565215Y471150D01*
D02*
G37*
G36*
X539815D02*
X539750D01*
Y462280D01*
X548620D01*
Y462345D01*
X547929Y464924D01*
X546594Y467236D01*
X544706Y469124D01*
X542394Y470459D01*
X539815Y471150D01*
D02*
G37*
G36*
X562610D02*
X562545D01*
X559966Y470459D01*
X557654Y469124D01*
X555766Y467236D01*
X554431Y464924D01*
X553740Y462345D01*
Y462280D01*
X562610D01*
Y471150D01*
D02*
G37*
G36*
X537210D02*
X537145D01*
X534566Y470459D01*
X532254Y469124D01*
X530366Y467236D01*
X529031Y464924D01*
X528340Y462345D01*
Y462280D01*
X537210D01*
Y471150D01*
D02*
G37*
G36*
X102935Y463650D02*
X100265D01*
X97686Y462959D01*
X95374Y461624D01*
X93856Y460106D01*
X83944D01*
X82426Y461624D01*
X80114Y462959D01*
X77535Y463650D01*
X74865D01*
X72286Y462959D01*
X69974Y461624D01*
X68086Y459736D01*
X66751Y457424D01*
X66060Y454845D01*
Y452175D01*
X66751Y449596D01*
X68086Y447284D01*
X69974Y445396D01*
X72286Y444061D01*
X74865Y443370D01*
X77535D01*
X80114Y444061D01*
X82426Y445396D01*
X83944Y446914D01*
X93856D01*
X95374Y445396D01*
X97686Y444061D01*
X100265Y443370D01*
X102935D01*
X105514Y444061D01*
X107826Y445396D01*
X109714Y447284D01*
X111049Y449596D01*
X111740Y452175D01*
Y454845D01*
X111049Y457424D01*
X109714Y459736D01*
X107826Y461624D01*
X105514Y462959D01*
X102935Y463650D01*
D02*
G37*
G36*
X405198Y476250D02*
X402522D01*
X399938Y475558D01*
X397622Y474220D01*
X395730Y472328D01*
X394392Y470012D01*
X393700Y467428D01*
Y464752D01*
X394392Y462168D01*
X395730Y459852D01*
X397622Y457960D01*
X399938Y456622D01*
X402522Y455930D01*
X405198D01*
X407782Y456622D01*
X410098Y457960D01*
X411990Y459852D01*
X413328Y462168D01*
X414020Y464752D01*
Y467428D01*
X413328Y470012D01*
X411990Y472328D01*
X410098Y474220D01*
X407782Y475558D01*
X405198Y476250D01*
D02*
G37*
G36*
X379798Y539750D02*
X377122D01*
X374538Y539058D01*
X372222Y537720D01*
X370688Y536186D01*
X345046D01*
X343339Y535962D01*
X341748Y535303D01*
X340382Y534254D01*
X335696Y529568D01*
X334647Y528202D01*
X333988Y526611D01*
X333764Y524904D01*
Y280224D01*
Y277925D01*
Y236329D01*
X332941Y235506D01*
X325480D01*
Y250030D01*
X283240D01*
Y236466D01*
X66040D01*
X65611Y236410D01*
X65179D01*
X64761Y236298D01*
X64333Y236242D01*
X63933Y236076D01*
X63516Y235964D01*
X63141Y235748D01*
X62742Y235583D01*
X62399Y235319D01*
X62024Y235103D01*
X61719Y234798D01*
X61376Y234534D01*
X61112Y234191D01*
X60807Y233886D01*
X60591Y233511D01*
X60327Y233168D01*
X60162Y232769D01*
X59946Y232394D01*
X59834Y231977D01*
X59668Y231577D01*
X59612Y231149D01*
X59500Y230731D01*
Y230299D01*
X59444Y229870D01*
X59500Y229441D01*
Y229009D01*
X59612Y228591D01*
X59668Y228163D01*
X59834Y227763D01*
X59946Y227346D01*
X60162Y226971D01*
X60327Y226572D01*
X60591Y226229D01*
X60807Y225854D01*
X61112Y225549D01*
X61376Y225206D01*
X61719Y224942D01*
X62024Y224637D01*
X62399Y224421D01*
X62742Y224157D01*
X63141Y223992D01*
X63516Y223776D01*
X63933Y223664D01*
X64333Y223498D01*
X64761Y223442D01*
X65179Y223330D01*
X65611D01*
X66040Y223274D01*
X283240D01*
Y207790D01*
X325480D01*
Y222313D01*
X335674D01*
X337381Y222538D01*
X338972Y223197D01*
X340338Y224245D01*
X345024Y228932D01*
X346073Y230298D01*
X346732Y231889D01*
X346956Y233596D01*
Y274094D01*
X370688D01*
X372222Y272560D01*
X374538Y271222D01*
X377122Y270530D01*
X379798D01*
X382382Y271222D01*
X384698Y272560D01*
X386590Y274452D01*
X387928Y276768D01*
X388620Y279352D01*
Y282028D01*
X387928Y284612D01*
X386590Y286928D01*
X384698Y288820D01*
X382382Y290158D01*
X379798Y290850D01*
X377122D01*
X374538Y290158D01*
X372222Y288820D01*
X370688Y287286D01*
X346956D01*
Y522171D01*
X347779Y522994D01*
X370688D01*
X372222Y521460D01*
X374538Y520122D01*
X376412Y519620D01*
X376413Y519620D01*
X376246Y518350D01*
X376234Y518350D01*
X375059D01*
X373396Y517904D01*
X371904Y517043D01*
X370687Y515826D01*
X369826Y514334D01*
X369380Y512671D01*
Y510949D01*
X369826Y509286D01*
X370687Y507794D01*
X371904Y506577D01*
X372056Y506489D01*
Y474055D01*
X370330Y472328D01*
X368992Y470012D01*
X368300Y467428D01*
Y464752D01*
X368992Y462168D01*
X370330Y459852D01*
X372222Y457960D01*
X374538Y456622D01*
X377122Y455930D01*
X379798D01*
X382382Y456622D01*
X384698Y457960D01*
X386590Y459852D01*
X387928Y462168D01*
X388620Y464752D01*
Y467428D01*
X387928Y470012D01*
X386590Y472328D01*
X384698Y474220D01*
X382382Y475558D01*
X381314Y475844D01*
Y508073D01*
X382014Y509286D01*
X382460Y510949D01*
Y512671D01*
X382014Y514334D01*
X381153Y515826D01*
X379936Y517043D01*
X378444Y517904D01*
X377491Y518160D01*
X377490Y518160D01*
X377657Y519430D01*
X377669Y519430D01*
X379798D01*
X382382Y520122D01*
X384698Y521460D01*
X386590Y523352D01*
X387928Y525668D01*
X388620Y528252D01*
Y530928D01*
X387928Y533512D01*
X386590Y535828D01*
X384698Y537720D01*
X382382Y539058D01*
X379798Y539750D01*
D02*
G37*
G36*
X308620Y464820D02*
X299730D01*
Y455930D01*
X299798D01*
X302382Y456622D01*
X304698Y457960D01*
X306590Y459852D01*
X307928Y462168D01*
X308620Y464752D01*
Y464820D01*
D02*
G37*
G36*
X297190D02*
X288300D01*
Y464752D01*
X288992Y462168D01*
X290330Y459852D01*
X292222Y457960D01*
X294538Y456622D01*
X297122Y455930D01*
X297190D01*
Y464820D01*
D02*
G37*
G36*
X283220D02*
X274330D01*
Y455930D01*
X274398D01*
X276982Y456622D01*
X279298Y457960D01*
X281190Y459852D01*
X282528Y462168D01*
X283220Y464752D01*
Y464820D01*
D02*
G37*
G36*
X271790D02*
X262900D01*
Y464752D01*
X263592Y462168D01*
X264930Y459852D01*
X266822Y457960D01*
X269138Y456622D01*
X271722Y455930D01*
X271790D01*
Y464820D01*
D02*
G37*
G36*
X464970Y455654D02*
X451970D01*
X449741Y455360D01*
X447663Y454500D01*
X445879Y453131D01*
X444510Y451347D01*
X443650Y449269D01*
X443356Y447040D01*
X443650Y444811D01*
X444510Y442733D01*
X445879Y440949D01*
X447663Y439580D01*
X449741Y438720D01*
X451970Y438426D01*
X464970D01*
X467199Y438720D01*
X469277Y439580D01*
X471061Y440949D01*
X472430Y442733D01*
X473290Y444811D01*
X473584Y447040D01*
X473290Y449269D01*
X472430Y451347D01*
X471061Y453131D01*
X469277Y454500D01*
X467199Y455360D01*
X464970Y455654D01*
D02*
G37*
G36*
Y557254D02*
X451970D01*
X449741Y556960D01*
X447663Y556100D01*
X445879Y554731D01*
X444510Y552947D01*
X443650Y550869D01*
X443356Y548640D01*
X443650Y546411D01*
X444510Y544333D01*
X445879Y542549D01*
X447663Y541180D01*
X449741Y540320D01*
X451970Y540026D01*
X464970D01*
X467199Y540320D01*
X469277Y541180D01*
X471061Y542549D01*
X472257Y544108D01*
X489498D01*
Y451197D01*
X489843Y449463D01*
X490825Y447992D01*
X493057Y445760D01*
X494528Y444778D01*
X496262Y444433D01*
X531167D01*
X531693Y443163D01*
X530366Y441836D01*
X529031Y439524D01*
X528340Y436945D01*
Y434275D01*
X529031Y431696D01*
X530366Y429384D01*
X532254Y427496D01*
X534566Y426161D01*
X537145Y425470D01*
X539815D01*
X542394Y426161D01*
X544706Y427496D01*
X546594Y429384D01*
X547929Y431696D01*
X548620Y434275D01*
Y436945D01*
X547929Y439524D01*
X546594Y441836D01*
X545267Y443163D01*
X545793Y444433D01*
X556567D01*
X557079Y443195D01*
X557052Y443122D01*
X555766Y441836D01*
X554431Y439524D01*
X553740Y436945D01*
Y434275D01*
X554431Y431696D01*
X555766Y429384D01*
X557654Y427496D01*
X559966Y426161D01*
X562545Y425470D01*
X565215D01*
X567794Y426161D01*
X570106Y427496D01*
X571994Y429384D01*
X573329Y431696D01*
X574020Y434275D01*
Y436945D01*
X573329Y439524D01*
X571994Y441836D01*
X570106Y443724D01*
X568367Y444728D01*
X568067Y446234D01*
X567085Y447705D01*
X567085Y447705D01*
X565086Y449704D01*
X565610Y450976D01*
X567794Y451561D01*
X570106Y452896D01*
X571994Y454784D01*
X573329Y457096D01*
X574020Y459675D01*
Y459740D01*
X563880D01*
X553740D01*
Y459675D01*
X554431Y457096D01*
X555766Y454784D01*
X555880Y454670D01*
X555393Y453497D01*
X546967D01*
X546480Y454670D01*
X546594Y454784D01*
X547929Y457096D01*
X548620Y459675D01*
Y459740D01*
X538480D01*
X528340D01*
Y459675D01*
X529031Y457096D01*
X530366Y454784D01*
X530480Y454670D01*
X529994Y453497D01*
X498562D01*
Y546408D01*
X498217Y548143D01*
X497235Y549613D01*
X495003Y551845D01*
X493532Y552827D01*
X491798Y553172D01*
X472257D01*
X471061Y554731D01*
X469277Y556100D01*
X467199Y556960D01*
X464970Y557254D01*
D02*
G37*
G36*
X77535Y438250D02*
X74865D01*
X72286Y437559D01*
X69974Y436224D01*
X68086Y434336D01*
X66751Y432024D01*
X66060Y429445D01*
Y426775D01*
X66751Y424196D01*
X68086Y421884D01*
X69974Y419996D01*
X72286Y418661D01*
X74865Y417970D01*
X77535D01*
X80114Y418661D01*
X82426Y419996D01*
X84314Y421884D01*
X85649Y424196D01*
X86340Y426775D01*
Y429445D01*
X85649Y432024D01*
X84314Y434336D01*
X82426Y436224D01*
X80114Y437559D01*
X77535Y438250D01*
D02*
G37*
G36*
X464970Y430254D02*
X451970D01*
X449741Y429960D01*
X447663Y429100D01*
X445879Y427731D01*
X444510Y425947D01*
X443650Y423869D01*
X443356Y421640D01*
X443650Y419411D01*
X444510Y417333D01*
X445879Y415549D01*
X447663Y414180D01*
X449741Y413320D01*
X451970Y413026D01*
X464970D01*
X467199Y413320D01*
X469277Y414180D01*
X471061Y415549D01*
X472430Y417333D01*
X473290Y419411D01*
X473584Y421640D01*
X473290Y423869D01*
X472430Y425947D01*
X471061Y427731D01*
X469277Y429100D01*
X467199Y429960D01*
X464970Y430254D01*
D02*
G37*
G36*
X210970D02*
X197970D01*
X195741Y429960D01*
X193663Y429100D01*
X191879Y427731D01*
X190510Y425947D01*
X189650Y423869D01*
X189356Y421640D01*
X189650Y419411D01*
X190510Y417333D01*
X191879Y415549D01*
X193663Y414180D01*
X195741Y413320D01*
X197970Y413026D01*
X210970D01*
X213199Y413320D01*
X215277Y414180D01*
X217061Y415549D01*
X218430Y417333D01*
X219290Y419411D01*
X219584Y421640D01*
X219290Y423869D01*
X218430Y425947D01*
X217061Y427731D01*
X215277Y429100D01*
X213199Y429960D01*
X210970Y430254D01*
D02*
G37*
G36*
X565215Y420350D02*
X562545D01*
X559966Y419659D01*
X557654Y418324D01*
X555766Y416436D01*
X554431Y414124D01*
X553740Y411545D01*
Y408875D01*
X554431Y406296D01*
X555766Y403984D01*
X557654Y402096D01*
X559966Y400761D01*
X562545Y400070D01*
X565215D01*
X567794Y400761D01*
X570106Y402096D01*
X571994Y403984D01*
X573329Y406296D01*
X574020Y408875D01*
Y411545D01*
X573329Y414124D01*
X571994Y416436D01*
X570106Y418324D01*
X567794Y419659D01*
X565215Y420350D01*
D02*
G37*
G36*
X464970Y531854D02*
X451970D01*
X449741Y531560D01*
X447663Y530700D01*
X445879Y529331D01*
X444510Y527547D01*
X443650Y525469D01*
X443356Y523240D01*
X443650Y521011D01*
X444510Y518933D01*
X445879Y517149D01*
X447663Y515780D01*
X449741Y514920D01*
X451970Y514626D01*
X464970D01*
X467199Y514920D01*
X469277Y515780D01*
X471061Y517149D01*
X472257Y518708D01*
X478068D01*
Y419100D01*
X478413Y417366D01*
X479395Y415895D01*
X488285Y407005D01*
X488285Y407005D01*
X489756Y406023D01*
X491490Y405678D01*
X491490Y405678D01*
X529388D01*
X530366Y403984D01*
X532254Y402096D01*
X534566Y400761D01*
X537145Y400070D01*
X539815D01*
X542394Y400761D01*
X544706Y402096D01*
X546594Y403984D01*
X547929Y406296D01*
X548620Y408875D01*
Y411545D01*
X547929Y414124D01*
X546594Y416436D01*
X544706Y418324D01*
X542394Y419659D01*
X539815Y420350D01*
X537145D01*
X534566Y419659D01*
X532254Y418324D01*
X530366Y416436D01*
X529388Y414742D01*
X493367D01*
X487132Y420977D01*
Y520700D01*
X487132Y520700D01*
X486787Y522434D01*
X485805Y523905D01*
X484533Y525176D01*
X484533Y525176D01*
X483265Y526445D01*
X483265Y526445D01*
X481794Y527427D01*
X480060Y527772D01*
X472257D01*
X471061Y529331D01*
X469277Y530700D01*
X467199Y531560D01*
X464970Y531854D01*
D02*
G37*
G36*
Y404854D02*
X451970D01*
X449741Y404560D01*
X447663Y403700D01*
X445879Y402331D01*
X444510Y400547D01*
X443650Y398469D01*
X443356Y396240D01*
X443650Y394011D01*
X444510Y391933D01*
X445879Y390149D01*
X447663Y388780D01*
X449741Y387920D01*
X451970Y387626D01*
X464970D01*
X467199Y387920D01*
X469277Y388780D01*
X471061Y390149D01*
X472430Y391933D01*
X473290Y394011D01*
X473584Y396240D01*
X473290Y398469D01*
X472430Y400547D01*
X471061Y402331D01*
X469277Y403700D01*
X467199Y404560D01*
X464970Y404854D01*
D02*
G37*
G36*
X565215Y394950D02*
X562545D01*
X559966Y394259D01*
X557654Y392924D01*
X555766Y391036D01*
X554431Y388724D01*
X553740Y386145D01*
Y383475D01*
X554431Y380896D01*
X555766Y378584D01*
X557654Y376696D01*
X559966Y375361D01*
X562545Y374670D01*
X565215D01*
X567794Y375361D01*
X570106Y376696D01*
X571994Y378584D01*
X573329Y380896D01*
X574020Y383475D01*
Y386145D01*
X573329Y388724D01*
X571994Y391036D01*
X570106Y392924D01*
X567794Y394259D01*
X565215Y394950D01*
D02*
G37*
G36*
X539815D02*
X537145D01*
X534566Y394259D01*
X532254Y392924D01*
X530366Y391036D01*
X529031Y388724D01*
X528340Y386145D01*
Y383475D01*
X529031Y380896D01*
X530366Y378584D01*
X532254Y376696D01*
X534566Y375361D01*
X537145Y374670D01*
X539815D01*
X542394Y375361D01*
X544706Y376696D01*
X546594Y378584D01*
X547929Y380896D01*
X548620Y383475D01*
Y386145D01*
X547929Y388724D01*
X546594Y391036D01*
X544706Y392924D01*
X542394Y394259D01*
X539815Y394950D01*
D02*
G37*
G36*
X565215Y369550D02*
X562545D01*
X559966Y368859D01*
X557654Y367524D01*
X556136Y366006D01*
X546224D01*
X544706Y367524D01*
X542394Y368859D01*
X539815Y369550D01*
X537145D01*
X534566Y368859D01*
X532254Y367524D01*
X530366Y365636D01*
X529031Y363324D01*
X528340Y360745D01*
Y358075D01*
X529031Y355496D01*
X530366Y353184D01*
X532254Y351296D01*
X534566Y349961D01*
X537145Y349270D01*
X539815D01*
X542394Y349961D01*
X544584Y351225D01*
X545520Y350959D01*
X545854Y350821D01*
Y316230D01*
X545910Y315801D01*
Y315369D01*
X546022Y314951D01*
X546078Y314523D01*
X546244Y314123D01*
X546356Y313706D01*
X546572Y313331D01*
X546737Y312932D01*
X547001Y312589D01*
X547217Y312214D01*
X547522Y311909D01*
X547786Y311566D01*
X548129Y311302D01*
X548434Y310997D01*
X548809Y310781D01*
X549152Y310517D01*
X549551Y310352D01*
X549926Y310136D01*
X550343Y310024D01*
X550743Y309858D01*
X551171Y309802D01*
X551589Y309690D01*
X552021D01*
X552450Y309634D01*
X552879Y309690D01*
X553311D01*
X553729Y309802D01*
X554157Y309858D01*
X554557Y310024D01*
X554974Y310136D01*
X555349Y310352D01*
X555748Y310517D01*
X556091Y310781D01*
X556466Y310997D01*
X556771Y311302D01*
X557114Y311566D01*
X557378Y311909D01*
X557683Y312214D01*
X557899Y312589D01*
X558163Y312932D01*
X558328Y313331D01*
X558544Y313706D01*
X558656Y314123D01*
X558822Y314523D01*
X558878Y314951D01*
X558990Y315369D01*
Y315801D01*
X559046Y316230D01*
Y349188D01*
X560317Y349867D01*
X562545Y349270D01*
X565215D01*
X567794Y349961D01*
X570106Y351296D01*
X571994Y353184D01*
X573329Y355496D01*
X574020Y358075D01*
Y360745D01*
X573329Y363324D01*
X571994Y365636D01*
X570106Y367524D01*
X567794Y368859D01*
X565215Y369550D01*
D02*
G37*
G36*
X464970Y379454D02*
X451970D01*
X449741Y379160D01*
X447663Y378300D01*
X445879Y376931D01*
X444510Y375147D01*
X443650Y373069D01*
X443356Y370840D01*
X443650Y368611D01*
X444510Y366533D01*
X445879Y364749D01*
X447663Y363380D01*
X449741Y362520D01*
X451970Y362226D01*
X464970D01*
X467199Y362520D01*
X469277Y363380D01*
X471061Y364749D01*
X472430Y366533D01*
X473290Y368611D01*
X473584Y370840D01*
X473290Y373069D01*
X472430Y375147D01*
X471061Y376931D01*
X469277Y378300D01*
X467199Y379160D01*
X464970Y379454D01*
D02*
G37*
G36*
X102935Y362050D02*
X102870D01*
Y353180D01*
X111740D01*
Y353245D01*
X111049Y355824D01*
X109714Y358136D01*
X107826Y360024D01*
X105514Y361359D01*
X102935Y362050D01*
D02*
G37*
G36*
X77535D02*
X77470D01*
Y353180D01*
X86340D01*
Y353245D01*
X85649Y355824D01*
X84314Y358136D01*
X82426Y360024D01*
X80114Y361359D01*
X77535Y362050D01*
D02*
G37*
G36*
X100330D02*
X100265D01*
X97686Y361359D01*
X95374Y360024D01*
X93486Y358136D01*
X92151Y355824D01*
X91460Y353245D01*
Y353180D01*
X100330D01*
Y362050D01*
D02*
G37*
G36*
X74930D02*
X74865D01*
X72286Y361359D01*
X69974Y360024D01*
X68086Y358136D01*
X66751Y355824D01*
X66060Y353245D01*
Y353180D01*
X74930D01*
Y362050D01*
D02*
G37*
G36*
X111740Y350640D02*
X102870D01*
Y341770D01*
X102935D01*
X105514Y342461D01*
X107826Y343796D01*
X109714Y345684D01*
X111049Y347996D01*
X111740Y350575D01*
Y350640D01*
D02*
G37*
G36*
X100330D02*
X91460D01*
Y350575D01*
X92151Y347996D01*
X93486Y345684D01*
X95374Y343796D01*
X97686Y342461D01*
X100265Y341770D01*
X100330D01*
Y350640D01*
D02*
G37*
G36*
X86340D02*
X77470D01*
Y341770D01*
X77535D01*
X80114Y342461D01*
X82426Y343796D01*
X84314Y345684D01*
X85649Y347996D01*
X86340Y350575D01*
Y350640D01*
D02*
G37*
G36*
X74930D02*
X66060D01*
Y350575D01*
X66751Y347996D01*
X68086Y345684D01*
X69974Y343796D01*
X72286Y342461D01*
X74865Y341770D01*
X74930D01*
Y350640D01*
D02*
G37*
G36*
X464970Y354054D02*
X451970D01*
X449741Y353760D01*
X447663Y352900D01*
X445879Y351531D01*
X444510Y349747D01*
X443650Y347669D01*
X443356Y345440D01*
X443650Y343211D01*
X444510Y341133D01*
X445879Y339349D01*
X447663Y337980D01*
X449741Y337120D01*
X451970Y336826D01*
X464970D01*
X467199Y337120D01*
X469277Y337980D01*
X471061Y339349D01*
X472430Y341133D01*
X473290Y343211D01*
X473584Y345440D01*
X473290Y347669D01*
X472430Y349747D01*
X471061Y351531D01*
X469277Y352900D01*
X467199Y353760D01*
X464970Y354054D01*
D02*
G37*
G36*
Y328654D02*
X451970D01*
X449741Y328360D01*
X447663Y327500D01*
X445879Y326131D01*
X444510Y324347D01*
X443650Y322269D01*
X443356Y320040D01*
X443650Y317811D01*
X444510Y315733D01*
X445879Y313949D01*
X447663Y312580D01*
X449741Y311720D01*
X451970Y311426D01*
X464970D01*
X467199Y311720D01*
X469277Y312580D01*
X471061Y313949D01*
X472430Y315733D01*
X473290Y317811D01*
X473584Y320040D01*
X473290Y322269D01*
X472430Y324347D01*
X471061Y326131D01*
X469277Y327500D01*
X467199Y328360D01*
X464970Y328654D01*
D02*
G37*
G36*
X210970D02*
X197970D01*
X195741Y328360D01*
X193663Y327500D01*
X191879Y326131D01*
X190510Y324347D01*
X189650Y322269D01*
X189356Y320040D01*
X189650Y317811D01*
X190510Y315733D01*
X191879Y313949D01*
X193663Y312580D01*
X195741Y311720D01*
X197970Y311426D01*
X210970D01*
X213199Y311720D01*
X215277Y312580D01*
X217061Y313949D01*
X218430Y315733D01*
X219290Y317811D01*
X219584Y320040D01*
X219290Y322269D01*
X218430Y324347D01*
X217061Y326131D01*
X215277Y327500D01*
X213199Y328360D01*
X210970Y328654D01*
D02*
G37*
G36*
X464970Y303254D02*
X451970D01*
X449741Y302960D01*
X447663Y302100D01*
X445879Y300731D01*
X444510Y298947D01*
X443650Y296869D01*
X443356Y294640D01*
X443650Y292411D01*
X444510Y290333D01*
X445879Y288549D01*
X447663Y287180D01*
X449741Y286320D01*
X451970Y286026D01*
X464970D01*
X467199Y286320D01*
X469277Y287180D01*
X471061Y288549D01*
X472430Y290333D01*
X473290Y292411D01*
X473584Y294640D01*
X473290Y296869D01*
X472430Y298947D01*
X471061Y300731D01*
X469277Y302100D01*
X467199Y302960D01*
X464970Y303254D01*
D02*
G37*
G36*
X210970D02*
X197970D01*
X195741Y302960D01*
X193663Y302100D01*
X191879Y300731D01*
X190510Y298947D01*
X189650Y296869D01*
X189356Y294640D01*
X189650Y292411D01*
X190510Y290333D01*
X191879Y288549D01*
X193663Y287180D01*
X195741Y286320D01*
X197970Y286026D01*
X210970D01*
X213199Y286320D01*
X215277Y287180D01*
X217061Y288549D01*
X218430Y290333D01*
X219290Y292411D01*
X219584Y294640D01*
X219290Y296869D01*
X218430Y298947D01*
X217061Y300731D01*
X215277Y302100D01*
X213199Y302960D01*
X210970Y303254D01*
D02*
G37*
G36*
X299798Y290850D02*
X299730D01*
Y281960D01*
X308620D01*
Y282028D01*
X307928Y284612D01*
X306590Y286928D01*
X304698Y288820D01*
X302382Y290158D01*
X299798Y290850D01*
D02*
G37*
G36*
X274398D02*
X274330D01*
Y281960D01*
X283220D01*
Y282028D01*
X282528Y284612D01*
X281190Y286928D01*
X279298Y288820D01*
X276982Y290158D01*
X274398Y290850D01*
D02*
G37*
G36*
X297190D02*
X297122D01*
X294538Y290158D01*
X292222Y288820D01*
X290330Y286928D01*
X288992Y284612D01*
X288300Y282028D01*
Y281960D01*
X297190D01*
Y290850D01*
D02*
G37*
G36*
X271790D02*
X271722D01*
X269138Y290158D01*
X266822Y288820D01*
X264930Y286928D01*
X263592Y284612D01*
X262900Y282028D01*
Y281960D01*
X271790D01*
Y290850D01*
D02*
G37*
G36*
X308620Y279420D02*
X299730D01*
Y270530D01*
X299798D01*
X302382Y271222D01*
X304698Y272560D01*
X306590Y274452D01*
X307928Y276768D01*
X308620Y279352D01*
Y279420D01*
D02*
G37*
G36*
X297190D02*
X288300D01*
Y279352D01*
X288992Y276768D01*
X290330Y274452D01*
X292222Y272560D01*
X294538Y271222D01*
X297122Y270530D01*
X297190D01*
Y279420D01*
D02*
G37*
G36*
X283220D02*
X274330D01*
Y270530D01*
X274398D01*
X276982Y271222D01*
X279298Y272560D01*
X281190Y274452D01*
X282528Y276768D01*
X283220Y279352D01*
Y279420D01*
D02*
G37*
G36*
X271790D02*
X262900D01*
Y279352D01*
X263592Y276768D01*
X264930Y274452D01*
X266822Y272560D01*
X269138Y271222D01*
X271722Y270530D01*
X271790D01*
Y279420D01*
D02*
G37*
G36*
X405198Y290850D02*
X402522D01*
X399938Y290158D01*
X397622Y288820D01*
X395730Y286928D01*
X394392Y284612D01*
X393700Y282028D01*
Y279352D01*
X394392Y276768D01*
X395730Y274452D01*
X397264Y272918D01*
Y248920D01*
X397488Y247213D01*
X398147Y245622D01*
X399196Y244256D01*
X408086Y235366D01*
X409452Y234317D01*
X411043Y233658D01*
X412750Y233434D01*
X504190D01*
X504619Y233490D01*
X505051D01*
X505469Y233602D01*
X505897Y233658D01*
X506297Y233824D01*
X506714Y233936D01*
X507089Y234152D01*
X507488Y234317D01*
X507831Y234581D01*
X508206Y234797D01*
X508511Y235102D01*
X508854Y235366D01*
X509118Y235709D01*
X509423Y236014D01*
X509639Y236389D01*
X509903Y236732D01*
X510068Y237131D01*
X510284Y237506D01*
X510396Y237923D01*
X510562Y238323D01*
X510618Y238751D01*
X510730Y239169D01*
Y239601D01*
X510786Y240030D01*
X510730Y240459D01*
Y240891D01*
X510618Y241309D01*
X510562Y241737D01*
X510396Y242137D01*
X510284Y242554D01*
X510068Y242929D01*
X509903Y243328D01*
X509639Y243671D01*
X509423Y244046D01*
X509118Y244351D01*
X508854Y244694D01*
X508511Y244958D01*
X508206Y245263D01*
X507831Y245479D01*
X507488Y245743D01*
X507089Y245908D01*
X506714Y246124D01*
X506297Y246236D01*
X505897Y246402D01*
X505469Y246458D01*
X505051Y246570D01*
X504619D01*
X504190Y246626D01*
X415482D01*
X410456Y251652D01*
Y272918D01*
X411990Y274452D01*
X413328Y276768D01*
X414020Y279352D01*
Y282028D01*
X413328Y284612D01*
X411990Y286928D01*
X410098Y288820D01*
X407782Y290158D01*
X405198Y290850D01*
D02*
G37*
G36*
X378440Y250030D02*
X377630D01*
Y230180D01*
X397480D01*
Y230990D01*
X396668Y235070D01*
X395076Y238914D01*
X392765Y242373D01*
X389823Y245315D01*
X386364Y247626D01*
X382520Y249218D01*
X378440Y250030D01*
D02*
G37*
G36*
X375090D02*
X374280D01*
X370200Y249218D01*
X366356Y247626D01*
X362897Y245315D01*
X359955Y242373D01*
X357644Y238914D01*
X356052Y235070D01*
X355240Y230990D01*
Y230180D01*
X375090D01*
Y250030D01*
D02*
G37*
G36*
X397480Y227640D02*
X377630D01*
Y207790D01*
X378440D01*
X382520Y208601D01*
X386364Y210194D01*
X389823Y212505D01*
X392765Y215447D01*
X395076Y218906D01*
X396668Y222749D01*
X397480Y226830D01*
Y227640D01*
D02*
G37*
G36*
X375090D02*
X355240D01*
Y226830D01*
X356052Y222749D01*
X357644Y218906D01*
X359955Y215447D01*
X362897Y212505D01*
X366356Y210194D01*
X370200Y208601D01*
X374280Y207790D01*
X375090D01*
Y227640D01*
D02*
G37*
G36*
X407860Y183524D02*
X405631Y183230D01*
X403553Y182370D01*
X401769Y181001D01*
X400400Y179217D01*
X399540Y177139D01*
X399246Y174910D01*
Y162910D01*
X399540Y160681D01*
X400400Y158603D01*
X401769Y156819D01*
X403553Y155450D01*
X405631Y154590D01*
X407860Y154296D01*
X410089Y154590D01*
X412167Y155450D01*
X413951Y156819D01*
X415320Y158603D01*
X416180Y160681D01*
X416474Y162910D01*
Y174910D01*
X416180Y177139D01*
X415320Y179217D01*
X413951Y181001D01*
X412167Y182370D01*
X410089Y183230D01*
X407860Y183524D01*
D02*
G37*
G36*
X272860D02*
X270631Y183230D01*
X268553Y182370D01*
X266769Y181001D01*
X265400Y179217D01*
X264540Y177139D01*
X264246Y174910D01*
Y162910D01*
X264540Y160681D01*
X265400Y158603D01*
X266769Y156819D01*
X268553Y155450D01*
X270631Y154590D01*
X272860Y154296D01*
X275089Y154590D01*
X277167Y155450D01*
X278951Y156819D01*
X280320Y158603D01*
X281180Y160681D01*
X281474Y162910D01*
Y174910D01*
X281180Y177139D01*
X280320Y179217D01*
X278951Y181001D01*
X277167Y182370D01*
X275089Y183230D01*
X272860Y183524D01*
D02*
G37*
G36*
X635897Y148190D02*
X631562D01*
X627281Y147512D01*
X623158Y146172D01*
X619296Y144204D01*
X615789Y141656D01*
X612724Y138591D01*
X610176Y135084D01*
X608208Y131222D01*
X606868Y127099D01*
X606190Y122817D01*
Y118483D01*
X606868Y114201D01*
X608208Y110078D01*
X610176Y106216D01*
X612724Y102709D01*
X615789Y99644D01*
X619296Y97096D01*
X623158Y95128D01*
X627281Y93788D01*
X631562Y93110D01*
X635897D01*
X640179Y93788D01*
X644302Y95128D01*
X648164Y97096D01*
X651671Y99644D01*
X654736Y102709D01*
X657284Y106216D01*
X659252Y110078D01*
X660592Y114201D01*
X661270Y118483D01*
Y122817D01*
X660592Y127099D01*
X659252Y131222D01*
X657284Y135084D01*
X654736Y138591D01*
X651671Y141656D01*
X648164Y144204D01*
X644302Y146172D01*
X640179Y147512D01*
X635897Y148190D01*
D02*
G37*
G36*
X44078D02*
X39743D01*
X35461Y147512D01*
X31338Y146172D01*
X27476Y144204D01*
X23969Y141656D01*
X20904Y138591D01*
X18356Y135084D01*
X16388Y131222D01*
X15048Y127099D01*
X14370Y122817D01*
Y118483D01*
X15048Y114201D01*
X16388Y110078D01*
X18356Y106216D01*
X20904Y102709D01*
X23969Y99644D01*
X27476Y97096D01*
X31338Y95128D01*
X35461Y93788D01*
X39743Y93110D01*
X44078D01*
X48359Y93788D01*
X52482Y95128D01*
X56344Y97096D01*
X59851Y99644D01*
X62916Y102709D01*
X65464Y106216D01*
X67432Y110078D01*
X68772Y114201D01*
X69450Y118483D01*
Y122817D01*
X68772Y127099D01*
X67432Y131222D01*
X65464Y135084D01*
X62916Y138591D01*
X59851Y141656D01*
X56344Y144204D01*
X52482Y146172D01*
X48359Y147512D01*
X44078Y148190D01*
D02*
G37*
%LPD*%
D18*
X255270Y774040D02*
D03*
Y793140D02*
D03*
D37*
X233680Y454660D02*
Y788670D01*
X255270Y760730D02*
Y774040D01*
X245110Y760730D02*
X255270D01*
X193224Y812800D02*
X193604Y813180D01*
X238380D01*
X238760Y812800D01*
X185420D02*
X193224D01*
X181610Y796290D02*
Y808990D01*
X185420Y812800D01*
X180975Y677545D02*
Y795655D01*
X245110Y736797D02*
X247453Y739140D01*
X245110Y412750D02*
Y736797D01*
X247453Y739140D02*
X308610D01*
X233680Y788670D02*
X238150Y793140D01*
X52070Y331470D02*
X146050D01*
X170914Y356334D01*
X318234D01*
X376685Y467865D02*
Y511045D01*
X375920Y511810D02*
X376685Y511045D01*
Y467865D02*
X378460Y466090D01*
X322580Y360680D02*
Y510540D01*
X318234Y356334D02*
X322580Y360680D01*
X46990Y336550D02*
X52070Y331470D01*
X46990Y336550D02*
Y502920D01*
X53340Y496570D02*
X151130D01*
X46990Y502920D02*
Y640080D01*
Y502920D02*
X53340Y496570D01*
X46990Y640080D02*
X54610Y647700D01*
X121920D01*
X238150Y793140D02*
X255270D01*
X228600Y396240D02*
X245110Y412750D01*
X255270Y793140D02*
X346050D01*
X180975Y795655D02*
X181610Y796290D01*
X180340Y676910D02*
X180975Y677545D01*
X325120Y768350D02*
Y777240D01*
Y768350D02*
X326390Y767080D01*
X325120Y766080D02*
X326120Y767080D01*
X326390D01*
X325120Y760310D02*
Y766080D01*
X312420Y742950D02*
Y760310D01*
X308610Y739140D02*
X312420Y742950D01*
X226060Y447040D02*
X233680Y454660D01*
X204470Y447040D02*
X226060D01*
X204470Y396240D02*
X228600D01*
X337820Y745490D02*
Y760310D01*
X274320D02*
X287020D01*
X257613D02*
X274320D01*
X255270Y762653D02*
X257613Y760310D01*
X350520D02*
Y788670D01*
X346050Y793140D02*
X350520Y788670D01*
D38*
X340360Y277925D02*
Y524904D01*
X505460Y727316D02*
Y822960D01*
X500774Y722630D02*
X505460Y727316D01*
X485140Y722630D02*
X500774D01*
X552450Y359410D02*
X563880D01*
X552450Y316230D02*
Y359410D01*
X538480D02*
X552450D01*
X566420Y486410D02*
Y698894D01*
X530860Y703580D02*
X561734D01*
X566420Y698894D01*
X76200Y453510D02*
X101600D01*
X340360Y280224D02*
X340826Y280690D01*
X340360Y233596D02*
Y280224D01*
X340826Y280690D02*
X378460D01*
X304360Y228910D02*
X335674D01*
X340360Y233596D01*
X345046Y529590D02*
X378460D01*
X340360Y524904D02*
X345046Y529590D01*
X386080Y815340D02*
X398780Y828040D01*
X458470D01*
X386080Y764996D02*
Y815340D01*
X381394Y760310D02*
X386080Y764996D01*
X363220Y760310D02*
X381394D01*
X403860Y248920D02*
X412750Y240030D01*
X403860Y248920D02*
Y280690D01*
X412750Y240030D02*
X504190D01*
X303400Y229870D02*
X304360Y228910D01*
X66040Y229870D02*
X303400D01*
D39*
X257810Y853440D02*
Y891721D01*
Y853440D02*
X274320Y836930D01*
X257810Y891721D02*
X260042Y893953D01*
X272923D01*
X496262Y448965D02*
X559415D01*
X494030Y451197D02*
Y546408D01*
Y451197D02*
X496262Y448965D01*
X559415D02*
X563880Y444500D01*
X482600Y419100D02*
X491490Y410210D01*
X538480D01*
X482600Y419100D02*
Y520700D01*
X491798Y548640D02*
X494030Y546408D01*
X481329Y521972D02*
X482600Y520700D01*
X480060Y523240D02*
X481329Y521972D01*
X458470Y523240D02*
X480060D01*
X563880Y435610D02*
Y444500D01*
X458470Y548640D02*
X491798D01*
X185420Y549910D02*
X203200D01*
X204470Y548640D01*
X162560Y527050D02*
X185420Y549910D01*
X162560Y419100D02*
Y527050D01*
X88245Y414755D02*
X158215D01*
X162560Y419100D01*
X76200Y402710D02*
X88245Y414755D01*
X186690Y523240D02*
X204470D01*
X173990Y510540D02*
X186690Y523240D01*
X173990Y396240D02*
Y510540D01*
X76200Y377310D02*
X88245Y389355D01*
X167105D01*
X173990Y396240D01*
X458470Y599440D02*
X492896D01*
X495436Y601980D02*
X496570D01*
X492896Y599440D02*
X495436Y601980D01*
X488950Y754072D02*
Y770890D01*
X458470Y751840D02*
X486718D01*
X488950Y754072D01*
X311765Y852785D02*
Y883305D01*
X362565Y848975D02*
Y883305D01*
X337165Y848975D02*
Y883305D01*
X350520Y849630D02*
Y869950D01*
X375920Y848360D02*
Y869950D01*
X325120Y849630D02*
Y869950D01*
X287020Y857250D02*
X299720Y869950D01*
X274320Y809410D02*
Y836930D01*
X337820D02*
X350520Y849630D01*
X363220Y835660D02*
X375920Y848360D01*
X363220Y809410D02*
Y835660D01*
X337820Y809410D02*
Y836930D01*
X350520Y809410D02*
Y836930D01*
X299720Y840740D02*
X311765Y852785D01*
X350520Y836930D02*
X362565Y848975D01*
X325120Y836930D02*
X337165Y848975D01*
X312420Y809410D02*
Y836930D01*
X287020Y809410D02*
Y857250D01*
X312420Y836930D02*
X325120Y849630D01*
X299720Y809410D02*
Y840740D01*
X325120Y809410D02*
Y836930D01*
X272923Y893953D02*
X274320Y895350D01*
X350520D02*
X362565Y883305D01*
X325120Y895350D02*
X337165Y883305D01*
X299720Y895350D02*
X311765Y883305D01*
D40*
X538480Y461010D02*
D03*
X563880D02*
D03*
X538480Y435610D02*
D03*
X563880D02*
D03*
X538480Y410210D02*
D03*
X563880D02*
D03*
X538480Y384810D02*
D03*
X563880D02*
D03*
X538480Y359410D02*
D03*
X563880D02*
D03*
X101600Y351910D02*
D03*
X76200D02*
D03*
X101600Y377310D02*
D03*
X76200D02*
D03*
X101600Y402710D02*
D03*
X76200D02*
D03*
X101600Y428110D02*
D03*
X76200D02*
D03*
X101600Y453510D02*
D03*
X76200D02*
D03*
X274320Y869950D02*
D03*
Y895350D02*
D03*
X299720Y869950D02*
D03*
Y895350D02*
D03*
X325120Y869950D02*
D03*
Y895350D02*
D03*
X350520Y869950D02*
D03*
Y895350D02*
D03*
X375920Y869950D02*
D03*
Y895350D02*
D03*
D41*
X376360Y228910D02*
D03*
D42*
X304360D02*
D03*
D43*
X407860Y168910D02*
D03*
X272860D02*
D03*
D44*
X458470Y701040D02*
D03*
Y624840D02*
D03*
Y650240D02*
D03*
Y675640D02*
D03*
Y726440D02*
D03*
Y751840D02*
D03*
Y777240D02*
D03*
Y802640D02*
D03*
Y828040D02*
D03*
X204470Y701040D02*
D03*
X458470Y599440D02*
D03*
Y574040D02*
D03*
X204470D02*
D03*
Y599440D02*
D03*
Y624840D02*
D03*
Y650240D02*
D03*
Y675640D02*
D03*
X458470Y294640D02*
D03*
Y320040D02*
D03*
Y345440D02*
D03*
Y370840D02*
D03*
Y396240D02*
D03*
Y421640D02*
D03*
Y447040D02*
D03*
Y472440D02*
D03*
Y497840D02*
D03*
Y523240D02*
D03*
Y548640D02*
D03*
X204470Y294640D02*
D03*
Y320040D02*
D03*
Y345440D02*
D03*
Y370840D02*
D03*
Y396240D02*
D03*
Y421640D02*
D03*
Y447040D02*
D03*
Y472440D02*
D03*
Y497840D02*
D03*
Y523240D02*
D03*
Y548640D02*
D03*
Y726440D02*
D03*
Y751840D02*
D03*
Y777240D02*
D03*
Y802640D02*
D03*
D45*
Y828040D02*
D03*
D46*
X298460Y466090D02*
D03*
X378460D02*
D03*
X403860D02*
D03*
X273060D02*
D03*
X298460Y280690D02*
D03*
X273060D02*
D03*
X403860D02*
D03*
X378460D02*
D03*
X298460Y714990D02*
D03*
X378460D02*
D03*
X403860D02*
D03*
X273060D02*
D03*
X298460Y529590D02*
D03*
X273060D02*
D03*
X403860D02*
D03*
X378460D02*
D03*
D47*
X633730Y120650D02*
D03*
X41910D02*
D03*
X633730Y868680D02*
D03*
X41910D02*
D03*
D48*
X245110Y760730D02*
D03*
X238760Y812800D02*
D03*
X375920Y511810D02*
D03*
X322580Y510540D02*
D03*
X151130Y496570D02*
D03*
X121920Y647700D02*
D03*
X505460Y822960D02*
D03*
X485140Y722630D02*
D03*
X181610Y796290D02*
D03*
X180340Y676910D02*
D03*
X552450Y316230D02*
D03*
X566420Y486410D02*
D03*
X530860Y703580D02*
D03*
X325120Y777240D02*
D03*
X504190Y240030D02*
D03*
X66040Y229870D02*
D03*
X337820Y745490D02*
D03*
X496570Y601980D02*
D03*
X488950Y770890D02*
D03*
D49*
X274320Y760310D02*
D03*
X287020D02*
D03*
X299720D02*
D03*
X312420D02*
D03*
X325120D02*
D03*
X337820D02*
D03*
X350520D02*
D03*
X363220D02*
D03*
Y809410D02*
D03*
X350520D02*
D03*
X337820D02*
D03*
X325120D02*
D03*
X312420D02*
D03*
X299720D02*
D03*
X287020D02*
D03*
X274320D02*
D03*
M02*
