G04*
G04 #@! TF.GenerationSoftware,Altium Limited,Altium Designer,24.1.2 (44)*
G04*
G04 Layer_Color=16711935*
%FSLAX44Y44*%
%MOMM*%
G71*
G04*
G04 #@! TF.SameCoordinates,FACD1C8F-268C-462D-A2B8-4F1E1D882815*
G04*
G04*
G04 #@! TF.FilePolarity,Positive*
G04*
G01*
G75*
%ADD10C,0.2000*%
G36*
X515158Y151941D02*
X513899Y151700D01*
X513881D01*
X513844Y151682D01*
X513733Y151645D01*
X513603Y151589D01*
X513492Y151533D01*
X513473Y151515D01*
X513455Y151496D01*
X513418Y151441D01*
X513381Y151367D01*
Y151348D01*
X513362Y151330D01*
X513344Y151256D01*
X513325Y151182D01*
X513307Y151052D01*
X513288Y150904D01*
Y150719D01*
X513270Y150497D01*
Y150459D01*
Y150422D01*
Y150348D01*
Y150256D01*
Y150145D01*
Y149997D01*
Y149830D01*
Y149608D01*
Y149367D01*
Y149089D01*
Y148756D01*
Y148404D01*
Y147997D01*
Y147534D01*
Y147034D01*
Y145645D01*
Y145627D01*
Y145571D01*
Y145460D01*
Y145330D01*
Y145182D01*
Y145016D01*
X513251Y144627D01*
Y144201D01*
X513233Y143794D01*
X513214Y143627D01*
Y143460D01*
X513196Y143312D01*
X513177Y143201D01*
Y143182D01*
Y143164D01*
X513140Y143053D01*
X513103Y142886D01*
X513047Y142664D01*
X512955Y142423D01*
X512844Y142164D01*
X512714Y141886D01*
X512547Y141627D01*
X512529Y141590D01*
X512455Y141516D01*
X512344Y141405D01*
X512196Y141257D01*
X512010Y141090D01*
X511788Y140905D01*
X511511Y140738D01*
X511214Y140590D01*
X511177Y140572D01*
X511066Y140535D01*
X510900Y140479D01*
X510677Y140405D01*
X510400Y140331D01*
X510085Y140275D01*
X509752Y140238D01*
X509381Y140220D01*
X509233D01*
X509048Y140238D01*
X508807Y140257D01*
X508529Y140312D01*
X508178Y140368D01*
X507807Y140461D01*
X507400Y140572D01*
Y140590D01*
X507418Y140627D01*
Y140683D01*
X507437Y140775D01*
X507455Y140905D01*
X507474Y141035D01*
X507492Y141201D01*
X507511Y141405D01*
X507529Y141609D01*
X507548Y141849D01*
X507566Y142109D01*
X507604Y142405D01*
X507622Y142701D01*
X507641Y143034D01*
Y143405D01*
X507659Y143775D01*
X508529D01*
Y143757D01*
Y143701D01*
X508548Y143608D01*
Y143497D01*
X508566Y143368D01*
X508585Y143201D01*
X508641Y142868D01*
X508696Y142497D01*
X508789Y142127D01*
X508844Y141960D01*
X508900Y141812D01*
X508955Y141683D01*
X509029Y141572D01*
X509048Y141553D01*
X509085Y141516D01*
X509140Y141442D01*
X509215Y141386D01*
X509326Y141312D01*
X509437Y141238D01*
X509585Y141201D01*
X509752Y141183D01*
X509770D01*
X509844Y141201D01*
X509955Y141220D01*
X510066Y141275D01*
X510196Y141349D01*
X510326Y141479D01*
X510437Y141646D01*
X510511Y141886D01*
Y141923D01*
X510529Y141960D01*
Y142035D01*
X510548Y142146D01*
Y142294D01*
X510566Y142479D01*
X510585Y142720D01*
Y143016D01*
X510603Y143386D01*
Y143812D01*
X510622Y144053D01*
Y144293D01*
Y144571D01*
Y144867D01*
X510640Y145182D01*
Y145534D01*
Y145886D01*
Y146275D01*
Y146682D01*
Y147108D01*
Y147127D01*
Y147145D01*
Y147201D01*
Y147275D01*
Y147441D01*
Y147682D01*
Y147960D01*
Y148275D01*
Y148626D01*
Y148978D01*
X510622Y149682D01*
Y150015D01*
Y150311D01*
X510603Y150589D01*
Y150811D01*
Y150978D01*
X510585Y151034D01*
Y151071D01*
Y151089D01*
Y151126D01*
X510548Y151237D01*
X510492Y151385D01*
X510455Y151441D01*
X510418Y151496D01*
X510400D01*
X510363Y151533D01*
X510270Y151571D01*
X510122Y151608D01*
X510029Y151645D01*
X509918Y151682D01*
X509770Y151719D01*
X509622Y151756D01*
X509437Y151793D01*
X509233Y151848D01*
X509011Y151885D01*
X508752Y151941D01*
Y152570D01*
X508955D01*
X509085Y152552D01*
X509270D01*
X509474Y152533D01*
X509937D01*
X510455Y152515D01*
X511011Y152496D01*
X511548Y152478D01*
X512733D01*
X512918Y152496D01*
X513381D01*
X513640Y152515D01*
X513899D01*
X514510Y152533D01*
X515158Y152570D01*
Y151941D01*
D02*
G37*
G36*
X521028Y152459D02*
Y152441D01*
Y152404D01*
X521010Y152348D01*
Y152274D01*
Y152163D01*
X520991Y152034D01*
X520973Y151885D01*
Y151737D01*
X520936Y151348D01*
X520917Y150922D01*
X520880Y150441D01*
X520861Y149904D01*
Y149886D01*
Y149830D01*
Y149756D01*
Y149645D01*
X520843Y149515D01*
Y149348D01*
Y149163D01*
Y148960D01*
X520824Y148719D01*
Y148478D01*
Y147904D01*
X520806Y147293D01*
Y146627D01*
Y146608D01*
Y146590D01*
Y146534D01*
Y146460D01*
Y146275D01*
Y146034D01*
Y145738D01*
Y145405D01*
Y145053D01*
Y144664D01*
Y143886D01*
Y143497D01*
Y143127D01*
X520824Y142794D01*
Y142516D01*
Y142257D01*
Y142072D01*
Y142053D01*
Y141997D01*
X520843Y141923D01*
X520861Y141812D01*
X520917Y141609D01*
X520954Y141516D01*
X521010Y141442D01*
X521028D01*
X521047Y141423D01*
X521121Y141386D01*
X521213Y141349D01*
X521343Y141312D01*
X521547Y141257D01*
X521787Y141201D01*
X522102Y141146D01*
X522121D01*
X522195Y141127D01*
X522324Y141109D01*
X522491Y141072D01*
Y140479D01*
X522343D01*
X522213Y140498D01*
X522084D01*
X521917Y140516D01*
X521732D01*
X521528Y140535D01*
X521102D01*
X520621Y140553D01*
X520139Y140572D01*
X519047D01*
X518862Y140553D01*
X518436D01*
X517954Y140535D01*
X517417Y140516D01*
X516843Y140479D01*
Y141072D01*
X516899D01*
X516954Y141090D01*
X517029Y141109D01*
X517232Y141146D01*
X517473Y141183D01*
X517714Y141238D01*
X517936Y141294D01*
X518121Y141368D01*
X518195Y141386D01*
X518251Y141423D01*
X518269Y141442D01*
X518325Y141516D01*
X518399Y141646D01*
X518417Y141738D01*
X518436Y141849D01*
Y141868D01*
Y141886D01*
X518454Y141942D01*
Y142035D01*
Y142146D01*
X518473Y142275D01*
Y142460D01*
X518491Y142683D01*
X518510Y142942D01*
Y143238D01*
X518528Y143571D01*
Y143979D01*
Y144423D01*
X518547Y144923D01*
Y145479D01*
Y146090D01*
Y146127D01*
Y146219D01*
Y146349D01*
Y146534D01*
Y146775D01*
Y147015D01*
Y147293D01*
Y147590D01*
Y148201D01*
Y148497D01*
Y148793D01*
X518528Y149071D01*
Y149312D01*
Y149515D01*
Y149682D01*
Y149700D01*
Y149719D01*
Y149811D01*
X518510Y149941D01*
Y150108D01*
X518473Y150274D01*
X518454Y150441D01*
X518417Y150571D01*
X518362Y150663D01*
X518343Y150700D01*
X518251Y150756D01*
X518102Y150811D01*
X517899Y150848D01*
X517732D01*
X517603Y150830D01*
X517417Y150811D01*
X517214Y150793D01*
X516973Y150756D01*
X516677Y150719D01*
Y151274D01*
X516695D01*
X516751Y151293D01*
X516825Y151330D01*
X516936Y151367D01*
X517084Y151404D01*
X517232Y151459D01*
X517584Y151571D01*
X517973Y151700D01*
X518362Y151830D01*
X518732Y151978D01*
X518899Y152034D01*
X519047Y152089D01*
X519084Y152107D01*
X519176Y152145D01*
X519325Y152200D01*
X519528Y152293D01*
X519750Y152385D01*
X520010Y152496D01*
X520287Y152626D01*
X520584Y152756D01*
X521028Y152459D01*
D02*
G37*
G36*
X528879Y152737D02*
X529027Y152719D01*
X529194Y152700D01*
X529564Y152607D01*
X529990Y152459D01*
X530194Y152367D01*
X530416Y152256D01*
X530638Y152126D01*
X530842Y151959D01*
X531046Y151774D01*
X531231Y151571D01*
X531249Y151552D01*
X531286Y151496D01*
X531342Y151422D01*
X531416Y151293D01*
X531490Y151145D01*
X531601Y150941D01*
X531694Y150719D01*
X531805Y150459D01*
X531916Y150145D01*
X532008Y149811D01*
X532119Y149423D01*
X532194Y149015D01*
X532268Y148552D01*
X532323Y148052D01*
X532360Y147515D01*
X532379Y146941D01*
Y146923D01*
Y146904D01*
Y146849D01*
Y146775D01*
Y146590D01*
X532360Y146330D01*
X532342Y146034D01*
X532305Y145682D01*
X532268Y145293D01*
X532212Y144867D01*
X532138Y144442D01*
X532064Y143997D01*
X531953Y143534D01*
X531823Y143090D01*
X531675Y142664D01*
X531490Y142238D01*
X531305Y141868D01*
X531064Y141516D01*
X531046Y141497D01*
X531027Y141461D01*
X530971Y141405D01*
X530897Y141331D01*
X530786Y141220D01*
X530675Y141127D01*
X530527Y141016D01*
X530360Y140905D01*
X530194Y140775D01*
X529972Y140664D01*
X529749Y140572D01*
X529509Y140479D01*
X529249Y140386D01*
X528953Y140331D01*
X528657Y140294D01*
X528324Y140275D01*
X528120D01*
X528027Y140294D01*
X527898Y140312D01*
X527620Y140350D01*
X527305Y140405D01*
X526972Y140498D01*
X526639Y140627D01*
X526324Y140812D01*
X526287Y140831D01*
X526194Y140924D01*
X526046Y141053D01*
X525861Y141238D01*
X525657Y141497D01*
X525435Y141812D01*
X525213Y142201D01*
X525009Y142664D01*
Y142683D01*
X524991Y142720D01*
X524954Y142812D01*
X524935Y142905D01*
X524898Y143053D01*
X524842Y143220D01*
X524805Y143442D01*
X524750Y143664D01*
X524694Y143942D01*
X524657Y144238D01*
X524620Y144590D01*
X524565Y144960D01*
X524546Y145349D01*
X524509Y145793D01*
X524491Y146275D01*
Y146775D01*
Y146793D01*
Y146849D01*
Y146923D01*
Y147034D01*
X524509Y147164D01*
Y147312D01*
X524528Y147497D01*
X524546Y147701D01*
X524602Y148145D01*
X524676Y148626D01*
X524768Y149163D01*
X524917Y149719D01*
Y149737D01*
X524935Y149793D01*
X524972Y149867D01*
X525009Y149960D01*
X525046Y150089D01*
X525102Y150237D01*
X525268Y150571D01*
X525454Y150922D01*
X525694Y151311D01*
X525990Y151663D01*
X526324Y151978D01*
X526342Y151996D01*
X526361Y152015D01*
X526416Y152052D01*
X526491Y152107D01*
X526583Y152163D01*
X526694Y152219D01*
X526972Y152367D01*
X527305Y152515D01*
X527694Y152626D01*
X528139Y152719D01*
X528601Y152756D01*
X528768D01*
X528879Y152737D01*
D02*
G37*
G36*
X181078Y151941D02*
X179819Y151700D01*
X179801D01*
X179764Y151682D01*
X179653Y151645D01*
X179523Y151589D01*
X179412Y151533D01*
X179393Y151515D01*
X179375Y151496D01*
X179338Y151441D01*
X179301Y151367D01*
Y151348D01*
X179282Y151330D01*
X179264Y151256D01*
X179245Y151182D01*
X179227Y151052D01*
X179208Y150904D01*
Y150719D01*
X179190Y150497D01*
Y150459D01*
Y150422D01*
Y150348D01*
Y150256D01*
Y150145D01*
Y149997D01*
Y149830D01*
Y149608D01*
Y149367D01*
Y149089D01*
Y148756D01*
Y148404D01*
Y147997D01*
Y147534D01*
Y147034D01*
Y145645D01*
Y145627D01*
Y145571D01*
Y145460D01*
Y145330D01*
Y145182D01*
Y145016D01*
X179171Y144627D01*
Y144201D01*
X179153Y143794D01*
X179134Y143627D01*
Y143460D01*
X179116Y143312D01*
X179097Y143201D01*
Y143182D01*
Y143164D01*
X179060Y143053D01*
X179023Y142886D01*
X178967Y142664D01*
X178875Y142423D01*
X178764Y142164D01*
X178634Y141886D01*
X178468Y141627D01*
X178449Y141590D01*
X178375Y141516D01*
X178264Y141405D01*
X178116Y141257D01*
X177931Y141090D01*
X177708Y140905D01*
X177431Y140738D01*
X177134Y140590D01*
X177097Y140572D01*
X176986Y140535D01*
X176819Y140479D01*
X176597Y140405D01*
X176320Y140331D01*
X176005Y140275D01*
X175672Y140238D01*
X175301Y140220D01*
X175153D01*
X174968Y140238D01*
X174727Y140257D01*
X174449Y140312D01*
X174098Y140368D01*
X173727Y140461D01*
X173320Y140572D01*
Y140590D01*
X173338Y140627D01*
Y140683D01*
X173357Y140775D01*
X173375Y140905D01*
X173394Y141035D01*
X173412Y141201D01*
X173431Y141405D01*
X173449Y141609D01*
X173468Y141849D01*
X173486Y142109D01*
X173524Y142405D01*
X173542Y142701D01*
X173561Y143034D01*
Y143405D01*
X173579Y143775D01*
X174449D01*
Y143757D01*
Y143701D01*
X174468Y143608D01*
Y143497D01*
X174486Y143368D01*
X174505Y143201D01*
X174561Y142868D01*
X174616Y142497D01*
X174709Y142127D01*
X174764Y141960D01*
X174820Y141812D01*
X174875Y141683D01*
X174949Y141572D01*
X174968Y141553D01*
X175005Y141516D01*
X175060Y141442D01*
X175135Y141386D01*
X175246Y141312D01*
X175357Y141238D01*
X175505Y141201D01*
X175672Y141183D01*
X175690D01*
X175764Y141201D01*
X175875Y141220D01*
X175986Y141275D01*
X176116Y141349D01*
X176245Y141479D01*
X176357Y141646D01*
X176431Y141886D01*
Y141923D01*
X176449Y141960D01*
Y142035D01*
X176468Y142146D01*
Y142294D01*
X176486Y142479D01*
X176505Y142720D01*
Y143016D01*
X176523Y143386D01*
Y143812D01*
X176542Y144053D01*
Y144293D01*
Y144571D01*
Y144867D01*
X176560Y145182D01*
Y145534D01*
Y145886D01*
Y146275D01*
Y146682D01*
Y147108D01*
Y147127D01*
Y147145D01*
Y147201D01*
Y147275D01*
Y147441D01*
Y147682D01*
Y147960D01*
Y148275D01*
Y148626D01*
Y148978D01*
X176542Y149682D01*
Y150015D01*
Y150311D01*
X176523Y150589D01*
Y150811D01*
Y150978D01*
X176505Y151034D01*
Y151071D01*
Y151089D01*
Y151126D01*
X176468Y151237D01*
X176412Y151385D01*
X176375Y151441D01*
X176338Y151496D01*
X176320D01*
X176283Y151533D01*
X176190Y151571D01*
X176042Y151608D01*
X175949Y151645D01*
X175838Y151682D01*
X175690Y151719D01*
X175542Y151756D01*
X175357Y151793D01*
X175153Y151848D01*
X174931Y151885D01*
X174672Y151941D01*
Y152570D01*
X174875D01*
X175005Y152552D01*
X175190D01*
X175394Y152533D01*
X175857D01*
X176375Y152515D01*
X176931Y152496D01*
X177468Y152478D01*
X178653D01*
X178838Y152496D01*
X179301D01*
X179560Y152515D01*
X179819D01*
X180430Y152533D01*
X181078Y152570D01*
Y151941D01*
D02*
G37*
G36*
X186022Y152737D02*
X186152D01*
X186300Y152719D01*
X186652Y152663D01*
X187041Y152589D01*
X187430Y152459D01*
X187800Y152293D01*
X188133Y152052D01*
X188152D01*
X188170Y152015D01*
X188263Y151922D01*
X188392Y151774D01*
X188540Y151571D01*
X188689Y151311D01*
X188818Y151015D01*
X188911Y150663D01*
X188948Y150478D01*
Y150274D01*
Y150237D01*
Y150145D01*
X188929Y149997D01*
X188892Y149811D01*
X188855Y149589D01*
X188781Y149348D01*
X188670Y149108D01*
X188540Y148867D01*
X188522Y148849D01*
X188466Y148756D01*
X188337Y148626D01*
X188170Y148441D01*
X187948Y148219D01*
X187652Y147941D01*
X187485Y147793D01*
X187300Y147645D01*
X187078Y147478D01*
X186856Y147293D01*
X186874Y147275D01*
X186911Y147238D01*
X186985Y147182D01*
X187096Y147108D01*
X187207Y147015D01*
X187337Y146923D01*
X187652Y146664D01*
X187966Y146386D01*
X188281Y146071D01*
X188559Y145775D01*
X188689Y145627D01*
X188781Y145479D01*
X188800Y145442D01*
X188855Y145349D01*
X188929Y145201D01*
X189022Y144997D01*
X189114Y144738D01*
X189189Y144460D01*
X189244Y144145D01*
X189263Y143794D01*
Y143775D01*
Y143720D01*
Y143645D01*
X189244Y143553D01*
X189226Y143423D01*
X189207Y143275D01*
X189133Y142923D01*
X189003Y142516D01*
X188911Y142312D01*
X188800Y142090D01*
X188670Y141886D01*
X188540Y141683D01*
X188355Y141479D01*
X188170Y141275D01*
X188152Y141257D01*
X188115Y141238D01*
X188059Y141183D01*
X187966Y141127D01*
X187855Y141053D01*
X187726Y140961D01*
X187578Y140868D01*
X187393Y140775D01*
X187189Y140683D01*
X186967Y140590D01*
X186726Y140516D01*
X186467Y140423D01*
X186189Y140368D01*
X185874Y140312D01*
X185559Y140294D01*
X185208Y140275D01*
X185041D01*
X184911Y140294D01*
X184763D01*
X184597Y140312D01*
X184208Y140368D01*
X183782Y140461D01*
X183337Y140609D01*
X182930Y140794D01*
X182726Y140924D01*
X182560Y141053D01*
Y141072D01*
X182523Y141090D01*
X182430Y141201D01*
X182282Y141368D01*
X182134Y141609D01*
X181967Y141905D01*
X181819Y142257D01*
X181726Y142646D01*
X181708Y142868D01*
X181689Y143090D01*
Y143109D01*
Y143127D01*
Y143238D01*
X181708Y143423D01*
X181745Y143645D01*
X181800Y143886D01*
X181875Y144164D01*
X181967Y144442D01*
X182115Y144701D01*
X182134Y144738D01*
X182208Y144831D01*
X182319Y144979D01*
X182504Y145182D01*
X182745Y145423D01*
X183041Y145701D01*
X183208Y145849D01*
X183411Y146016D01*
X183615Y146182D01*
X183856Y146367D01*
X183837Y146386D01*
X183800Y146404D01*
X183745Y146460D01*
X183671Y146516D01*
X183467Y146682D01*
X183226Y146904D01*
X182967Y147164D01*
X182708Y147423D01*
X182467Y147701D01*
X182282Y147960D01*
X182263Y147997D01*
X182226Y148089D01*
X182152Y148219D01*
X182097Y148404D01*
X182023Y148645D01*
X181949Y148904D01*
X181912Y149200D01*
X181893Y149515D01*
Y149534D01*
Y149571D01*
Y149645D01*
X181912Y149737D01*
X181930Y149867D01*
X181949Y149997D01*
X182023Y150311D01*
X182152Y150682D01*
X182337Y151071D01*
X182449Y151256D01*
X182597Y151441D01*
X182745Y151626D01*
X182930Y151811D01*
X182948Y151830D01*
X182985Y151848D01*
X183041Y151904D01*
X183115Y151959D01*
X183226Y152034D01*
X183356Y152107D01*
X183504Y152200D01*
X183671Y152293D01*
X183874Y152367D01*
X184078Y152459D01*
X184319Y152533D01*
X184559Y152607D01*
X184837Y152663D01*
X185133Y152719D01*
X185430Y152737D01*
X185763Y152756D01*
X185911D01*
X186022Y152737D01*
D02*
G37*
G36*
X535025Y269529D02*
X535006Y269510D01*
X534969Y269473D01*
X534895Y269399D01*
X534803Y269307D01*
X534691Y269195D01*
X534543Y269047D01*
X534395Y268881D01*
X534210Y268677D01*
X534006Y268473D01*
X533784Y268233D01*
X533562Y267973D01*
X533303Y267696D01*
X533043Y267399D01*
X532766Y267066D01*
X532488Y266733D01*
X532192Y266381D01*
X532173Y266362D01*
X532155Y266325D01*
X532099Y266270D01*
X532025Y266177D01*
X531951Y266085D01*
X531858Y265955D01*
X531636Y265677D01*
X531395Y265362D01*
X531136Y265029D01*
X530914Y264714D01*
X530710Y264400D01*
Y264381D01*
X530692Y264363D01*
X530636Y264270D01*
X530544Y264122D01*
X530433Y263918D01*
X530322Y263696D01*
X530192Y263455D01*
X530081Y263196D01*
X529988Y262955D01*
X529970Y262918D01*
X529951Y262844D01*
X529914Y262715D01*
X529877Y262548D01*
X529840Y262344D01*
X529803Y262122D01*
X529766Y261900D01*
Y261659D01*
Y261641D01*
Y261622D01*
Y261511D01*
X529785Y261344D01*
X529822Y261141D01*
X529896Y260919D01*
X529970Y260678D01*
X530099Y260437D01*
X530266Y260233D01*
X530285Y260215D01*
X530359Y260159D01*
X530451Y260067D01*
X530599Y259974D01*
X530766Y259882D01*
X530970Y259789D01*
X531192Y259734D01*
X531451Y259715D01*
X531562D01*
X531673Y259734D01*
X531840Y259771D01*
X532006Y259807D01*
X532210Y259882D01*
X532414Y259993D01*
X532599Y260122D01*
X532618Y260141D01*
X532692Y260196D01*
X532784Y260308D01*
X532895Y260456D01*
X533043Y260659D01*
X533192Y260919D01*
X533340Y261233D01*
X533488Y261604D01*
X534340D01*
Y261585D01*
X534321Y261548D01*
X534303Y261474D01*
X534266Y261363D01*
X534229Y261252D01*
X534192Y261104D01*
X534099Y260770D01*
X534006Y260363D01*
X533932Y259937D01*
X533877Y259493D01*
X533840Y259048D01*
X533803Y259030D01*
X533710Y258956D01*
X533562Y258863D01*
X533358Y258752D01*
X533136Y258622D01*
X532877Y258493D01*
X532599Y258363D01*
X532303Y258252D01*
X532284D01*
X532266Y258234D01*
X532173Y258215D01*
X532006Y258160D01*
X531803Y258104D01*
X531562Y258067D01*
X531303Y258011D01*
X531007Y257993D01*
X530710Y257974D01*
X530562D01*
X530470Y257993D01*
X530340D01*
X530210Y258011D01*
X529877Y258085D01*
X529507Y258197D01*
X529099Y258345D01*
X528711Y258567D01*
X528525Y258715D01*
X528359Y258863D01*
X528340Y258882D01*
X528322Y258900D01*
X528266Y258956D01*
X528211Y259011D01*
X528063Y259196D01*
X527896Y259456D01*
X527729Y259752D01*
X527581Y260122D01*
X527470Y260530D01*
X527451Y260752D01*
X527433Y260974D01*
Y260993D01*
Y261011D01*
Y261067D01*
Y261141D01*
X527451Y261326D01*
X527489Y261567D01*
X527525Y261844D01*
X527600Y262159D01*
X527711Y262492D01*
X527840Y262844D01*
Y262863D01*
X527859Y262881D01*
X527877Y262937D01*
X527914Y263011D01*
X528007Y263196D01*
X528155Y263437D01*
X528340Y263752D01*
X528581Y264085D01*
X528859Y264474D01*
X529192Y264900D01*
X529211Y264918D01*
X529248Y264974D01*
X529303Y265029D01*
X529377Y265103D01*
X529470Y265214D01*
X529599Y265344D01*
X529748Y265511D01*
X529933Y265696D01*
X530173Y265918D01*
X530433Y266196D01*
X530729Y266492D01*
X531081Y266844D01*
X531469Y267251D01*
X531914Y267677D01*
X532414Y268177D01*
X529044D01*
X528748Y268158D01*
X528618Y268140D01*
X528507Y268121D01*
X528488D01*
X528470Y268103D01*
X528359Y268066D01*
X528229Y267973D01*
X528081Y267844D01*
X528063Y267825D01*
X528044Y267807D01*
X528007Y267733D01*
X527933Y267640D01*
X527859Y267529D01*
X527766Y267381D01*
X527655Y267177D01*
X527544Y266955D01*
X526729D01*
Y266973D01*
X526766Y267048D01*
X526803Y267140D01*
X526859Y267288D01*
X526933Y267455D01*
X527007Y267640D01*
X527100Y267862D01*
X527192Y268103D01*
X527396Y268621D01*
X527618Y269177D01*
X527803Y269732D01*
X527988Y270251D01*
X528192D01*
X528340Y270232D01*
X528525D01*
X528748Y270214D01*
X528988D01*
X529248Y270195D01*
X529822D01*
X530433Y270177D01*
X531044Y270158D01*
X532414D01*
X532655Y270177D01*
X533154D01*
X533728Y270195D01*
X534358Y270214D01*
X535025Y270251D01*
Y269529D01*
D02*
G37*
G36*
X541802Y270492D02*
X542006D01*
X542246Y270455D01*
X542524Y270417D01*
X542839Y270380D01*
X543172Y270306D01*
X543524Y270214D01*
X543894Y270103D01*
X544283Y269973D01*
X544653Y269825D01*
X545024Y269640D01*
X545394Y269418D01*
X545746Y269158D01*
X546061Y268881D01*
X546079Y268862D01*
X546135Y268807D01*
X546209Y268714D01*
X546320Y268584D01*
X546431Y268418D01*
X546579Y268214D01*
X546727Y267973D01*
X546875Y267714D01*
X547024Y267399D01*
X547172Y267085D01*
X547320Y266714D01*
X547431Y266325D01*
X547542Y265900D01*
X547616Y265437D01*
X547672Y264955D01*
X547690Y264455D01*
Y264418D01*
Y264326D01*
X547672Y264177D01*
X547653Y263974D01*
X547635Y263715D01*
X547598Y263437D01*
X547542Y263104D01*
X547449Y262752D01*
X547357Y262381D01*
X547246Y262011D01*
X547079Y261604D01*
X546912Y261215D01*
X546690Y260826D01*
X546450Y260437D01*
X546172Y260067D01*
X545838Y259715D01*
X545820Y259696D01*
X545746Y259641D01*
X545653Y259548D01*
X545505Y259437D01*
X545301Y259289D01*
X545079Y259141D01*
X544801Y258974D01*
X544505Y258808D01*
X544153Y258641D01*
X543764Y258474D01*
X543357Y258326D01*
X542894Y258178D01*
X542394Y258067D01*
X541876Y257974D01*
X541302Y257919D01*
X540709Y257900D01*
X540321D01*
X540061Y257919D01*
X539746Y257937D01*
X539413Y257974D01*
X538691Y258067D01*
X538654D01*
X538598Y258085D01*
X538506Y258104D01*
X538413Y258123D01*
X538302Y258141D01*
X538024Y258215D01*
X537673Y258289D01*
X537247Y258400D01*
X536784Y258530D01*
X536265Y258696D01*
Y258715D01*
Y258789D01*
X536284Y258900D01*
Y259048D01*
Y259215D01*
X536302Y259419D01*
Y259845D01*
Y259863D01*
Y259900D01*
Y259956D01*
Y260030D01*
Y260122D01*
Y260252D01*
X536284Y260382D01*
Y260548D01*
Y260919D01*
X536247Y261344D01*
X536228Y261826D01*
X536191Y262363D01*
X537136D01*
Y262344D01*
X537154Y262289D01*
X537173Y262215D01*
X537210Y262104D01*
X537247Y261974D01*
X537284Y261826D01*
X537358Y261511D01*
X537469Y261178D01*
X537561Y260863D01*
X537598Y260733D01*
X537636Y260622D01*
X537673Y260530D01*
X537710Y260456D01*
X537728Y260419D01*
X537765Y260345D01*
X537839Y260233D01*
X537950Y260067D01*
X538098Y259900D01*
X538284Y259715D01*
X538487Y259530D01*
X538746Y259363D01*
X538784Y259345D01*
X538876Y259289D01*
X539024Y259215D01*
X539246Y259141D01*
X539524Y259067D01*
X539857Y258993D01*
X540246Y258937D01*
X540672Y258919D01*
X540857D01*
X540987Y258937D01*
X541135Y258956D01*
X541320Y258974D01*
X541524Y259011D01*
X541728Y259067D01*
X542191Y259196D01*
X542431Y259289D01*
X542672Y259400D01*
X542913Y259530D01*
X543135Y259696D01*
X543339Y259863D01*
X543542Y260067D01*
X543561Y260085D01*
X543598Y260122D01*
X543653Y260215D01*
X543727Y260326D01*
X543820Y260456D01*
X543931Y260622D01*
X544042Y260826D01*
X544153Y261048D01*
X544264Y261307D01*
X544376Y261604D01*
X544487Y261900D01*
X544579Y262252D01*
X544653Y262603D01*
X544709Y263011D01*
X544746Y263418D01*
X544764Y263863D01*
Y263900D01*
Y263974D01*
Y264103D01*
X544746Y264270D01*
X544727Y264474D01*
X544709Y264714D01*
X544672Y264992D01*
X544616Y265270D01*
X544468Y265900D01*
X544376Y266214D01*
X544264Y266529D01*
X544116Y266844D01*
X543950Y267140D01*
X543764Y267418D01*
X543561Y267677D01*
X543542Y267696D01*
X543505Y267733D01*
X543431Y267788D01*
X543339Y267881D01*
X543209Y267973D01*
X543061Y268085D01*
X542894Y268196D01*
X542691Y268325D01*
X542468Y268436D01*
X542228Y268566D01*
X541950Y268677D01*
X541654Y268770D01*
X541339Y268862D01*
X541006Y268918D01*
X540635Y268955D01*
X540265Y268973D01*
X540080D01*
X539950Y268955D01*
X539784Y268936D01*
X539598Y268918D01*
X539376Y268881D01*
X539117Y268844D01*
X538858Y268788D01*
X538580Y268714D01*
X538265Y268621D01*
X537969Y268529D01*
X537636Y268399D01*
X537302Y268270D01*
X536969Y268103D01*
X536636Y267918D01*
X536191Y268732D01*
X536210Y268751D01*
X536265Y268770D01*
X536339Y268825D01*
X536451Y268899D01*
X536580Y268973D01*
X536728Y269066D01*
X536895Y269158D01*
X537080Y269270D01*
X537506Y269510D01*
X537969Y269732D01*
X538450Y269936D01*
X538932Y270121D01*
X538950D01*
X538987Y270140D01*
X539061Y270158D01*
X539154Y270177D01*
X539265Y270214D01*
X539395Y270251D01*
X539543Y270288D01*
X539728Y270306D01*
X540117Y270380D01*
X540543Y270455D01*
X541024Y270492D01*
X541524Y270510D01*
X541654D01*
X541802Y270492D01*
D02*
G37*
G36*
X95301Y269658D02*
X95245D01*
X95190Y269640D01*
X95116Y269621D01*
X94912Y269584D01*
X94671Y269547D01*
X94431Y269492D01*
X94208Y269436D01*
X94023Y269362D01*
X93949Y269344D01*
X93893Y269307D01*
X93875Y269288D01*
X93820Y269214D01*
X93745Y269084D01*
X93727Y268992D01*
X93708Y268881D01*
Y268862D01*
Y268844D01*
X93690Y268788D01*
Y268696D01*
Y268584D01*
X93671Y268455D01*
Y268270D01*
X93653Y268047D01*
X93634Y267788D01*
Y267492D01*
X93616Y267159D01*
Y266751D01*
Y266307D01*
X93597Y265807D01*
Y265251D01*
Y264640D01*
Y264603D01*
Y264511D01*
Y264381D01*
Y264196D01*
Y263955D01*
Y263715D01*
Y263437D01*
Y263141D01*
Y262530D01*
Y262233D01*
Y261937D01*
X93616Y261659D01*
Y261418D01*
Y261215D01*
Y261048D01*
Y261030D01*
Y261011D01*
Y260919D01*
X93634Y260789D01*
Y260622D01*
X93671Y260456D01*
X93690Y260289D01*
X93727Y260159D01*
X93782Y260067D01*
X93801Y260030D01*
X93893Y259974D01*
X94042Y259919D01*
X94245Y259882D01*
X94412D01*
X94542Y259900D01*
X94727Y259919D01*
X94930Y259937D01*
X95171Y259974D01*
X95467Y260011D01*
Y259456D01*
X95449D01*
X95393Y259437D01*
X95319Y259400D01*
X95208Y259363D01*
X95060Y259326D01*
X94912Y259271D01*
X94560Y259160D01*
X94171Y259030D01*
X93782Y258900D01*
X93412Y258752D01*
X93245Y258696D01*
X93097Y258641D01*
X93060Y258622D01*
X92968Y258585D01*
X92820Y258530D01*
X92616Y258437D01*
X92394Y258345D01*
X92135Y258234D01*
X91857Y258104D01*
X91560Y257974D01*
X91116Y258271D01*
Y258289D01*
Y258326D01*
X91135Y258382D01*
Y258456D01*
Y258567D01*
X91153Y258696D01*
X91172Y258845D01*
Y258993D01*
X91209Y259382D01*
X91227Y259807D01*
X91264Y260289D01*
X91283Y260826D01*
Y260844D01*
Y260900D01*
Y260974D01*
Y261085D01*
X91301Y261215D01*
Y261381D01*
Y261567D01*
Y261770D01*
X91320Y262011D01*
Y262252D01*
Y262826D01*
X91338Y263437D01*
Y264103D01*
Y264122D01*
Y264140D01*
Y264196D01*
Y264270D01*
Y264455D01*
Y264696D01*
Y264992D01*
Y265326D01*
Y265677D01*
Y266066D01*
Y266844D01*
Y267233D01*
Y267603D01*
X91320Y267936D01*
Y268214D01*
Y268473D01*
Y268659D01*
Y268677D01*
Y268732D01*
X91301Y268807D01*
X91283Y268918D01*
X91227Y269121D01*
X91190Y269214D01*
X91135Y269288D01*
X91116D01*
X91097Y269307D01*
X91024Y269344D01*
X90931Y269381D01*
X90801Y269418D01*
X90598Y269473D01*
X90357Y269529D01*
X90042Y269584D01*
X90024D01*
X89950Y269603D01*
X89820Y269621D01*
X89653Y269658D01*
Y270251D01*
X89801D01*
X89931Y270232D01*
X90061D01*
X90227Y270214D01*
X90412D01*
X90616Y270195D01*
X91042D01*
X91523Y270177D01*
X92005Y270158D01*
X93097D01*
X93282Y270177D01*
X93708D01*
X94190Y270195D01*
X94727Y270214D01*
X95301Y270251D01*
Y269658D01*
D02*
G37*
G36*
X103652Y270492D02*
X103855D01*
X104096Y270455D01*
X104374Y270417D01*
X104689Y270380D01*
X105022Y270306D01*
X105374Y270214D01*
X105744Y270103D01*
X106133Y269973D01*
X106503Y269825D01*
X106874Y269640D01*
X107244Y269418D01*
X107596Y269158D01*
X107911Y268881D01*
X107929Y268862D01*
X107985Y268807D01*
X108059Y268714D01*
X108170Y268584D01*
X108281Y268418D01*
X108429Y268214D01*
X108577Y267973D01*
X108725Y267714D01*
X108874Y267399D01*
X109022Y267085D01*
X109170Y266714D01*
X109281Y266325D01*
X109392Y265900D01*
X109466Y265437D01*
X109522Y264955D01*
X109540Y264455D01*
Y264418D01*
Y264326D01*
X109522Y264177D01*
X109503Y263974D01*
X109485Y263715D01*
X109447Y263437D01*
X109392Y263104D01*
X109299Y262752D01*
X109207Y262381D01*
X109096Y262011D01*
X108929Y261604D01*
X108762Y261215D01*
X108540Y260826D01*
X108300Y260437D01*
X108022Y260067D01*
X107688Y259715D01*
X107670Y259696D01*
X107596Y259641D01*
X107503Y259548D01*
X107355Y259437D01*
X107151Y259289D01*
X106929Y259141D01*
X106651Y258974D01*
X106355Y258808D01*
X106003Y258641D01*
X105615Y258474D01*
X105207Y258326D01*
X104744Y258178D01*
X104244Y258067D01*
X103726Y257974D01*
X103152Y257919D01*
X102559Y257900D01*
X102170D01*
X101911Y257919D01*
X101596Y257937D01*
X101263Y257974D01*
X100541Y258067D01*
X100504D01*
X100448Y258085D01*
X100356Y258104D01*
X100263Y258123D01*
X100152Y258141D01*
X99874Y258215D01*
X99523Y258289D01*
X99097Y258400D01*
X98634Y258530D01*
X98115Y258696D01*
Y258715D01*
Y258789D01*
X98134Y258900D01*
Y259048D01*
Y259215D01*
X98152Y259419D01*
Y259845D01*
Y259863D01*
Y259900D01*
Y259956D01*
Y260030D01*
Y260122D01*
Y260252D01*
X98134Y260382D01*
Y260548D01*
Y260919D01*
X98097Y261344D01*
X98078Y261826D01*
X98041Y262363D01*
X98986D01*
Y262344D01*
X99004Y262289D01*
X99023Y262215D01*
X99060Y262104D01*
X99097Y261974D01*
X99134Y261826D01*
X99208Y261511D01*
X99319Y261178D01*
X99411Y260863D01*
X99448Y260733D01*
X99486Y260622D01*
X99523Y260530D01*
X99560Y260456D01*
X99578Y260419D01*
X99615Y260345D01*
X99689Y260233D01*
X99800Y260067D01*
X99949Y259900D01*
X100134Y259715D01*
X100337Y259530D01*
X100597Y259363D01*
X100634Y259345D01*
X100726Y259289D01*
X100874Y259215D01*
X101096Y259141D01*
X101374Y259067D01*
X101707Y258993D01*
X102096Y258937D01*
X102522Y258919D01*
X102707D01*
X102837Y258937D01*
X102985Y258956D01*
X103170Y258974D01*
X103374Y259011D01*
X103578Y259067D01*
X104041Y259196D01*
X104281Y259289D01*
X104522Y259400D01*
X104763Y259530D01*
X104985Y259696D01*
X105189Y259863D01*
X105392Y260067D01*
X105411Y260085D01*
X105448Y260122D01*
X105503Y260215D01*
X105577Y260326D01*
X105670Y260456D01*
X105781Y260622D01*
X105892Y260826D01*
X106003Y261048D01*
X106115Y261307D01*
X106226Y261604D01*
X106337Y261900D01*
X106429Y262252D01*
X106503Y262603D01*
X106559Y263011D01*
X106596Y263418D01*
X106614Y263863D01*
Y263900D01*
Y263974D01*
Y264103D01*
X106596Y264270D01*
X106577Y264474D01*
X106559Y264714D01*
X106522Y264992D01*
X106466Y265270D01*
X106318Y265900D01*
X106226Y266214D01*
X106115Y266529D01*
X105966Y266844D01*
X105800Y267140D01*
X105615Y267418D01*
X105411Y267677D01*
X105392Y267696D01*
X105355Y267733D01*
X105281Y267788D01*
X105189Y267881D01*
X105059Y267973D01*
X104911Y268085D01*
X104744Y268196D01*
X104541Y268325D01*
X104318Y268436D01*
X104078Y268566D01*
X103800Y268677D01*
X103504Y268770D01*
X103189Y268862D01*
X102856Y268918D01*
X102485Y268955D01*
X102115Y268973D01*
X101930D01*
X101800Y268955D01*
X101634Y268936D01*
X101448Y268918D01*
X101226Y268881D01*
X100967Y268844D01*
X100708Y268788D01*
X100430Y268714D01*
X100115Y268621D01*
X99819Y268529D01*
X99486Y268399D01*
X99152Y268270D01*
X98819Y268103D01*
X98486Y267918D01*
X98041Y268732D01*
X98060Y268751D01*
X98115Y268770D01*
X98189Y268825D01*
X98301Y268899D01*
X98430Y268973D01*
X98578Y269066D01*
X98745Y269158D01*
X98930Y269270D01*
X99356Y269510D01*
X99819Y269732D01*
X100300Y269936D01*
X100782Y270121D01*
X100800D01*
X100837Y270140D01*
X100911Y270158D01*
X101004Y270177D01*
X101115Y270214D01*
X101245Y270251D01*
X101393Y270288D01*
X101578Y270306D01*
X101967Y270380D01*
X102393Y270455D01*
X102874Y270492D01*
X103374Y270510D01*
X103504D01*
X103652Y270492D01*
D02*
G37*
%LPC*%
G36*
X528398Y151867D02*
X528342D01*
X528287Y151848D01*
X528213D01*
X528027Y151774D01*
X527935Y151737D01*
X527842Y151663D01*
X527824D01*
X527805Y151626D01*
X527713Y151515D01*
X527639Y151441D01*
X527583Y151348D01*
X527509Y151219D01*
X527453Y151089D01*
Y151071D01*
X527416Y150997D01*
X527379Y150885D01*
X527342Y150737D01*
X527287Y150571D01*
X527250Y150367D01*
X527213Y150126D01*
X527176Y149886D01*
Y149867D01*
Y149830D01*
Y149774D01*
X527157Y149682D01*
Y149552D01*
X527139Y149404D01*
Y149237D01*
Y149052D01*
X527120Y148849D01*
Y148608D01*
X527102Y148349D01*
Y148071D01*
X527083Y147756D01*
Y147441D01*
Y147108D01*
Y146738D01*
Y146719D01*
Y146627D01*
Y146516D01*
Y146349D01*
Y146164D01*
Y145941D01*
Y145682D01*
X527102Y145423D01*
Y144867D01*
X527120Y144312D01*
X527139Y144053D01*
Y143794D01*
X527157Y143571D01*
X527176Y143368D01*
Y143349D01*
Y143312D01*
X527194Y143238D01*
Y143146D01*
X527231Y142923D01*
X527287Y142646D01*
X527342Y142331D01*
X527435Y142035D01*
X527527Y141775D01*
X527602Y141664D01*
X527657Y141572D01*
X527676Y141553D01*
X527731Y141497D01*
X527805Y141442D01*
X527898Y141368D01*
X528027Y141275D01*
X528157Y141220D01*
X528324Y141164D01*
X528490Y141146D01*
X528527D01*
X528601Y141164D01*
X528731Y141183D01*
X528861Y141257D01*
X529027Y141349D01*
X529194Y141497D01*
X529324Y141701D01*
X529398Y141831D01*
X529453Y141979D01*
Y141997D01*
X529472Y142035D01*
X529490Y142109D01*
X529509Y142201D01*
X529527Y142331D01*
X529564Y142516D01*
X529601Y142720D01*
X529638Y142960D01*
X529657Y143257D01*
X529694Y143590D01*
X529731Y143979D01*
X529749Y144405D01*
X529768Y144886D01*
X529786Y145423D01*
X529805Y145997D01*
Y146645D01*
Y146664D01*
Y146682D01*
Y146738D01*
Y146812D01*
Y146978D01*
Y147238D01*
X529786Y147515D01*
Y147849D01*
X529768Y148201D01*
X529731Y148589D01*
X529675Y149367D01*
X529638Y149756D01*
X529583Y150126D01*
X529509Y150478D01*
X529453Y150793D01*
X529361Y151052D01*
X529268Y151274D01*
X529249Y151293D01*
X529212Y151367D01*
X529138Y151459D01*
X529046Y151571D01*
X528916Y151682D01*
X528768Y151774D01*
X528601Y151848D01*
X528398Y151867D01*
D02*
G37*
G36*
X185485Y151830D02*
X185374D01*
X185245Y151811D01*
X185096Y151774D01*
X184930Y151737D01*
X184745Y151663D01*
X184578Y151552D01*
X184411Y151422D01*
X184393Y151404D01*
X184356Y151348D01*
X184282Y151256D01*
X184226Y151145D01*
X184152Y150997D01*
X184078Y150811D01*
X184041Y150608D01*
X184023Y150386D01*
Y150367D01*
Y150311D01*
X184041Y150200D01*
X184060Y150089D01*
X184115Y149941D01*
X184171Y149774D01*
X184263Y149589D01*
X184374Y149404D01*
X184393Y149386D01*
X184448Y149312D01*
X184559Y149200D01*
X184708Y149034D01*
X184930Y148830D01*
X185208Y148571D01*
X185374Y148423D01*
X185559Y148275D01*
X185763Y148108D01*
X185985Y147923D01*
X186004Y147941D01*
X186078Y148015D01*
X186170Y148108D01*
X186282Y148237D01*
X186541Y148515D01*
X186633Y148663D01*
X186726Y148812D01*
X186744Y148849D01*
X186781Y148923D01*
X186837Y149052D01*
X186893Y149219D01*
X186948Y149423D01*
X187004Y149626D01*
X187041Y149867D01*
X187059Y150108D01*
Y150126D01*
Y150145D01*
Y150237D01*
X187041Y150386D01*
X187004Y150571D01*
X186948Y150774D01*
X186874Y150978D01*
X186763Y151182D01*
X186615Y151367D01*
X186596Y151385D01*
X186541Y151441D01*
X186448Y151515D01*
X186318Y151608D01*
X186152Y151682D01*
X185967Y151756D01*
X185744Y151811D01*
X185485Y151830D01*
D02*
G37*
G36*
X184763Y145701D02*
X184745Y145682D01*
X184689Y145608D01*
X184615Y145516D01*
X184504Y145405D01*
X184411Y145256D01*
X184300Y145108D01*
X184189Y144942D01*
X184115Y144775D01*
X184097Y144738D01*
X184078Y144645D01*
X184023Y144516D01*
X183967Y144331D01*
X183911Y144127D01*
X183874Y143886D01*
X183837Y143627D01*
X183819Y143349D01*
Y143331D01*
Y143312D01*
Y143257D01*
Y143182D01*
X183837Y142997D01*
X183874Y142775D01*
X183948Y142534D01*
X184023Y142257D01*
X184152Y142016D01*
X184319Y141775D01*
X184337Y141757D01*
X184411Y141683D01*
X184522Y141590D01*
X184652Y141497D01*
X184837Y141386D01*
X185022Y141294D01*
X185263Y141220D01*
X185504Y141201D01*
X185615D01*
X185726Y141220D01*
X185856Y141257D01*
X186022Y141312D01*
X186207Y141405D01*
X186374Y141516D01*
X186541Y141664D01*
X186559Y141683D01*
X186615Y141757D01*
X186689Y141849D01*
X186763Y141997D01*
X186837Y142164D01*
X186911Y142368D01*
X186967Y142608D01*
X186985Y142868D01*
Y142905D01*
Y142979D01*
X186967Y143109D01*
X186930Y143275D01*
X186874Y143479D01*
X186781Y143701D01*
X186670Y143923D01*
X186522Y144164D01*
X186504Y144201D01*
X186430Y144275D01*
X186318Y144405D01*
X186133Y144590D01*
X185893Y144812D01*
X185596Y145071D01*
X185411Y145219D01*
X185208Y145367D01*
X185004Y145534D01*
X184763Y145701D01*
D02*
G37*
%LPD*%
D10*
X427900Y84220D02*
Y196220D01*
Y84220D02*
X586900D01*
Y196220D01*
X427900D02*
X586900D01*
X93820Y84220D02*
Y196220D01*
Y84220D02*
X252820D01*
Y196220D01*
X93820D02*
X252820D01*
X479690Y215510D02*
X615690D01*
X479690D02*
Y325510D01*
X615690D01*
Y215510D02*
Y325510D01*
X41540Y215510D02*
X177540D01*
X41540D02*
Y325510D01*
X177540D01*
Y215510D02*
Y325510D01*
M02*
