G04*
G04 #@! TF.GenerationSoftware,Altium Limited,Altium Designer,24.1.2 (44)*
G04*
G04 Layer_Color=255*
%FSLAX44Y44*%
%MOMM*%
G71*
G04*
G04 #@! TF.SameCoordinates,FACD1C8F-268C-462D-A2B8-4F1E1D882815*
G04*
G04*
G04 #@! TF.FilePolarity,Positive*
G04*
G01*
G75*
G04:AMPARAMS|DCode=15|XSize=0.92mm|YSize=1.38mm|CornerRadius=0.115mm|HoleSize=0mm|Usage=FLASHONLY|Rotation=0.000|XOffset=0mm|YOffset=0mm|HoleType=Round|Shape=RoundedRectangle|*
%AMROUNDEDRECTD15*
21,1,0.9200,1.1500,0,0,0.0*
21,1,0.6900,1.3800,0,0,0.0*
1,1,0.2300,0.3450,-0.5750*
1,1,0.2300,-0.3450,-0.5750*
1,1,0.2300,-0.3450,0.5750*
1,1,0.2300,0.3450,0.5750*
%
%ADD15ROUNDEDRECTD15*%
%ADD16R,3.9000X1.8000*%
%ADD17R,4.5000X1.3000*%
G04:AMPARAMS|DCode=18|XSize=0.92mm|YSize=1.38mm|CornerRadius=0.115mm|HoleSize=0mm|Usage=FLASHONLY|Rotation=270.000|XOffset=0mm|YOffset=0mm|HoleType=Round|Shape=RoundedRectangle|*
%AMROUNDEDRECTD18*
21,1,0.9200,1.1500,0,0,270.0*
21,1,0.6900,1.3800,0,0,270.0*
1,1,0.2300,-0.5750,-0.3450*
1,1,0.2300,-0.5750,0.3450*
1,1,0.2300,0.5750,0.3450*
1,1,0.2300,0.5750,-0.3450*
%
%ADD18ROUNDEDRECTD18*%
%ADD19R,1.8000X3.9000*%
%ADD20R,1.3000X4.5000*%
%ADD21R,1.1500X1.4500*%
%ADD22R,4.4000X1.9000*%
%ADD40C,1.5200*%
%ADD41C,3.7160*%
%ADD42R,3.7160X3.7160*%
%ADD43O,1.2000X2.4000*%
%ADD44O,2.5000X1.2000*%
%ADD45R,2.5000X1.2000*%
%ADD46C,1.5240*%
%ADD47C,5.0000*%
D15*
X507340Y843280D02*
D03*
X526440D02*
D03*
X523900Y684530D02*
D03*
X504800D02*
D03*
Y664210D02*
D03*
X523900D02*
D03*
X528320Y509270D02*
D03*
X509220D02*
D03*
X135230Y665480D02*
D03*
X154330D02*
D03*
X154330Y685800D02*
D03*
X135230D02*
D03*
Y836930D02*
D03*
X154330D02*
D03*
X151790Y513080D02*
D03*
X132690D02*
D03*
D16*
X591820Y829310D02*
D03*
Y690310D02*
D03*
X593090Y661320D02*
D03*
Y522320D02*
D03*
X73660D02*
D03*
Y661320D02*
D03*
X78740Y690310D02*
D03*
Y829310D02*
D03*
D17*
X523820Y797310D02*
D03*
Y772310D02*
D03*
Y747310D02*
D03*
Y722310D02*
D03*
X525090Y629320D02*
D03*
Y604320D02*
D03*
Y579320D02*
D03*
Y554320D02*
D03*
X141660D02*
D03*
Y579320D02*
D03*
Y604320D02*
D03*
Y629320D02*
D03*
X146740Y722310D02*
D03*
Y747310D02*
D03*
Y772310D02*
D03*
Y797310D02*
D03*
D18*
X500380Y362560D02*
D03*
Y381660D02*
D03*
X40640Y450240D02*
D03*
Y431140D02*
D03*
X608330Y361290D02*
D03*
Y380390D02*
D03*
X138430Y450240D02*
D03*
Y431140D02*
D03*
D19*
X576900Y104720D02*
D03*
X437900D02*
D03*
X242820D02*
D03*
X103820D02*
D03*
D20*
X544900Y172720D02*
D03*
X519900D02*
D03*
X494900D02*
D03*
X469900D02*
D03*
X210820D02*
D03*
X185820D02*
D03*
X160820D02*
D03*
X135820D02*
D03*
D21*
X199280Y868680D02*
D03*
X217280D02*
D03*
X199280Y890270D02*
D03*
X217280D02*
D03*
D22*
X591190Y270510D02*
D03*
X504190D02*
D03*
X153040D02*
D03*
X66040D02*
D03*
D40*
X538480Y461010D02*
D03*
X563880D02*
D03*
X538480Y435610D02*
D03*
X563880D02*
D03*
X538480Y410210D02*
D03*
X563880D02*
D03*
X538480Y384810D02*
D03*
X563880D02*
D03*
X538480Y359410D02*
D03*
X563880D02*
D03*
X101600Y351910D02*
D03*
X76200D02*
D03*
X101600Y377310D02*
D03*
X76200D02*
D03*
X101600Y402710D02*
D03*
X76200D02*
D03*
X101600Y428110D02*
D03*
X76200D02*
D03*
X101600Y453510D02*
D03*
X76200D02*
D03*
X274320Y869950D02*
D03*
Y895350D02*
D03*
X299720Y869950D02*
D03*
Y895350D02*
D03*
X325120Y869950D02*
D03*
Y895350D02*
D03*
X350520Y869950D02*
D03*
Y895350D02*
D03*
X375920Y869950D02*
D03*
Y895350D02*
D03*
D41*
X376360Y228910D02*
D03*
D42*
X304360D02*
D03*
D43*
X407860Y168910D02*
D03*
X272860D02*
D03*
D44*
X458470Y701040D02*
D03*
Y624840D02*
D03*
Y650240D02*
D03*
Y675640D02*
D03*
Y726440D02*
D03*
Y751840D02*
D03*
Y777240D02*
D03*
Y802640D02*
D03*
Y828040D02*
D03*
X204470Y701040D02*
D03*
X458470Y599440D02*
D03*
Y574040D02*
D03*
X204470D02*
D03*
Y599440D02*
D03*
Y624840D02*
D03*
Y650240D02*
D03*
Y675640D02*
D03*
X458470Y294640D02*
D03*
Y320040D02*
D03*
Y345440D02*
D03*
Y370840D02*
D03*
Y396240D02*
D03*
Y421640D02*
D03*
Y447040D02*
D03*
Y472440D02*
D03*
Y497840D02*
D03*
Y523240D02*
D03*
Y548640D02*
D03*
X204470Y294640D02*
D03*
Y320040D02*
D03*
Y345440D02*
D03*
Y370840D02*
D03*
Y396240D02*
D03*
Y421640D02*
D03*
Y447040D02*
D03*
Y472440D02*
D03*
Y497840D02*
D03*
Y523240D02*
D03*
Y548640D02*
D03*
Y726440D02*
D03*
Y751840D02*
D03*
Y777240D02*
D03*
Y802640D02*
D03*
D45*
Y828040D02*
D03*
D46*
X298460Y466090D02*
D03*
X378460D02*
D03*
X403860D02*
D03*
X273060D02*
D03*
X298460Y280690D02*
D03*
X273060D02*
D03*
X403860D02*
D03*
X378460D02*
D03*
X298460Y714990D02*
D03*
X378460D02*
D03*
X403860D02*
D03*
X273060D02*
D03*
X298460Y529590D02*
D03*
X273060D02*
D03*
X403860D02*
D03*
X378460D02*
D03*
D47*
X633730Y120650D02*
D03*
X41910D02*
D03*
X633730Y868680D02*
D03*
X41910D02*
D03*
M02*
