ISO-10303-21;
HEADER;

/* File generated by Shapr3D Version 26.121.11316.0 */

FILE_DESCRIPTION(('HOOPS Exchange Step'),'2;1');

FILE_NAME('C:\\Users\\TranHuyBao\\AppData\\Local\\Packages\\Shapr3D.Shapr3D_dvv5p1vgwv6mp\\TempState\\export\\temp_export',
'2026-07-26T23:59:21+07:00',
('TR\X2\1EA6\X0\N HUY B\X2\1EA2\X0\O'),
('Shapr3D Limited'),
'HOOPS Exchange 2026.3',
'Shapr3D',
'Authorized');

FILE_SCHEMA( ('AP242_MANAGED_MODEL_BASED_3D_ENGINEERING_MIM_LF {1 0 10303 442 1 1 4}') );

ENDSEC;

DATA;
#3=(NAMED_UNIT(*)PLANE_ANGLE_UNIT()SI_UNIT($,.RADIAN.));
#4=PLANE_ANGLE_MEASURE_WITH_UNIT(PLANE_ANGLE_MEASURE(0.0174532925),#3);
#5=(CONVERSION_BASED_UNIT('DEGREE',#4)NAMED_UNIT(#6)PLANE_ANGLE_UNIT());
#6=DIMENSIONAL_EXPONENTS(0.,0.,0.,0.,0.,0.,0.);
#7=(NAMED_UNIT(*)SI_UNIT($,.STERADIAN.)SOLID_ANGLE_UNIT());
#8=(LENGTH_UNIT()NAMED_UNIT(*)SI_UNIT(.MILLI.,.METRE.));
#9=UNCERTAINTY_MEASURE_WITH_UNIT(LENGTH_MEASURE(1.000000E-03),#8,'DISTANCE_ACCURACY_VALUE','Maximum Tolerance applied to model');
#10=(GEOMETRIC_REPRESENTATION_CONTEXT(3)GLOBAL_UNCERTAINTY_ASSIGNED_CONTEXT((#9))GLOBAL_UNIT_ASSIGNED_CONTEXT((#8,#5,#7))REPRESENTATION_CONTEXT('','root'));
#12=CARTESIAN_POINT('',(0.,0.,0.));
#13=DIRECTION('',(0.,0.,1.));
#14=DIRECTION('',(1.,0.,0.));
#15=AXIS2_PLACEMENT_3D('',#12,#13,#14);
#26=(NAMED_UNIT(*)PLANE_ANGLE_UNIT()SI_UNIT($,.RADIAN.));
#27=PLANE_ANGLE_MEASURE_WITH_UNIT(PLANE_ANGLE_MEASURE(0.0174532925),#26);
#28=(CONVERSION_BASED_UNIT('DEGREE',#27)NAMED_UNIT(#29)PLANE_ANGLE_UNIT());
#29=DIMENSIONAL_EXPONENTS(0.,0.,0.,0.,0.,0.,0.);
#30=(NAMED_UNIT(*)SI_UNIT($,.STERADIAN.)SOLID_ANGLE_UNIT());
#31=(LENGTH_UNIT()NAMED_UNIT(*)SI_UNIT(.MILLI.,.METRE.));
#32=UNCERTAINTY_MEASURE_WITH_UNIT(LENGTH_MEASURE(1.000000E-03),#31,'DISTANCE_ACCURACY_VALUE','Maximum Tolerance applied to model');
#33=(GEOMETRIC_REPRESENTATION_CONTEXT(3)GLOBAL_UNCERTAINTY_ASSIGNED_CONTEXT((#32))GLOBAL_UNIT_ASSIGNED_CONTEXT((#31,#28,#30))REPRESENTATION_CONTEXT('','DEMO_T9_6.7.STEP'));
#45=CARTESIAN_POINT('',(0.,0.,0.));
#46=DIRECTION('',(0.,0.,1.));
#47=DIRECTION('',(1.,0.,-0.));
#48=AXIS2_PLACEMENT_3D('',#45,#46,#47);
#49=ITEM_DEFINED_TRANSFORMATION('','',#48,#15);
#50=(REPRESENTATION_RELATIONSHIP('','',#35,#16)REPRESENTATION_RELATIONSHIP_WITH_TRANSFORMATION(#49)SHAPE_REPRESENTATION_RELATIONSHIP());
#51=NEXT_ASSEMBLY_USAGE_OCCURRENCE('DEMO_T9_6.7.STEP_1','DEMO_T9_6.7.STEP','DEMO_T9_6.7.STEP',#25,#44,$);
#52=PRODUCT_DEFINITION_SHAPE('','',#51);
#53=CONTEXT_DEPENDENT_SHAPE_REPRESENTATION(#50,#52);
#54=(NAMED_UNIT(*)PLANE_ANGLE_UNIT()SI_UNIT($,.RADIAN.));
#55=PLANE_ANGLE_MEASURE_WITH_UNIT(PLANE_ANGLE_MEASURE(0.0174532925),#54);
#56=(CONVERSION_BASED_UNIT('DEGREE',#55)NAMED_UNIT(#57)PLANE_ANGLE_UNIT());
#57=DIMENSIONAL_EXPONENTS(0.,0.,0.,0.,0.,0.,0.);
#58=(NAMED_UNIT(*)SI_UNIT($,.STERADIAN.)SOLID_ANGLE_UNIT());
#59=(LENGTH_UNIT()NAMED_UNIT(*)SI_UNIT(.MILLI.,.METRE.));
#60=UNCERTAINTY_MEASURE_WITH_UNIT(LENGTH_MEASURE(1.000000E-05),#59,'DISTANCE_ACCURACY_VALUE','Maximum Tolerance applied to model');
#61=(GEOMETRIC_REPRESENTATION_CONTEXT(3)GLOBAL_UNCERTAINTY_ASSIGNED_CONTEXT((#60))GLOBAL_UNIT_ASSIGNED_CONTEXT((#59,#56,#58))REPRESENTATION_CONTEXT('','\X2\01101EBE\X0\ NH\S\TM \X2\0110\X0\INH H\S\LNH'));
#73=CARTESIAN_POINT('',(0.,0.,0.));
#74=DIRECTION('',(0.,0.,1.));
#75=DIRECTION('',(1.,0.,-0.));
#76=AXIS2_PLACEMENT_3D('',#73,#74,#75);
#77=ITEM_DEFINED_TRANSFORMATION('','',#76,#15);
#78=(REPRESENTATION_RELATIONSHIP('','',#63,#35)REPRESENTATION_RELATIONSHIP_WITH_TRANSFORMATION(#77)SHAPE_REPRESENTATION_RELATIONSHIP());
#79=NEXT_ASSEMBLY_USAGE_OCCURRENCE('\X2\01101EBE\X0\ NH\S\TM \X2\0110\X0\INH H\S\LNH_2','\X2\01101EBE\X0\ NH\S\TM \X2\0110\X0\INH H\S\LNH','\X2\01101EBE\X0\ NH\S\TM \X2\0110\X0\INH H\S\LNH',#44,#72,$);
#80=PRODUCT_DEFINITION_SHAPE('','',#79);
#81=CONTEXT_DEPENDENT_SHAPE_REPRESENTATION(#78,#80);
#83=CARTESIAN_POINT('',(831.92136093,-142.729122671,159.322174843));
#84=DIRECTION('',(0.,1.,0.));
#85=DIRECTION('',(0.,0.,1.));
#86=AXIS2_PLACEMENT_3D('',#83,#84,#85);
#87=PLANE('',#86);
#88=CARTESIAN_POINT('',(821.92136093,-142.729122671,121.822174843));
#89=VERTEX_POINT('',#88);
#90=CARTESIAN_POINT('',(824.42136093,-142.729122671,119.322174843));
#91=VERTEX_POINT('',#90);
#92=CARTESIAN_POINT('',(821.92136093,-142.729122671,119.322174843));
#93=DIRECTION('',(-0.,1.,0.));
#94=DIRECTION('',(1.,0.,0.));
#95=AXIS2_PLACEMENT_3D('',#92,#93,#94);
#96=CIRCLE('',#95,2.5);
#97=EDGE_CURVE('',#89,#91,#96,.T.);
#98=ORIENTED_EDGE('',*,*,#97,.F.);
#99=CARTESIAN_POINT('',(821.92136093,-142.729122671,119.322174843));
#100=DIRECTION('',(-0.,1.,0.));
#101=DIRECTION('',(1.,0.,0.));
#102=AXIS2_PLACEMENT_3D('',#99,#100,#101);
#103=CIRCLE('',#102,2.5);
#104=EDGE_CURVE('',#91,#89,#103,.T.);
#105=ORIENTED_EDGE('',*,*,#104,.F.);
#106=EDGE_LOOP('',(#98,#105));
#107=FACE_BOUND('',#106,.T.);
#108=CARTESIAN_POINT('',(796.82136093,-142.729122671,145.822174843));
#109=VERTEX_POINT('',#108);
#110=CARTESIAN_POINT('',(799.32136093,-142.729122671,143.322174843));
#111=VERTEX_POINT('',#110);
#112=CARTESIAN_POINT('',(796.82136093,-142.729122671,143.322174843));
#113=DIRECTION('',(-0.,1.,0.));
#114=DIRECTION('',(1.,0.,0.));
#115=AXIS2_PLACEMENT_3D('',#112,#113,#114);
#116=CIRCLE('',#115,2.5);
#117=EDGE_CURVE('',#109,#111,#116,.T.);
#118=ORIENTED_EDGE('',*,*,#117,.F.);
#119=CARTESIAN_POINT('',(796.82136093,-142.729122671,143.322174843));
#120=DIRECTION('',(-0.,1.,0.));
#121=DIRECTION('',(1.,0.,0.));
#122=AXIS2_PLACEMENT_3D('',#119,#120,#121);
#123=CIRCLE('',#122,2.5);
#124=EDGE_CURVE('',#111,#109,#123,.T.);
#125=ORIENTED_EDGE('',*,*,#124,.F.);
#126=EDGE_LOOP('',(#118,#125));
#127=FACE_BOUND('',#126,.T.);
#128=CARTESIAN_POINT('',(772.92136093,-142.729122671,121.722174843));
#129=VERTEX_POINT('',#128);
#130=CARTESIAN_POINT('',(775.42136093,-142.729122671,119.222174843));
#131=VERTEX_POINT('',#130);
#132=CARTESIAN_POINT('',(772.92136093,-142.729122671,119.222174843));
#133=DIRECTION('',(-0.,1.,0.));
#134=DIRECTION('',(1.,0.,0.));
#135=AXIS2_PLACEMENT_3D('',#132,#133,#134);
#136=CIRCLE('',#135,2.5);
#137=EDGE_CURVE('',#129,#131,#136,.T.);
#138=ORIENTED_EDGE('',*,*,#137,.F.);
#139=CARTESIAN_POINT('',(772.92136093,-142.729122671,119.222174843));
#140=DIRECTION('',(-0.,1.,0.));
#141=DIRECTION('',(1.,0.,0.));
#142=AXIS2_PLACEMENT_3D('',#139,#140,#141);
#143=CIRCLE('',#142,2.5);
#144=EDGE_CURVE('',#131,#129,#143,.T.);
#145=ORIENTED_EDGE('',*,*,#144,.F.);
#146=EDGE_LOOP('',(#138,#145));
#147=FACE_BOUND('',#146,.T.);
#148=CARTESIAN_POINT('',(797.02136093,-142.729122671,97.822174843));
#149=VERTEX_POINT('',#148);
#150=CARTESIAN_POINT('',(799.52136093,-142.729122671,95.322174843));
#151=VERTEX_POINT('',#150);
#152=CARTESIAN_POINT('',(797.02136093,-142.729122671,95.322174843));
#153=DIRECTION('',(-0.,1.,0.));
#154=DIRECTION('',(1.,0.,0.));
#155=AXIS2_PLACEMENT_3D('',#152,#153,#154);
#156=CIRCLE('',#155,2.5);
#157=EDGE_CURVE('',#149,#151,#156,.T.);
#158=ORIENTED_EDGE('',*,*,#157,.F.);
#159=CARTESIAN_POINT('',(797.02136093,-142.729122671,95.322174843));
#160=DIRECTION('',(-0.,1.,0.));
#161=DIRECTION('',(1.,0.,0.));
#162=AXIS2_PLACEMENT_3D('',#159,#160,#161);
#163=CIRCLE('',#162,2.5);
#164=EDGE_CURVE('',#151,#149,#163,.T.);
#165=ORIENTED_EDGE('',*,*,#164,.F.);
#166=EDGE_LOOP('',(#158,#165));
#167=FACE_BOUND('',#166,.T.);
#168=CARTESIAN_POINT('',(771.92136093,-142.729122671,146.822174843));
#169=VERTEX_POINT('',#168);
#170=CARTESIAN_POINT('',(771.92136093,-142.729122671,149.322174843));
#171=DIRECTION('',(-0.,-1.,-0.));
#172=DIRECTION('',(0.,0.,-1.));
#173=AXIS2_PLACEMENT_3D('',#170,#171,#172);
#174=CIRCLE('',#173,2.5);
#175=EDGE_CURVE('NONE',#169,#169,#174,.T.);
#176=ORIENTED_EDGE('',*,*,#175,.T.);
#177=EDGE_LOOP('',(#176));
#178=FACE_BOUND('',#177,.T.);
#179=CARTESIAN_POINT('',(821.92136093,-142.729122671,86.822174843));
#180=VERTEX_POINT('',#179);
#181=CARTESIAN_POINT('',(821.92136093,-142.729122671,89.322174843));
#182=DIRECTION('',(-0.,-1.,-0.));
#183=DIRECTION('',(0.,0.,-1.));
#184=AXIS2_PLACEMENT_3D('',#181,#182,#183);
#185=CIRCLE('',#184,2.5);
#186=EDGE_CURVE('NONE',#180,#180,#185,.T.);
#187=ORIENTED_EDGE('',*,*,#186,.T.);
#188=EDGE_LOOP('',(#187));
#189=FACE_BOUND('',#188,.T.);
#190=CARTESIAN_POINT('',(764.92136093,-142.729122671,79.322174843));
#191=VERTEX_POINT('',#190);
#192=CARTESIAN_POINT('',(828.92136093,-142.729122671,79.322174843));
#193=VERTEX_POINT('',#192);
#194=CARTESIAN_POINT('',(764.92136093,-142.729122671,79.322174843));
#195=DIRECTION('',(1.,-0.,-0.));
#196=VECTOR('',#195,64.);
#197=LINE('',#194,#196);
#198=EDGE_CURVE('NONE',#191,#193,#197,.T.);
#199=ORIENTED_EDGE('',*,*,#198,.F.);
#200=CARTESIAN_POINT('',(761.92136093,-142.729122671,82.322174843));
#201=VERTEX_POINT('',#200);
#202=CARTESIAN_POINT('',(761.92136093,-142.729122671,82.322174843));
#203=DIRECTION('',(0.707106781,0.,-0.707106781));
#204=VECTOR('',#203,4.242640687);
#205=LINE('',#202,#204);
#206=EDGE_CURVE('NONE',#201,#191,#205,.T.);
#207=ORIENTED_EDGE('',*,*,#206,.F.);
#208=CARTESIAN_POINT('',(761.92136093,-142.729122671,156.322174843));
#209=VERTEX_POINT('',#208);
#210=CARTESIAN_POINT('',(761.92136093,-142.729122671,156.322174843));
#211=DIRECTION('',(-0.,-0.,-1.));
#212=VECTOR('',#211,74.);
#213=LINE('',#210,#212);
#214=EDGE_CURVE('NONE',#209,#201,#213,.T.);
#215=ORIENTED_EDGE('',*,*,#214,.F.);
#216=CARTESIAN_POINT('',(764.92136093,-142.729122671,159.322174843));
#217=VERTEX_POINT('',#216);
#218=CARTESIAN_POINT('',(764.92136093,-142.729122671,159.322174843));
#219=DIRECTION('',(-0.707106781,0.,-0.707106781));
#220=VECTOR('',#219,4.242640687);
#221=LINE('',#218,#220);
#222=EDGE_CURVE('NONE',#217,#209,#221,.T.);
#223=ORIENTED_EDGE('',*,*,#222,.F.);
#224=CARTESIAN_POINT('',(828.92136093,-142.729122671,159.322174843));
#225=VERTEX_POINT('',#224);
#226=CARTESIAN_POINT('',(828.92136093,-142.729122671,159.322174843));
#227=DIRECTION('',(-1.,0.,0.));
#228=VECTOR('',#227,64.);
#229=LINE('',#226,#228);
#230=EDGE_CURVE('NONE',#225,#217,#229,.T.);
#231=ORIENTED_EDGE('',*,*,#230,.F.);
#232=CARTESIAN_POINT('',(831.92136093,-142.729122671,156.322174843));
#233=VERTEX_POINT('',#232);
#234=CARTESIAN_POINT('',(831.92136093,-142.729122671,156.322174843));
#235=DIRECTION('',(-0.707106781,0.,0.707106781));
#236=VECTOR('',#235,4.242640687);
#237=LINE('',#234,#236);
#238=EDGE_CURVE('NONE',#233,#225,#237,.T.);
#239=ORIENTED_EDGE('',*,*,#238,.F.);
#240=CARTESIAN_POINT('',(831.92136093,-142.729122671,82.322174843));
#241=VERTEX_POINT('',#240);
#242=CARTESIAN_POINT('',(831.92136093,-142.729122671,82.322174843));
#243=DIRECTION('',(0.,0.,1.));
#244=VECTOR('',#243,74.);
#245=LINE('',#242,#244);
#246=EDGE_CURVE('NONE',#241,#233,#245,.T.);
#247=ORIENTED_EDGE('',*,*,#246,.F.);
#248=CARTESIAN_POINT('',(828.92136093,-142.729122671,79.322174843));
#249=DIRECTION('',(0.707106781,0.,0.707106781));
#250=VECTOR('',#249,4.242640687);
#251=LINE('',#248,#250);
#252=EDGE_CURVE('NONE',#193,#241,#251,.T.);
#253=ORIENTED_EDGE('',*,*,#252,.F.);
#254=EDGE_LOOP('',(#199,#207,#215,#223,#231,#239,#247,#253));
#255=FACE_BOUND('',#254,.T.);
#256=CARTESIAN_POINT('',(771.92136093,-142.729122671,86.822174843));
#257=VERTEX_POINT('',#256);
#258=CARTESIAN_POINT('',(771.92136093,-142.729122671,89.322174843));
#259=DIRECTION('',(-0.,-1.,-0.));
#260=DIRECTION('',(0.,0.,-1.));
#261=AXIS2_PLACEMENT_3D('',#258,#259,#260);
#262=CIRCLE('',#261,2.5);
#263=EDGE_CURVE('NONE',#257,#257,#262,.T.);
#264=ORIENTED_EDGE('',*,*,#263,.T.);
#265=EDGE_LOOP('',(#264));
#266=FACE_BOUND('',#265,.T.);
#267=CARTESIAN_POINT('',(821.92136093,-142.729122671,146.822174843));
#268=VERTEX_POINT('',#267);
#269=CARTESIAN_POINT('',(821.92136093,-142.729122671,149.322174843));
#270=DIRECTION('',(-0.,-1.,-0.));
#271=DIRECTION('',(0.,0.,-1.));
#272=AXIS2_PLACEMENT_3D('',#269,#270,#271);
#273=CIRCLE('',#272,2.5);
#274=EDGE_CURVE('NONE',#268,#268,#273,.T.);
#275=ORIENTED_EDGE('',*,*,#274,.T.);
#276=EDGE_LOOP('',(#275));
#277=FACE_BOUND('',#276,.T.);
#278=CARTESIAN_POINT('',(796.92136093,-142.729122671,116.822174843));
#279=VERTEX_POINT('',#278);
#280=CARTESIAN_POINT('',(796.92136093,-142.729122671,119.322174843));
#281=DIRECTION('',(-0.,-1.,-0.));
#282=DIRECTION('',(0.,0.,-1.));
#283=AXIS2_PLACEMENT_3D('',#280,#281,#282);
#284=CIRCLE('',#283,2.5);
#285=EDGE_CURVE('NONE',#279,#279,#284,.T.);
#286=ORIENTED_EDGE('',*,*,#285,.T.);
#287=EDGE_LOOP('',(#286));
#288=FACE_BOUND('',#287,.T.);
#289=ADVANCED_FACE('NONE',(#107,#127,#147,#167,#178,#189,#255,#266,#277,#288),#87,.T.);
#290=CARTESIAN_POINT('',(831.92136093,-147.729122671,159.322174843));
#291=DIRECTION('',(0.,1.,0.));
#292=DIRECTION('',(0.,0.,1.));
#293=AXIS2_PLACEMENT_3D('',#290,#291,#292);
#294=PLANE('',#293);
#295=CARTESIAN_POINT('',(821.92136093,-147.729122671,121.822174843));
#296=VERTEX_POINT('',#295);
#297=CARTESIAN_POINT('',(821.92136093,-147.729122671,119.322174843));
#298=DIRECTION('',(0.,1.,0.));
#299=DIRECTION('',(0.,-0.,1.));
#300=AXIS2_PLACEMENT_3D('',#297,#298,#299);
#301=CIRCLE('',#300,2.5);
#302=EDGE_CURVE('',#296,#296,#301,.T.);
#303=ORIENTED_EDGE('',*,*,#302,.T.);
#304=EDGE_LOOP('',(#303));
#305=FACE_BOUND('',#304,.T.);
#306=CARTESIAN_POINT('',(796.82136093,-147.729122671,145.822174843));
#307=VERTEX_POINT('',#306);
#308=CARTESIAN_POINT('',(796.82136093,-147.729122671,143.322174843));
#309=DIRECTION('',(0.,1.,0.));
#310=DIRECTION('',(0.,-0.,1.));
#311=AXIS2_PLACEMENT_3D('',#308,#309,#310);
#312=CIRCLE('',#311,2.5);
#313=EDGE_CURVE('',#307,#307,#312,.T.);
#314=ORIENTED_EDGE('',*,*,#313,.T.);
#315=EDGE_LOOP('',(#314));
#316=FACE_BOUND('',#315,.T.);
#317=CARTESIAN_POINT('',(772.92136093,-147.729122671,121.722174843));
#318=VERTEX_POINT('',#317);
#319=CARTESIAN_POINT('',(772.92136093,-147.729122671,119.222174843));
#320=DIRECTION('',(0.,1.,0.));
#321=DIRECTION('',(0.,-0.,1.));
#322=AXIS2_PLACEMENT_3D('',#319,#320,#321);
#323=CIRCLE('',#322,2.5);
#324=EDGE_CURVE('',#318,#318,#323,.T.);
#325=ORIENTED_EDGE('',*,*,#324,.T.);
#326=EDGE_LOOP('',(#325));
#327=FACE_BOUND('',#326,.T.);
#328=CARTESIAN_POINT('',(797.02136093,-147.729122671,97.822174843));
#329=VERTEX_POINT('',#328);
#330=CARTESIAN_POINT('',(797.02136093,-147.729122671,95.322174843));
#331=DIRECTION('',(0.,1.,0.));
#332=DIRECTION('',(0.,-0.,1.));
#333=AXIS2_PLACEMENT_3D('',#330,#331,#332);
#334=CIRCLE('',#333,2.5);
#335=EDGE_CURVE('',#329,#329,#334,.T.);
#336=ORIENTED_EDGE('',*,*,#335,.T.);
#337=EDGE_LOOP('',(#336));
#338=FACE_BOUND('',#337,.T.);
#339=CARTESIAN_POINT('',(764.92136093,-147.729122671,79.322174843));
#340=VERTEX_POINT('',#339);
#341=CARTESIAN_POINT('',(828.92136093,-147.729122671,79.322174843));
#342=VERTEX_POINT('',#341);
#343=CARTESIAN_POINT('',(764.92136093,-147.729122671,79.322174843));
#344=DIRECTION('',(1.,-0.,-0.));
#345=VECTOR('',#344,64.);
#346=LINE('',#343,#345);
#347=EDGE_CURVE('NONE',#340,#342,#346,.T.);
#348=ORIENTED_EDGE('',*,*,#347,.T.);
#349=CARTESIAN_POINT('',(831.92136093,-147.729122671,82.322174843));
#350=VERTEX_POINT('',#349);
#351=CARTESIAN_POINT('',(828.92136093,-147.729122671,79.322174843));
#352=DIRECTION('',(0.707106781,-0.,0.707106781));
#353=VECTOR('',#352,4.242640687);
#354=LINE('',#351,#353);
#355=EDGE_CURVE('NONE',#342,#350,#354,.T.);
#356=ORIENTED_EDGE('',*,*,#355,.T.);
#357=CARTESIAN_POINT('',(831.92136093,-147.729122671,156.322174843));
#358=VERTEX_POINT('',#357);
#359=CARTESIAN_POINT('',(831.92136093,-147.729122671,82.322174843));
#360=DIRECTION('',(-0.,-0.,1.));
#361=VECTOR('',#360,74.);
#362=LINE('',#359,#361);
#363=EDGE_CURVE('NONE',#350,#358,#362,.T.);
#364=ORIENTED_EDGE('',*,*,#363,.T.);
#365=CARTESIAN_POINT('',(828.92136093,-147.729122671,159.322174843));
#366=VERTEX_POINT('',#365);
#367=CARTESIAN_POINT('',(831.92136093,-147.729122671,156.322174843));
#368=DIRECTION('',(-0.707106781,-0.,0.707106781));
#369=VECTOR('',#368,4.242640687);
#370=LINE('',#367,#369);
#371=EDGE_CURVE('NONE',#358,#366,#370,.T.);
#372=ORIENTED_EDGE('',*,*,#371,.T.);
#373=CARTESIAN_POINT('',(764.92136093,-147.729122671,159.322174843));
#374=VERTEX_POINT('',#373);
#375=CARTESIAN_POINT('',(828.92136093,-147.729122671,159.322174843));
#376=DIRECTION('',(-1.,-0.,0.));
#377=VECTOR('',#376,64.);
#378=LINE('',#375,#377);
#379=EDGE_CURVE('NONE',#366,#374,#378,.T.);
#380=ORIENTED_EDGE('',*,*,#379,.T.);
#381=CARTESIAN_POINT('',(761.92136093,-147.729122671,156.322174843));
#382=VERTEX_POINT('',#381);
#383=CARTESIAN_POINT('',(764.92136093,-147.729122671,159.322174843));
#384=DIRECTION('',(-0.707106781,-0.,-0.707106781));
#385=VECTOR('',#384,4.242640687);
#386=LINE('',#383,#385);
#387=EDGE_CURVE('NONE',#374,#382,#386,.T.);
#388=ORIENTED_EDGE('',*,*,#387,.T.);
#389=CARTESIAN_POINT('',(761.92136093,-147.729122671,82.322174843));
#390=VERTEX_POINT('',#389);
#391=CARTESIAN_POINT('',(761.92136093,-147.729122671,156.322174843));
#392=DIRECTION('',(-0.,-0.,-1.));
#393=VECTOR('',#392,74.);
#394=LINE('',#391,#393);
#395=EDGE_CURVE('NONE',#382,#390,#394,.T.);
#396=ORIENTED_EDGE('',*,*,#395,.T.);
#397=CARTESIAN_POINT('',(761.92136093,-147.729122671,82.322174843));
#398=DIRECTION('',(0.707106781,-0.,-0.707106781));
#399=VECTOR('',#398,4.242640687);
#400=LINE('',#397,#399);
#401=EDGE_CURVE('NONE',#390,#340,#400,.T.);
#402=ORIENTED_EDGE('',*,*,#401,.T.);
#403=EDGE_LOOP('',(#348,#356,#364,#372,#380,#388,#396,#402));
#404=FACE_BOUND('',#403,.T.);
#405=CARTESIAN_POINT('',(771.92136093,-147.729122671,86.822174843));
#406=VERTEX_POINT('',#405);
#407=CARTESIAN_POINT('',(771.92136093,-147.729122671,89.322174843));
#408=DIRECTION('',(-0.,-1.,-0.));
#409=DIRECTION('',(0.,0.,-1.));
#410=AXIS2_PLACEMENT_3D('',#407,#408,#409);
#411=CIRCLE('',#410,2.5);
#412=EDGE_CURVE('NONE',#406,#406,#411,.T.);
#413=ORIENTED_EDGE('',*,*,#412,.F.);
#414=EDGE_LOOP('',(#413));
#415=FACE_BOUND('',#414,.T.);
#416=CARTESIAN_POINT('',(821.92136093,-147.729122671,86.822174843));
#417=VERTEX_POINT('',#416);
#418=CARTESIAN_POINT('',(821.92136093,-147.729122671,89.322174843));
#419=DIRECTION('',(-0.,-1.,-0.));
#420=DIRECTION('',(0.,0.,-1.));
#421=AXIS2_PLACEMENT_3D('',#418,#419,#420);
#422=CIRCLE('',#421,2.5);
#423=EDGE_CURVE('NONE',#417,#417,#422,.T.);
#424=ORIENTED_EDGE('',*,*,#423,.F.);
#425=EDGE_LOOP('',(#424));
#426=FACE_BOUND('',#425,.T.);
#427=CARTESIAN_POINT('',(821.92136093,-147.729122671,146.822174843));
#428=VERTEX_POINT('',#427);
#429=CARTESIAN_POINT('',(821.92136093,-147.729122671,149.322174843));
#430=DIRECTION('',(-0.,-1.,-0.));
#431=DIRECTION('',(0.,0.,-1.));
#432=AXIS2_PLACEMENT_3D('',#429,#430,#431);
#433=CIRCLE('',#432,2.5);
#434=EDGE_CURVE('NONE',#428,#428,#433,.T.);
#435=ORIENTED_EDGE('',*,*,#434,.F.);
#436=EDGE_LOOP('',(#435));
#437=FACE_BOUND('',#436,.T.);
#438=CARTESIAN_POINT('',(771.92136093,-147.729122671,146.822174843));
#439=VERTEX_POINT('',#438);
#440=CARTESIAN_POINT('',(771.92136093,-147.729122671,149.322174843));
#441=DIRECTION('',(-0.,-1.,-0.));
#442=DIRECTION('',(0.,0.,-1.));
#443=AXIS2_PLACEMENT_3D('',#440,#441,#442);
#444=CIRCLE('',#443,2.5);
#445=EDGE_CURVE('NONE',#439,#439,#444,.T.);
#446=ORIENTED_EDGE('',*,*,#445,.F.);
#447=EDGE_LOOP('',(#446));
#448=FACE_BOUND('',#447,.T.);
#449=CARTESIAN_POINT('',(796.92136093,-147.729122671,116.822174843));
#450=VERTEX_POINT('',#449);
#451=CARTESIAN_POINT('',(796.92136093,-147.729122671,119.322174843));
#452=DIRECTION('',(-0.,-1.,-0.));
#453=DIRECTION('',(0.,0.,-1.));
#454=AXIS2_PLACEMENT_3D('',#451,#452,#453);
#455=CIRCLE('',#454,2.5);
#456=EDGE_CURVE('NONE',#450,#450,#455,.T.);
#457=ORIENTED_EDGE('',*,*,#456,.F.);
#458=EDGE_LOOP('',(#457));
#459=FACE_BOUND('',#458,.T.);
#460=ADVANCED_FACE('NONE',(#305,#316,#327,#338,#404,#415,#426,#437,#448,#459),#294,.F.);
#461=CARTESIAN_POINT('',(828.92136093,-142.729122671,79.322174843));
#462=DIRECTION('',(0.,0.,1.));
#463=DIRECTION('',(-1.,0.,0.));
#464=AXIS2_PLACEMENT_3D('',#461,#462,#463);
#465=PLANE('',#464);
#466=ORIENTED_EDGE('',*,*,#347,.F.);
#467=CARTESIAN_POINT('',(764.92136093,-142.729122671,79.322174843));
#468=DIRECTION('',(-0.,-1.,-0.));
#469=VECTOR('',#468,5.);
#470=LINE('',#467,#469);
#471=EDGE_CURVE('NONE',#191,#340,#470,.T.);
#472=ORIENTED_EDGE('',*,*,#471,.F.);
#473=ORIENTED_EDGE('',*,*,#198,.T.);
#474=CARTESIAN_POINT('',(828.92136093,-142.729122671,79.322174843));
#475=DIRECTION('',(-0.,-1.,-0.));
#476=VECTOR('',#475,5.);
#477=LINE('',#474,#476);
#478=EDGE_CURVE('NONE',#193,#342,#477,.T.);
#479=ORIENTED_EDGE('',*,*,#478,.T.);
#480=EDGE_LOOP('',(#466,#472,#473,#479));
#481=FACE_BOUND('',#480,.T.);
#482=ADVANCED_FACE('NONE',(#481),#465,.F.);
#483=CARTESIAN_POINT('',(831.92136093,-142.729122671,82.322174843));
#484=DIRECTION('',(-0.707106781,0.,0.707106781));
#485=DIRECTION('',(-0.707106781,0.,-0.707106781));
#486=AXIS2_PLACEMENT_3D('',#483,#484,#485);
#487=PLANE('',#486);
#488=ORIENTED_EDGE('',*,*,#355,.F.);
#489=ORIENTED_EDGE('',*,*,#478,.F.);
#490=ORIENTED_EDGE('',*,*,#252,.T.);
#491=CARTESIAN_POINT('',(831.92136093,-142.729122671,82.322174843));
#492=DIRECTION('',(-0.,-1.,-0.));
#493=VECTOR('',#492,5.);
#494=LINE('',#491,#493);
#495=EDGE_CURVE('NONE',#241,#350,#494,.T.);
#496=ORIENTED_EDGE('',*,*,#495,.T.);
#497=EDGE_LOOP('',(#488,#489,#490,#496));
#498=FACE_BOUND('',#497,.T.);
#499=ADVANCED_FACE('NONE',(#498),#487,.F.);
#500=CARTESIAN_POINT('',(831.92136093,-142.729122671,156.322174843));
#501=DIRECTION('',(-1.,0.,0.));
#502=DIRECTION('',(0.,0.,-1.));
#503=AXIS2_PLACEMENT_3D('',#500,#501,#502);
#504=PLANE('',#503);
#505=ORIENTED_EDGE('',*,*,#363,.F.);
#506=ORIENTED_EDGE('',*,*,#495,.F.);
#507=ORIENTED_EDGE('',*,*,#246,.T.);
#508=CARTESIAN_POINT('',(831.92136093,-142.729122671,156.322174843));
#509=DIRECTION('',(-0.,-1.,-0.));
#510=VECTOR('',#509,5.);
#511=LINE('',#508,#510);
#512=EDGE_CURVE('NONE',#233,#358,#511,.T.);
#513=ORIENTED_EDGE('',*,*,#512,.T.);
#514=EDGE_LOOP('',(#505,#506,#507,#513));
#515=FACE_BOUND('',#514,.T.);
#516=ADVANCED_FACE('NONE',(#515),#504,.F.);
#517=CARTESIAN_POINT('',(828.92136093,-142.729122671,159.322174843));
#518=DIRECTION('',(-0.707106781,0.,-0.707106781));
#519=DIRECTION('',(0.707106781,0.,-0.707106781));
#520=AXIS2_PLACEMENT_3D('',#517,#518,#519);
#521=PLANE('',#520);
#522=ORIENTED_EDGE('',*,*,#371,.F.);
#523=ORIENTED_EDGE('',*,*,#512,.F.);
#524=ORIENTED_EDGE('',*,*,#238,.T.);
#525=CARTESIAN_POINT('',(828.92136093,-142.729122671,159.322174843));
#526=DIRECTION('',(-0.,-1.,-0.));
#527=VECTOR('',#526,5.);
#528=LINE('',#525,#527);
#529=EDGE_CURVE('NONE',#225,#366,#528,.T.);
#530=ORIENTED_EDGE('',*,*,#529,.T.);
#531=EDGE_LOOP('',(#522,#523,#524,#530));
#532=FACE_BOUND('',#531,.T.);
#533=ADVANCED_FACE('NONE',(#532),#521,.F.);
#534=CARTESIAN_POINT('',(828.92136093,-142.729122671,159.322174843));
#535=DIRECTION('',(0.,0.,-1.));
#536=DIRECTION('',(1.,0.,0.));
#537=AXIS2_PLACEMENT_3D('',#534,#535,#536);
#538=PLANE('',#537);
#539=ORIENTED_EDGE('',*,*,#379,.F.);
#540=ORIENTED_EDGE('',*,*,#529,.F.);
#541=ORIENTED_EDGE('',*,*,#230,.T.);
#542=CARTESIAN_POINT('',(764.92136093,-142.729122671,159.322174843));
#543=DIRECTION('',(-0.,-1.,-0.));
#544=VECTOR('',#543,5.);
#545=LINE('',#542,#544);
#546=EDGE_CURVE('NONE',#217,#374,#545,.T.);
#547=ORIENTED_EDGE('',*,*,#546,.T.);
#548=EDGE_LOOP('',(#539,#540,#541,#547));
#549=FACE_BOUND('',#548,.T.);
#550=ADVANCED_FACE('NONE',(#549),#538,.F.);
#551=CARTESIAN_POINT('',(764.92136093,-142.729122671,159.322174843));
#552=DIRECTION('',(0.707106781,0.,-0.707106781));
#553=DIRECTION('',(0.707106781,0.,0.707106781));
#554=AXIS2_PLACEMENT_3D('',#551,#552,#553);
#555=PLANE('',#554);
#556=ORIENTED_EDGE('',*,*,#387,.F.);
#557=ORIENTED_EDGE('',*,*,#546,.F.);
#558=ORIENTED_EDGE('',*,*,#222,.T.);
#559=CARTESIAN_POINT('',(761.92136093,-142.729122671,156.322174843));
#560=DIRECTION('',(-0.,-1.,-0.));
#561=VECTOR('',#560,5.);
#562=LINE('',#559,#561);
#563=EDGE_CURVE('NONE',#209,#382,#562,.T.);
#564=ORIENTED_EDGE('',*,*,#563,.T.);
#565=EDGE_LOOP('',(#556,#557,#558,#564));
#566=FACE_BOUND('',#565,.T.);
#567=ADVANCED_FACE('NONE',(#566),#555,.F.);
#568=CARTESIAN_POINT('',(761.92136093,-142.729122671,156.322174843));
#569=DIRECTION('',(1.,0.,0.));
#570=DIRECTION('',(0.,0.,1.));
#571=AXIS2_PLACEMENT_3D('',#568,#569,#570);
#572=PLANE('',#571);
#573=ORIENTED_EDGE('',*,*,#395,.F.);
#574=ORIENTED_EDGE('',*,*,#563,.F.);
#575=ORIENTED_EDGE('',*,*,#214,.T.);
#576=CARTESIAN_POINT('',(761.92136093,-142.729122671,82.322174843));
#577=DIRECTION('',(-0.,-1.,-0.));
#578=VECTOR('',#577,5.);
#579=LINE('',#576,#578);
#580=EDGE_CURVE('NONE',#201,#390,#579,.T.);
#581=ORIENTED_EDGE('',*,*,#580,.T.);
#582=EDGE_LOOP('',(#573,#574,#575,#581));
#583=FACE_BOUND('',#582,.T.);
#584=ADVANCED_FACE('NONE',(#583),#572,.F.);
#585=CARTESIAN_POINT('',(764.92136093,-142.729122671,79.322174843));
#586=DIRECTION('',(0.707106781,0.,0.707106781));
#587=DIRECTION('',(-0.707106781,0.,0.707106781));
#588=AXIS2_PLACEMENT_3D('',#585,#586,#587);
#589=PLANE('',#588);
#590=ORIENTED_EDGE('',*,*,#401,.F.);
#591=ORIENTED_EDGE('',*,*,#580,.F.);
#592=ORIENTED_EDGE('',*,*,#206,.T.);
#593=ORIENTED_EDGE('',*,*,#471,.T.);
#594=EDGE_LOOP('',(#590,#591,#592,#593));
#595=FACE_BOUND('',#594,.T.);
#596=ADVANCED_FACE('NONE',(#595),#589,.F.);
#597=CARTESIAN_POINT('',(771.92136093,-142.729122671,89.322174843));
#598=DIRECTION('',(0.,-1.,0.));
#599=DIRECTION('',(0.,0.,-1.));
#600=AXIS2_PLACEMENT_3D('',#597,#598,#599);
#601=CYLINDRICAL_SURFACE('',#600,2.5);
#602=CARTESIAN_POINT('',(771.92136093,-147.729122671,86.822174843));
#603=DIRECTION('',(-0.,1.,-0.));
#604=VECTOR('',#603,5.);
#605=LINE('',#602,#604);
#606=EDGE_CURVE('',#406,#257,#605,.T.);
#607=ORIENTED_EDGE('',*,*,#606,.F.);
#608=ORIENTED_EDGE('',*,*,#412,.T.);
#609=ORIENTED_EDGE('',*,*,#606,.T.);
#610=ORIENTED_EDGE('',*,*,#263,.F.);
#611=EDGE_LOOP('',(#607,#608,#609,#610));
#612=FACE_BOUND('',#611,.T.);
#613=ADVANCED_FACE('NONE',(#612),#601,.F.);
#614=CARTESIAN_POINT('',(821.92136093,-142.729122671,89.322174843));
#615=DIRECTION('',(0.,-1.,0.));
#616=DIRECTION('',(0.,0.,-1.));
#617=AXIS2_PLACEMENT_3D('',#614,#615,#616);
#618=CYLINDRICAL_SURFACE('',#617,2.5);
#619=CARTESIAN_POINT('',(821.92136093,-147.729122671,86.822174843));
#620=DIRECTION('',(-0.,1.,-0.));
#621=VECTOR('',#620,5.);
#622=LINE('',#619,#621);
#623=EDGE_CURVE('',#417,#180,#622,.T.);
#624=ORIENTED_EDGE('',*,*,#623,.F.);
#625=ORIENTED_EDGE('',*,*,#423,.T.);
#626=ORIENTED_EDGE('',*,*,#623,.T.);
#627=ORIENTED_EDGE('',*,*,#186,.F.);
#628=EDGE_LOOP('',(#624,#625,#626,#627));
#629=FACE_BOUND('',#628,.T.);
#630=ADVANCED_FACE('NONE',(#629),#618,.F.);
#631=CARTESIAN_POINT('',(821.92136093,-142.729122671,149.322174843));
#632=DIRECTION('',(0.,-1.,0.));
#633=DIRECTION('',(0.,0.,-1.));
#634=AXIS2_PLACEMENT_3D('',#631,#632,#633);
#635=CYLINDRICAL_SURFACE('',#634,2.5);
#636=CARTESIAN_POINT('',(821.92136093,-147.729122671,146.822174843));
#637=DIRECTION('',(-0.,1.,-0.));
#638=VECTOR('',#637,5.);
#639=LINE('',#636,#638);
#640=EDGE_CURVE('',#428,#268,#639,.T.);
#641=ORIENTED_EDGE('',*,*,#640,.F.);
#642=ORIENTED_EDGE('',*,*,#434,.T.);
#643=ORIENTED_EDGE('',*,*,#640,.T.);
#644=ORIENTED_EDGE('',*,*,#274,.F.);
#645=EDGE_LOOP('',(#641,#642,#643,#644));
#646=FACE_BOUND('',#645,.T.);
#647=ADVANCED_FACE('NONE',(#646),#635,.F.);
#648=CARTESIAN_POINT('',(771.92136093,-142.729122671,149.322174843));
#649=DIRECTION('',(0.,-1.,0.));
#650=DIRECTION('',(0.,0.,-1.));
#651=AXIS2_PLACEMENT_3D('',#648,#649,#650);
#652=CYLINDRICAL_SURFACE('',#651,2.5);
#653=CARTESIAN_POINT('',(771.92136093,-147.729122671,146.822174843));
#654=DIRECTION('',(-0.,1.,-0.));
#655=VECTOR('',#654,5.);
#656=LINE('',#653,#655);
#657=EDGE_CURVE('',#439,#169,#656,.T.);
#658=ORIENTED_EDGE('',*,*,#657,.F.);
#659=ORIENTED_EDGE('',*,*,#445,.T.);
#660=ORIENTED_EDGE('',*,*,#657,.T.);
#661=ORIENTED_EDGE('',*,*,#175,.F.);
#662=EDGE_LOOP('',(#658,#659,#660,#661));
#663=FACE_BOUND('',#662,.T.);
#664=ADVANCED_FACE('NONE',(#663),#652,.F.);
#665=CARTESIAN_POINT('',(796.92136093,-142.729122671,119.322174843));
#666=DIRECTION('',(0.,-1.,0.));
#667=DIRECTION('',(0.,0.,-1.));
#668=AXIS2_PLACEMENT_3D('',#665,#666,#667);
#669=CYLINDRICAL_SURFACE('',#668,2.5);
#670=CARTESIAN_POINT('',(796.92136093,-147.729122671,116.822174843));
#671=DIRECTION('',(-0.,1.,-0.));
#672=VECTOR('',#671,5.);
#673=LINE('',#670,#672);
#674=EDGE_CURVE('',#450,#279,#673,.T.);
#675=ORIENTED_EDGE('',*,*,#674,.F.);
#676=ORIENTED_EDGE('',*,*,#456,.T.);
#677=ORIENTED_EDGE('',*,*,#674,.T.);
#678=ORIENTED_EDGE('',*,*,#285,.F.);
#679=EDGE_LOOP('',(#675,#676,#677,#678));
#680=FACE_BOUND('',#679,.T.);
#681=ADVANCED_FACE('NONE',(#680),#669,.F.);
#682=CARTESIAN_POINT('',(797.02136093,-155.729122671,95.322174843));
#683=DIRECTION('',(0.,1.,0.));
#684=DIRECTION('',(0.,-0.,1.));
#685=AXIS2_PLACEMENT_3D('',#682,#683,#684);
#686=CYLINDRICAL_SURFACE('',#685,2.5);
#687=CARTESIAN_POINT('',(797.02136093,-142.729122671,97.822174843));
#688=DIRECTION('',(-0.,-1.,-0.));
#689=VECTOR('',#688,5.);
#690=LINE('',#687,#689);
#691=EDGE_CURVE('',#149,#329,#690,.T.);
#692=ORIENTED_EDGE('',*,*,#691,.F.);
#693=ORIENTED_EDGE('',*,*,#157,.T.);
#694=ORIENTED_EDGE('',*,*,#164,.T.);
#695=ORIENTED_EDGE('',*,*,#691,.T.);
#696=ORIENTED_EDGE('',*,*,#335,.F.);
#697=EDGE_LOOP('',(#692,#693,#694,#695,#696));
#698=FACE_BOUND('',#697,.T.);
#699=ADVANCED_FACE('',(#698),#686,.F.);
#700=CARTESIAN_POINT('',(772.92136093,-155.729122671,119.222174843));
#701=DIRECTION('',(0.,1.,0.));
#702=DIRECTION('',(0.,-0.,1.));
#703=AXIS2_PLACEMENT_3D('',#700,#701,#702);
#704=CYLINDRICAL_SURFACE('',#703,2.5);
#705=CARTESIAN_POINT('',(772.92136093,-142.729122671,121.722174843));
#706=DIRECTION('',(-0.,-1.,-0.));
#707=VECTOR('',#706,5.);
#708=LINE('',#705,#707);
#709=EDGE_CURVE('',#129,#318,#708,.T.);
#710=ORIENTED_EDGE('',*,*,#709,.F.);
#711=ORIENTED_EDGE('',*,*,#137,.T.);
#712=ORIENTED_EDGE('',*,*,#144,.T.);
#713=ORIENTED_EDGE('',*,*,#709,.T.);
#714=ORIENTED_EDGE('',*,*,#324,.F.);
#715=EDGE_LOOP('',(#710,#711,#712,#713,#714));
#716=FACE_BOUND('',#715,.T.);
#717=ADVANCED_FACE('',(#716),#704,.F.);
#718=CARTESIAN_POINT('',(796.82136093,-155.729122671,143.322174843));
#719=DIRECTION('',(0.,1.,0.));
#720=DIRECTION('',(0.,-0.,1.));
#721=AXIS2_PLACEMENT_3D('',#718,#719,#720);
#722=CYLINDRICAL_SURFACE('',#721,2.5);
#723=CARTESIAN_POINT('',(796.82136093,-142.729122671,145.822174843));
#724=DIRECTION('',(-0.,-1.,-0.));
#725=VECTOR('',#724,5.);
#726=LINE('',#723,#725);
#727=EDGE_CURVE('',#109,#307,#726,.T.);
#728=ORIENTED_EDGE('',*,*,#727,.F.);
#729=ORIENTED_EDGE('',*,*,#117,.T.);
#730=ORIENTED_EDGE('',*,*,#124,.T.);
#731=ORIENTED_EDGE('',*,*,#727,.T.);
#732=ORIENTED_EDGE('',*,*,#313,.F.);
#733=EDGE_LOOP('',(#728,#729,#730,#731,#732));
#734=FACE_BOUND('',#733,.T.);
#735=ADVANCED_FACE('',(#734),#722,.F.);
#736=CARTESIAN_POINT('',(821.92136093,-170.729122671,119.322174843));
#737=DIRECTION('',(0.,1.,0.));
#738=DIRECTION('',(0.,-0.,1.));
#739=AXIS2_PLACEMENT_3D('',#736,#737,#738);
#740=CYLINDRICAL_SURFACE('',#739,2.5);
#741=CARTESIAN_POINT('',(821.92136093,-142.729122671,121.822174843));
#742=DIRECTION('',(-0.,-1.,-0.));
#743=VECTOR('',#742,5.);
#744=LINE('',#741,#743);
#745=EDGE_CURVE('',#89,#296,#744,.T.);
#746=ORIENTED_EDGE('',*,*,#745,.F.);
#747=ORIENTED_EDGE('',*,*,#97,.T.);
#748=ORIENTED_EDGE('',*,*,#104,.T.);
#749=ORIENTED_EDGE('',*,*,#745,.T.);
#750=ORIENTED_EDGE('',*,*,#302,.F.);
#751=EDGE_LOOP('',(#746,#747,#748,#749,#750));
#752=FACE_BOUND('',#751,.T.);
#753=ADVANCED_FACE('',(#752),#740,.F.);
#754=CLOSED_SHELL('',(#289,#460,#482,#499,#516,#533,#550,#567,#584,#596,#613,#630,#647,#664,#681,#699,#717,#735,#753));
#755=MANIFOLD_SOLID_BREP('Cut-Extrude1 (1)',#754);
#756=COLOUR_RGB('',1.,0.807843149,0.498039216);
#757=FILL_AREA_STYLE_COLOUR('',#756);
#758=FILL_AREA_STYLE('',(#757));
#759=SURFACE_STYLE_FILL_AREA(#758);
#760=SURFACE_SIDE_STYLE('',(#759));
#761=SURFACE_STYLE_USAGE(.BOTH.,#760);
#762=PRESENTATION_STYLE_ASSIGNMENT((#761));
#82=STYLED_ITEM('',(#762),#755);
#63=SHAPE_REPRESENTATION('\X2\01101EBE\X0\ NH\S\TM \X2\0110\X0\INH H\S\LNH',(#15),#61);
#64=ADVANCED_BREP_SHAPE_REPRESENTATION('\X2\01101EBE\X0\ NH\S\TM \X2\0110\X0\INH H\S\LNH',(#755),#61);
#770=SHAPE_REPRESENTATION_RELATIONSHIP('','',#63,#64);
#771=CARTESIAN_POINT('',(0.,0.,0.));
#772=DIRECTION('',(0.,0.,1.));
#773=DIRECTION('',(1.,0.,0.));
#774=AXIS2_PLACEMENT_3D('',#771,#772,#773);
#776=MAPPED_ITEM('',#775,#774);
#775=REPRESENTATION_MAP(#774,#63);
#777=APPLICATION_CONTEXT('Managed model based 3d engineering');
#778=APPLICATION_PROTOCOL_DEFINITION('international standard','ap242_managed_model_based_3d_engineering',2014,#777);
#779=PRODUCT_CONTEXT('',#777,'mechanical');
#780=PRODUCT_DEFINITION_CONTEXT('part definition',#777,'design');
#71=PRODUCT('\X2\01101EBE\X0\ NH\S\TM \X2\0110\X0\INH H\S\LNH','\X2\01101EBE\X0\ NH\S\TM \X2\0110\X0\INH H\S\LNH','',(#779));
#781=PRODUCT_RELATED_PRODUCT_CATEGORY('part','',(#71));
#782=PRODUCT_DEFINITION_FORMATION_WITH_SPECIFIED_SOURCE('','',#71,.NOT_KNOWN.);
#72=PRODUCT_DEFINITION('design','',#782,#780);
#70=PRODUCT_DEFINITION_SHAPE('','',#72);
#783=SHAPE_DEFINITION_REPRESENTATION(#70,#63);
#62=DRAUGHTING_MODEL('',(#776),#61);
#35=SHAPE_REPRESENTATION('DEMO_T9_6.7.STEP',(#15,#76),#33);
#784=CARTESIAN_POINT('',(0.,0.,0.));
#785=DIRECTION('',(0.,0.,1.));
#786=DIRECTION('',(1.,0.,0.));
#787=AXIS2_PLACEMENT_3D('',#784,#785,#786);
#789=MAPPED_ITEM('',#788,#787);
#788=REPRESENTATION_MAP(#787,#35);
#43=PRODUCT('DEMO_T9_6.7.STEP','DEMO_T9_6.7.STEP','',(#779));
#790=PRODUCT_RELATED_PRODUCT_CATEGORY('part','',(#43));
#791=PRODUCT_DEFINITION_FORMATION_WITH_SPECIFIED_SOURCE('','',#43,.NOT_KNOWN.);
#44=PRODUCT_DEFINITION('design','',#791,#780);
#42=PRODUCT_DEFINITION_SHAPE('','',#44);
#792=SHAPE_DEFINITION_REPRESENTATION(#42,#35);
#34=DRAUGHTING_MODEL('',(#789),#33);
#16=SHAPE_REPRESENTATION('root',(#15,#48),#10);
#793=CARTESIAN_POINT('',(0.,0.,0.));
#794=DIRECTION('',(0.,0.,1.));
#795=DIRECTION('',(1.,0.,0.));
#796=AXIS2_PLACEMENT_3D('',#793,#794,#795);
#798=MAPPED_ITEM('',#797,#796);
#797=REPRESENTATION_MAP(#796,#16);
#24=PRODUCT('root','root','',(#779));
#799=PRODUCT_RELATED_PRODUCT_CATEGORY('part','',(#24));
#800=PRODUCT_DEFINITION_FORMATION_WITH_SPECIFIED_SOURCE('','',#24,.NOT_KNOWN.);
#25=PRODUCT_DEFINITION('design','',#800,#780);
#23=PRODUCT_DEFINITION_SHAPE('','',#25);
#801=SHAPE_DEFINITION_REPRESENTATION(#23,#16);
#11=DRAUGHTING_MODEL('',(#798),#10);
#802=DESCRIPTIVE_REPRESENTATION_ITEM('KEY','C:\\Users\\TranHuyBao\\AppData\\Local\\Packages\\Shapr3D.Shapr3D_dvv5p1vgwv6mp\\TempState\\15765612-df06-4099-97ce-8ba3c1790fbe.tmp');
#803=PROPERTY_DEFINITION('KEY','',#25);
#804=REPRESENTATION('',(#802),#10);
#805=PROPERTY_DEFINITION_REPRESENTATION(#803,#804);
#806=GENERAL_PROPERTY('','KEY','');
#807=GENERAL_PROPERTY_ASSOCIATION('','',#806,#803);
#1=MECHANICAL_DESIGN_GEOMETRIC_PRESENTATION_REPRESENTATION('',(#82),#10);
ENDSEC;
END-ISO-10303-21;
